ply
format ascii 1.0
comment Created by Blender 2.73 (sub 0) - www.blender.org, source file: ''
element vertex 462
property float x
property float y
property float z
property float nx
property float ny
property float nz
element face 227
property list uchar uint vertex_indices
end_header
-0.046443 0.390791 0.415950 -0.000000 -0.000000 -1.000000
-0.119237 0.689123 0.415950 -0.000000 -0.000000 -1.000000
0.033966 0.590925 0.415950 -0.000000 -0.000000 -1.000000
0.389918 0.766714 0.415950 0.000000 -0.000000 -1.000000
0.345597 0.590058 0.415950 -0.000000 0.000000 -1.000000
0.042557 0.486791 0.415950 -0.000000 0.000000 -1.000000
0.299118 0.100422 0.415950 0.000000 0.000000 -1.000000
0.278178 0.082297 0.415950 0.000000 0.000000 -1.000000
0.173113 0.209124 0.415950 0.000000 0.000000 -1.000000
-0.010230 0.397653 0.415950 -0.000000 0.000000 -1.000000
0.129307 0.376916 0.415950 -0.000000 0.000000 -1.000000
0.197438 0.486367 0.415950 -0.000000 0.000000 -1.000000
0.148229 0.363872 0.415950 -0.000000 0.000000 -1.000000
0.023344 0.400443 0.415950 -0.000000 0.000000 -1.000000
0.056315 0.400173 0.415950 -0.000000 0.000000 -1.000000
0.105167 0.494510 0.415950 -0.000000 0.000000 -1.000000
0.082187 0.395013 0.415950 -0.000000 0.000000 -1.000000
0.026562 0.149203 0.415950 0.000000 0.000000 -1.000000
-0.000324 0.037680 0.415950 0.000000 0.000000 -1.000000
-0.015668 0.044293 0.415950 0.000000 0.000000 -1.000000
0.107261 0.387396 0.415950 -0.000000 0.000000 -1.000000
0.274968 0.440307 0.415950 0.000000 0.000000 -1.000000
0.176307 0.331306 0.415950 0.000000 0.000000 -1.000000
0.163928 0.348568 0.415950 0.000000 0.000000 -1.000000
0.051557 0.147791 0.415950 0.000000 0.000000 -1.000000
0.041390 0.029363 0.415950 0.000000 0.000000 -1.000000
0.039058 0.148144 0.415950 0.000000 0.000000 -1.000000
0.167957 0.496550 0.415950 -0.000000 0.000000 -1.000000
0.185270 0.312388 0.415950 -0.000000 0.000000 -1.000000
0.295696 0.420188 0.415950 -0.000000 0.000000 -1.000000
0.325282 0.391475 0.415950 -0.000000 0.000000 -1.000000
0.250721 0.458601 0.415950 -0.000000 0.000000 -1.000000
-0.070118 0.082088 0.415950 -0.000000 0.000000 -1.000000
-0.023137 0.160818 0.415950 -0.000000 0.000000 -1.000000
-0.010870 0.156572 0.415950 -0.000000 0.000000 -1.000000
0.014071 0.150962 0.415950 0.000000 0.000000 -1.000000
-0.029986 0.051872 0.415950 0.000000 0.000000 -1.000000
-0.046443 0.390791 0.564476 0.000000 0.000000 1.000000
0.033966 0.590925 0.564476 0.000000 0.000000 1.000000
-0.119237 0.689123 0.564476 0.000000 0.000000 1.000000
0.313800 0.123499 0.415950 -0.000000 -0.000000 -1.000000
0.325429 0.150356 0.415950 -0.000000 -0.000000 -1.000000
0.224593 0.474776 0.415950 -0.000000 0.000000 -1.000000
0.348533 0.320374 0.415950 0.000000 -0.000000 -1.000000
0.190719 0.292115 0.415950 0.000000 -0.000000 -1.000000
0.339285 0.358135 0.415950 0.000000 -0.000000 -1.000000
0.351425 0.275533 0.415950 -0.000000 0.000000 -1.000000
0.192557 0.270791 0.415950 -0.000000 -0.000000 -1.000000
0.344782 0.230266 0.415950 -0.000000 0.000000 -1.000000
0.191254 0.254296 0.415950 -0.000000 0.000000 -1.000000
0.187460 0.238416 0.415950 -0.000000 0.000000 -1.000000
0.334717 0.184740 0.415950 0.000000 0.000000 -1.000000
0.181354 0.223306 0.415950 -0.000000 0.000000 -1.000000
0.150932 0.184166 0.415950 0.000000 0.000000 -1.000000
0.218199 0.053265 0.415950 0.000000 0.000000 -1.000000
0.137347 0.173702 0.415950 0.000000 0.000000 -1.000000
-0.096828 0.108178 0.415950 -0.000000 0.000000 -1.000000
-0.091044 0.212011 0.415950 -0.000000 0.000000 -1.000000
-0.079203 0.203139 0.415950 -0.000000 0.000000 -1.000000
0.001581 0.153417 0.415950 0.000000 -0.000000 -1.000000
-0.067949 0.193581 0.415950 -0.000000 0.000000 -1.000000
-0.042963 0.060081 0.415950 0.000000 -0.000000 -1.000000
-0.056969 0.184026 0.415950 -0.000000 0.000000 -1.000000
-0.046000 0.174978 0.415950 -0.000000 0.000000 -1.000000
-0.086174 0.101115 0.415950 -0.000000 0.000000 -1.000000
0.122335 0.164791 0.415950 0.000000 0.000000 -1.000000
0.130329 0.030797 0.415950 0.000000 0.000000 -1.000000
0.106073 0.157587 0.415950 0.000000 0.000000 -1.000000
0.162913 0.196025 0.415950 0.000000 0.000000 -1.000000
0.198843 0.044896 0.415950 -0.000000 0.000000 -1.000000
0.088738 0.152249 0.415950 0.000000 0.000000 -1.000000
0.018310 0.032380 0.415950 0.000000 -0.000000 -1.000000
-0.077180 0.090749 0.415950 -0.000000 0.000000 -1.000000
0.070507 0.148931 0.415950 0.000000 0.000000 -1.000000
0.069233 0.028849 0.415950 0.000000 0.000000 -1.000000
-0.053960 0.066967 0.415950 0.000000 0.000000 -1.000000
-0.034796 0.167053 0.415950 -0.000000 0.000000 -1.000000
0.247522 0.068042 0.415950 0.000000 0.000000 -1.000000
-0.062790 0.074082 0.415950 0.000000 0.000000 -1.000000
0.172857 0.036515 0.415950 0.000000 0.000000 -1.000000
0.389918 0.766714 0.564476 -0.000000 0.000000 1.000000
0.345597 0.590058 0.564476 0.000000 0.000000 1.000000
0.042557 0.486791 0.564476 0.000000 0.000000 1.000000
0.299118 0.100422 0.564476 -0.000000 -0.000000 1.000000
0.173113 0.209124 0.564476 -0.000000 -0.000000 1.000000
0.278178 0.082297 0.564476 -0.000000 -0.000000 1.000000
-0.010230 0.397653 0.564476 0.000000 0.000000 1.000000
0.129307 0.376916 0.564476 0.000000 0.000000 1.000000
0.148229 0.363872 0.564476 0.000000 0.000000 1.000000
0.197438 0.486367 0.564476 0.000000 0.000000 1.000000
0.023344 0.400443 0.564476 0.000000 0.000000 1.000000
0.056315 0.400173 0.564476 0.000000 0.000000 1.000000
0.082187 0.395013 0.564476 0.000000 0.000000 1.000000
0.105167 0.494510 0.564476 0.000000 0.000000 1.000000
0.026562 0.149203 0.564476 0.000000 -0.000000 1.000000
-0.015668 0.044293 0.564476 0.000000 -0.000000 1.000000
-0.000324 0.037680 0.564476 0.000000 -0.000000 1.000000
0.107261 0.387396 0.564476 0.000000 0.000000 1.000000
0.274968 0.440307 0.564476 0.000000 -0.000000 1.000000
0.163928 0.348568 0.564476 0.000000 -0.000000 1.000000
0.176307 0.331306 0.564476 0.000000 -0.000000 1.000000
0.051557 0.147791 0.564476 -0.000000 -0.000000 1.000000
0.039058 0.148144 0.564476 -0.000000 -0.000000 1.000000
0.041390 0.029363 0.564476 -0.000000 -0.000000 1.000000
0.167957 0.496550 0.564476 0.000000 0.000000 1.000000
0.185270 0.312388 0.564476 0.000000 0.000000 1.000000
0.325282 0.391475 0.564476 0.000000 0.000000 1.000000
0.295696 0.420188 0.564476 0.000000 0.000000 1.000000
0.250721 0.458601 0.564476 0.000000 0.000000 1.000000
-0.070118 0.082088 0.564476 0.000000 0.000000 1.000000
-0.010870 0.156572 0.564476 0.000000 0.000000 1.000000
-0.023137 0.160818 0.564476 0.000000 0.000000 1.000000
0.014071 0.150962 0.564476 0.000000 -0.000000 1.000000
-0.029986 0.051872 0.564476 0.000000 -0.000000 1.000000
0.313800 0.123499 0.564476 0.000000 0.000000 1.000000
0.325429 0.150356 0.564476 0.000000 0.000000 1.000000
0.224593 0.474776 0.564476 0.000000 0.000000 1.000000
0.348533 0.320374 0.564476 -0.000000 0.000000 1.000000
0.339285 0.358135 0.564476 -0.000000 0.000000 1.000000
0.190719 0.292115 0.564476 -0.000000 0.000000 1.000000
0.351425 0.275533 0.564476 0.000000 0.000000 1.000000
0.192557 0.270791 0.564476 0.000000 0.000000 1.000000
0.344782 0.230266 0.564476 0.000000 0.000000 1.000000
0.191254 0.254296 0.564476 0.000000 0.000000 1.000000
0.187460 0.238416 0.564476 0.000000 0.000000 1.000000
0.334717 0.184740 0.564476 0.000000 0.000000 1.000000
0.181354 0.223306 0.564476 0.000000 0.000000 1.000000
0.150932 0.184166 0.564476 0.000000 -0.000000 1.000000
0.137347 0.173702 0.564476 0.000000 -0.000000 1.000000
0.218199 0.053265 0.564476 0.000000 -0.000000 1.000000
-0.096828 0.108178 0.564476 0.000000 0.000000 1.000000
-0.079203 0.203139 0.564476 0.000000 0.000000 1.000000
-0.091044 0.212011 0.564476 0.000000 0.000000 1.000000
0.001581 0.153417 0.564476 -0.000000 0.000000 1.000000
-0.067949 0.193581 0.564476 0.000000 0.000000 1.000000
-0.042963 0.060081 0.564476 -0.000000 0.000000 1.000000
-0.056969 0.184026 0.564476 0.000000 0.000000 1.000000
-0.046000 0.174978 0.564476 0.000000 0.000000 1.000000
-0.086174 0.101115 0.564476 0.000000 0.000000 1.000000
0.122335 0.164791 0.564476 0.000000 -0.000000 1.000000
0.106073 0.157587 0.564476 0.000000 -0.000000 1.000000
0.130329 0.030797 0.564476 0.000000 -0.000000 1.000000
0.162913 0.196025 0.564476 0.000000 -0.000000 1.000000
0.198843 0.044896 0.564476 0.000000 0.000000 1.000000
0.088738 0.152249 0.564476 0.000000 -0.000000 1.000000
0.018310 0.032380 0.564476 -0.000000 0.000000 1.000000
-0.077180 0.090749 0.564476 0.000000 0.000000 1.000000
0.070507 0.148931 0.564476 0.000000 -0.000000 1.000000
0.069233 0.028849 0.564476 0.000000 -0.000000 1.000000
-0.053960 0.066967 0.564476 0.000000 -0.000000 1.000000
-0.034796 0.167053 0.564476 0.000000 0.000000 1.000000
0.247522 0.068042 0.564476 -0.000000 -0.000000 1.000000
-0.062790 0.074082 0.564476 0.000000 -0.000000 1.000000
0.172857 0.036515 0.564476 -0.000000 -0.000000 1.000000
-0.010230 0.397653 0.415950 0.082812 -0.996565 0.000000
0.023344 0.400443 0.415950 0.082812 -0.996565 0.000000
0.023344 0.400443 0.564476 0.082812 -0.996565 0.000000
-0.010230 0.397653 0.564476 0.082812 -0.996565 0.000000
0.088738 0.152249 0.415950 -0.179042 0.983841 0.000000
0.070507 0.148931 0.415950 -0.179042 0.983841 0.000000
0.070507 0.148931 0.564476 -0.179042 0.983841 0.000000
0.088738 0.152249 0.564476 -0.179042 0.983841 0.000000
0.192557 0.270791 0.415950 -0.996891 0.078799 0.000000
0.191254 0.254296 0.415950 -0.996891 0.078799 0.000000
0.191254 0.254296 0.564476 -0.996891 0.078799 0.000000
0.192557 0.270791 0.564476 -0.996891 0.078799 0.000000
-0.015668 0.044293 0.415950 -0.395803 -0.918336 0.000000
-0.000324 0.037680 0.415950 -0.395803 -0.918336 0.000000
-0.000324 0.037680 0.564476 -0.395803 -0.918336 0.000000
-0.015668 0.044293 0.564476 -0.395803 -0.918336 0.000000
0.056315 0.400173 0.415950 -0.195618 -0.980680 0.000000
0.082187 0.395013 0.415950 -0.195618 -0.980680 0.000000
0.082187 0.395013 0.564476 -0.195618 -0.980680 0.000000
0.056315 0.400173 0.564476 -0.195618 -0.980680 0.000000
0.023344 0.400443 0.415950 -0.008186 -0.999966 0.000000
0.056315 0.400173 0.415950 -0.008186 -0.999966 0.000000
0.056315 0.400173 0.564476 -0.008186 -0.999966 0.000000
0.023344 0.400443 0.564476 -0.008186 -0.999966 0.000000
0.107261 0.387396 0.415950 -0.429355 -0.903136 0.000000
0.129307 0.376916 0.415950 -0.429355 -0.903136 0.000000
0.129307 0.376916 0.564476 -0.429355 -0.903136 0.000000
0.107261 0.387396 0.564476 -0.429355 -0.903136 0.000000
0.218199 0.053265 0.415950 0.450017 -0.893020 0.000000
0.247522 0.068042 0.415950 0.450017 -0.893020 0.000000
0.247522 0.068042 0.564476 0.450017 -0.893020 0.000000
0.218199 0.053265 0.564476 0.450017 -0.893020 0.000000
0.190719 0.292115 0.415950 -0.996306 -0.085876 0.000000
0.192557 0.270791 0.415950 -0.996306 -0.085876 0.000000
0.192557 0.270791 0.564476 -0.996306 -0.085876 0.000000
0.190719 0.292115 0.564476 -0.996306 -0.085876 0.000000
0.026562 0.149203 0.415950 0.139481 0.990225 0.000000
0.014071 0.150962 0.415950 0.139481 0.990225 0.000000
0.014071 0.150962 0.564476 0.139481 0.990225 0.000000
0.026562 0.149203 0.564476 0.139481 0.990225 0.000000
-0.046000 0.174978 0.415950 0.636342 0.771407 0.000000
-0.056969 0.184026 0.415950 0.636342 0.771407 0.000000
-0.056969 0.184026 0.564476 0.636342 0.771407 0.000000
-0.046000 0.174978 0.564476 0.636342 0.771407 0.000000
0.198843 0.044896 0.415950 0.396880 -0.917871 0.000000
0.218199 0.053265 0.415950 0.396880 -0.917871 0.000000
0.218199 0.053265 0.564476 0.396880 -0.917871 0.000000
0.198843 0.044896 0.564476 0.396880 -0.917871 0.000000
0.274968 0.440307 0.415950 0.602281 0.798284 0.000000
0.250721 0.458601 0.415950 0.602281 0.798284 0.000000
0.250721 0.458601 0.564476 0.602281 0.798284 0.000000
0.274968 0.440307 0.564476 0.602281 0.798284 0.000000
0.172857 0.036515 0.415950 0.306949 -0.951726 0.000000
0.198843 0.044896 0.415950 0.306949 -0.951726 0.000000
0.198843 0.044896 0.564476 0.306949 -0.951726 0.000000
0.172857 0.036515 0.564476 0.306949 -0.951726 0.000000
-0.056969 0.184026 0.415950 0.656428 0.754389 0.000000
-0.067949 0.193581 0.415950 0.656428 0.754389 0.000000
-0.067949 0.193581 0.564476 0.656428 0.754389 0.000000
-0.056969 0.184026 0.564476 0.656428 0.754389 0.000000
0.344782 0.230266 0.415950 0.989401 -0.145210 0.000000
0.351425 0.275533 0.415950 0.989401 -0.145210 0.000000
0.351425 0.275533 0.564476 0.989401 -0.145210 0.000000
0.344782 0.230266 0.564476 0.989401 -0.145210 0.000000
0.167957 0.496550 0.415950 -0.032463 0.999473 0.000000
0.105167 0.494510 0.415950 -0.032463 0.999473 0.000000
0.105167 0.494510 0.564476 -0.032463 0.999473 0.000000
0.167957 0.496550 0.564476 -0.032463 0.999473 0.000000
0.148229 0.363872 0.415950 -0.698036 -0.716063 0.000000
0.163928 0.348568 0.415950 -0.698036 -0.716063 0.000000
0.163928 0.348568 0.564476 -0.698036 -0.716063 0.000000
0.148229 0.363872 0.564476 -0.698036 -0.716063 0.000000
0.137347 0.173702 0.415950 -0.510454 0.859905 0.000000
0.122335 0.164791 0.415950 -0.510454 0.859905 0.000000
0.122335 0.164791 0.564476 -0.510454 0.859905 0.000000
0.137347 0.173702 0.564476 -0.510454 0.859905 0.000000
-0.096828 0.108178 0.415950 -0.552540 -0.833486 0.000000
-0.086174 0.101115 0.415950 -0.552540 -0.833486 0.000000
-0.086174 0.101115 0.564476 -0.552540 -0.833486 0.000000
-0.096828 0.108178 0.564476 -0.552540 -0.833486 0.000000
-0.062790 0.074082 0.415950 -0.627456 -0.778652 0.000000
-0.053960 0.066967 0.415950 -0.627456 -0.778652 0.000000
-0.053960 0.066967 0.564476 -0.627456 -0.778652 0.000000
-0.062790 0.074082 0.564476 -0.627456 -0.778652 0.000000
-0.053960 0.066967 0.415950 -0.530719 -0.847548 0.000000
-0.042963 0.060081 0.415950 -0.530719 -0.847548 0.000000
-0.042963 0.060081 0.564476 -0.530719 -0.847548 0.000000
-0.053960 0.066967 0.564476 -0.530719 -0.847548 0.000000
0.018310 0.032380 0.415950 -0.129636 -0.991562 0.000000
0.041390 0.029363 0.415950 -0.129636 -0.991562 0.000000
0.041390 0.029363 0.564476 -0.129636 -0.991562 0.000000
0.018310 0.032380 0.564476 -0.129636 -0.991562 0.000000
0.163928 0.348568 0.415950 -0.812630 -0.582780 0.000000
0.176307 0.331306 0.415950 -0.812630 -0.582780 0.000000
0.176307 0.331306 0.564476 -0.812630 -0.582780 0.000000
0.163928 0.348568 0.564476 -0.812630 -0.582780 0.000000
-0.042963 0.060081 0.415950 -0.534587 -0.845113 0.000000
-0.029986 0.051872 0.415950 -0.534587 -0.845113 0.000000
-0.029986 0.051872 0.564476 -0.534587 -0.845113 0.000000
-0.042963 0.060081 0.564476 -0.534587 -0.845113 0.000000
0.130329 0.030797 0.415950 0.133249 -0.991083 0.000000
0.172857 0.036515 0.415950 0.133249 -0.991083 0.000000
0.172857 0.036515 0.564476 0.133249 -0.991083 0.000000
0.130329 0.030797 0.564476 0.133249 -0.991083 0.000000
-0.010870 0.156572 0.415950 0.327087 0.944994 0.000000
-0.023137 0.160818 0.415950 0.327087 0.944994 0.000000
-0.023137 0.160818 0.564476 0.327087 0.944994 0.000000
-0.010870 0.156572 0.564476 0.327087 0.944994 0.000000
-0.079203 0.203139 0.415950 0.599608 0.800294 0.000000
-0.091044 0.212011 0.415950 0.599608 0.800294 0.000000
-0.091044 0.212011 0.564476 0.599608 0.800294 0.000000
-0.079203 0.203139 0.564476 0.599608 0.800294 0.000000
-0.067949 0.193581 0.415950 0.647349 0.762194 0.000000
-0.079203 0.203139 0.415950 0.647349 0.762194 0.000000
-0.079203 0.203139 0.564476 0.647349 0.762194 0.000000
-0.067949 0.193581 0.564476 0.647349 0.762194 0.000000
0.039058 0.148144 0.415950 0.084402 0.996432 0.000000
0.026562 0.149203 0.415950 0.084402 0.996432 0.000000
0.026562 0.149203 0.564476 0.084402 0.996432 0.000000
0.039058 0.148144 0.564476 0.084402 0.996432 0.000000
0.150932 0.184166 0.415950 -0.610205 0.792244 0.000000
0.137347 0.173702 0.415950 -0.610205 0.792244 0.000000
0.137347 0.173702 0.564476 -0.610205 0.792244 0.000000
0.150932 0.184166 0.564476 -0.610205 0.792244 0.000000
0.082187 0.395013 0.415950 -0.290640 -0.956832 0.000000
0.107261 0.387396 0.415950 -0.290640 -0.956832 0.000000
0.107261 0.387396 0.564476 -0.290640 -0.956832 0.000000
0.082187 0.395013 0.564476 -0.290640 -0.956832 0.000000
0.181354 0.223306 0.415950 -0.864618 0.502429 0.000000
0.173113 0.209124 0.415950 -0.864618 0.502429 0.000000
0.173113 0.209124 0.564476 -0.864618 0.502429 0.000000
0.181354 0.223306 0.564476 -0.864618 0.502429 0.000000
0.001581 0.153417 0.415950 0.245618 0.969367 0.000000
-0.010870 0.156572 0.415950 0.245618 0.969367 0.000000
-0.010870 0.156572 0.564476 0.245618 0.969367 0.000000
0.001581 0.153417 0.564476 0.245618 0.969367 0.000000
0.185270 0.312388 0.415950 -0.965723 -0.259576 0.000000
0.190719 0.292115 0.415950 -0.965723 -0.259576 0.000000
0.190719 0.292115 0.564476 -0.965723 -0.259576 0.000000
0.185270 0.312388 0.564476 -0.965723 -0.259576 0.000000
-0.023137 0.160818 0.415950 0.471535 0.881847 0.000000
-0.034796 0.167053 0.415950 0.471535 0.881847 0.000000
-0.034796 0.167053 0.564476 0.471535 0.881847 0.000000
-0.023137 0.160818 0.564476 0.471535 0.881847 0.000000
0.313800 0.123499 0.415950 0.917666 -0.397352 0.000000
0.325429 0.150356 0.415950 0.917666 -0.397352 0.000000
0.325429 0.150356 0.564476 0.917666 -0.397352 0.000000
0.313800 0.123499 0.564476 0.917666 -0.397352 0.000000
0.325429 0.150356 0.415950 0.965396 -0.260790 0.000000
0.334717 0.184740 0.415950 0.965396 -0.260790 0.000000
0.334717 0.184740 0.564476 0.965396 -0.260790 0.000000
0.325429 0.150356 0.564476 0.965396 -0.260790 0.000000
0.348533 0.320374 0.415950 0.971293 0.237885 0.000000
0.339285 0.358135 0.415950 0.971293 0.237885 0.000000
0.339285 0.358135 0.564476 0.971293 0.237885 0.000000
0.348533 0.320374 0.564476 0.971293 0.237885 0.000000
0.069233 0.028849 0.415950 0.031865 -0.999492 0.000000
0.130329 0.030797 0.415950 0.031865 -0.999492 0.000000
0.130329 0.030797 0.564476 0.031865 -0.999492 0.000000
0.069233 0.028849 0.564476 0.031865 -0.999492 0.000000
-0.119237 0.689123 0.415950 -0.971497 -0.237051 0.000000
-0.046443 0.390791 0.415950 -0.971497 -0.237051 0.000000
-0.046443 0.390791 0.564476 -0.971497 -0.237051 0.000000
-0.119237 0.689123 0.564476 -0.971497 -0.237051 0.000000
0.299118 0.100422 0.415950 0.843730 -0.536768 0.000000
0.313800 0.123499 0.415950 0.843730 -0.536768 0.000000
0.313800 0.123499 0.564476 0.843730 -0.536768 0.000000
0.299118 0.100422 0.564476 0.843730 -0.536768 0.000000
0.187460 0.238416 0.415950 -0.927156 0.374676 0.000000
0.181354 0.223306 0.415950 -0.927156 0.374676 0.000000
0.181354 0.223306 0.564476 -0.927156 0.374676 0.000000
0.187460 0.238416 0.564476 -0.927156 0.374676 0.000000
0.191254 0.254296 0.415950 -0.972635 0.232338 0.000000
0.187460 0.238416 0.415950 -0.972635 0.232338 0.000000
0.187460 0.238416 0.564476 -0.972635 0.232338 0.000000
0.191254 0.254296 0.564476 -0.972635 0.232338 0.000000
0.042557 0.486791 0.415950 0.996614 0.082219 0.000000
0.033966 0.590925 0.415950 0.996614 0.082219 0.000000
0.033966 0.590925 0.564476 0.996614 0.082219 0.000000
0.042557 0.486791 0.564476 0.996614 0.082219 0.000000
0.247522 0.068042 0.415950 0.421649 -0.906759 0.000000
0.278178 0.082297 0.415950 0.421649 -0.906759 0.000000
0.278178 0.082297 0.564476 0.421649 -0.906759 0.000000
0.247522 0.068042 0.564476 0.421649 -0.906759 0.000000
0.014071 0.150962 0.415950 0.192899 0.981219 0.000000
0.001581 0.153417 0.415950 0.192899 0.981219 0.000000
0.001581 0.153417 0.564476 0.192899 0.981219 0.000000
0.014071 0.150962 0.564476 0.192899 0.981219 0.000000
0.176307 0.331306 0.415950 -0.903708 -0.428149 0.000000
0.185270 0.312388 0.415950 -0.903708 -0.428149 0.000000
0.185270 0.312388 0.564476 -0.903708 -0.428149 0.000000
0.176307 0.331306 0.564476 -0.903708 -0.428149 0.000000
-0.029986 0.051872 0.415950 -0.467822 -0.883823 0.000000
-0.015668 0.044293 0.415950 -0.467822 -0.883823 0.000000
-0.015668 0.044293 0.564476 -0.467822 -0.883823 0.000000
-0.029986 0.051872 0.564476 -0.467822 -0.883823 0.000000
0.339285 0.358135 0.415950 0.921980 0.387237 0.000000
0.325282 0.391475 0.415950 0.921980 0.387237 0.000000
0.325282 0.391475 0.564476 0.921980 0.387237 0.000000
0.339285 0.358135 0.564476 0.921980 0.387237 0.000000
-0.086174 0.101115 0.415950 -0.755327 -0.655348 0.000000
-0.077180 0.090749 0.415950 -0.755327 -0.655348 0.000000
-0.077180 0.090749 0.564476 -0.755327 -0.655348 0.000000
-0.086174 0.101115 0.564476 -0.755327 -0.655348 0.000000
0.106073 0.157587 0.415950 -0.294321 0.955707 0.000000
0.088738 0.152249 0.415950 -0.294321 0.955707 0.000000
0.088738 0.152249 0.564476 -0.294321 0.955707 0.000000
0.106073 0.157587 0.564476 -0.294321 0.955707 0.000000
0.389918 0.766714 0.415950 -0.150653 0.988587 0.000000
-0.119237 0.689123 0.415950 -0.150653 0.988587 0.000000
-0.119237 0.689123 0.564476 -0.150653 0.988587 0.000000
0.389918 0.766714 0.564476 -0.150653 0.988587 0.000000
0.351425 0.275533 0.415950 0.997927 0.064358 0.000000
0.348533 0.320374 0.415950 0.997927 0.064358 0.000000
0.348533 0.320374 0.564476 0.997927 0.064358 0.000000
0.351425 0.275533 0.564476 0.997927 0.064358 0.000000
-0.046443 0.390791 0.415950 0.186199 -0.982512 0.000000
-0.010230 0.397653 0.415950 0.186199 -0.982512 0.000000
-0.010230 0.397653 0.564476 0.186199 -0.982512 0.000000
-0.046443 0.390791 0.564476 0.186199 -0.982512 0.000000
0.033966 0.590925 0.415950 -0.002783 -0.999996 0.000000
0.345597 0.590058 0.415950 -0.002783 -0.999996 0.000000
0.345597 0.590058 0.564476 -0.002783 -0.999996 0.000000
0.033966 0.590925 0.564476 -0.002783 -0.999996 0.000000
0.173113 0.209124 0.415950 -0.789014 0.614375 0.000000
0.162913 0.196025 0.415950 -0.789014 0.614375 0.000000
0.162913 0.196025 0.564476 -0.789014 0.614375 0.000000
0.173113 0.209124 0.564476 -0.789014 0.614375 0.000000
-0.000324 0.037680 0.415950 -0.273576 -0.961850 0.000000
0.018310 0.032380 0.415950 -0.273576 -0.961850 0.000000
0.018310 0.032380 0.564476 -0.273576 -0.961850 0.000000
-0.000324 0.037680 0.564476 -0.273576 -0.961850 0.000000
0.278178 0.082297 0.415950 0.654450 -0.756105 0.000000
0.299118 0.100422 0.415950 0.654450 -0.756105 0.000000
0.299118 0.100422 0.564476 0.654450 -0.756105 0.000000
0.278178 0.082297 0.564476 0.654450 -0.756105 0.000000
-0.034796 0.167053 0.415950 0.577506 0.816386 0.000000
-0.046000 0.174978 0.415950 0.577506 0.816386 0.000000
-0.046000 0.174978 0.564476 0.577506 0.816386 0.000000
-0.034796 0.167053 0.564476 0.577506 0.816386 0.000000
-0.077180 0.090749 0.415950 -0.775008 -0.631952 0.000000
-0.070118 0.082088 0.415950 -0.775008 -0.631952 0.000000
-0.070118 0.082088 0.564476 -0.775008 -0.631952 0.000000
-0.077180 0.090749 0.564476 -0.775008 -0.631952 0.000000
0.224593 0.474776 0.415950 0.392561 0.919726 0.000000
0.197438 0.486367 0.415950 0.392561 0.919726 0.000000
0.197438 0.486367 0.564476 0.392561 0.919726 0.000000
0.224593 0.474776 0.564476 0.392561 0.919726 0.000000
0.162913 0.196025 0.415950 -0.703494 0.710701 0.000000
0.150932 0.184166 0.415950 -0.703494 0.710701 0.000000
0.150932 0.184166 0.564476 -0.703494 0.710701 0.000000
0.162913 0.196025 0.564476 -0.703494 0.710701 0.000000
0.345597 0.590058 0.415950 0.969939 -0.243348 0.000000
0.389918 0.766714 0.415950 0.969939 -0.243348 0.000000
0.389918 0.766714 0.564476 0.969939 -0.243348 0.000000
0.345597 0.590058 0.564476 0.969939 -0.243348 0.000000
0.051557 0.147791 0.415950 0.028276 0.999600 0.000000
0.039058 0.148144 0.415950 0.028276 0.999600 0.000000
0.039058 0.148144 0.564476 0.028276 0.999600 0.000000
0.051557 0.147791 0.564476 0.028276 0.999600 0.000000
0.197438 0.486367 0.415950 0.326482 0.945203 0.000000
0.167957 0.496550 0.415950 0.326482 0.945203 0.000000
0.167957 0.496550 0.564476 0.326482 0.945203 0.000000
0.197438 0.486367 0.564476 0.326482 0.945203 0.000000
0.295696 0.420188 0.415950 0.696487 0.717569 0.000000
0.274968 0.440307 0.415950 0.696487 0.717569 0.000000
0.274968 0.440307 0.564476 0.696487 0.717569 0.000000
0.295696 0.420188 0.564476 0.696487 0.717569 0.000000
-0.070118 0.082088 0.415950 -0.737643 -0.675191 0.000000
-0.062790 0.074082 0.415950 -0.737643 -0.675191 0.000000
-0.062790 0.074082 0.564476 -0.737643 -0.675191 0.000000
-0.070118 0.082088 0.564476 -0.737643 -0.675191 0.000000
0.129307 0.376916 0.415950 -0.567563 -0.823330 0.000000
0.148229 0.363872 0.415950 -0.567563 -0.823330 0.000000
0.148229 0.363872 0.564476 -0.567563 -0.823330 0.000000
0.129307 0.376916 0.564476 -0.567563 -0.823330 0.000000
0.070507 0.148931 0.415950 -0.060084 0.998193 0.000000
0.051557 0.147791 0.415950 -0.060084 0.998193 0.000000
0.051557 0.147791 0.564476 -0.060084 0.998193 0.000000
0.070507 0.148931 0.564476 -0.060084 0.998193 0.000000
0.105167 0.494510 0.415950 -0.122373 0.992484 0.000000
0.042557 0.486791 0.415950 -0.122373 0.992484 0.000000
0.042557 0.486791 0.564476 -0.122373 0.992484 0.000000
0.105167 0.494510 0.564476 -0.122373 0.992484 0.000000
0.250721 0.458601 0.415950 0.526376 0.850252 0.000000
0.224593 0.474776 0.415950 0.526376 0.850252 0.000000
0.224593 0.474776 0.564476 0.526376 0.850252 0.000000
0.250721 0.458601 0.564476 0.526376 0.850252 0.000000
-0.091044 0.212011 0.415950 -0.998452 0.055622 0.000000
-0.096828 0.108178 0.415950 -0.998452 0.055622 0.000000
-0.096828 0.108178 0.564476 -0.998452 0.055622 0.000000
-0.091044 0.212011 0.564476 -0.998452 0.055622 0.000000
0.334717 0.184740 0.415950 0.976424 -0.215860 0.000000
0.344782 0.230266 0.415950 0.976424 -0.215860 0.000000
0.344782 0.230266 0.564476 0.976424 -0.215860 0.000000
0.334717 0.184740 0.564476 0.976424 -0.215860 0.000000
0.041390 0.029363 0.415950 -0.018442 -0.999830 0.000000
0.069233 0.028849 0.415950 -0.018442 -0.999830 0.000000
0.069233 0.028849 0.564476 -0.018442 -0.999830 0.000000
0.041390 0.029363 0.564476 -0.018442 -0.999830 0.000000
0.325282 0.391475 0.415950 0.696446 0.717609 0.000000
0.295696 0.420188 0.415950 0.696446 0.717609 0.000000
0.295696 0.420188 0.564476 0.696446 0.717609 0.000000
0.325282 0.391475 0.564476 0.696446 0.717609 0.000000
0.122335 0.164791 0.415950 -0.404988 0.914322 0.000000
0.106073 0.157587 0.415950 -0.404988 0.914322 0.000000
0.106073 0.157587 0.564476 -0.404988 0.914322 0.000000
0.122335 0.164791 0.564476 -0.404988 0.914322 0.000000
3 0 1 2
3 2 1 3
3 2 3 4
3 0 2 5
3 6 7 8
3 0 5 9
3 10 11 12
3 9 5 13
3 14 15 16
3 13 5 14
3 17 18 19
3 16 15 20
3 21 22 23
3 24 25 26
3 20 27 10
3 28 29 30
3 23 31 21
3 12 31 23
3 32 33 34
3 35 19 36
3 29 22 21
3 37 38 39
3 22 29 28
3 40 8 41
3 12 42 31
3 43 44 45
3 44 43 46
3 47 44 46
3 47 46 48
3 49 47 48
3 50 49 48
3 50 48 51
3 52 50 51
3 8 52 41
3 53 54 55
3 45 44 28
3 56 57 58
3 35 36 59
3 56 58 60
3 10 27 11
3 59 61 34
3 56 60 62
3 56 62 63
3 40 6 8
3 56 63 64
3 59 36 61
3 65 66 67
3 8 7 68
3 65 55 69
3 67 66 70
3 26 71 17
3 64 33 72
3 72 33 32
3 17 19 35
3 17 71 18
3 73 74 24
3 34 61 75
3 69 55 54
3 64 76 33
3 7 77 68
3 77 54 53
3 68 77 53
3 34 75 78
3 12 11 42
3 28 30 45
3 26 25 71
3 34 78 32
3 69 79 65
3 41 52 51
3 70 74 73
3 79 66 65
3 64 63 76
3 14 5 15
3 20 15 27
3 66 74 70
3 74 25 24
3 38 80 39
3 38 81 80
3 37 82 38
3 83 84 85
3 37 86 82
3 87 88 89
3 86 90 82
3 91 92 93
3 90 91 82
3 94 95 96
3 92 97 93
3 98 99 100
3 101 102 103
3 97 87 104
3 105 106 107
3 99 98 108
3 88 99 108
3 109 110 111
3 112 113 95
3 107 98 100
3 100 105 107
3 114 115 84
3 88 108 116
3 117 118 119
3 119 120 117
3 121 120 119
3 121 122 120
3 123 122 121
3 124 122 123
3 124 125 122
3 126 125 124
3 84 115 126
3 127 128 129
3 118 105 119
3 130 131 132
3 112 133 113
3 130 134 131
3 87 89 104
3 133 110 135
3 130 136 134
3 130 137 136
3 114 84 83
3 130 138 137
3 133 135 113
3 139 140 141
3 84 142 85
3 139 143 128
3 140 144 141
3 102 94 145
3 138 146 111
3 146 109 111
3 94 112 95
3 94 96 145
3 147 101 148
3 110 149 135
3 143 129 128
3 138 111 150
3 85 142 151
3 151 127 129
3 142 127 151
3 110 152 149
3 88 116 89
3 105 118 106
3 102 145 103
3 110 109 152
3 143 139 153
3 115 125 126
3 144 147 148
3 153 139 141
3 138 150 137
3 91 93 82
3 97 104 93
3 141 144 148
3 148 101 103
4 154 155 156 157
4 158 159 160 161
4 162 163 164 165
4 166 167 168 169
4 170 171 172 173
4 174 175 176 177
4 178 179 180 181
4 182 183 184 185
4 186 187 188 189
4 190 191 192 193
4 194 195 196 197
4 198 199 200 201
4 202 203 204 205
4 206 207 208 209
4 210 211 212 213
4 214 215 216 217
4 218 219 220 221
4 222 223 224 225
4 226 227 228 229
4 230 231 232 233
4 234 235 236 237
4 238 239 240 241
4 242 243 244 245
4 246 247 248 249
4 250 251 252 253
4 254 255 256 257
4 258 259 260 261
4 262 263 264 265
4 266 267 268 269
4 270 271 272 273
4 274 275 276 277
4 278 279 280 281
4 282 283 284 285
4 286 287 288 289
4 290 291 292 293
4 294 295 296 297
4 298 299 300 301
4 302 303 304 305
4 306 307 308 309
4 310 311 312 313
4 314 315 316 317
4 318 319 320 321
4 322 323 324 325
4 326 327 328 329
4 330 331 332 333
4 334 335 336 337
4 338 339 340 341
4 342 343 344 345
4 346 347 348 349
4 350 351 352 353
4 354 355 356 357
4 358 359 360 361
4 362 363 364 365
4 366 367 368 369
4 370 371 372 373
4 374 375 376 377
4 378 379 380 381
4 382 383 384 385
4 386 387 388 389
4 390 391 392 393
4 394 395 396 397
4 398 399 400 401
4 402 403 404 405
4 406 407 408 409
4 410 411 412 413
4 414 415 416 417
4 418 419 420 421
4 422 423 424 425
4 426 427 428 429
4 430 431 432 433
4 434 435 436 437
4 438 439 440 441
4 442 443 444 445
4 446 447 448 449
4 450 451 452 453
4 454 455 456 457
4 458 459 460 461
