<?xml version="1.0" encoding="UTF-8" standalone="no"?>
<!-- Created with Inkscape (http://www.inkscape.org/) -->

<svg
   xmlns:dc="http://purl.org/dc/elements/1.1/"
   xmlns:cc="http://creativecommons.org/ns#"
   xmlns:rdf="http://www.w3.org/1999/02/22-rdf-syntax-ns#"
   xmlns:svg="http://www.w3.org/2000/svg"
   xmlns="http://www.w3.org/2000/svg"
   xmlns:sodipodi="http://sodipodi.sourceforge.net/DTD/sodipodi-0.dtd"
   xmlns:inkscape="http://www.inkscape.org/namespaces/inkscape"
   width="760.10883"
   height="126.85417"
   id="svg2"
   version="1.1"
   inkscape:version="0.91 r13725"
   sodipodi:docname="3DPrint_Lettres_Gueulomaton.svg">
  <defs
     id="defs4">
    <inkscape:perspective
       id="perspective8310"
       inkscape:persp3d-origin="372.04724 : 350.78739 : 1"
       inkscape:vp_z="744.09448 : 526.18109 : 1"
       inkscape:vp_y="0 : 1000 : 0"
       inkscape:vp_x="0 : 526.18109 : 1"
       sodipodi:type="inkscape:persp3d" />
  </defs>
  <sodipodi:namedview
     id="base"
     pagecolor="#ffffff"
     bordercolor="#666666"
     borderopacity="1.0"
     inkscape:pageopacity="0.0"
     inkscape:pageshadow="2"
     inkscape:zoom="1.0183532"
     inkscape:cx="136.17823"
     inkscape:cy="159.99704"
     inkscape:document-units="px"
     inkscape:current-layer="layer1"
     showgrid="false"
     inkscape:window-width="1680"
     inkscape:window-height="988"
     inkscape:window-x="-8"
     inkscape:window-y="-8"
     inkscape:window-maximized="1"
     showguides="true"
     inkscape:guide-bbox="true"
     fit-margin-top="0"
     fit-margin-left="0"
     fit-margin-right="0"
     fit-margin-bottom="0" />
  <metadata
     id="metadata7">
    <rdf:RDF>
      <cc:Work
         rdf:about="">
        <dc:format>image/svg+xml</dc:format>
        <dc:type
           rdf:resource="http://purl.org/dc/dcmitype/StillImage" />
        <dc:title></dc:title>
      </cc:Work>
    </rdf:RDF>
  </metadata>
  <g
     inkscape:label="Calque 1"
     inkscape:groupmode="layer"
     id="layer1"
     transform="translate(-5.54788,-605.5922)"
     style="display:inline">
    <path
       style="fill:#800000;fill-opacity:1;stroke:none"
       d="M 744.17969 42.630859 C 735.66593 42.133789 733.15518 63.588577 714.80078 71.804688 C 730.79201 68.794818 742.83371 60.937416 746.47852 57.634766 C 750.12346 54.332106 752.69348 43.127939 744.17969 42.630859 z M 751.18945 68.708984 C 740.61422 68.985621 722.90707 75.588908 711.66016 76.533203 C 728.72214 77.060683 735.48853 79.966203 742.64844 82.695312 C 749.80835 85.424422 761.78184 84.945636 759.91406 73.378906 C 759.33038 69.764303 755.99638 68.58324 751.18945 68.708984 z M 714.45898 81.412109 C 730.06227 88.381079 731.54129 102.50769 736.58984 106.88477 C 741.63841 111.26185 748.55007 110.26664 751.00195 102.64844 C 753.45394 95.030208 735.12966 84.456739 714.45898 81.412109 z "
       transform="translate(5.54788,605.5922)"
       id="path3767" />
  </g>
  <g
     inkscape:groupmode="layer"
     id="layer2"
     inkscape:label="Appareil"
     style="display:inline"
     transform="translate(-5.54788,-297.3245)" />
  <g
     inkscape:groupmode="layer"
     id="layer3"
     inkscape:label="Etoile"
     style="display:inline"
     transform="translate(-5.54788,-297.3245)" />
  <g
     inkscape:groupmode="layer"
     id="layer4"
     inkscape:label="O rond"
     style="display:inline"
     transform="translate(-5.54788,-297.3245)">
    <path
       style="font-style:normal;font-variant:normal;font-weight:bold;font-stretch:normal;font-size:111.1180191px;line-height:125%;font-family:AngelicaCP;-inkscape-font-specification:'AngelicaCP Bold';letter-spacing:0px;word-spacing:0px;display:inline;fill:#000080;fill-opacity:1;stroke:none"
       d="M 0 23.232422 L 0 95.015625 L 4.8886719 95.015625 L 4.8886719 23.232422 L 0 23.232422 z M 6.6679688 23.232422 L 6.6679688 95.015625 L 21.445312 95.015625 L 21.779297 23.232422 L 6.6679688 23.232422 z M 55.507812 39.234375 C 44.531453 39.413815 34.126762 46.751807 30.271484 57.029297 C 26.221882 67.173267 28.860076 79.557176 36.785156 87.097656 C 44.611104 94.934646 57.315491 97.278785 67.390625 92.640625 C 70.186487 91.401355 72.779743 89.712821 75.064453 87.681641 C 67.618419 90.152431 58.949467 85.573509 56.441406 78.224609 C 54.974935 74.199929 55.671662 69.867611 55.507812 65.681641 L 55.507812 39.234375 z M 59.285156 39.457031 L 59.285156 60.679688 L 83.619141 60.679688 C 81.89859 53.765836 77.93213 47.096896 71.511719 43.634766 C 67.744413 41.484996 63.527857 40.251271 59.285156 39.457031 z M 71.402344 62.546875 C 70.658366 62.510396 69.907189 62.5575 69.158203 62.695312 C 63.903367 63.390332 59.728788 68.272263 59.839844 73.570312 C 59.645814 79.671202 65.32946 85.060351 71.410156 84.556641 C 77.512928 84.437721 82.591398 78.482733 81.785156 72.439453 C 81.408922 67.111858 76.61019 62.802227 71.402344 62.546875 z "
       transform="translate(5.54788,297.3245)"
       id="path3797" />
    <path
       style="font-style:normal;font-variant:normal;font-weight:bold;font-stretch:normal;font-size:111.1180191px;line-height:125%;font-family:AngelicaCP;-inkscape-font-specification:'AngelicaCP Bold';letter-spacing:0px;word-spacing:0px;display:inline;fill:#800000;fill-opacity:1;stroke:none"
       d="M 133.72656 0 C 117.39516 1.04347 103.10735 14.983469 101.81641 31.324219 C 99.927696 47.383669 110.91031 63.589555 126.41602 68.015625 C 128.79377 68.739885 131.24942 69.207939 133.72656 69.412109 L 133.72656 0 z M 141.20703 0.087890625 C 139.65488 0.055347461 138.68118 0.76939 139.31836 3.2246094 L 139.31836 69.412109 C 155.64976 68.368639 169.93953 54.428641 171.23047 38.087891 C 171.51693 35.373951 171.39569 32.639087 171.06445 29.935547 C 161.8986 35.389357 148.92969 30.713522 145.06445 20.857422 C 142.371 14.648162 143.41808 6.9463837 147.87109 1.8085938 C 146.15443 1.4058944 143.20266 0.12973184 141.20703 0.087890625 z M 161.65234 0.68945312 C 158.63866 0.76564762 155.6667 1.83211 153.41992 4.0117188 C 150.72212 6.4338687 149.16247 10.031414 149.1875 13.652344 C 148.87509 21.624704 157.08579 28.259106 164.81836 26.384766 C 172.90328 25.056776 177.66254 15.213968 173.9043 7.9921875 C 171.81408 3.1868687 166.67515 0.5624623 161.65234 0.68945312 z M 141.12891 72.701172 C 152.17786 75.918202 158.82503 88.843499 155.12109 99.724609 C 151.86522 111.33642 137.9601 118.11464 126.79883 113.60938 C 120.81901 111.40181 116.03162 106.3539 113.98828 100.33398 C 113.99728 113.85632 125.57232 126.01593 139.06641 126.73828 C 152.50785 128.06584 165.73212 117.80067 167.84375 104.47461 C 170.43437 91.698899 162.24532 77.990168 149.82422 74.111328 C 147.0275 73.172838 144.07838 72.699652 141.12891 72.701172 z M 133.7168 77.15625 C 130.77214 77.227403 127.85794 78.100344 125.38086 79.900391 C 120.99301 82.827511 118.22172 87.978299 118.26562 93.261719 C 117.94119 103.08729 128.06112 111.35732 137.62695 109.05273 C 147.27539 107.38486 153.36114 95.900494 149.23438 86.996094 C 146.81782 80.724464 140.19503 76.999712 133.7168 77.15625 z "
       transform="translate(5.54788,297.3245)"
       id="path3801" />
    <path
       style="font-style:normal;font-variant:normal;font-weight:bold;font-stretch:normal;font-size:111.1180191px;line-height:125%;font-family:AngelicaCP;-inkscape-font-specification:'AngelicaCP Bold';letter-spacing:0px;word-spacing:0px;display:inline;fill:#2b0000;fill-opacity:1;stroke:none"
       d="M 330.97656 23.232422 L 330.97656 95.015625 L 335.86523 95.015625 L 335.86523 23.232422 L 330.97656 23.232422 z M 337.64453 23.232422 L 337.64453 95.015625 L 352.42383 95.015625 L 352.75586 23.232422 L 337.64453 23.232422 z M 250.27344 39.234375 C 239.29708 39.413815 228.89238 46.751807 225.03711 57.029297 C 220.9875 67.173267 223.6257 79.557176 231.55078 87.097656 C 239.37672 94.934646 252.08307 97.278785 262.1582 92.640625 C 264.95406 91.401355 267.54537 89.712821 269.83008 87.681641 C 262.38405 90.152431 253.71509 85.573509 251.20703 78.224609 C 249.74056 74.199929 250.43729 69.867611 250.27344 65.681641 L 250.27344 39.234375 z M 254.05078 39.457031 L 254.05078 60.679688 L 278.38672 60.679688 C 275.86313 49.287138 265.57725 40.610481 254.05078 39.457031 z M 175.30859 41.789062 C 175.36989 54.160512 175.18201 66.53769 175.4082 78.90625 C 176.26508 88.0035 184.91738 95.539272 194.06445 95.044922 C 202.72591 94.862272 210.9306 87.785014 211.56836 78.990234 C 212.00501 73.931344 211.66056 68.847571 211.75586 63.775391 L 211.75586 41.789062 L 195.41992 41.789062 C 195.39322 50.060452 195.47436 58.332366 195.38086 66.603516 C 195.13087 68.770196 191.47556 68.400518 191.64258 66.236328 L 191.64258 41.789062 L 175.30859 41.789062 z M 213.5332 41.789062 L 213.5332 93.681641 L 218.42188 93.681641 L 218.42188 41.789062 L 213.5332 41.789062 z M 283.125 41.789062 C 283.1863 54.160512 282.99842 66.53769 283.22461 78.90625 C 284.08149 88.0035 292.73574 95.539272 301.88281 95.044922 C 310.54427 94.862272 318.74701 87.785014 319.38477 78.990234 C 319.82142 73.931344 319.47697 68.847571 319.57227 63.775391 L 319.57227 41.789062 L 303.23633 41.789062 C 303.20963 50.060452 303.29087 58.332366 303.19727 66.603516 C 302.94734 68.770156 299.29178 68.400578 299.45898 66.236328 L 299.45898 41.789062 L 283.125 41.789062 z M 321.34961 41.789062 L 321.34961 93.681641 L 326.23828 93.681641 L 326.23828 41.789062 L 321.34961 41.789062 z M 266.16992 62.546875 C 265.42594 62.510396 264.67281 62.5575 263.92383 62.695312 C 258.669 63.390332 254.49636 68.272263 254.60742 73.570312 C 254.41339 79.671202 260.09703 85.060351 266.17773 84.556641 C 272.2805 84.437721 277.35897 78.482733 276.55273 72.439453 C 276.1765 67.111858 271.37777 62.802227 266.16992 62.546875 z "
       transform="translate(5.54788,297.3245)"
       id="path3803" />
    <path
       style="font-style:normal;font-variant:normal;font-weight:bold;font-stretch:normal;font-size:111.1180191px;line-height:125%;font-family:AngelicaCP;-inkscape-font-specification:'AngelicaCP Bold';letter-spacing:0px;word-spacing:0px;display:inline;fill:#2b0000;fill-opacity:1;stroke:none"
       d="M 587.05859 15.253906 C 582.75459 22.540496 576.75469 29.304074 568.72266 32.476562 C 568.78086 47.176643 568.60585 61.881475 568.81641 76.578125 C 569.44765 84.174945 574.45328 92.436236 582.53906 93.541016 C 586.3863 94.026186 590.35988 93.511796 593.94727 92.035156 C 592.96556 92.267186 591.95572 92.377101 590.94727 92.369141 C 581.89638 92.686511 574.06424 83.636717 575.62695 74.716797 C 576.44084 68.704037 581.07483 63.263678 587.05859 61.923828 L 587.05859 40.144531 L 600.16992 40.144531 L 600.16992 33.921875 L 587.05859 33.921875 L 587.05859 15.253906 z M 567.16797 33.261719 C 561.55692 35.853872 556.40852 33.718549 556.36719 38.328125 C 559.39132 38.328125 560.15643 38.248047 562.06445 38.248047 C 562.06445 49.908499 561.83523 66.943279 562.26367 78.636719 C 562.93286 86.533839 567.21556 94.886488 575.08789 97.617188 C 583.215 99.561402 589.90141 99.785446 595.87891 93.111328 C 589.5301 95.684048 580.89504 97.112703 576.54883 94.085938 C 569.45713 88.989157 566.56181 79.776911 567.16797 71.332031 C 567.168 58.713701 567.16785 45.87996 567.16797 33.261719 z M 527.28711 39.240234 C 523.80077 39.311158 520.32964 40.025443 517.10938 41.419922 C 507.19252 45.474112 500.2272 55.684654 500.10156 66.402344 C 499.68473 77.026944 505.99243 87.507757 515.56836 92.123047 C 525.32708 97.083567 537.92554 95.543217 546.1582 88.310547 C 546.3994 88.104857 546.63873 87.895131 546.87305 87.681641 L 546.87305 72.902344 C 544.22555 79.815734 536.22125 83.987751 529.04297 82.175781 C 521.77854 80.657391 516.40632 73.316974 517.13867 65.933594 C 517.54145 58.544454 523.95656 52.127379 531.3457 51.724609 C 537.90551 51.096229 544.48174 55.226693 546.87305 61.345703 L 546.87305 46.568359 C 541.99445 41.988809 535.42117 39.463018 528.78125 39.25 C 528.28326 39.234024 527.78516 39.230102 527.28711 39.240234 z M 548.87305 41.789062 L 548.87305 93.792969 L 553.76172 93.792969 L 553.76172 41.789062 L 548.87305 41.789062 z M 477.02734 42.455078 C 474.73352 42.437925 472.43669 42.892163 470.27734 43.900391 C 465.36972 46.935141 462.36695 51.160445 460.5625 56.019531 C 458.61777 48.283328 450.92106 42.657137 443.08203 42.457031 C 440.81151 42.399071 438.53028 42.795875 436.37305 43.728516 C 429.12033 46.512316 423.94957 54.236304 424.72852 62.058594 C 424.61826 73.043554 424.70854 84.030405 424.68164 95.015625 L 441.01562 95.015625 C 441.04742 86.982305 440.95285 78.948976 441.06445 70.916016 C 441.34339 68.824906 445.0167 69.234606 444.79492 71.347656 L 444.79492 95.015625 L 461.12891 95.015625 L 475.24023 95.015625 C 475.27203 86.982305 475.17746 78.948976 475.28906 70.916016 C 475.56797 68.824896 479.2414 69.234616 479.01953 71.347656 L 479.01953 95.015625 L 495.35352 95.015625 C 495.14026 82.285375 495.80648 69.523333 494.9707 56.814453 C 493.36261 48.581117 485.21957 42.516339 477.02734 42.455078 z M 418.01562 43.123047 L 418.01562 95.015625 C 418.94023 95.053525 421.79727 95.041209 422.87891 95.037109 C 422.94731 79.324849 422.9255 59.640657 422.9043 43.123047 L 418.01562 43.123047 z M 533.14062 55.439453 C 532.35274 55.399533 531.55548 55.446553 530.76172 55.591797 C 525.20383 56.347047 520.76574 61.51247 520.87109 67.125 C 520.68633 73.58027 526.70106 79.293744 533.13867 78.777344 C 539.5924 78.628504 544.98638 72.333161 544.14453 65.931641 C 543.72524 60.300482 538.65588 55.718901 533.14062 55.439453 z M 590.96289 65.269531 C 588.3985 65.216231 585.83671 65.978212 583.79688 67.695312 C 580.99869 69.872502 579.23379 73.363998 579.2793 76.923828 C 578.97356 84.274408 586.94851 90.384716 593.98047 88.222656 C 600.85794 86.556306 604.81191 77.937898 601.41016 71.673828 C 599.51863 67.710872 595.23687 65.358364 590.96289 65.269531 z "
       transform="translate(5.54788,297.3245)"
       id="path3813" />
    <path
       style="font-style:normal;font-variant:normal;font-weight:bold;font-stretch:normal;font-size:111.1180191px;line-height:125%;font-family:AngelicaCP;-inkscape-font-specification:'AngelicaCP Bold';letter-spacing:0px;word-spacing:0px;display:inline;fill:#800000;fill-opacity:1;stroke:none"
       d="m 632.33398,39.228516 c -9.93373,0.258989 -19.49921,6.248293 -23.9375,15.179687 -2.00819,3.91698 -3.04967,8.316597 -3.04296,12.716797 -0.1552,10.84896 6.71281,21.347933 16.70312,25.570312 10.12332,4.541891 22.83681,2.270664 30.68555,-5.597656 7.96671,-7.57723 10.58247,-20.043737 6.46289,-30.216797 -3.84615,-10.11689 -14.05566,-17.364603 -24.88086,-17.626953 -0.66411,-0.0345 -1.32799,-0.04266 -1.99024,-0.02539 z m 0.31641,12.439453 c 6.89435,-0.331944 13.69249,4.479765 15.45508,11.21875 2.12553,6.98944 -1.49903,15.125522 -8.1543,18.164062 -6.64986,3.34665 -15.48092,0.989693 -19.52148,-5.279297 -1.71778,-2.53383 -2.63937,-5.586504 -2.63086,-8.646484 -0.17702,-7.5441 5.96727,-14.535396 13.47265,-15.322266 0.45902,-0.06882 0.91929,-0.112636 1.37891,-0.134765 z m 0.63867,3.761719 c -0.41088,0.0044 -0.82442,0.03263 -1.23828,0.08789 -6.43561,0.47919 -11.50143,7.034716 -10.33984,13.384766 0.8053,6.40133 7.60131,11.128014 13.88476,9.652344 5.3132,-1.011571 9.40241,-6.015588 9.31446,-11.429688 0.19129,-6.259697 -5.45782,-11.76065 -11.6211,-11.695312 z"
       transform="translate(5.54788,297.3245)"
       id="path3819"
       inkscape:connector-curvature="0" />
    <path
       style="font-style:normal;font-variant:normal;font-weight:bold;font-stretch:normal;font-size:111.1180191px;line-height:125%;font-family:AngelicaCP;-inkscape-font-specification:'AngelicaCP Bold';letter-spacing:0px;word-spacing:0px;display:inline;fill:#800000;fill-opacity:1;stroke:none"
       d="M 690.60547 42.267578 C 683.24336 42.266354 676.05825 47.182721 673.64062 54.222656 C 672.0003 58.593736 672.68755 63.305811 672.53906 67.863281 L 672.53906 94.732422 L 688.875 94.732422 C 688.9018 86.721002 688.82046 78.703102 688.91406 70.695312 C 688.99416 68.513672 692.36835 68.141443 692.65234 71.064453 L 692.65234 94.732422 C 707.06334 104.80157 710.04239 90.380288 715.75391 89.148438 C 712.20801 84.599877 707.93606 85.538875 706.81836 79.765625 C 706.2307 75.064125 707.40659 72.066958 709.94922 68.361328 C 712.11352 66.690878 715.60894 63.886571 713.89062 62.400391 C 710.04463 58.985301 706.45424 54.993206 703.64258 50.597656 C 702.49191 45.875616 698.44413 43.428705 693.75781 42.578125 C 692.71222 42.369089 691.6572 42.267753 690.60547 42.267578 z M 665.87305 42.839844 L 665.87305 94.732422 L 670.76172 94.732422 L 670.76172 42.839844 L 665.87305 42.839844 z "
       transform="translate(5.54788,297.3245)"
       id="path3821" />
    <path
       style="font-style:normal;font-variant:normal;font-weight:bold;font-stretch:normal;font-size:111.1180191px;line-height:125%;font-family:AngelicaCP;-inkscape-font-specification:'AngelicaCP Bold';letter-spacing:0px;word-spacing:0px;display:inline;fill:#800000;fill-opacity:1;stroke:none"
       d="M 385.95703 39.228516 C 381.00426 39.091701 376.02878 40.237246 371.70898 42.783203 C 363.09533 47.614523 357.29485 57.18465 357.49414 67.125 C 357.11996 81.22961 369.22722 94.342786 383.35156 94.978516 C 395.29512 95.899796 407.53188 88.416147 411.51172 76.992188 C 415.55857 66.295997 412.46622 53.163217 403.51172 45.873047 C 398.65618 41.701266 392.32488 39.40442 385.95703 39.228516 z M 385.16602 51.582031 C 385.99816 51.575527 386.83784 51.645894 387.67383 51.800781 C 395.52082 52.913081 401.87518 60.736752 400.78711 68.701172 C 400.0443 76.291592 393.1163 82.883969 385.37109 82.599609 C 378.15815 82.601609 371.17595 77.091972 370.17188 69.820312 C 370.01551 68.930732 369.93689 68.02826 369.93945 67.125 C 369.63245 58.923791 377.12198 51.644909 385.16602 51.582031 z M 385.82031 55.380859 C 384.45508 55.303694 383.07422 55.488349 381.74414 55.986328 C 375.05211 58.036218 371.44562 66.848732 375.18359 72.882812 C 378.4839 78.939482 387.61131 80.874426 392.80273 76.128906 C 395.43035 73.936896 397.12337 70.57354 397.05273 67.125 C 397.33933 60.981996 391.7363 55.715242 385.82031 55.380859 z "
       transform="translate(5.54788,297.3245)"
       id="path4129" />
  </g>
</svg>
