<?xml version="1.0" encoding="UTF-8" standalone="no"?>
<!-- Created with Inkscape (http://www.inkscape.org/) -->

<svg
   xmlns:dc="http://purl.org/dc/elements/1.1/"
   xmlns:cc="http://creativecommons.org/ns#"
   xmlns:rdf="http://www.w3.org/1999/02/22-rdf-syntax-ns#"
   xmlns:svg="http://www.w3.org/2000/svg"
   xmlns="http://www.w3.org/2000/svg"
   xmlns:sodipodi="http://sodipodi.sourceforge.net/DTD/sodipodi-0.dtd"
   xmlns:inkscape="http://www.inkscape.org/namespaces/inkscape"
   width="136.87897"
   height="98.009773"
   viewBox="0 0 136.87896 98.009771"
   id="svg3490"
   version="1.1"
   inkscape:version="0.48.4 r9939"
   sodipodi:docname="camera_group.svg">
  <defs
     id="defs3492" />
  <sodipodi:namedview
     id="base"
     pagecolor="#ffffff"
     bordercolor="#666666"
     borderopacity="1.0"
     inkscape:pageopacity="0.0"
     inkscape:pageshadow="2"
     inkscape:zoom="1.5680646"
     inkscape:cx="65.024655"
     inkscape:cy="31.300461"
     inkscape:document-units="cm"
     inkscape:current-layer="layer1"
     showgrid="false"
     fit-margin-top="0"
     fit-margin-left="0"
     fit-margin-right="0"
     fit-margin-bottom="0"
     inkscape:window-width="1635"
     inkscape:window-height="1026"
     inkscape:window-x="45"
     inkscape:window-y="24"
     inkscape:window-maximized="1"
     units="cm" />
  <metadata
     id="metadata3495">
    <rdf:RDF>
      <cc:Work
         rdf:about="">
        <dc:format>image/svg+xml</dc:format>
        <dc:type
           rdf:resource="http://purl.org/dc/dcmitype/StillImage" />
        <dc:title />
      </cc:Work>
    </rdf:RDF>
  </metadata>
  <g
     inkscape:label="Calque 1"
     inkscape:groupmode="layer"
     id="layer1"
     transform="translate(-158.83534,-411.72076)">
    <g
       style="fill:#d45500;display:inline"
       id="g3098"
       transform="matrix(48.687954,0,0,-48.687954,384.25577,305.75521)"
       inkscape:export-filename="/media/gilou/PROGRAMMES/Imprimante 3D/Objets 3D/SVG files/Le Gueuloir/LogoGueulomatonWeb.png"
       inkscape:export-xdpi="88.766205"
       inkscape:export-ydpi="88.766205">
      <path
         style="fill:#d45500;fill-opacity:1;fill-rule:nonzero;stroke:none"
         d="m 51.822266,0 -6.796875,9.953125 46.021484,0 L 84.822266,0 l -33,0 z m 10.595703,2.2714844 11.6875,0 0,5.6523437 -11.6875,0 0,-5.6523437 z m 44.720701,1.9453125 -2.41015,5.6699219 18.18945,0 -2.20117,-5.6699219 -13.57813,0 z m -88.572264,1.9628906 -1.179687,3.6777344 12.226562,0 -0.849609,-3.6777344 -10.197266,0 z M 11.080078,11.416016 C 4.9587948,11.416016 0,16.392389 0,22.513672 l 0.03515625,16.36914 54.90039075,0.03516 c 5.254246,-8.705055 14.670796,-14.601563 25.578125,-14.601563 10.907329,0 20.356608,5.932139 25.576168,14.671875 l 30.7461,0.0332 0,-16.507812 c 0,-6.121283 -4.97661,-11.097656 -11.11524,-11.097656 l -114.640622,0 z m 69.441406,23.658203 c -12.366147,0.144951 -19.020555,7.938724 -19.144531,19.109375 0,10.560514 7.292395,19.267186 19.144531,19.109375 10.685508,-0.142194 19.093026,-9.315618 18.933594,-18.3125 0.02346,-9.765252 -6.755265,-19.74531 -18.933594,-19.90625 z m -80.5136715,6.83789 0,45.017579 c 0,6.103942 4.9434072,11.080078 11.0820315,11.080078 l 114.638676,0 c 6.13862,0 11.11523,-4.976136 11.11523,-11.080078 l 0.0352,-45 -29.20118,0 c 1.6994,3.745601 2.70508,7.872556 2.70508,12.259765 0,16.49105 -13.370276,29.878906 -29.861326,29.878906 -16.50839,0 -29.876953,-13.387856 -29.876953,-29.878906 0,-4.387209 0.988345,-8.514402 2.705078,-12.277344 l -53.3417965,0 z"
         transform="matrix(0.05766765,0,0,-0.05766765,-4.6429998,1.4023111)"
         id="path3100"
         inkscape:connector-curvature="0" />
    </g>
    <g
       style="fill:#d45500;display:inline"
       id="g3102"
       transform="matrix(17.340746,0,0,-17.340746,187.59851,417.90113)"
       inkscape:export-filename="/media/gilou/PROGRAMMES/Imprimante 3D/Objets 3D/SVG files/Le Gueuloir/LogoGueulomatonWeb.png"
       inkscape:export-xdpi="88.766205"
       inkscape:export-ydpi="88.766205" />
    <g
       style="fill:#d45500;display:inline"
       id="g3106"
       transform="matrix(17.340746,0,0,-17.340746,279.55149,415.93801)"
       inkscape:export-filename="/media/gilou/PROGRAMMES/Imprimante 3D/Objets 3D/SVG files/Le Gueuloir/LogoGueulomatonWeb.png"
       inkscape:export-xdpi="88.766205"
       inkscape:export-ydpi="88.766205" />
    <g
       style="fill:#800000;display:inline"
       id="g3112"
       transform="matrix(17.340746,0,0,-17.340746,266.51278,453.65082)"
       inkscape:export-filename="/media/gilou/PROGRAMMES/Imprimante 3D/Objets 3D/SVG files/Le Gueuloir/LogoGueulomatonWeb.png"
       inkscape:export-xdpi="88.766205"
       inkscape:export-ydpi="88.766205" />
    <g
       style="fill:#ffcc00;display:inline"
       id="g3116"
       transform="matrix(17.340746,0,0,-17.340746,255.64013,456.08878)"
       inkscape:export-filename="/media/gilou/PROGRAMMES/Imprimante 3D/Objets 3D/SVG files/Le Gueuloir/LogoGueulomatonWeb.png"
       inkscape:export-xdpi="88.766205"
       inkscape:export-ydpi="88.766205" />
  </g>
</svg>
