<?xml version="1.0" encoding="UTF-8" standalone="no"?>
<!-- Created with Inkscape (http://www.inkscape.org/) -->

<svg
   xmlns:dc="http://purl.org/dc/elements/1.1/"
   xmlns:cc="http://creativecommons.org/ns#"
   xmlns:rdf="http://www.w3.org/1999/02/22-rdf-syntax-ns#"
   xmlns:svg="http://www.w3.org/2000/svg"
   xmlns="http://www.w3.org/2000/svg"
   version="1.1"
   width="259.91708"
   height="149.94597"
   id="svg2"
   style="display:inline">
  <defs
     id="defs4" />
  <metadata
     id="metadata7">
    <rdf:RDF>
      <cc:Work
         rdf:about="">
        <dc:format>image/svg+xml</dc:format>
        <dc:type
           rdf:resource="http://purl.org/dc/dcmitype/StillImage" />
        <dc:title></dc:title>
      </cc:Work>
    </rdf:RDF>
  </metadata>
  <g
     transform="translate(-85.734337,-260.08314)"
     id="layer2"
     style="display:inline">
    <g
       transform="matrix(0.81319379,0,0,0.81319379,-390.99444,-130.73611)"
       id="g4037"
       style="display:inline">
      <g
         transform="matrix(25.879499,0,0,-25.879499,712.54963,523.03764)"
         id="g3098"
         style="fill:#2b0000">
        <path
           d="m 0,0 c 0.629,0 1.174,-0.342 1.475,-0.846 l 1.773,-0.002 0,0.952 c 0,0.353 -0.287,0.64 -0.641,0.64 l -6.611,0 c -0.353,0 -0.639,-0.287 -0.639,-0.64 l 0.002,-0.944 3.166,-0.002 C -1.172,-0.34 -0.629,0 0,0"
           id="path3100"
           style="fill:#0000ff;fill-opacity:1;fill-rule:nonzero;stroke:none" />
      </g>
      <g
         transform="matrix(25.879499,0,0,-25.879499,635.31754,495.97017)"
         id="g3102"
         style="fill:#000000">
        <path
           d="m 0,0 -0.588,0 -0.068,-0.212 0.705,0 L 0,0 z"
           id="path3104"
           style="fill:#0000ff;fill-opacity:1;fill-rule:nonzero;stroke:none" />
      </g>
      <g
         transform="matrix(25.879499,0,0,-25.879499,772.54907,493.0404)"
         id="g3106"
         style="fill:#000000">
        <path
           d="m 0,0 -0.783,0 -0.139,-0.327 1.049,0 L 0,0 z"
           id="path3108"
           style="fill:#0000ff;fill-opacity:1;fill-rule:nonzero;stroke:none" />
      </g>
      <path
         d="m 702.98726,498.57345 -17.44279,0 0,-8.43673 17.44279,0 0,8.43673 z m 15.99353,-11.82693 -49.24869,0 -10.14476,14.85482 68.68419,0 -9.29074,-14.85482 z"
         id="path3110"
         style="fill:#0000ff;fill-opacity:1;fill-rule:nonzero;stroke:none" />
      <g
         transform="matrix(25.879499,0,0,-25.879499,753.08997,549.32335)"
         id="g3112"
         style="fill:#800000">
        <path
           d="m 0,0 c 0.098,-0.216 0.156,-0.454 0.156,-0.707 0,-0.951 -0.771,-1.723 -1.722,-1.723 -0.952,0 -1.723,0.772 -1.723,1.723 0,0.253 0.057,0.491 0.156,0.708 l -3.076,0 0,-2.596 c 0,-0.352 0.285,-0.639 0.639,-0.639 l 6.611,0 c 0.354,0 0.641,0.287 0.641,0.639 L 1.684,0 0,0 z"
           id="path3114"
           style="fill:#800000;fill-opacity:1;fill-rule:nonzero;stroke:none" />
      </g>
      <g
         transform="matrix(25.879499,0,0,-25.879499,736.86352,552.9618)"
         id="g3116"
         style="fill:#000080">
        <path
           d="m -0.00266076,0.02739597 c -0.02744346,0.04878837 -0.06200189,0.09452747 -0.0996096,0.13823372 -0.20430131,0.24597472 -0.51024507,0.40656978 -0.85481295,0.40656978 -0.34558429,0 -0.65152809,-0.15957864 -0.85582939,-0.40453693 -0.037608,-0.0447227 -0.072166,-0.09046177 -0.1016424,-0.14026657 -0.1026589,-0.16872646 -0.1646608,-0.36387995 -0.1646608,-0.57529623 0,-0.61900244 0.5021137,-1.12009974 1.12213259,-1.12009974 0.61696964,0 1.11908331,0.5010973 1.11908331,1.12009974 0,0.21141628 -0.0609855,0.40656977 -0.16466076,0.57529623"
           id="path3118"
           style="fill:#ff0000;fill-opacity:1;fill-rule:nonzero;stroke:none" />
      </g>
    </g>
    <path
       d="m 255.81791,318.20447 c 25.8126,-38.64466 51.4962,-35.96907 62.48182,-23.66527 10.98562,12.3038 12.31864,17.76845 13.39381,26.86788 1.07517,9.09943 -5.82858,34.74371 -5.82858,34.74371 -2.75948,6.04372 0.44761,13.66904 14.78645,7.21843 -10.9455,15.81123 -29.25648,33.97202 -42.27561,41.65988 3.79326,-14.87358 3.96609,-32.31906 0.15369,-43.85742 7.12386,4.6986 11.85307,1.6586 13.47554,-1.9072 0.34266,-32.19964 0.45971,-45.00802 -10.71061,-46.82429 -11.17032,-1.81627 -15.6443,-1.2425 -40.10359,11.08717 8.32159,-9.14582 6.49748,-11.17328 -5.37292,-5.32289 z"
       id="path2985"
       style="fill:#800000;stroke:none" />
  </g>
</svg>
