<?xml version="1.0" encoding="UTF-8" standalone="no"?>
<!-- Created with Inkscape (http://www.inkscape.org/) -->

<svg
   xmlns:dc="http://purl.org/dc/elements/1.1/"
   xmlns:cc="http://creativecommons.org/ns#"
   xmlns:rdf="http://www.w3.org/1999/02/22-rdf-syntax-ns#"
   xmlns:svg="http://www.w3.org/2000/svg"
   xmlns="http://www.w3.org/2000/svg"
   xmlns:sodipodi="http://sodipodi.sourceforge.net/DTD/sodipodi-0.dtd"
   xmlns:inkscape="http://www.inkscape.org/namespaces/inkscape"
   width="259.91708"
   height="149.94597"
   id="svg2"
   version="1.1"
   inkscape:version="0.91 r13725"
   sodipodi:docname="camera_fleche.svg"
   style="display:inline">
  <defs
     id="defs4">
    <inkscape:perspective
       id="perspective8310"
       inkscape:persp3d-origin="372.04724 : 350.78739 : 1"
       inkscape:vp_z="744.09448 : 526.18109 : 1"
       inkscape:vp_y="0 : 1000 : 0"
       inkscape:vp_x="0 : 526.18109 : 1"
       sodipodi:type="inkscape:persp3d" />
  </defs>
  <sodipodi:namedview
     id="base"
     pagecolor="#ffffff"
     bordercolor="#666666"
     borderopacity="1.0"
     inkscape:pageopacity="0.0"
     inkscape:pageshadow="2"
     inkscape:zoom="2.6665404"
     inkscape:cx="89.668668"
     inkscape:cy="76.016436"
     inkscape:document-units="px"
     inkscape:current-layer="layer2"
     showgrid="false"
     inkscape:window-width="1336"
     inkscape:window-height="785"
     inkscape:window-x="61"
     inkscape:window-y="34"
     inkscape:window-maximized="1"
     showguides="true"
     inkscape:guide-bbox="true"
     fit-margin-top="5"
     fit-margin-left="5"
     fit-margin-right="5"
     fit-margin-bottom="5" />
  <metadata
     id="metadata7">
    <rdf:RDF>
      <cc:Work
         rdf:about="">
        <dc:format>image/svg+xml</dc:format>
        <dc:type
           rdf:resource="http://purl.org/dc/dcmitype/StillImage" />
        <dc:title></dc:title>
      </cc:Work>
    </rdf:RDF>
  </metadata>
  <g
     inkscape:groupmode="layer"
     id="layer2"
     inkscape:label="Appareil"
     style="display:inline"
     transform="translate(-85.734337,-260.08314)">
    <path
       style="fill:#0000ff;fill-opacity:1;fill-rule:nonzero;stroke:none"
       d="m 219.48794,312.39896 c 6.21881,0.007 24.87525,0.0281 37.31287,0.0421 0,-8.0123 0.0564,-15.86064 0.0564,-23.77131 -2.13841,-7.92168 -11.18252,-9.73241 -18.7021,-9.73241 -45.11552,0.0463 -90.23572,-0.0927 -135.3483,0.0696 -8.602293,0.59898 -13.285644,9.55245 -12.064022,17.40924 l 0.03359,15.85648 c 22.209542,0.014 44.419082,0.0281 66.628622,0.0421 6.38292,-10.77319 18.28542,-17.78494 31.04145,-18.0792 8.80403,0.065 21.22991,3.06694 31.04145,18.1634 z"
       id="path3100"
       inkscape:connector-curvature="0"
       sodipodi:nodetypes="cccccccccc" />
    <path
       style="fill:#0000ff;fill-opacity:1;fill-rule:nonzero;stroke:none"
       d="m 125.64184,272.58375 -12.37449,0 c -0.63866,2.3835 -1.12492,3.3583 -1.60895,5.16471 2.95753,0 13.11143,0.0131 15.84644,0.0131 z"
       id="path3104"
       inkscape:connector-curvature="0"
       sodipodi:nodetypes="ccccc" />
    <path
       style="fill:#0000ff;fill-opacity:1;fill-rule:nonzero;stroke:none"
       d="m 237.23767,270.20128 c -4.76672,0 -10.98551,0 -16.47827,0 -1.27223,2.33278 -2.64408,5.26639 -3.57669,6.88173 l 22.91523,0 c -0.95345,-2.29389 -1.90677,-4.58791 -2.86027,-6.88173 z"
       id="path3108"
       inkscape:connector-curvature="0"
       sodipodi:nodetypes="ccccc" />
    <path
       style="fill:#0000ff;fill-opacity:1;fill-rule:nonzero;stroke:none"
       d="m 180.67043,274.70072 -14.18436,0 c 0.0445,-2.77204 -0.52376,-6.86069 4.01005,-6.86069 4.53381,0 3.32758,0.02 6.23728,0.0617 4.61693,0.0663 3.93703,4.5228 3.93703,6.79894 z m 13.00584,-9.61758 -40.04873,0 -8.24965,12.07984 55.85356,0 z"
       id="path3110"
       inkscape:connector-curvature="0"
       sodipodi:nodetypes="ccsscccccc" />
    <path
       style="fill:#800000;fill-opacity:1;fill-rule:nonzero;stroke:none"
       d="m 221.41365,315.97023 c 9.38946,18.86107 -0.88774,38.86771 -16.79118,46.9933 -15.90344,8.12559 -36.98812,0.85932 -46.26001,-11.86498 -9.27189,-12.7243 -6.71138,-27.93011 -2.80518,-34.7901 l -64.812333,-0.35927 c 0.175643,19.10718 0.27227,38.06496 0.27227,57.33765 0,7.6126 9.793063,10.74309 17.185563,10.74309 45.49874,-0.0463 91.00216,0.0927 136.49797,-0.0696 8.60562,-0.58985 13.31958,-9.52019 12.11376,-17.3882 l 0.039,-50.60185 c -11.81326,-3e-4 -23.62669,4.4e-4 -35.43986,-4e-5 z"
       id="path3114"
       inkscape:connector-curvature="0"
       sodipodi:nodetypes="czzcccccccc" />
    <path
       style="fill:#ff0000;fill-opacity:1;fill-rule:nonzero;stroke:none"
       d="m 208.1624,318.35244 c -7.26843,-13.20083 -27.46417,-15.42453 -37.26592,-3.89707 -11.31344,11.0238 -6.86817,32.20592 7.9854,37.72546 14.23454,6.66093 32.51562,-4.77451 32.71511,-20.50749 0.26145,-4.65717 -0.97855,-9.36153 -3.43459,-13.3209 z"
       id="path3118"
       inkscape:connector-curvature="0" />
    <path
       style="fill:#800000;stroke:none"
       d="m 255.81791,318.20447 c 10.31352,-15.14631 24.84724,-31.62367 44.69057,-31.77388 14.02286,0.0833 23.30569,12.8735 28.83912,24.24356 5.5927,14.93376 -0.25101,30.7042 -3.48264,45.47664 -4.69036,10.15579 8.74923,11.72432 14.78645,7.21843 -11.63661,16.04362 -25.5054,30.91763 -42.27561,41.65988 3.40062,-14.28757 4.41599,-29.64016 0.15369,-43.85742 10.8116,8.05546 16.11311,-5.25615 13.57595,-14.36437 -0.47441,-10.26892 1.18421,-21.64386 -4.37682,-30.81266 -8.75803,-7.52575 -21.95646,-4.05942 -31.52367,0.34335 -4.47314,1.05187 -20.02297,11.75428 -11.40262,2.80061 5.5983,-8.11987 -6.51419,-2.1866 -8.98442,-0.93414 z"
       id="path2985"
       inkscape:connector-curvature="0" />
  </g>
</svg>
