<?xml version="1.0" encoding="UTF-8" standalone="no"?>
<!-- Created with Inkscape (http://www.inkscape.org/) -->

<svg
   xmlns:dc="http://purl.org/dc/elements/1.1/"
   xmlns:cc="http://creativecommons.org/ns#"
   xmlns:rdf="http://www.w3.org/1999/02/22-rdf-syntax-ns#"
   xmlns:svg="http://www.w3.org/2000/svg"
   xmlns="http://www.w3.org/2000/svg"
   xmlns:sodipodi="http://sodipodi.sourceforge.net/DTD/sodipodi-0.dtd"
   xmlns:inkscape="http://www.inkscape.org/namespaces/inkscape"
   width="183.13277mm"
   height="29.49048mm"
   viewBox="0 0 648.89563 104.49383"
   id="svg3549"
   version="1.1"
   inkscape:version="0.91 r13725"
   sodipodi:docname="gueulomaton_group.svg">
  <defs
     id="defs3551" />
  <sodipodi:namedview
     id="base"
     pagecolor="#ffffff"
     bordercolor="#666666"
     borderopacity="1.0"
     inkscape:pageopacity="0.0"
     inkscape:pageshadow="2"
     inkscape:zoom="1.1087891"
     inkscape:cx="443.76347"
     inkscape:cy="4.9613753"
     inkscape:document-units="px"
     inkscape:current-layer="layer1"
     showgrid="false"
     fit-margin-top="0"
     fit-margin-left="0"
     fit-margin-right="0"
     fit-margin-bottom="0"
     inkscape:window-width="1680"
     inkscape:window-height="988"
     inkscape:window-x="-8"
     inkscape:window-y="-8"
     inkscape:window-maximized="1" />
  <metadata
     id="metadata3554">
    <rdf:RDF>
      <cc:Work
         rdf:about="">
        <dc:format>image/svg+xml</dc:format>
        <dc:type
           rdf:resource="http://purl.org/dc/dcmitype/StillImage" />
        <dc:title></dc:title>
      </cc:Work>
    </rdf:RDF>
  </metadata>
  <g
     inkscape:label="Calque 1"
     inkscape:groupmode="layer"
     id="layer1"
     transform="translate(149.48216,-432.82975)">
    <path
       style="display:inline;fill:#800000;fill-opacity:1;stroke:none"
       d="M 110.1875 0 C 95.41472 1.21977 83.759766 13.553806 83.759766 28.597656 C 83.759766 43.641506 95.41472 55.973599 110.1875 57.193359 L 110.1875 0 z M 114.79688 0 L 114.79688 57.193359 C 129.56965 55.973599 141.22461 43.641506 141.22461 28.597656 C 141.22461 27.242356 141.08865 25.885786 140.95312 24.666016 C 138.64911 25.885786 136.34538 26.564453 133.63477 26.564453 C 125.23191 26.564453 118.32031 19.650927 118.32031 11.248047 C 118.32031 7.5887269 119.53974 4.2008444 121.84375 1.4902344 C 119.53974 0.67705438 117.23642 0.13553 114.79688 0 z M 133.63477 0.54296875 C 127.67145 0.54296875 122.92773 5.2847269 122.92773 11.248047 C 122.92773 17.211367 127.67145 21.955078 133.63477 21.955078 C 139.59811 21.955078 144.3418 17.211367 144.3418 11.248047 C 144.3418 5.2847269 139.59811 0.54296875 133.63477 0.54296875 z M 483.72461 12.568359 C 479.42133 19.801529 474.38542 24.470786 468.61719 26.759766 L 468.61719 61.460938 C 468.61719 68.968788 473.56169 77.208984 481.52734 77.208984 C 484.64035 77.208984 486.74712 76.934637 489.40234 75.835938 C 488.57831 76.019047 487.93684 76.111328 486.92969 76.111328 C 479.87964 76.111328 474.20313 70.434816 474.20312 63.384766 C 474.20312 57.433406 478.1395 52.396827 483.72461 51.023438 L 483.72461 31.429688 L 491.23242 31.429688 L 491.23242 27.951172 L 483.72461 27.951172 L 483.72461 12.568359 z M 637.74023 13.121094 C 625.27587 12.382204 621.5979 44.273318 594.72656 56.486328 C 618.13815 52.012228 635.76743 40.333138 641.10352 35.423828 C 646.4398 30.514518 650.20466 13.859974 637.74023 13.121094 z M 0 19.144531 L 0 78.291016 L 2.3808594 78.291016 L 2.3808594 19.144531 L 0 19.144531 z M 5.4941406 19.144531 L 5.4941406 78.291016 L 17.671875 78.291016 L 17.945312 19.144531 L 5.4941406 19.144531 z M 272.71875 19.144531 L 272.71875 78.291016 L 275.09961 78.291016 L 275.09961 19.144531 L 272.71875 19.144531 z M 278.21289 19.144531 L 278.21289 78.291016 L 290.39062 78.291016 L 290.66406 19.144531 L 278.21289 19.144531 z M 465.6875 27.583984 C 463.39853 28.224894 461.01897 28.682124 458.54688 28.865234 L 458.54688 31.429688 L 463.125 31.429688 L 463.125 61.003906 C 463.125 75.287136 470.72336 81.787109 481.52734 81.787109 C 485.92218 81.787109 491.96484 77.484375 491.96484 77.484375 C 489.03494 78.857765 484.82348 80.138672 481.52734 80.138672 C 471.63895 80.138672 465.6875 70.250617 465.6875 61.460938 L 465.6875 27.583984 z M 45.736328 32.328125 C 33.375838 32.694355 23.396484 42.764994 23.396484 55.308594 C 23.396484 68.035324 33.650223 78.291016 46.376953 78.291016 C 52.328296 78.291016 57.731404 75.910417 61.851562 72.248047 C 60.752856 72.522727 59.653158 72.796875 58.462891 72.796875 C 51.412833 72.796875 45.736328 67.120372 45.736328 60.070312 L 45.736328 32.328125 z M 206.2207 32.328125 C 193.86021 32.694355 183.88086 42.764994 183.88086 55.308594 C 183.88086 68.035324 194.1346 78.291016 206.86133 78.291016 C 212.81267 78.291016 218.21578 75.910417 222.33594 72.248047 C 221.23724 72.522727 220.13754 72.796875 218.94727 72.796875 C 211.89722 72.796875 206.2207 67.120372 206.2207 60.070312 L 206.2207 32.328125 z M 317.55078 32.328125 C 304.82405 32.328125 294.57031 42.581874 294.57031 55.308594 C 294.57031 68.035324 304.82405 78.291016 317.55078 78.291016 C 330.2775 78.291016 340.53125 68.035324 340.53125 55.308594 C 340.53125 42.581874 330.2775 32.328125 317.55078 32.328125 z M 435.04883 32.328125 C 422.3221 32.328125 412.06641 42.581874 412.06641 55.308594 C 412.06641 68.035324 422.3221 78.291016 435.04883 78.291016 C 441.09173 78.291016 446.49312 76.001977 450.61328 72.248047 L 450.61328 60.070312 C 448.69054 64.739823 444.20471 68.037109 438.80273 68.037109 C 431.75267 68.037109 426.07617 62.358654 426.07617 55.308594 C 426.07617 48.258544 431.75267 42.582031 438.80273 42.582031 C 444.20471 42.582031 448.69054 45.879308 450.61328 50.548828 L 450.61328 38.371094 C 446.49312 34.617164 441.09173 32.328125 435.04883 32.328125 z M 521.78125 32.328125 C 509.05452 32.328125 498.80078 42.581874 498.80078 55.308594 C 498.80078 68.035324 509.05452 78.291016 521.78125 78.291016 C 534.50797 78.291016 544.76367 68.035324 544.76367 55.308594 C 544.76367 42.581874 534.50797 32.328125 521.78125 32.328125 z M 48.849609 32.511719 L 48.849609 50 L 68.900391 50 C 66.70297 40.5694 58.646449 33.610439 48.849609 32.511719 z M 209.33398 32.511719 L 209.33398 50 L 229.38477 50 C 227.18735 40.5694 219.13082 33.610439 209.33398 32.511719 z M 144.45117 34.433594 L 144.45117 63.275391 C 144.45117 71.607281 151.13491 78.291016 159.4668 78.291016 C 167.79869 78.291016 174.48242 71.607281 174.48242 63.275391 L 174.48242 34.433594 L 161.02344 34.433594 L 161.02344 54.576172 C 161.02344 55.400212 160.29083 56.132812 159.4668 56.132812 C 158.64277 56.132812 157.91016 55.400212 157.91016 54.576172 L 157.91016 34.433594 L 144.45117 34.433594 z M 177.5957 34.433594 L 177.5957 77.191406 L 179.97656 77.191406 L 179.97656 34.433594 L 177.5957 34.433594 z M 233.28906 34.433594 L 233.28906 63.275391 C 233.28906 71.607281 239.9728 78.291016 248.30469 78.291016 C 256.63657 78.291016 263.32031 71.607281 263.32031 63.275391 L 263.32031 34.433594 L 249.86133 34.433594 L 249.86133 54.576172 C 249.86133 55.400212 249.12872 56.132812 248.30469 56.132812 C 247.48066 56.132812 246.74805 55.400212 246.74805 54.576172 L 246.74805 34.433594 L 233.28906 34.433594 z M 266.43359 34.433594 L 266.43359 77.191406 L 268.81445 77.191406 L 268.81445 34.433594 L 266.43359 34.433594 z M 453.91016 34.433594 L 453.91016 77.283203 L 456.28906 77.283203 L 456.28906 34.433594 L 453.91016 34.433594 z M 569.17578 34.841797 C 560.84389 34.841797 554.16016 41.525532 554.16016 49.857422 L 554.16016 78.058594 L 567.61914 78.058594 L 567.61914 58.556641 C 567.61914 57.732611 568.35175 57 569.17578 57 L 570.73242 58.556641 L 570.73242 78.058594 L 582.73633 78.265625 L 589.18555 78.291016 C 589.18555 78.291016 582.15328 69.941797 582.32031 64.373047 C 582.48734 58.804307 589.18555 51.705078 589.18555 51.705078 L 584.19141 47.361328 C 577.90553 41.892508 577.50766 34.841797 569.17578 34.841797 z M 364.94531 35.074219 C 356.61342 35.074219 349.92969 41.757964 349.92969 50.089844 L 349.92969 78.291016 L 363.38867 78.291016 L 363.38867 58.789062 C 363.38867 57.965033 364.12128 57.232422 364.94531 57.232422 C 365.76934 57.232422 366.50195 57.965033 366.50195 58.789062 L 366.50195 78.291016 L 379.96094 78.291016 L 391.58984 78.291016 L 391.58984 58.789062 C 391.58984 57.965033 392.32245 57.232422 393.14648 57.232422 C 393.97051 57.232422 394.70312 57.965033 394.70312 58.789062 L 394.70312 78.291016 L 408.16211 78.291016 L 408.16211 50.089844 C 408.16211 41.757964 401.47836 35.074219 393.14648 35.074219 C 386.53298 35.074219 381.27574 39.302654 379.14062 45.203125 C 377.12413 39.295867 371.56122 35.074219 364.94531 35.074219 z M 548.66797 35.298828 L 548.66797 78.058594 L 551.04883 78.058594 L 551.04883 35.298828 L 548.66797 35.298828 z M 344.4375 35.533203 L 344.4375 78.291016 L 346.81641 78.291016 L 346.81641 35.533203 L 344.4375 35.533203 z M 317.55078 42.582031 C 324.60084 42.582031 330.27734 48.258544 330.27734 55.308594 C 330.27734 62.358654 324.60084 68.037109 317.55078 68.037109 C 310.50072 68.037109 304.82422 62.358654 304.82422 55.308594 C 304.82422 48.258544 310.50072 42.582031 317.55078 42.582031 z M 521.78125 42.582031 C 528.8313 42.582031 534.50781 48.258544 534.50781 55.308594 C 534.50781 62.358654 528.8313 68.037109 521.78125 68.037109 C 514.73119 68.037109 509.05469 62.358654 509.05469 55.308594 C 509.05469 48.258544 514.73119 42.582031 521.78125 42.582031 z M 317.55078 45.695312 C 312.24034 45.695312 307.9375 49.998164 307.9375 55.308594 C 307.9375 60.619034 312.24034 64.923828 317.55078 64.923828 C 322.86121 64.923828 327.16406 60.619034 327.16406 55.308594 C 327.16406 49.998164 322.86121 45.695312 317.55078 45.695312 z M 438.80273 45.695312 C 433.49229 45.695312 429.1875 49.998164 429.1875 55.308594 C 429.1875 60.619034 433.49229 64.923828 438.80273 64.923828 C 444.11316 64.923828 448.41602 60.619034 448.41602 55.308594 C 448.41602 49.998164 444.11316 45.695312 438.80273 45.695312 z M 521.78125 45.695312 C 516.47081 45.695312 512.16797 49.998164 512.16797 55.308594 C 512.16797 60.619034 516.47081 64.923828 521.78125 64.923828 C 527.09168 64.923828 531.39453 60.619034 531.39453 55.308594 C 531.39453 49.998164 527.09168 45.695312 521.78125 45.695312 z M 58.371094 51.554688 C 53.335335 51.554688 49.306641 55.583381 49.306641 60.619141 C 49.306641 65.654891 53.335335 69.683594 58.371094 69.683594 C 63.406845 69.683594 67.435547 65.654891 67.435547 60.619141 C 67.435547 55.583381 63.406845 51.554688 58.371094 51.554688 z M 218.85547 51.554688 C 213.81971 51.554688 209.79102 55.583381 209.79102 60.619141 C 209.79102 65.654891 213.81971 69.683594 218.85547 69.683594 C 223.89122 69.683594 227.91992 65.654891 227.91992 60.619141 C 227.91992 55.583381 223.89122 51.554688 218.85547 51.554688 z M 635.56445 53.564453 C 622.52794 53.906364 602.58145 62.069228 588.83008 63.236328 C 609.69141 63.888248 619.76558 66.264842 626.71875 70.851562 C 633.67205 75.438283 653.71375 73.631807 647.82812 59.335938 C 645.98895 54.868478 641.49014 53.409039 635.56445 53.564453 z M 486.92969 53.769531 C 481.61926 53.769531 477.31641 58.074326 477.31641 63.384766 C 477.31641 68.695186 481.61926 72.998047 486.92969 72.998047 C 492.24012 72.998047 496.54297 68.695186 496.54297 63.384766 C 496.54297 58.074326 492.24012 53.769531 486.92969 53.769531 z M 116.28711 59.904297 C 123.4702 62.208307 128.62109 68.849423 128.62109 76.845703 C 128.62109 86.739393 120.62415 94.736328 110.73047 94.736328 C 102.86972 94.736328 96.36337 89.721388 93.923828 82.673828 C 94.194893 94.736008 104.08938 104.49414 116.28711 104.49414 C 128.62035 104.49414 138.65039 94.464099 138.65039 82.130859 C 138.65039 69.797609 128.62035 59.904297 116.28711 59.904297 z M 110.73047 63.564453 C 103.41183 63.564453 97.449219 69.527073 97.449219 76.845703 C 97.449219 84.164323 103.41183 90.126953 110.73047 90.126953 C 118.04909 90.126953 124.01172 84.164323 124.01172 76.845703 C 124.01172 69.527073 118.04909 63.564453 110.73047 63.564453 z M 591.54688 68.740234 C 609.82591 76.904284 611.55835 93.452378 617.47266 98.580078 C 623.38698 103.70777 631.48314 102.54181 634.35547 93.617188 C 637.22794 84.692548 615.76229 72.306974 591.54688 68.740234 z "
       transform="translate(-149.48216,432.82975)"
       id="path3767" />
  </g>
</svg>
