<?xml version="1.0" encoding="UTF-8" standalone="no"?>
<!-- Created with Inkscape (http://www.inkscape.org/) -->

<svg
   xmlns:dc="http://purl.org/dc/elements/1.1/"
   xmlns:cc="http://creativecommons.org/ns#"
   xmlns:rdf="http://www.w3.org/1999/02/22-rdf-syntax-ns#"
   xmlns:svg="http://www.w3.org/2000/svg"
   xmlns="http://www.w3.org/2000/svg"
   xmlns:sodipodi="http://sodipodi.sourceforge.net/DTD/sodipodi-0.dtd"
   xmlns:inkscape="http://www.inkscape.org/namespaces/inkscape"
   width="1052.3622"
   height="744.09448"
   id="svg2"
   version="1.1"
   inkscape:version="0.48.4 r9939"
   sodipodi:docname="Logo Gueulomaton.svg">
  <defs
     id="defs4">
    <inkscape:perspective
       id="perspective8310"
       inkscape:persp3d-origin="372.04724 : 350.78739 : 1"
       inkscape:vp_z="744.09448 : 526.18109 : 1"
       inkscape:vp_y="0 : 1000 : 0"
       inkscape:vp_x="0 : 526.18109 : 1"
       sodipodi:type="inkscape:persp3d" />
  </defs>
  <sodipodi:namedview
     id="base"
     pagecolor="#ffffff"
     bordercolor="#666666"
     borderopacity="1.0"
     inkscape:pageopacity="0.0"
     inkscape:pageshadow="2"
     inkscape:zoom="0.70484765"
     inkscape:cx="469.97901"
     inkscape:cy="377.04707"
     inkscape:document-units="px"
     inkscape:current-layer="layer4"
     showgrid="false"
     inkscape:window-width="1570"
     inkscape:window-height="644"
     inkscape:window-x="61"
     inkscape:window-y="34"
     inkscape:window-maximized="0"
     showguides="true"
     inkscape:guide-bbox="true" />
  <metadata
     id="metadata7">
    <rdf:RDF>
      <cc:Work
         rdf:about="">
        <dc:format>image/svg+xml</dc:format>
        <dc:type
           rdf:resource="http://purl.org/dc/dcmitype/StillImage" />
        <dc:title></dc:title>
      </cc:Work>
    </rdf:RDF>
  </metadata>
  <g
     inkscape:label="Calque 1"
     inkscape:groupmode="layer"
     id="layer1"
     transform="translate(0,-308.2677)"
     style="display:inline">
    <path
       style="fill:#800000;fill-opacity:1;stroke:none"
       d="m 723.46071,689.01584 c 29.38826,4.32867 55.43849,19.36078 51.95241,30.19189 -3.48592,10.83108 -13.31045,12.24639 -20.48818,6.02334 -7.17771,-6.22307 -9.28045,-26.30718 -31.46423,-36.21523 z"
       id="path3767"
       inkscape:connector-curvature="0"
       sodipodi:nodetypes="czzc"
       inkscape:export-filename="/media/gilou/PROGRAMMES/Imprimante 3D/Objets 3D/SVG files/Le Gueuloir/LogoGueulomatonWeb.png"
       inkscape:export-xdpi="90"
       inkscape:export-ydpi="90" />
    <text
       xml:space="preserve"
       style="font-size:40px;font-style:normal;font-variant:normal;font-weight:normal;font-stretch:normal;line-height:125%;letter-spacing:0px;word-spacing:0px;fill:#800000;fill-opacity:1;stroke:none;font-family:DojoCP;-inkscape-font-specification:DojoCP"
       x="524.11792"
       y="736.31775"
       id="text3823"
       sodipodi:linespacing="125%"
       inkscape:export-filename="/media/gilou/PROGRAMMES/Imprimante 3D/Objets 3D/SVG files/Le Gueuloir/LogoGueulomatonWeb.png"
       inkscape:export-xdpi="90"
       inkscape:export-ydpi="90"><tspan
         sodipodi:role="line"
         id="tspan3825"
         x="524.11792"
         y="736.31775"
         style="font-style:normal;font-variant:normal;font-weight:normal;font-stretch:normal;fill:#800000;font-family:DojoCP;-inkscape-font-specification:DojoCP">par giloop</tspan></text>
  </g>
  <g
     inkscape:groupmode="layer"
     id="layer2"
     inkscape:label="Appareil"
     style="display:inline">
    <g
       style="display:inline"
       id="g4037"
       transform="matrix(0.81319379,0,0,0.81319379,-142.12067,8.2453424)"
       inkscape:export-xdpi="90"
       inkscape:export-ydpi="90"
       inkscape:export-filename="/media/gilou/PROGRAMMES/Imprimante 3D/Objets 3D/SVG files/Le Gueuloir/LogoGueulomatonWeb.png">
      <g
         transform="matrix(25.879499,0,0,-25.879499,712.54963,523.03764)"
         id="g3098"
         style="fill:#2b0000">
        <path
           id="path3100"
           style="fill:#2b0000;fill-opacity:1;fill-rule:nonzero;stroke:none"
           d="m 0,0 c 0.629,0 1.174,-0.342 1.475,-0.846 l 1.773,-0.002 0,0.952 c 0,0.353 -0.287,0.64 -0.641,0.64 l -6.611,0 c -0.353,0 -0.639,-0.287 -0.639,-0.64 l 0.002,-0.944 3.166,-0.002 C -1.172,-0.34 -0.629,0 0,0"
           inkscape:connector-curvature="0" />
      </g>
      <g
         transform="matrix(25.879499,0,0,-25.879499,635.31754,495.97017)"
         id="g3102"
         style="fill:#000000">
        <path
           id="path3104"
           style="fill:#000000;fill-opacity:1;fill-rule:nonzero;stroke:none"
           d="m 0,0 -0.588,0 -0.068,-0.212 0.705,0 L 0,0 z"
           inkscape:connector-curvature="0" />
      </g>
      <g
         transform="matrix(25.879499,0,0,-25.879499,772.54907,493.0404)"
         id="g3106"
         style="fill:#000000">
        <path
           id="path3108"
           style="fill:#000000;fill-opacity:1;fill-rule:nonzero;stroke:none"
           d="m 0,0 -0.783,0 -0.139,-0.327 1.049,0 L 0,0 z"
           inkscape:connector-curvature="0" />
      </g>
      <path
         id="path3110"
         style="fill:#000000;fill-opacity:1;fill-rule:nonzero;stroke:none"
         d="m 702.98726,498.57345 -17.44279,0 0,-8.43673 17.44279,0 0,8.43673 z m 15.99353,-11.82693 -49.24869,0 -10.14476,14.85482 68.68419,0 -9.29074,-14.85482 z"
         inkscape:connector-curvature="0" />
      <g
         transform="matrix(25.879499,0,0,-25.879499,753.08997,549.32335)"
         id="g3112"
         style="fill:#800000">
        <path
           id="path3114"
           style="fill:#800000;fill-opacity:1;fill-rule:nonzero;stroke:none"
           d="m 0,0 c 0.098,-0.216 0.156,-0.454 0.156,-0.707 0,-0.951 -0.771,-1.723 -1.722,-1.723 -0.952,0 -1.723,0.772 -1.723,1.723 0,0.253 0.057,0.491 0.156,0.708 l -3.076,0 0,-2.596 c 0,-0.352 0.285,-0.639 0.639,-0.639 l 6.611,0 c 0.354,0 0.641,0.287 0.641,0.639 L 1.684,0 0,0 z"
           inkscape:connector-curvature="0" />
      </g>
      <g
         transform="matrix(25.879499,0,0,-25.879499,736.86352,552.9618)"
         id="g3116"
         style="fill:#000080">
        <path
           id="path3118"
           style="fill:#000080;fill-opacity:1;fill-rule:nonzero;stroke:none"
           d="m 0,0 c -0.027,0.048 -0.061,0.093 -0.098,0.136 -0.201,0.242 -0.502,0.4 -0.841,0.4 -0.34,0 -0.641,-0.157 -0.842,-0.398 C -1.818,0.094 -1.852,0.049 -1.881,0 c -0.101,-0.166 -0.162,-0.358 -0.162,-0.566 0,-0.609 0.494,-1.102 1.104,-1.102 0.607,0 1.101,0.493 1.101,1.102 0,0.208 -0.06,0.4 -0.162,0.566"
           inkscape:connector-curvature="0" />
      </g>
    </g>
  </g>
  <g
     inkscape:groupmode="layer"
     id="layer3"
     inkscape:label="Etoile"
     style="display:none">
    <g
       style="font-size:83.80053711px;font-style:normal;font-weight:normal;line-height:125%;letter-spacing:0px;word-spacing:0px;fill:#800000;fill-opacity:1;stroke:none;display:inline;font-family:Sans"
       id="text3840"
       transform="matrix(1.2723702,0,0,1.2723702,21.653725,126.96102)"
       inkscape:export-filename="/media/gilou/PROGRAMMES/Imprimante 3D/Objets 3D/SVG files/Le Gueuloir/LogoGueulomaton2.png"
       inkscape:export-xdpi="90"
       inkscape:export-ydpi="90">
      <path
         d="m 456.05387,353.05036 c -1.49284,7.65069 -2.98564,12.9688 -4.47841,15.95436 -1.58614,3.35886 -3.73204,5.03825 -6.43772,5.03821 -3.17223,4e-5 -8.77025,-2.89226 -16.79405,-8.67692 6.1578,8.77027 9.23671,14.78813 9.23673,18.0536 -2e-5,2.61244 -1.49282,4.66504 -4.47842,6.15781 -2.61241,1.39954 -7.32408,2.75239 -14.13499,4.05857 6.81091,1.30623 11.52258,2.61244 14.13499,3.91861 3.0789,1.49282 4.61835,3.49878 4.61836,6.01787 -1e-5,3.35883 -3.12557,9.37669 -9.37667,18.05361 8.0238,-5.69131 13.62182,-8.53697 16.79405,-8.53698 2.61238,1e-5 4.75829,1.67941 6.43772,5.03822 1.39947,2.9856 2.89228,8.30372 4.47841,15.95434 1.49277,-7.65062 2.98558,-12.96874 4.47842,-15.95434 1.67936,-3.35881 3.87191,-5.03821 6.57766,-5.03822 3.17217,1e-5 8.77018,2.84567 16.79406,8.53698 -6.25117,-8.77023 -9.37673,-14.78809 -9.37668,-18.05361 -5e-5,-2.51909 1.43039,-3.92934 4.47841,-6.01787 3.04802,-2.08854 7.41731,-2.61238 14.13499,-3.91861 -6.71768,-1.30618 -11.42934,-2.65903 -14.13499,-4.05857 -2.98566,-1.49277 -4.47846,-3.49871 -4.47841,-6.01787 -5e-5,-3.35876 3.12551,-9.42327 9.37668,-18.19354 -8.02388,5.78466 -13.66854,8.67696 -16.934,8.67692 -2.61245,4e-5 -4.75836,-1.67935 -6.43772,-5.03821 -1.49284,-2.98556 -2.98565,-8.30367 -4.47842,-15.95436 m 27.89446,47.86369 c -9.58775,-1.6813 -17.22189,-6.37001 -18.07235,-4.25234 -0.70941,1.80585 10.64079,8.37888 18.01156,12.20418 -3.01207,-0.45956 -19.38786,-10.53777 -20.4791,-8.65116 -1.09124,1.8866 0.84152,2.46901 5.64159,7.7234 -6.2368,-3.76401 -6.84283,-6.00394 -9.67845,-4.62807 -2.83562,1.37587 -2.02309,8.03117 -2.6235,13.3296 -0.76079,-5.46708 -0.60507,-11.46651 -4.58759,-12.41256 -2.33253,10e-6 -3.9214,0.0663 -9.70601,4.26479 5.601,-5.4024 6.19404,-5.81882 5.4847,-6.95234 -2.47595,-2.88736 -17.32863,3.70109 -19.48277,4.43867 7.18411,-4.10519 18.03848,-8.41279 18.03851,-9.81232 -3e-5,-1.39948 -5.8314,-1.59098 -14.13511,-2.3374 4.57726,-0.53632 13.63649,-0.38684 15.00058,-2.08223 1.37938,-2.36157 10e-4,-5.98629 -5.14521,-12.12051 5.7846,5.22486 7.36025,6.66974 8.75978,6.6697 0.52821,-3.57198 -6.01202,-17.56947 -6.95683,-21.90911 4.47871,9.00649 8.56738,20.39362 9.96692,20.39357 1.58608,5e-5 1.13579,-13.16275 2.06882,-23.05262 0.93297,9.88987 0.42434,23.05033 2.01048,23.05029 1.39946,4e-5 6.0133,-12.27407 10.30515,-20.39124 -2.42584,7.09087 -7.03335,19.71132 -7.03331,21.57727 1.44366,4.85944 3.51415,0.3027 8.07509,-3.43601 -3.28567,5.74356 -5.42281,7.72479 -4.37434,9.37801 1.04847,1.65322 12.50125,5.27107 18.91139,9.00843 z"
         style="font-variant:normal;font-stretch:normal;fill:#800000;font-family:HEretica;-inkscape-font-specification:HEretica"
         id="path3845"
         inkscape:connector-curvature="0"
         sodipodi:nodetypes="ccccccccscscccscczcccccccccczczccccccccccccccccczc" />
    </g>
  </g>
  <g
     inkscape:groupmode="layer"
     id="layer4"
     inkscape:label="O rond"
     style="display:inline">
    <path
       inkscape:connector-curvature="0"
       id="path3797"
       style="font-size:111.1180191px;font-style:normal;font-variant:normal;font-weight:bold;font-stretch:normal;line-height:125%;letter-spacing:0px;word-spacing:0px;fill:#000080;fill-opacity:1;stroke:none;display:inline;font-family:AngelicaCP;-inkscape-font-specification:AngelicaCP Bold"
       d="m 5.54788,320.55756 0,71.78224 2.88907,0 0,-71.78224 -2.88907,0 m 21.77913,0 -15.11205,0 0,71.78224 14.7787,0 0.33335,-71.78224"
       inkscape:export-filename="/media/gilou/PROGRAMMES/Imprimante 3D/Objets 3D/SVG files/Le Gueuloir/LogoGueulomatonWeb.png"
       inkscape:export-xdpi="90"
       inkscape:export-ydpi="90" />
    <path
       inkscape:connector-curvature="0"
       id="path3799"
       style="font-size:111.1180191px;font-style:normal;font-variant:normal;font-weight:bold;font-stretch:normal;line-height:125%;letter-spacing:0px;word-spacing:0px;fill:#000080;fill-opacity:1;stroke:none;display:inline;font-family:AngelicaCP;-inkscape-font-specification:AngelicaCP Bold"
       d="m 65.3884,370.89403 c 0,6.11148 4.8892,11.00068 11.00069,11.00068 6.11148,0 11.00068,-4.8892 11.00068,-11.00068 0,-6.11149 -4.8892,-11.00069 -11.00068,-11.00069 -6.11149,0 -11.00069,4.8892 -11.00069,11.00069 m 15.22317,14.11198 c -1.33341,0.33336 -2.66683,0.66671 -4.11136,0.66671 -8.55608,0 -15.44541,-6.88932 -15.44541,-15.4454 l 0,-33.66876 c -15.00092,0.44447 -27.1128,12.66747 -27.1128,27.89062 0,15.44539 12.44524,27.89062 27.89063,27.89062 7.22266,0 13.77864,-2.88907 18.77894,-7.33379 m -15.77876,-48.22522 0,21.22355 24.33485,0 C 86.50083,346.55919 76.72243,338.11421 64.83281,336.78079"
       inkscape:export-filename="/media/gilou/PROGRAMMES/Imprimante 3D/Objets 3D/SVG files/Le Gueuloir/LogoGueulomatonWeb.png"
       inkscape:export-xdpi="90"
       inkscape:export-ydpi="90" />
    <path
       inkscape:connector-curvature="0"
       id="path3801"
       style="font-size:111.1180191px;font-style:normal;font-variant:normal;font-weight:bold;font-stretch:normal;line-height:125%;letter-spacing:0px;word-spacing:0px;fill:#800000;fill-opacity:1;stroke:none;display:inline;font-family:AngelicaCP;-inkscape-font-specification:AngelicaCP Bold"
       d="m 123.81292,390.58581 c 0,8.88201 7.23722,16.11923 16.11925,16.11923 8.88201,0 16.11923,-7.23722 16.11923,-16.11923 0,-8.88203 -7.23722,-16.11925 -16.11923,-16.11925 -8.88203,0 -16.11925,7.23722 -16.11925,16.11925 m 22.86301,-20.56027 c 8.71753,2.7962 14.96787,10.85583 14.96787,20.56027 0,12.00716 -9.70447,21.71163 -21.71163,21.71163 -9.53995,0 -17.43511,-6.08586 -20.39578,-14.63891 0.32897,14.63889 12.33616,26.4816 27.13954,26.4816 14.96785,0 27.13953,-12.17168 27.13953,-27.13953 0,-14.96785 -12.17168,-26.97506 -27.13953,-26.97506 m 29.93573,-42.76531 c -2.7962,1.48033 -5.5924,2.30274 -8.88204,2.30274 -10.19787,0 -18.58646,-8.38858 -18.58646,-18.58646 0,-4.44102 1.48034,-8.55307 4.27652,-11.84271 -2.79618,-0.98689 -5.59238,-1.64482 -8.55305,-1.8093 l 0,69.4114 c 17.92852,-1.48033 32.07399,-16.44821 32.07399,-34.7057 0,-1.64482 -0.16449,-3.28964 -0.32896,-4.76997 m -37.33743,39.47567 0,-69.4114 c -17.92852,1.48033 -32.07399,16.44821 -32.07399,34.7057 0,18.25749 14.14547,33.22537 32.07399,34.7057 m 15.46132,-55.75939 c 0,7.23719 5.75687,12.99408 12.99407,12.99408 7.23721,0 12.99409,-5.75689 12.99409,-12.99408 0,-7.2372 -5.75688,-12.99409 -12.99409,-12.99409 -7.2372,0 -12.99407,5.75689 -12.99407,12.99409"
       inkscape:export-filename="/media/gilou/PROGRAMMES/Imprimante 3D/Objets 3D/SVG files/Le Gueuloir/LogoGueulomatonWeb.png"
       inkscape:export-xdpi="90"
       inkscape:export-ydpi="90" />
    <path
       inkscape:connector-curvature="0"
       id="path3803"
       style="font-size:111.1180191px;font-style:normal;font-variant:normal;font-weight:bold;font-stretch:normal;line-height:125%;letter-spacing:0px;word-spacing:0px;fill:#2b0000;fill-opacity:1;stroke:none;display:inline;font-family:AngelicaCP;-inkscape-font-specification:AngelicaCP Bold"
       d="m 223.96981,391.00639 0,-51.89212 -2.88907,0 0,51.89212 2.88907,0 m -26.77944,-27.44615 0,-24.44597 -16.33435,0 0,35.00218 c 0,10.11173 8.11162,18.22335 18.22335,18.22335 10.11173,0 18.22336,-8.11162 18.22336,-18.22335 l 0,-35.00218 -16.33435,0 0,24.44597 c 0,1.00006 -0.88895,1.889 -1.88901,1.889 -1.00006,0 -1.889,-0.88894 -1.889,-1.889"
       inkscape:export-filename="/media/gilou/PROGRAMMES/Imprimante 3D/Objets 3D/SVG files/Le Gueuloir/LogoGueulomatonWeb.png"
       inkscape:export-xdpi="90"
       inkscape:export-ydpi="90" />
    <path
       inkscape:connector-curvature="0"
       id="path3805"
       style="font-size:111.1180191px;font-style:normal;font-variant:normal;font-weight:bold;font-stretch:normal;line-height:125%;letter-spacing:0px;word-spacing:0px;fill:#2b0000;fill-opacity:1;stroke:none;display:inline;font-family:AngelicaCP;-inkscape-font-specification:AngelicaCP Bold"
       d="m 260.1548,370.89403 c 0,6.11148 4.8892,11.00068 11.00069,11.00068 6.11148,0 11.00068,-4.8892 11.00068,-11.00068 0,-6.11149 -4.8892,-11.00069 -11.00068,-11.00069 -6.11149,0 -11.00069,4.8892 -11.00069,11.00069 m 15.22317,14.11198 c -1.33341,0.33336 -2.66683,0.66671 -4.11136,0.66671 -8.55608,0 -15.44541,-6.88932 -15.44541,-15.4454 l 0,-33.66876 c -15.00092,0.44447 -27.1128,12.66747 -27.1128,27.89062 0,15.44539 12.44524,27.89062 27.89063,27.89062 7.22266,0 13.77864,-2.88907 18.77894,-7.33379 m -15.77876,-48.22522 0,21.22355 24.33485,0 c -2.66683,-11.44515 -12.44523,-19.89013 -24.33485,-21.22355"
       inkscape:export-filename="/media/gilou/PROGRAMMES/Imprimante 3D/Objets 3D/SVG files/Le Gueuloir/LogoGueulomatonWeb.png"
       inkscape:export-xdpi="90"
       inkscape:export-ydpi="90" />
    <path
       inkscape:connector-curvature="0"
       id="path3807"
       style="font-size:111.1180191px;font-style:normal;font-variant:normal;font-weight:bold;font-stretch:normal;line-height:125%;letter-spacing:0px;word-spacing:0px;fill:#2b0000;fill-opacity:1;stroke:none;display:inline;font-family:AngelicaCP;-inkscape-font-specification:AngelicaCP Bold"
       d="m 331.78643,391.00639 0,-51.89212 -2.88907,0 0,51.89212 2.88907,0 m -26.77944,-27.44615 0,-24.44597 -16.33435,0 0,35.00218 c 0,10.11173 8.11162,18.22335 18.22335,18.22335 10.11173,0 18.22336,-8.11162 18.22336,-18.22335 l 0,-35.00218 -16.33435,0 0,24.44597 c 0,1.00006 -0.88895,1.889 -1.88901,1.889 -1.00006,0 -1.889,-0.88894 -1.889,-1.889"
       inkscape:export-filename="/media/gilou/PROGRAMMES/Imprimante 3D/Objets 3D/SVG files/Le Gueuloir/LogoGueulomatonWeb.png"
       inkscape:export-xdpi="90"
       inkscape:export-ydpi="90" />
    <path
       inkscape:connector-curvature="0"
       id="path3809"
       style="font-size:111.1180191px;font-style:normal;font-variant:normal;font-weight:bold;font-stretch:normal;line-height:125%;letter-spacing:0px;word-spacing:0px;fill:#2b0000;fill-opacity:1;stroke:none;display:inline;font-family:AngelicaCP;-inkscape-font-specification:AngelicaCP Bold"
       d="m 336.52502,320.55756 0,71.78224 2.88907,0 0,-71.78224 -2.88907,0 m 21.77913,0 -15.11205,0 0,71.78224 14.7787,0 0.33335,-71.78224"
       inkscape:export-filename="/media/gilou/PROGRAMMES/Imprimante 3D/Objets 3D/SVG files/Le Gueuloir/LogoGueulomatonWeb.png"
       inkscape:export-xdpi="90"
       inkscape:export-ydpi="90" />
    <path
       inkscape:connector-curvature="0"
       id="path3813"
       style="font-size:111.1180191px;font-style:normal;font-variant:normal;font-weight:bold;font-stretch:normal;line-height:125%;letter-spacing:0px;word-spacing:0px;fill:#2b0000;fill-opacity:1;stroke:none;display:inline;font-family:AngelicaCP;-inkscape-font-specification:AngelicaCP Bold"
       d="m 450.34203,368.67166 0,23.66814 16.33435,0 0,-34.22435 c 0,-10.11173 -8.11163,-18.22336 -18.22336,-18.22336 -10.11173,0 -18.22335,8.11163 -18.22335,18.22336 l 0,34.22435 16.33435,0 0,-23.66814 c 0,-1.00006 0.88894,-1.88901 1.889,-1.88901 1.00006,0 1.88901,0.88895 1.88901,1.88901 m -26.77944,-28.22398 0,51.89212 2.88907,0 0,-51.89212 -2.88907,0 m 61.00416,28.22398 0,23.66814 16.33435,0 0,-34.22435 c 0,-10.11173 -8.11162,-18.22336 -18.22335,-18.22336 -10.11173,0 -17.63346,8.12885 -18.22336,18.22336 l 0,34.22435 16.33435,0 0,-23.66814 c 0,-1.00006 0.88895,-1.88901 1.88901,-1.88901 1.00006,0 1.889,0.88895 1.889,1.88901"
       sodipodi:nodetypes="cccsssccsscccccccccsssccssc"
       inkscape:export-filename="/media/gilou/PROGRAMMES/Imprimante 3D/Objets 3D/SVG files/Le Gueuloir/LogoGueulomatonWeb.png"
       inkscape:export-xdpi="90"
       inkscape:export-ydpi="90" />
    <path
       inkscape:connector-curvature="0"
       id="path3815"
       style="font-size:111.1180191px;font-style:normal;font-variant:normal;font-weight:bold;font-stretch:normal;line-height:125%;letter-spacing:0px;word-spacing:0px;fill:#2b0000;fill-opacity:1;stroke:none;display:inline;font-family:AngelicaCP;-inkscape-font-specification:AngelicaCP Bold"
       d="m 526.41875,364.44918 c 0,6.44484 5.22255,11.66739 11.66739,11.66739 6.44484,0 11.66739,-5.22255 11.66739,-11.66739 0,-6.44484 -5.22255,-11.66739 -11.66739,-11.66739 -6.44484,0 -11.66739,5.22255 -11.66739,11.66739 m 26.00161,20.55683 0,-14.77869 c -2.33347,5.66701 -7.77827,9.66727 -14.33422,9.66727 -8.55608,0 -15.44541,-6.88933 -15.44541,-15.44541 0,-8.55608 6.88933,-15.4454 15.44541,-15.4454 6.55595,0 12.00075,4.00025 14.33422,9.66726 l 0,-14.77869 c -5.0003,-4.55584 -11.55628,-7.33379 -18.89006,-7.33379 -15.44539,0 -27.89062,12.44523 -27.89062,27.89062 0,15.44539 12.44523,27.89062 27.89062,27.89062 7.33378,0 13.88976,-2.77795 18.89006,-7.33379 m 4.00025,-45.89174 0,52.00324 2.88907,0 0,-52.00324 -2.88907,0"
       inkscape:export-filename="/media/gilou/PROGRAMMES/Imprimante 3D/Objets 3D/SVG files/Le Gueuloir/LogoGueulomatonWeb.png"
       inkscape:export-xdpi="90"
       inkscape:export-ydpi="90" />
    <path
       inkscape:connector-curvature="0"
       id="path3817"
       style="font-size:111.1180191px;font-style:normal;font-variant:normal;font-weight:bold;font-stretch:normal;line-height:125%;letter-spacing:0px;word-spacing:0px;fill:#2b0000;fill-opacity:1;stroke:none;display:inline;font-family:AngelicaCP;-inkscape-font-specification:AngelicaCP Bold"
       d="m 570.71548,330.80137 c -2.77794,0.77783 -5.66702,1.33342 -8.6672,1.55565 l 0,3.11131 5.5559,0 0,35.89112 c 0,17.33439 9.22281,25.22379 22.33472,25.22379 5.33366,0 12.66746,-5.22255 12.66746,-5.22255 -3.55578,1.66677 -8.66721,3.22242 -12.66746,3.22242 -12.00073,0 -19.22342,-12.00075 -19.22342,-22.66807 l 0,-41.11367 m 25.77939,58.89255 c -8.55608,0 -15.44541,-6.88933 -15.44541,-15.4454 0,-7.22267 4.77808,-13.33417 11.55627,-15.00094 l 0,-23.77925 9.11168,0 0,-4.22249 -9.11168,0 0,-18.66782 c -5.22254,8.77831 -11.33404,14.44534 -18.33447,17.22329 l 0,42.11373 c 0,9.11167 6.00038,19.1123 15.66764,19.1123 3.77801,0 6.33373,-0.33336 9.55615,-1.66677 -1.00006,0.22223 -1.77789,0.33335 -3.00018,0.33335 m -11.6674,-15.4454 c 0,6.44483 5.22256,11.66739 11.6674,11.66739 6.44483,0 11.66739,-5.22256 11.66739,-11.66739 0,-6.44484 -5.22256,-11.6674 -11.66739,-11.6674 -6.44484,0 -11.6674,5.22256 -11.6674,11.6674"
       inkscape:export-filename="/media/gilou/PROGRAMMES/Imprimante 3D/Objets 3D/SVG files/Le Gueuloir/LogoGueulomatonWeb.png"
       inkscape:export-xdpi="90"
       inkscape:export-ydpi="90" />
    <path
       inkscape:connector-curvature="0"
       id="path3819"
       style="font-size:111.1180191px;font-style:normal;font-variant:normal;font-weight:bold;font-stretch:normal;line-height:125%;letter-spacing:0px;word-spacing:0px;fill:#800000;fill-opacity:1;stroke:none;display:inline;font-family:AngelicaCP;-inkscape-font-specification:AngelicaCP Bold"
       d="m 650.45883,364.44918 c 0,-6.44484 -5.22255,-11.66739 -11.66739,-11.66739 -6.44484,0 -11.66739,5.22255 -11.66739,11.66739 0,6.44484 5.22255,11.66739 11.66739,11.66739 6.44484,0 11.66739,-5.22255 11.66739,-11.66739 m -27.1128,0 c 0,-8.55608 6.88933,-15.4454 15.44541,-15.4454 8.55608,0 15.4454,6.88932 15.4454,15.4454 0,8.55608 -6.88932,15.44541 -15.4454,15.44541 -8.55608,0 -15.44541,-6.88933 -15.44541,-15.44541 m -12.44521,0 c 0,15.44539 12.44523,27.89062 27.89062,27.89062 15.44539,0 27.89062,-12.44523 27.89062,-27.89062 0,-15.44539 -12.44523,-27.89062 -27.89062,-27.89062 -15.44539,0 -27.89062,12.44523 -27.89062,27.89062"
       inkscape:export-filename="/media/gilou/PROGRAMMES/Imprimante 3D/Objets 3D/SVG files/Le Gueuloir/LogoGueulomatonWeb.png"
       inkscape:export-xdpi="90"
       inkscape:export-ydpi="90" />
    <path
       sodipodi:nodetypes="ccccccccczcsssccsc"
       inkscape:connector-curvature="0"
       id="path3821"
       style="font-size:111.1180191px;font-style:normal;font-variant:normal;font-weight:bold;font-stretch:normal;line-height:125%;letter-spacing:0px;word-spacing:0px;fill:#800000;fill-opacity:1;stroke:none;display:inline;font-family:AngelicaCP;-inkscape-font-specification:AngelicaCP Bold"
       d="m 671.42065,340.16494 0,51.89212 2.88907,0 0,-51.89212 -2.88907,0 m 26.77944,28.22398 0,23.66814 14.56658,0.25254 7.82868,0.0302 c 0,0 -8.53646,-10.13151 -8.33375,-16.88984 0.20271,-6.75833 8.33375,-15.37461 8.33375,-15.37461 l -6.06091,-5.2731 c -7.62866,-6.63706 -8.11163,-15.1929 -18.22336,-15.1929 -10.11173,0 -18.22335,8.11163 -18.22335,18.22336 l 0,34.22435 16.33435,0 0,-23.66814 c 0,-1.00006 0.88894,-1.88901 1.889,-1.88901"
       inkscape:export-filename="/media/gilou/PROGRAMMES/Imprimante 3D/Objets 3D/SVG files/Le Gueuloir/LogoGueulomatonWeb.png"
       inkscape:export-xdpi="90"
       inkscape:export-ydpi="90" />
    <path
       style="fill:#2b0000;fill-opacity:1;stroke:none;display:inline"
       d="m 727.31981,365.8784 c 32.61155,-14.82193 37.07326,-53.52755 52.20024,-52.63082 15.12706,0.89672 10.55876,21.10946 4.08255,27.06749 -6.47598,5.95803 -27.87005,20.13349 -56.28279,25.56333 z"
       id="path2995"
       inkscape:connector-curvature="0"
       sodipodi:nodetypes="czzc"
       inkscape:export-filename="/media/gilou/PROGRAMMES/Imprimante 3D/Objets 3D/SVG files/Le Gueuloir/LogoGueulomatonWeb.png"
       inkscape:export-xdpi="90"
       inkscape:export-ydpi="90" />
    <path
       sodipodi:nodetypes="czzc"
       inkscape:connector-curvature="0"
       id="path3765"
       d="m 720.16264,374.06848 c 24.27478,-2.06024 64.45817,-22.08136 71.60077,-4.73163 7.1429,17.34973 -17.17993,19.54057 -25.61858,13.97404 -8.43849,-5.56652 -20.6645,-8.45122 -45.98219,-9.24241 z"
       style="fill:#000080;fill-opacity:1;stroke:none;display:inline"
       inkscape:export-filename="/media/gilou/PROGRAMMES/Imprimante 3D/Objets 3D/SVG files/Le Gueuloir/LogoGueulomatonWeb.png"
       inkscape:export-xdpi="90"
       inkscape:export-ydpi="90" />
    <path
       inkscape:export-ydpi="90"
       inkscape:export-xdpi="90"
       inkscape:export-filename="/media/gilou/PROGRAMMES/Imprimante 3D/Objets 3D/SVG files/Le Gueuloir/LogoGueulomatonWeb.png"
       d="m 402.60077,364.44918 c 0,-6.44484 -5.22255,-11.66739 -11.66739,-11.66739 -6.44484,0 -11.66739,5.22255 -11.66739,11.66739 0,6.44484 5.22255,11.66739 11.66739,11.66739 6.44484,0 11.66739,-5.22255 11.66739,-11.66739 m -27.1128,0 c 0,-8.55608 6.88933,-15.4454 15.44541,-15.4454 8.55608,0 15.4454,6.88932 15.4454,15.4454 0,8.55608 -6.88932,15.44541 -15.4454,15.44541 -8.55608,0 -15.44541,-6.88933 -15.44541,-15.44541 m -12.44521,0 c 0,15.44539 12.44523,27.89062 27.89062,27.89062 15.44539,0 27.89062,-12.44523 27.89062,-27.89062 0,-15.44539 -12.44523,-27.89062 -27.89062,-27.89062 -15.44539,0 -27.89062,12.44523 -27.89062,27.89062"
       style="font-size:111.1180191px;font-style:normal;font-variant:normal;font-weight:bold;font-stretch:normal;line-height:125%;letter-spacing:0px;word-spacing:0px;fill:#800000;fill-opacity:1;stroke:none;display:inline;font-family:AngelicaCP;-inkscape-font-specification:AngelicaCP Bold"
       id="path4129"
       inkscape:connector-curvature="0" />
  </g>
</svg>
