<?xml version="1.0" encoding="UTF-8" standalone="no"?>
<!-- Created with Inkscape (http://www.inkscape.org/) -->

<svg
   xmlns:dc="http://purl.org/dc/elements/1.1/"
   xmlns:cc="http://creativecommons.org/ns#"
   xmlns:rdf="http://www.w3.org/1999/02/22-rdf-syntax-ns#"
   xmlns:svg="http://www.w3.org/2000/svg"
   xmlns="http://www.w3.org/2000/svg"
   xmlns:sodipodi="http://sodipodi.sourceforge.net/DTD/sodipodi-0.dtd"
   xmlns:inkscape="http://www.inkscape.org/namespaces/inkscape"
   width="389.55804"
   height="344.625"
   id="svg2"
   version="1.1"
   inkscape:version="0.48.1 "
   sodipodi:docname="Nouveau document 1">
  <defs
     id="defs4" />
  <sodipodi:namedview
     id="base"
     pagecolor="#ffffff"
     bordercolor="#666666"
     borderopacity="1.0"
     inkscape:pageopacity="0.0"
     inkscape:pageshadow="2"
     inkscape:zoom="2.569003"
     inkscape:cx="107.80446"
     inkscape:cy="128.02352"
     inkscape:document-units="cm"
     inkscape:current-layer="layer1"
     showgrid="false"
     units="cm"
     showguides="true"
     inkscape:guide-bbox="true"
     inkscape:snap-grids="true"
     inkscape:snap-to-guides="false"
     fit-margin-top="0"
     fit-margin-left="0"
     fit-margin-right="0"
     fit-margin-bottom="0"
     inkscape:window-width="1463"
     inkscape:window-height="840"
     inkscape:window-x="74"
     inkscape:window-y="74"
     inkscape:window-maximized="0">
    <sodipodi:guide
       orientation="1,0"
       position="349.00699,55.60715"
       id="guide3766" />
    <sodipodi:guide
       orientation="1,0"
       position="41.832891,66.616974"
       id="guide3803" />
    <sodipodi:guide
       orientation="0,1"
       position="160.1885,21.476695"
       id="guide3805" />
    <sodipodi:guide
       orientation="0,1"
       position="164.59243,177.26571"
       id="guide3807" />
  </sodipodi:namedview>
  <metadata
     id="metadata7">
    <rdf:RDF>
      <cc:Work
         rdf:about="">
        <dc:format>image/svg+xml</dc:format>
        <dc:type
           rdf:resource="http://purl.org/dc/dcmitype/StillImage" />
        <dc:title></dc:title>
      </cc:Work>
    </rdf:RDF>
  </metadata>
  <g
     inkscape:label="Calque 1"
     inkscape:groupmode="layer"
     id="layer1"
     transform="translate(27.459868,-298.00045)">
    <g
       style="font-size:62.98899841px;font-style:normal;font-variant:normal;font-weight:normal;font-stretch:normal;line-height:125%;letter-spacing:0px;word-spacing:0px;fill:#000000;fill-opacity:1;stroke:none;font-family:Snap ITC;-inkscape-font-specification:Snap ITC"
       id="text2985">
      <path
         style="font-style:normal;font-variant:normal;font-weight:normal;font-stretch:normal;font-family:Snap ITC;-inkscape-font-specification:Snap ITC"
         d="m 191.28125,-36.875 c -15.1052,0 -24.00103,17.60504 -30.64747,39.0482439 L 146,4.5625 c 3.69859,11.961488 -0.2839,30.490721 -1.375,41.09375 -3.64128,1.022629 -7.25036,2.162549 -10.8125,3.40625 l -12.96875,-7.34375 c 5.67531,-12.18879 3.72769,-18.867584 -3.875,-23.34375 -7.60269,-4.476167 -32.0249,12.816507 -41.4375,18.90625 8.515626,8.7554 14.176646,19.763 20.65625,30.03125 -4.294198,2.735772 -8.452747,5.655955 -12.5,8.75 C 82.87546,61.292547 75.997431,56.64165 68.1875,53.5 47.249229,49.370847 31.97244,63.897026 37.40625,86.875 c 3.351277,8.375898 11.266923,13.78445 19.71875,14.28125 -2.958913,3.44928 -5.7767,7.02451 -8.46875,10.71875 L 35.375,101.59375 c 0.458554,9.24209 -5.135394,21.53978 -13.625,18.0625 -8.489606,-3.47727 -1.61854,-18.48823 6.375,-19.46875 L 15,92.875 c -2.197056,3.186876 -4.35825,8.25388 -6.03125,9.8125 -22.124073,22.56407 1.29177,46.02614 20.8125,42.3125 -1.150705,2.68662 -2.230119,5.41736 -3.25,8.1875 C 10.155225,197.6671 13.920365,268.32688 33.25,307.75 l 12.96875,-4.0625 c 7.124787,-3.35459 15.011132,-9.8828 12.71875,-17.75 C 53.240017,266.38439 43.569358,301.3278 37.21875,280.5 35.749192,275.68035 33.333465,263.68235 32.53125,258.6875 28.647313,233.24571 32.59443,178.77248 40.125,157.8125 63.666708,93.869915 125.33376,53.624845 191.40625,52.78125 c 18.5003,-0.236207 37.33024,2.623246 55.78125,8.90625 42.17373,14.36115 74.22207,43.90704 91.96875,80.09375 27.21642,66.32992 29.09666,106.43947 14.21875,140.09375 -2.65726,18.0131 -21.14591,-18.33063 -22.96875,2.6875 -3.37987,16.34705 15.32925,17.33587 20.21875,18.34375 4.8895,1.00789 5.38831,0.23829 13.8125,2.1875 19.4839,-26.80196 25.36709,-100.82527 -7.78125,-163.875 11.21319,-5.15903 20.51587,-15.48196 32.90625,-17.40625 l -10.875,-17.9375 c -6.68571,6.0379 -12.45247,10.74052 -19.125,15.46875 l 14.5,-24.5 -13.5,-18.375 c -10.18977,7.83823 -20.934,14.946085 -31.46875,22.3125 -2.37084,-2.796776 -6.565,-8.847074 -9.125,-11.5 8.11614,-11.102218 15.18515,-19.190494 27.25,-25.15625 L 328.5,43.96875 C 322.49542,56.251915 312.93367,66.315044 304.53125,77 296.62869,70.762152 289.84388,66.521248 280.71875,61.625 l 14.5625,-20.6875 9.5,8.90625 14.28125,-12.5 -46.53125,-20.53125 -6.71875,11.84375 12.90625,2.875 L 269,55.96875 c -6.43744,-3.101933 -10.01031,-5.067985 -16.96875,-7.4375 -2.16229,-0.736312 -2.39099,-1.413283 -4.5625,-2.0625 6.26757,-14.685448 9.73179,-23.772787 17.71875,-37.375 l -25.59375,-5.75 c 1.63736,9.867451 -0.39784,19.900892 -1.28125,29.78125 L 228.96875,0.1875 219.15625,0.125 c -1.81707,-12.225792 -13.3601,-37 -27.875,-37 z m -0.19024,18.295506 c 15.16006,2.234753 12.65534,40.563779 10.00274,57.610744 -3.10043,-0.124755 -6.19432,-0.158303 -9.28125,-0.125 C 190.02274,24.732491 175.63257,13.791832 175.125,0 c 3.56716,-7.0260082 8.27953,-19.712563 15.96601,-18.579494 z m -27.99726,30.016994 6.0625,11.5 -7.90625,4.09375 z m 55.8125,7.875 L 231.5,42.875 c -3.5311,-0.753232 -7.05652,-1.40183 -10.59375,-1.9375 z m -45.375,13.0625 2.9375,6.4375 -0.5,0.96875 c -4.56434,0.450499 -9.09943,1.054373 -13.59375,1.84375 l 1.4375,-7 z m -70.6875,0.34375 c 6.36196,-0.511577 5.35343,8.038577 -2.03125,12.0625 L 97.25,34.6875 c 2.265459,-1.250222 4.1256,-1.850694 5.59375,-1.96875 z m 5.59375,19.125 c 3.31192,-0.01784 4.83142,3.055977 7.78125,4.40625 -2.58813,1.219522 -5.13074,2.504201 -7.65625,3.84375 l -4.15625,-7.03125 c 1.6204,-0.875318 2.92728,-1.212803 4.03125,-1.21875 z M 60.5,66.875 c 3.993049,-0.08535 7.168419,1.400753 6.28125,5.03125 -4.853167,5.919159 -10.547593,7.993182 -13.875,1.28125 -2.382444,-3.946162 2.924,-5.646319 5.84375,-6.1875 0.594445,-0.07497 1.179564,-0.112807 1.75,-0.125 z m 295.65625,32.96875 -11.375,22.8125 c -1.7884,-3.09891 -3.13864,-5.35599 -5.125,-8.34375 z"
         transform="translate(-27.464309,334.87545)"
         id="path3773"
         inkscape:connector-curvature="0"
         sodipodi:nodetypes="scccccsccccccccsccccsccssccsscccsccccccccccccccccccccsccccccsscccsccccccccccccccsccsscccsscccscccc" />
    </g>
  </g>
</svg>
