<?xml version="1.0" encoding="UTF-8" standalone="no"?>
<!-- Created with Inkscape (http://www.inkscape.org/) -->

<svg
   xmlns:dc="http://purl.org/dc/elements/1.1/"
   xmlns:cc="http://creativecommons.org/ns#"
   xmlns:rdf="http://www.w3.org/1999/02/22-rdf-syntax-ns#"
   xmlns:svg="http://www.w3.org/2000/svg"
   xmlns="http://www.w3.org/2000/svg"
   xmlns:sodipodi="http://sodipodi.sourceforge.net/DTD/sodipodi-0.dtd"
   xmlns:inkscape="http://www.inkscape.org/namespaces/inkscape"
   width="11.311904cm"
   height="9.3713417cm"
   id="svg2"
   version="1.1"
   inkscape:version="0.91 r13725"
   sodipodi:docname="Accroche_Mangeoire_Salome.svg">
  <defs
     id="defs4" />
  <sodipodi:namedview
     id="base"
     pagecolor="#ffffff"
     bordercolor="#666666"
     borderopacity="1.0"
     inkscape:pageopacity="0.0"
     inkscape:pageshadow="2"
     inkscape:zoom="1.6239101"
     inkscape:cx="138.07621"
     inkscape:cy="123.60134"
     inkscape:document-units="cm"
     inkscape:current-layer="layer1"
     showgrid="false"
     units="cm"
     showguides="true"
     inkscape:guide-bbox="true"
     inkscape:snap-grids="true"
     inkscape:snap-to-guides="false"
     fit-margin-top="0"
     fit-margin-left="0"
     fit-margin-right="0"
     fit-margin-bottom="0"
     inkscape:window-width="1680"
     inkscape:window-height="988"
     inkscape:window-x="-8"
     inkscape:window-y="-8"
     inkscape:window-maximized="1">
    <sodipodi:guide
       orientation="1,0"
       position="357.5792,57.431619"
       id="guide3766" />
    <sodipodi:guide
       orientation="1,0"
       position="50.405104,68.441443"
       id="guide3803" />
    <sodipodi:guide
       orientation="0,1"
       position="168.76071,23.301164"
       id="guide3805" />
    <sodipodi:guide
       orientation="0,1"
       position="196.04522,193.37299"
       id="guide3807" />
  </sodipodi:namedview>
  <metadata
     id="metadata7">
    <rdf:RDF>
      <cc:Work
         rdf:about="">
        <dc:format>image/svg+xml</dc:format>
        <dc:type
           rdf:resource="http://purl.org/dc/dcmitype/StillImage" />
        <dc:title></dc:title>
      </cc:Work>
    </rdf:RDF>
  </metadata>
  <g
     inkscape:label="Calque 1"
     inkscape:groupmode="layer"
     id="layer1"
     transform="translate(36.032081,-312.39451)">
    <g
       style="font-style:normal;font-variant:normal;font-weight:normal;font-stretch:normal;font-size:62.98899841px;line-height:125%;font-family:'Snap ITC';-inkscape-font-specification:'Snap ITC';letter-spacing:0px;word-spacing:0px;fill:#000000;fill-opacity:1;stroke:none"
       id="text2985"
       transform="translate(408.81868,-7.2144472)">
      <path
         style="font-style:normal;font-variant:normal;font-weight:normal;font-stretch:normal;font-family:'Snap ITC';-inkscape-font-specification:'Snap ITC'"
         d="m 168.7391,35.323787 c -5.74058,11.531648 -2.25992,27.101937 4.30387,37.836369 -6.30132,0.620395 -12.707,1.609925 -19.16211,3.011719 1.74461,-2.750458 3.11929,-5.708651 3.60547,-8.947266 0.45781,-2.52472 -0.58949,-6.984062 -3.8418,-6.513671 -4.39321,3.222839 -8.54331,6.839631 -13.10547,9.863281 -2.36729,1.43819 -6.53065,5.542005 -8.67968,1.884765 -1.33687,-5.31288 -1.99912,-10.783008 -2.53907,-16.230468 -1.05229,-9.05484 -0.44123,-18.282412 -2.36719,-27.232422 -1.8371,-9.398096 -9.14889,-5.139432 -10.7539,0.255859 -1.11505,7.61447 -1.27172,15.381219 -0.96289,23.074219 0.62875,9.07696 1.05868,18.513581 4.96875,26.894531 1.07686,2.280762 2.51015,4.549551 4.28515,6.449219 -4.36245,1.913636 -8.71327,4.074975 -13.04101,6.488281 0.0847,-1.22966 -0.0109,-2.469478 -0.29688,-3.644531 -1.50738,-4.16361 -5.01443,-7.190205 -7.72851,-10.583984 -0.75364,-3.701991 -1.81868,-7.355201 -3.36719,-10.806641 -1.593234,-4.99792 -4.047912,1.275265 -6.199218,2.328125 -3.706893,-2.99912 -7.160327,-6.307623 -11.007813,-9.132813 -6.537251,-4.70889 -14.868849,-8.311018 -23.039062,-6.417968 -3.672006,0.58302 -6.65689,3.370952 -7.824219,6.851562 -2.158029,7.03762 -1.61935,14.615682 -0.289062,21.763672 1.608866,9.36478 5.766964,18.171835 11.646484,25.607425 3.099254,3.82037 6.38572,8.38952 11.154297,10.03515 -6.337877,5.2964 -11.715205,10.36554 -16.349609,15.25391 0.295101,-2.44487 0.345629,-4.91526 0.111328,-7.37305 -0.766018,-10.98327 -13.067079,-19.76349 -23.623047,-16.01562 -6.83006,3.30498 -11.840855,9.34237 -16.439453,15.21094 -2.661132,3.64003 -5.59337,7.14402 -8.117188,10.84374 -0.9673247,2.61795 -6.292189,7.12137 -7.283203,2.28516 3.751865,-12.5603 11.236486,-23.49926 16.708984,-35.31055 2.747001,-3.070248 1.026668,-10.398079 -3.898437,-8.902339 -8.7247803,7.521339 -15.78573735,17.043409 -20.0957032,27.748049 -2.829246,7.73141 -5.8847638,16.47676 -2.78125,24.59375 1.909599,5.45772 8.3847126,9.99531 14.1191406,7.46093 3.8990276,-2.78346 6.7751086,-6.78793 9.6015626,-10.61523 5.013916,-7.30873 10.207237,-14.7497 17.453125,-20.03711 2.881708,-2.77616 8.382686,-3.51103 10.421875,0.64258 1.215271,3.76045 0.228867,7.87878 -0.736328,11.60742 -1.821499,6.61074 -5.763691,12.33327 -10.298828,17.375 -1.634599,3.18029 -8.254107,4.25442 -8.56836,-0.32031 0.76868,-4.36128 4.718865,-6.95636 7.914063,-9.54492 4.917235,-3.13367 8.690284,-6.95231 5.746093,-12.61133 -3.865563,1.28838 -7.115491,1.29058 -10.148437,3.96875 -5.583969,5.36346 -11.18635,11.92226 -11.742187,19.98828 -0.772835,5.47667 3.806411,10.59172 9.167968,11.10547 3.778488,0.11317 7.460971,-0.70508 10.894532,-2.17383 -5.342629,10.21039 -8.764586,19.86132 -12.847657,29.47852 -13.9912986,44.70333 -12.39345,93.99686 1.69336,138.47656 4.618994,23.95862 42.527952,12.58864 48.428801,-2.23786 3.096182,-10.81713 -5.758391,-16.24653 -24.695425,-5.4329 C 33.331047,333.9291 36.828529,299.78767 33.8937,289.78287 32.615139,257.70178 32.511565,225.02771 42.546875,194.27734 67.881145,126.74234 130.06986,89.412011 197.28125,91.363281 c 67.21139,1.95127 134.68787,58.361929 150.23828,106.871099 15.55041,48.50917 14.85479,91.5687 6.66602,121.16406 -3.25137,15.7668 -28.65028,-13.32369 -27.19415,10.85987 2.36243,18.26411 42.43408,24.5198 42.93438,0.40185 15.55621,-48.65763 8.9678,-108.87717 -13.90039,-153.83789 -5.04903,-10.23289 -10.61072,-19.71503 -16.54297,-28.42969 4.30573,0.93124 11.63834,2.63196 13.43555,0.51562 1.31676,-2.07003 1.8286,-4.94027 0.63867,-7.18164 -5.28499,-5.82255 -13.26001,-7.9073 -19.48437,-12.43945 -3.1844,-4.88757 8.87881,-10.3199 11.71679,-9.91797 4.68167,5.05425 9.46311,10.04807 14.56055,14.67188 3.35001,-0.14884 5.39505,-4.19251 6.31836,-7.07227 -2.70863,-5.2625 -8.34324,-8.25788 -11.0918,-12.93164 0.91396,-2.75351 4.2951,-6.3601 7.36719,-5.50391 4.32383,4.32282 8.39262,8.93937 13.14453,12.8086 6.62542,7.41853 10.4926,-0.24885 9.21484,-6.4375 -0.55468,-1.17193 -2.55526,-3.43845 -3.9375,-4.84571 -9.36924,-9.5389 22.80821,2.21007 5.85547,-11.306637 -4.60113,-2.87695 -15.16836,0.23276 -18.45117,-3.15625 -5.32089,-9.542855 -15.45988,-3.458496 -14.25781,3.572266 l -6.70508,3.384761 c -1.62494,1.06766 -3.10311,1.60678 -4.61719,-0.084 -3.63715,-2.64643 -6.36865,2.94522 -6.89062,5.9375 -7.87497,3.60865 -14.08971,7.54738 -16.3711,15.38477 -3.68274,-3.96193 -7.43414,-7.68518 -11.24218,-11.13086 7.05876,-9.61873 12.4191,-20.273171 17.66601,-30.855472 2.26646,-5.276532 5.68935,-10.170676 6.92578,-15.791016 1.30545,-5.37953 -3.10223,-10.661395 -8.64648,-11.828125 -12.13645,-2.23398 -24.01867,3.511402 -33.03906,10.570312 1.87672,-4.93986 4.42986,-9.612946 6.58984,-14.441406 1.78313,-4.00024 4.50757,-9.898439 0.0527,-13.230469 -8.34725,-3.39957 -17.44638,0.595912 -24.3379,5.013672 6.87972,-11.179492 -1.59533,-15.804111 -8.01367,-11.943359 -9.5536,8.70641 -16.46552,19.681666 -21.80273,31.066406 -2.21031,5.41026 -5.14307,10.673263 -6.14649,16.439453 -0.001,0.0032 -9e-4,0.0065 -0.002,0.0098 -8.57693,-1.899728 -18.06231,-3.531483 -28.20508,-4.484375 9.15593,-6.307757 19.19839,-17.952122 20.60938,-27.136719 0.7388,-6.07572 -0.96309,-12.426401 -4.82422,-17.332031 -3.21492,-3.82622 -6.26926,-3.956072 -10.82531,-4.676692 3.03705,-1.965254 2.22379,-8.417933 -11.4726,-9.561627 -13.69638,-1.143693 -28.6291,9.514383 -34.47462,20.845295 z m 31.82145,-10.444881 c 2.81008,0.07726 3.10937,1.722926 -1.43946,2.91211 -8.48962,4.79247 -13.19314,13.893908 -16.88671,22.542968 -2.01663,2.98562 -1.75224,7.144293 -4.47071,9.664063 -1.61365,-7.39086 -0.26432,-16.020553 4.03516,-22.189453 5.11321,-6.287378 11.26587,-12.576459 18.76172,-12.929688 z M 214.875,50.673828 c -5.92135,8.52542 -14.45654,15.014481 -25.11719,14.988281 2.1605,-6.08258 4.36675,-12.182182 7.41407,-17.888671 2.88998,-5.634901 5.96236,-10.785012 12.87109,-11.082032 9.33824,-0.09422 8.36957,8.310088 4.83203,13.982422 z m 67.96875,-2.335937 c 1.85253,-0.173973 0.002,7.067345 -2.96089,11.815005 -2.96339,4.74766 -6.80015,17.169907 -7.84184,27.979916 -3.50834,-1.570585 -6.99889,-2.92783 -10.45313,-4.039062 -3.47858,-1.119064 -7.35339,-2.28081 -11.52539,-3.421875 9.67059,-15.644583 17.25316,-29.283532 32.78125,-32.333984 z M 65.986328,63.748047 c 6.980157,2.204411 15.652726,8.500306 19.171875,13.560547 L 67.669922,87.759766 C 64.75445,81.893336 63.898535,75.309557 62.59375,68.966797 c -0.90936,-2.944879 1.047301,-5.086461 3.392578,-5.21875 z m 251.595702,3.375 c -3.68147,5.68587 -6.79267,11.673851 -9.8418,17.675781 -2.99383,6.509907 -7.54708,12.991238 -8.14648,20.193362 -6.07557,-4.75162 -12.23254,-8.837382 -18.37695,-12.255862 7.84708,-7.07521 15.14707,-14.733453 23.88672,-20.882812 3.99751,-2.606997 7.81523,-5.505383 12.47851,-4.730469 z M 93.173828,86.640625 c 2.524613,-0.176154 4.308241,2.738168 5.640625,4.634766 1.677587,1.637788 2.586717,4.133003 3.910157,6.136718 -6.614108,4.374641 -13.619895,9.306781 -19.259766,13.597661 -3.310327,-4.87067 -7.108533,-9.66239 -10.681641,-14.429692 6.409421,-3.24042 12.900186,-6.345032 19.261719,-9.664062 0.391745,-0.16333 0.768247,-0.250226 1.128906,-0.275391 z"
         transform="translate(-436.27855,305.2149)"
         id="path3773"
         inkscape:connector-curvature="0"
         sodipodi:nodetypes="cccccccccccccccccccccccccccccccccccccccccccccccccccccsscccccccccccccccsccccccccccccccccccccccczccccccccccccczccccscsssccssccscsssss" />
    </g>
  </g>
</svg>
