<?xml version="1.0" encoding="UTF-8" standalone="no"?>
<!-- Created with Inkscape (http://www.inkscape.org/) -->

<svg
   xmlns:dc="http://purl.org/dc/elements/1.1/"
   xmlns:cc="http://creativecommons.org/ns#"
   xmlns:rdf="http://www.w3.org/1999/02/22-rdf-syntax-ns#"
   xmlns:svg="http://www.w3.org/2000/svg"
   xmlns="http://www.w3.org/2000/svg"
   xmlns:sodipodi="http://sodipodi.sourceforge.net/DTD/sodipodi-0.dtd"
   xmlns:inkscape="http://www.inkscape.org/namespaces/inkscape"
   width="621.41962"
   height="125.00246"
   id="svg2"
   version="1.1"
   inkscape:version="0.48.1 "
   sodipodi:docname="acsysteme.svg">
  <defs
     id="defs4" />
  <sodipodi:namedview
     id="base"
     pagecolor="#ffffff"
     bordercolor="#666666"
     borderopacity="1.0"
     inkscape:pageopacity="0.0"
     inkscape:pageshadow="2"
     inkscape:zoom="0.56464844"
     inkscape:cx="353.48041"
     inkscape:cy="62.260961"
     inkscape:document-units="px"
     inkscape:current-layer="layer1"
     showgrid="false"
     fit-margin-top="0"
     fit-margin-left="0"
     fit-margin-right="0"
     fit-margin-bottom="0"
     units="cm"
     inkscape:window-width="1086"
     inkscape:window-height="612"
     inkscape:window-x="200"
     inkscape:window-y="200"
     inkscape:window-maximized="0" />
  <metadata
     id="metadata7">
    <rdf:RDF>
      <cc:Work
         rdf:about="">
        <dc:format>image/svg+xml</dc:format>
        <dc:type
           rdf:resource="http://purl.org/dc/dcmitype/StillImage" />
        <dc:title />
      </cc:Work>
    </rdf:RDF>
  </metadata>
  <g
     inkscape:label="Calque 1"
     inkscape:groupmode="layer"
     id="layer1"
     transform="translate(-92.360125,-327.93955)">
    <g
       style="font-size:128.86839294px;font-style:normal;font-variant:normal;font-weight:900;font-stretch:normal;text-align:start;line-height:125%;letter-spacing:0px;word-spacing:0px;writing-mode:lr-tb;text-anchor:start;fill:#000000;fill-opacity:1;stroke:none;font-family:DINOT-Black;-inkscape-font-specification:DINOT-Black Heavy"
       id="text2985">
      <path
         d="M 385.5 0 L 400.71875 23.1875 L 413.46875 23.1875 L 407.15625 0 L 385.5 0 z M 332.25 15.34375 L 332.25 35.1875 L 325.9375 35.1875 L 325.9375 51.40625 L 332.25 51.40625 L 332.25 81.3125 C 332.1882 86.33832 333.84844 90.93684 337.25 95.125 C 340.65153 99.31317 346.17541 101.55477 353.78125 101.8125 L 364.34375 101.8125 L 364.34375 84.03125 L 357.65625 84.03125 C 356.23868 84.02325 355.14623 83.6392 354.4375 82.90625 C 353.7287 82.17334 353.37497 81.14243 353.375 79.78125 L 353.375 51.40625 L 364.34375 51.40625 L 364.34375 35.1875 L 353.375 35.1875 L 353.375 15.34375 L 332.25 15.34375 z M 28.21875 31.6875 C 22.47879 31.6312 17.68289 32.3103 13.84375 33.6875 C 10.00458 35.06483 6.389077 37.48135 2.96875 40.96875 L 16.09375 54.125 C 17.68309 52.46589 19.28562 51.28742 20.875 50.5625 C 22.46433 49.83767 24.56718 49.48394 27.1875 49.5 C 30.836 49.4652 33.489 50.10324 35.15625 51.4375 C 36.82342 52.77186 37.64912 55.00271 37.625 58.125 L 37.625 59.9375 L 23.59375 59.9375 C 15.39459 60.12278 9.3792 62.15626 5.59375 66.0625 C 1.808284 69.9688 -0.04833 74.62693 0 80.03125 C 0.0027 83.27709 0.513736 86.28383 1.53125 89.0625 C 2.548754 91.8412 4.062373 94.22841 6.0625 96.25 C 8.011594 98.19912 10.39977 99.73325 13.21875 100.8125 C 16.03769 101.89176 19.19197 102.42139 22.6875 102.4375 C 26.27963 102.4405 29.22676 101.91935 31.5625 100.875 C 33.89817 99.83064 36.11046 98.24861 38.15625 96.125 L 38.15625 101.8125 L 58.75 101.8125 L 58.75 56.84375 C 58.7177 48.41109 56.12432 42.10156 50.9375 37.9375 C 45.75056 33.77356 38.17367 31.67952 28.21875 31.6875 z M 100 31.6875 C 96.293397 31.785861 92.341515 32.614587 88.15625 34.15625 C 83.37305 35.91829 79.26405 39.37324 75.8125 44.5 C 72.36093 49.62689 70.53807 57.15378 70.375 67.125 C 70.53807 77.09629 72.36093 84.65444 75.8125 89.78125 C 79.26405 94.90809 83.37305 98.36303 88.15625 100.125 C 92.93941 101.88697 97.40453 102.6858 101.5625 102.5625 C 106.38691 102.5464 110.6913 101.7803 114.46875 100.25 C 118.24611 98.71971 121.54793 96.53868 124.375 93.6875 L 110.0625 79.375 C 108.74157 80.73081 107.44585 81.77343 106.125 82.46875 C 104.80408 83.16412 103.26995 83.49733 101.5625 83.5 C 100.16104 83.50002 98.95326 83.2948 97.90625 82.84375 C 96.85917 82.39273 95.88593 81.71458 95 80.8125 C 93.78379 79.52653 92.89946 77.73737 92.34375 75.46875 C 91.78799 73.20019 91.52317 70.40845 91.53125 67.125 C 91.52325 63.84162 91.78799 61.08113 92.34375 58.8125 C 92.89946 56.54395 93.78379 54.75478 95 53.46875 C 95.88593 52.56673 96.85917 51.88858 97.90625 51.4375 C 98.95326 50.98651 100.16104 50.7813 101.5625 50.78125 C 103.26995 50.78425 104.80408 51.11721 106.125 51.8125 C 107.44585 52.50789 108.74157 53.55052 110.0625 54.90625 L 124.375 40.59375 C 121.54793 37.74263 118.2461 35.56161 114.46875 34.03125 C 110.69129 32.50103 106.38691 31.70368 101.5625 31.6875 C 101.04275 31.672096 100.52951 31.673448 100 31.6875 z M 159.25 31.6875 C 152.06834 31.6845 145.73927 33.59133 140.28125 37.40625 C 134.8232 41.2213 131.97476 46.96017 131.6875 54.625 C 131.7761 61.31 133.60242 66.23487 137.21875 69.34375 C 140.83505 72.45269 145.70033 74.25067 151.78125 74.75 L 162.46875 75.78125 C 164.48225 76.01216 165.83855 76.53202 166.53125 77.375 C 167.22386 78.21802 167.54828 79.15219 167.5 80.15625 C 167.3174 81.92282 166.20734 83.11106 164.15625 83.75 C 162.10509 84.38898 160.19768 84.69385 158.46875 84.65625 C 156.54914 84.77708 154.00364 84.54158 150.84375 83.9375 C 147.68381 83.33346 144.60867 81.6537 141.59375 78.875 L 127.9375 92.53125 C 132.71362 97.12213 137.63753 99.98131 142.6875 101.125 C 147.73745 102.26869 152.86656 102.73969 158.09375 102.5625 C 166.39219 102.6081 173.41895 100.77204 179.15625 97 C 184.89344 93.22797 187.88062 87.26241 188.125 79.125 C 188.1652 73.48442 186.48353 68.75789 183.125 64.9375 C 179.76635 61.11718 174.49064 58.80815 167.25 58 L 156.53125 56.96875 C 154.25726 56.63052 152.92148 56.011 152.5 55.125 C 152.07847 54.23909 151.92115 53.56094 152.03125 53.09375 C 151.99365 52.2508 152.50566 51.40653 153.53125 50.53125 C 154.55678 49.65608 156.33522 49.1636 158.875 49.09375 C 161.63754 49.04815 164.31986 49.29344 166.9375 49.84375 C 169.55507 50.39417 171.76637 51.52473 173.5625 53.21875 L 186.5625 40.21875 C 183.14479 36.87634 179.15504 34.60639 174.59375 33.40625 C 170.03236 32.20624 164.92278 31.61508 159.25 31.6875 z M 290.375 31.6875 C 283.19334 31.6845 276.89552 33.59133 271.4375 37.40625 C 265.97945 41.2213 263.09976 46.96017 262.8125 54.625 C 262.9011 61.31 264.75867 66.23487 268.375 69.34375 C 271.99131 72.45269 276.82533 74.25067 282.90625 74.75 L 293.59375 75.78125 C 295.60725 76.01216 296.96355 76.53202 297.65625 77.375 C 298.34886 78.21802 298.67328 79.15219 298.625 80.15625 C 298.4424 81.92282 297.33234 83.11106 295.28125 83.75 C 293.23008 84.38898 291.35393 84.69385 289.625 84.65625 C 287.70539 84.77708 285.15989 84.54158 282 83.9375 C 278.84006 83.33346 275.73367 81.6537 272.71875 78.875 L 259.0625 92.53125 C 263.83862 97.12213 268.76252 99.98131 273.8125 101.125 C 278.86244 102.26869 283.99157 102.73969 289.21875 102.5625 C 297.51719 102.6081 304.54395 100.77204 310.28125 97 C 316.01844 93.22797 319.00563 87.26241 319.25 79.125 C 319.2902 73.48442 317.63978 68.75789 314.28125 64.9375 C 310.92261 61.11718 305.61565 58.80815 298.375 58 L 287.6875 56.96875 C 285.41351 56.63052 284.04648 56.011 283.625 55.125 C 283.20347 54.23909 283.04615 53.56094 283.15625 53.09375 C 283.11865 52.2508 283.63066 51.40653 284.65625 50.53125 C 285.68178 49.65608 287.46022 49.1636 290 49.09375 C 292.76254 49.04815 295.44485 49.29344 298.0625 49.84375 C 300.68006 50.39417 302.89137 51.52473 304.6875 53.21875 L 317.71875 40.21875 C 314.30104 36.87634 310.31129 34.60639 305.75 33.40625 C 301.18861 32.20624 296.04778 31.61508 290.375 31.6875 z M 405.5 31.6875 C 396.25647 31.7466 388.80758 34.82273 383.15625 40.90625 C 377.5049 46.98989 374.59589 55.72571 374.4375 67.125 C 374.85363 81.68159 378.44078 91.33203 385.1875 96.0625 C 391.93419 100.79298 399.35376 102.95447 407.4375 102.5625 C 413.75461 102.5491 418.95214 101.61588 423.0625 99.75 C 427.17275 97.88411 430.92603 95.18227 434.34375 91.625 L 421.71875 79 C 419.94678 80.87664 418.03154 82.2906 415.9375 83.28125 C 413.84337 84.27193 411.01351 84.77322 407.4375 84.78125 C 403.48823 84.68465 400.44049 83.59411 398.34375 81.5 C 396.24695 79.40594 395.20626 76.90049 395.1875 73.96875 L 436.6875 73.96875 L 436.6875 64.5625 C 436.6445 55.24387 433.95143 47.4901 428.625 41.3125 C 423.29846 35.13501 415.59451 31.92114 405.5 31.6875 z M 486.25 31.6875 C 483.42026 31.6905 480.54937 32.26187 477.6875 33.34375 C 474.82555 34.42576 472.31033 36.02733 470.125 38.15625 L 470.125 32.46875 L 449.5 32.46875 L 449.5 101.8125 L 470.65625 101.8125 L 470.65625 60.3125 C 470.83341 56.41969 471.89461 53.8146 473.84375 52.53125 C 475.79282 51.248 477.56149 50.67927 479.15625 50.78125 C 480.75094 50.67928 482.5196 51.248 484.46875 52.53125 C 486.41782 53.81459 487.47901 56.41969 487.65625 60.3125 L 487.65625 101.8125 L 508.78125 101.8125 L 508.78125 60.3125 C 508.95838 56.41969 510.01958 53.8146 511.96875 52.53125 C 513.91779 51.248 515.68646 50.67927 517.28125 50.78125 C 518.8759 50.67928 520.67581 51.248 522.625 52.53125 C 524.57402 53.81459 525.63522 56.41969 525.8125 60.3125 L 525.8125 101.8125 L 546.9375 101.8125 L 546.9375 57.46875 C 546.9911 53.79878 546.44976 50.33083 545.34375 47.03125 C 544.23754 43.73179 542.25388 40.58631 539.34375 37.625 C 537.42676 35.74308 535.00927 34.27832 532.09375 33.25 C 529.17805 32.22182 526.05309 31.70099 522.71875 31.6875 C 518.78555 31.6634 515.2668 32.25457 512.1875 33.40625 C 509.10806 34.55806 506.09156 36.41372 503.125 39.03125 C 500.87514 36.47009 498.35993 34.61348 495.5625 33.4375 C 492.76497 32.26166 489.65955 31.67146 486.25 31.6875 z M 590.21875 31.6875 C 580.97522 31.7466 573.55757 34.82273 567.90625 40.90625 C 562.2549 46.98989 559.34589 55.72571 559.1875 67.125 C 559.60362 81.68159 563.15953 91.33203 569.90625 96.0625 C 576.65294 100.79298 584.07252 102.95447 592.15625 102.5625 C 598.47336 102.5491 603.70214 101.61588 607.8125 99.75 C 611.92275 97.88411 615.67603 95.18227 619.09375 91.625 L 606.46875 79 C 604.69678 80.87664 602.78153 82.2906 600.6875 83.28125 C 598.59337 84.27193 595.73226 84.77322 592.15625 84.78125 C 588.20699 84.68465 585.19049 83.59411 583.09375 81.5 C 580.99696 79.40594 579.95627 76.90049 579.9375 73.96875 L 621.40625 73.96875 L 621.40625 64.5625 C 621.36325 55.24387 618.70143 47.4901 613.375 41.3125 C 608.04845 35.13501 600.31326 31.92114 590.21875 31.6875 z M 191.59375 32.46875 L 214.65625 94.96875 L 212.71875 100.78125 C 212.03681 102.85654 211.13197 104.23141 210.03125 104.9375 C 208.9305 105.64358 207.4667 105.9885 205.625 105.9375 L 201.125 105.9375 L 201.125 125 L 209.125 125 C 212.22315 125.0322 215.07255 124.61982 217.6875 123.75 C 220.30239 122.88012 222.65148 121.346 224.71875 119.1875 C 225.81408 118.09749 226.78539 116.8213 227.6875 115.3125 C 228.58953 113.80368 229.41619 112.05456 230.125 110.0625 L 258.84375 32.46875 L 236.6875 32.46875 L 225.46875 68.4375 L 213.75 32.46875 L 191.59375 32.46875 z M 405.5 49.09375 C 407.99943 49.13405 409.98406 49.66468 411.46875 50.6875 C 412.95336 51.71043 413.99404 52.97781 414.625 54.5 C 415.06793 55.41017 415.39332 56.32381 415.5625 57.25 C 415.73159 58.17627 415.8205 59.09185 415.8125 59.9375 L 395.1875 59.9375 C 395.1795 59.09185 395.23713 58.17627 395.40625 57.25 C 395.57536 56.32381 395.90074 55.41017 396.34375 54.5 C 396.97463 52.97781 398.01532 51.71043 399.5 50.6875 C 400.98463 49.66468 403.00049 49.13407 405.5 49.09375 z M 590.21875 49.09375 C 592.71819 49.13405 594.73405 49.66468 596.21875 50.6875 C 597.70335 51.71043 598.74405 52.97781 599.375 54.5 C 599.81793 55.41017 600.14332 56.32381 600.3125 57.25 C 600.48159 58.17627 600.53926 59.09185 600.53125 59.9375 L 579.9375 59.9375 C 579.9295 59.09185 579.98712 58.17627 580.15625 57.25 C 580.32536 56.32381 580.65075 55.41017 581.09375 54.5 C 581.72464 52.97781 582.76532 51.71043 584.25 50.6875 C 585.73462 49.66468 587.71924 49.13407 590.21875 49.09375 z M 26.9375 73.96875 L 37.625 73.96875 L 37.625 75.78125 C 37.6357 77.44849 37.49889 78.83313 37.1875 79.96875 C 36.87603 81.10441 36.32492 82.01805 35.5625 82.71875 C 34.45635 83.7846 33.29743 84.50281 32.0625 84.84375 C 30.82749 85.18472 29.19564 85.34205 27.1875 85.3125 C 24.86787 85.2642 23.12852 84.67399 21.96875 83.5625 C 20.80892 82.45104 20.21872 81.09474 20.21875 79.5 C 20.24025 77.85966 20.84995 76.54341 22.03125 75.53125 C 23.2125 74.51913 24.85412 73.99831 26.9375 73.96875 z "
         transform="translate(92.360125,327.93955)"
         id="path2990" />
    </g>
  </g>
</svg>
