<?xml version="1.0" encoding="UTF-8" standalone="no"?>
<!-- Created with Inkscape (http://www.inkscape.org/) -->

<svg
   xmlns:dc="http://purl.org/dc/elements/1.1/"
   xmlns:cc="http://creativecommons.org/ns#"
   xmlns:rdf="http://www.w3.org/1999/02/22-rdf-syntax-ns#"
   xmlns:svg="http://www.w3.org/2000/svg"
   xmlns="http://www.w3.org/2000/svg"
   xmlns:sodipodi="http://sodipodi.sourceforge.net/DTD/sodipodi-0.dtd"
   xmlns:inkscape="http://www.inkscape.org/namespaces/inkscape"
   width="747.43329"
   height="359.13199"
   id="svg2"
   version="1.1"
   inkscape:version="0.48.1 "
   sodipodi:docname="Alice.svg">
  <defs
     id="defs4" />
  <sodipodi:namedview
     id="base"
     pagecolor="#ffffff"
     bordercolor="#666666"
     borderopacity="1.0"
     inkscape:pageopacity="0.0"
     inkscape:pageshadow="2"
     inkscape:zoom="1.0073509"
     inkscape:cx="388.54455"
     inkscape:cy="52.999116"
     inkscape:document-units="cm"
     inkscape:current-layer="layer1"
     showgrid="false"
     units="cm"
     fit-margin-top="0"
     fit-margin-left="0"
     fit-margin-right="0"
     fit-margin-bottom="0"
     inkscape:window-width="1000"
     inkscape:window-height="720"
     inkscape:window-x="200"
     inkscape:window-y="200"
     inkscape:window-maximized="0" />
  <metadata
     id="metadata7">
    <rdf:RDF>
      <cc:Work
         rdf:about="">
        <dc:format>image/svg+xml</dc:format>
        <dc:type
           rdf:resource="http://purl.org/dc/dcmitype/StillImage" />
        <dc:title />
      </cc:Work>
    </rdf:RDF>
  </metadata>
  <g
     inkscape:label="Calque 1"
     inkscape:groupmode="layer"
     id="layer1"
     transform="translate(-1.5922646,-36.017283)">
    <g
       style="font-size:429.59796143px;font-style:normal;font-variant:normal;font-weight:normal;font-stretch:normal;line-height:125%;letter-spacing:0px;word-spacing:0px;fill:#000000;fill-opacity:1;stroke:none;font-family:Bella Donna;-inkscape-font-specification:Bella Donna"
       id="text2985">
      <path
         d="m 368.28125,0 c -6.50315,0.110133 -11.18347,0.620781 -14.0625,1.5 -3.29104,1.005421 -5.77853,3.221651 -7.5,6.65625 -1.72217,3.435185 -3.32132,8.594872 -4.75,15.46875 -1.42936,6.874432 -4.44299,16.190942 -9.03125,27.9375 -6.29327,16.6066 -14.78988,35.14695 -25.53125,55.625 -10.742,20.47845 -30.48668,53.44012 -35.46236,58.05132 -4.97569,4.6112 -23.40841,5.73137 -35.00639,7.44868 -11.59847,1.71758 -23.2534,4.16616 -35,7.3125 -3.4351,0.85666 -8.09992,2.1533 -13.96875,3.875 -5.86923,1.72193 -12.25102,3.71018 -19.125,6 -6.87433,2.29004 -13.86883,4.93098 -21.03125,7.9375 -7.16274,3.00673 -13.61907,6.24833 -19.34375,9.6875 -5.72496,3.43936 -10.43305,7.07442 -14.15625,10.9375 -3.72344,3.86324 -5.59386,7.9499 -5.59375,12.25 -1.1e-4,4.2915 1.41872,7.65967 4.28125,10.09375 2.86229,2.4342 6.30499,4.30463 10.3125,5.59375 4.00724,1.28923 8.2161,2.05537 12.65625,2.34375 4.43987,0.28848 8.10182,0.43755 10.96875,0.4375 2.28978,5e-5 7.14694,-0.57373 14.59375,-1.71875 7.44647,-1.14491 15.19944,-2.63828 23.21875,-4.5 8.01893,-1.8616 15.16687,-4.00329 21.46875,-6.4375 6.30146,-2.43407 10.82201,-6.32536 10.25844,-8.32094 -0.56357,-1.99558 -4.03894,-5.48253 -9.32223,-3.33668 -5.2833,2.14585 -12.13599,5.608 -17.4242,7.61428 -5.2882,2.00628 -9.49408,3.65842 -15.07451,4.23084 -5.58079,0.57254 -11.08628,0.87506 -16.53125,0.875 -7.4468,6e-5 -13.74968,-0.91952 -18.90625,-2.78125 -5.15685,-1.86159 -7.75014,-5.22539 -7.75,-10.09375 -1.4e-4,-5.15664 2.21609,-9.668 6.65625,-13.53125 4.43987,-3.86307 10.32242,-7.18359 17.625,-9.90625 7.30227,-2.72247 15.59777,-5.05652 24.90625,-7.0625 9.30811,-2.00577 18.82572,-3.60493 28.5625,-4.75 9.73635,-1.14485 19.2063,-2.06444 28.375,-2.78125 9.1682,-0.71658 16.55257,-1.20008 18.38845,1.22993 1.83587,2.43002 -15.87293,31.86202 -26.32595,46.89507 -10.4535,15.03318 -19.2795,26.68812 -26.4375,35 -6.59031,7.72636 -13.73387,15.68042 -21.46875,23.84375 -7.73525,8.16334 -15.90856,15.61379 -24.5,22.34375 -8.59176,6.72993 -17.61449,12.15651 -27.0625,16.3125 -9.44827,4.15592 -19.19387,6.24996 -29.21875,6.25 -8.023597,-4e-5 -15.591875,-2.01954 -22.75,-6.03125 -7.158296,-4.01178 -13.768069,-8.94348 -19.78125,-14.8125 -6.013312,-5.86905 -10.816857,-14.43122 -15.829303,-21.44959 -5.012545,-7.01836 -9.741612,-34.12463 -10.176258,-42.27659 -0.388733,-7.29085 2.543242,-16.59734 -0.163765,-20.80476 -2.707063,-4.20733 -7.739285,-8.05683 -15.748621,-8.39926 -5.47386,-0.23403 -9.1005014,2.02269 -12.1395623,5.67606 -2.8690062,3.44895 -3.76751394,9.61675 -3.2924012,12.72261 0.4028524,2.63348 2.2292944,7.10504 5.0877513,11.3124 2.8584339,4.20739 5.1534172,1.52862 10.2710242,16.0264 5.117607,14.49778 12.016482,46.81552 23.411507,59.54537 11.395025,12.72984 26.447877,28.93392 61.110878,29.08486 10.30457,-5e-5 21.12319,-3.56059 32.4375,-10.71875 11.31403,-7.15826 22.35189,-15.83518 33.09375,-26 10.74151,-10.16485 20.67946,-20.75113 29.84375,-31.78125 9.16388,-11.0301 16.76777,-20.42989 22.78125,-28.15625 11.16973,-14.61355 21.18222,-28.21345 30.0625,-40.8125 8.87977,-12.5989 18.25891,-28.46699 26.48541,-32.67473 8.22649,-4.20774 19.80923,-4.28069 28.68361,-3.7078 8.87438,0.57288 15.7025,1.46776 24.58828,6.37888 8.88577,4.91112 -0.28889,32.60436 -0.28855,53.2224 -3.4e-4,3.72338 0.42438,9.14996 1.28125,16.3125 0.8562,7.16262 2.45536,14.26727 4.75,21.28125 2.29396,7.01401 5.27633,13.16782 9,18.46875 3.72297,5.30092 8.31324,7.93749 13.75,7.9375 5.44477,-10e-6 10.83792,0.55503 19.125,-3.3125 8.28708,-3.86753 16.0468,-9.87453 21.34375,-15.03125 5.29616,-5.1567 14.20173,-12.28513 17.78125,-17.4375 1.74986,-2.5193 6.11242,-8.83556 9.03353,-7.45278 2.92111,1.38278 4.63859,12.82414 7.81022,19.17153 3.29065,6.58574 7.38168,11.96904 12.25,16.125 4.86824,4.15595 10.74642,6.21874 17.625,6.21875 5.43633,-10e-6 10.64368,-1.06867 15.65625,-3.21875 5.01242,-2.15009 9.7474,-4.71213 14.1875,-7.71875 4.29254,-2.90682 9.11337,-6.99378 12.24726,-6.08644 3.1339,0.90733 4.46141,6.57389 7.62774,9.49269 3.29503,3.00663 7.53075,4.53125 12.6875,4.53125 4.01171,0 8.1729,-1.02538 12.46875,-3.03125 4.29575,-2.00587 9.20109,-4.05502 12.8125,-7.0625 3.26024,-2.71505 10.79326,-9.89556 14.21571,-9.14173 3.42245,0.75384 3.99102,2.51436 5.84679,5.04798 3.14644,4.29581 6.93495,7.73414 11.375,10.3125 4.43998,2.57835 9.36732,3.875 14.8125,3.875 6.86974,0 13.37372,-1.07304 19.53125,-3.21875 6.15739,-2.14572 11.61522,-4.86119 16.34375,-8.15625 4.73501,-1.76143 17.98501,-14.32105 20.19822,-14.84725 2.21321,-0.52619 3.92012,0.53775 4.64553,2.3785 1.86164,4.72409 4.42367,8.85841 7.71875,12.4375 3.29502,3.57912 7.2326,6.44366 11.8125,8.59375 4.57982,2.15008 9.58606,3.25 15.03125,3.25 5.72477,0 11.45824,-1.45009 17.1875,-4.3125 5.72913,-2.86241 10.96335,-6.07276 15.6875,-9.65625 4.72398,-3.58346 8.58703,-7.0218 11.59375,-10.3125 3.00653,-3.29066 9.85442,-6.07126 10.90625,-6.875 1.05183,-0.80374 1.51915,-2.82536 1.375,-4.125 -0.14431,-0.86088 -1.70718,-2.97261 -4.75,-3.3125 -3.04281,-0.33989 -5.23424,4.71571 -7.8125,6.4375 -2.57845,1.72184 -6.52677,4.01056 -10.25,6.15625 -3.72341,2.14574 -7.85771,4.06382 -12.4375,5.78125 -4.57993,1.71746 -10.0334,4.56557 -15.15389,4.78733 -5.1205,0.22176 -12.91545,-2.26874 -13.36413,-6.91111 -0.13274,-3.38775 6.17812,-4.10241 11.33052,-7.96997 5.15228,-3.86751 10.31197,-8.52795 15.46875,-13.96875 5.15663,-5.44073 9.66363,-11.52 13.53125,-18.25 3.86745,-6.72988 5.78116,-13.37857 5.78125,-19.96875 -9e-5,-5.72474 2.64846,-14.2738 -1.21899,-18.14142 -3.86762,-3.86744 -13.39284,-2.04598 -19.40601,-2.04608 -7.73514,1e-4 -15.03214,1.98835 -21.90625,6 -6.8742,4.01183 -12.80004,9.12387 -17.8125,15.28125 -5.01253,6.15754 -8.95011,13.00296 -11.8125,20.59375 -2.52186,6.68775 -4.24249,13.09194 -6.44358,17.84611 -2.2011,4.75417 -6.79683,7.24421 -8.08889,8.36298 -2.15019,1.86169 -7.16053,4.88805 -10.31128,7.32216 -3.15092,2.43417 -6.66379,4.57586 -10.53125,6.4375 -3.86761,1.86168 -7.92739,2.78127 -12.21875,2.78125 -10.02506,2e-5 -17.85256,-3.51286 -23.4375,-10.53125 -5.58502,-7.01834 -8.37504,-15.38839 -8.375,-25.125 -4e-5,-12.02645 3.81536,-22.0433 11.40625,-30.0625 7.59081,-8.01904 17.37968,-12.03116 29.40625,-12.03125 4.8682,9e-5 7.31242,2.14615 7.3125,6.4375 -8e-5,4.86837 -1.22218,8.80595 -3.65625,11.8125 -2.43422,3.0067 -3.65633,6.09486 -3.65625,9.25 -8e-5,1.71314 0.87186,2.56256 2.59375,2.5625 2.00143,6e-5 4.22202,-0.91953 6.65625,-2.78125 2.43405,-1.8616 4.65029,-4.23127 6.65625,-7.09375 2.00578,-2.86234 3.64823,-6.07706 4.9375,-9.65625 1.28908,-3.57902 1.9374,-7.09627 1.9375,-10.53125 -10e-5,-4.01166 -0.91969,-6.95074 -2.78125,-8.8125 -1.86176,-1.86156 -6.24656,-2.78115 -13.125,-2.78125 -7.72641,1e-4 -15.52704,1.796 -23.40625,5.375 -7.87934,3.57921 -14.98399,8.28293 -21.28125,14.15625 -6.29734,5.87349 -11.42578,12.60108 -15.4375,20.1875 -4.01176,7.58654 -6.03127,15.41406 -6.03125,23.4375 -10e-6,2.98399 -0.71755,5.48168 -1.24947,7.78421 -0.53192,2.30254 -1.72129,4.62281 -2.18141,5.76628 -0.57693,1.43341 -2.67141,3.56379 -4.10037,5.13701 -1.42908,1.57325 -3.64969,3.06662 -6.65625,4.5 -3.00668,1.4334 -7.24241,2.15627 -12.6875,2.15625 -2.86683,2e-5 -5.27979,-0.87628 -7.28125,-2.59375 -2.00154,-1.71743 -3.57383,-3.85912 -4.71875,-6.4375 -1.145,-2.57833 -1.9424,-5.29381 -2.375,-8.15625 -0.43267,-2.86238 -0.65628,-5.57785 -0.65625,-8.15625 -3e-5,-7.15817 0.45156,-13.2687 1.3125,-18.28125 0.86088,-5.01244 1.85499,-9.44489 3,-13.3125 1.14492,-3.86746 2.13905,-7.50253 3,-10.9375 0.79869,-3.18675 0.69484,-8.13266 3.01961,-10.92085 2.32477,-2.78819 8.34839,-3.7004 10.63664,-5.9854 3.01094,-3.00649 4.53119,-6.81751 4.53125,-11.40625 -6e-5,-9.44799 -4.73066,-14.15609 -14.1875,-14.15625 -4.86832,1.6e-4 -8.63042,1.83934 -11.63701,5.5625 -3.00665,3.72347 -4.937,6.61516 -4.92367,11.28992 0.0133,4.67475 6.69892,10.46932 6.52715,12.26391 -0.17177,1.7946 -1.9551,3.34987 -4.52578,5.35196 -2.57068,2.0021 -9.98811,4.26006 -11.56569,8.84421 -1.57762,4.58431 -2.64629,9.51602 -3.21875,14.8125 -0.5725,5.29662 -0.87501,10.26394 -0.875,14.84375 l 0,10.3125 c -10e-6,4.57989 0.37704,9.51598 1.09375,14.8125 0.28094,2.07625 0.4783,4.70622 -0.95393,6.86907 -1.43222,2.16285 -6.66027,4.82948 -10.10857,6.44343 -4.01184,1.86167 -8.1774,2.78126 -12.46875,2.78125 -6.30176,10e-6 -11.72834,-1.64243 -16.3125,-4.9375 -4.58429,-3.29503 -8.32514,-7.50389 -11.1875,-12.65625 -2.86246,-5.15231 -4.92962,-10.73234 -6.21875,-16.75 -1.28923,-6.01758 -1.93754,-11.60197 -1.9375,-16.75 -4e-5,-1.1449 0.91955,-3.36113 2.78125,-6.65625 1.86161,-3.29498 4.07784,-7.03584 6.65625,-11.1875 2.5783,-4.15151 5.17158,-8.43489 7.75,-12.875 2.57829,-4.43992 4.72436,-8.10186 6.4375,-10.96875 5.44507,-10.31331 11.02073,-21.35554 16.75,-33.09375 5.72911,-11.73793 10.96333,-23.74304 15.6875,-36.0625 4.72397,-12.31912 8.58702,-24.70127 11.59375,-37.15625 3.00651,-12.45455 4.49989,-24.71452 4.5,-36.75 -1.1e-4,-3.723071 -0.12231,-8.085364 -0.40625,-13.09375 -0.28417,-5.007865 -1.16047,-9.790499 -2.59375,-14.375 -1.4335,-4.583952 -3.57082,-8.473878 -6.4375,-11.625 -2.86688,-3.150551 -6.88338,-4.718459 -12.03125,-4.71875 -8.02359,2.91e-4 -14.74681,3.018286 -20.1875,9.03125 -5.44084,6.013529 -9.87767,12.167341 -13.3125,18.46875 -13.45995,25.206955 -23.55134,51.34245 -30.28125,78.40625 -6.72997,27.06416 -10.09377,54.77194 -10.09375,83.125 -2e-5,4.30027 0.12217,9.95483 0.40625,16.96875 0.28404,7.01408 0.85782,14.51219 1.71875,22.53125 0.2063,1.92169 0.37756,3.63758 0.005,5.37796 -0.37231,1.74039 -1.33553,3.34796 -2.56774,5.43454 -4.58369,7.76185 -10.60675,13.74622 -13.46875,16.46875 -2.86282,2.7226 -6.07755,5.81513 -9.65625,9.25 -3.57951,3.43491 -7.44255,6.52744 -11.59375,9.25 -4.15197,2.72258 -8.08956,4.06251 -11.8125,4.0625 -4.86866,10e-6 -8.80188,-1.49336 -11.8125,-4.5 -3.01136,-3.00661 -5.30213,-6.67292 -6.875,-10.96875 -1.57359,-4.29577 -2.64662,-8.87731 -3.21875,-13.75 -0.57283,-4.87261 -0.87535,-9.15163 -0.875,-12.875 -3.5e-4,-15.1729 -3.5e-4,-27.55944 0,-37.15625 -3.5e-4,-9.59663 0.31802,-14.55073 5.64919,-18.44274 5.33117,-3.892 9.47552,-4.04074 17.35081,-3.90101 7.87453,0.13995 16.81835,0.33669 26.84375,0.625 2.57795,1.2e-4 3.87459,-1.42309 3.875,-4.28125 -4.1e-4,-2.01013 -0.452,-4.56779 -1.3125,-7.71875 -0.86131,-3.15071 -2.42922,-4.87643 -4.71875,-5.15625 -8.30358,-0.57672 -16.32781,-1.0716 -24.0625,-1.5 -7.73544,-0.42814 -17.95469,-0.32397 -20.02007,-1.53125 -2.06538,-1.20728 -2.32404,-3.4215 -2.32368,-6 -3.6e-4,-19.76141 1.5988,-40.32126 4.75,-61.65625 3.15047,-21.33459 6.28192,-42.012254 9.4375,-62.0625 0.27932,-2.578091 0.85746,-5.442641 1.71875,-8.59375 0.86053,-3.150564 1.78012,-6.365289 2.78125,-9.65625 1.00037,-3.290398 1.87668,-6.461836 2.59375,-9.46875 0.71632,-3.006333 1.06212,-5.371635 1.0625,-7.09375 C 372.46838,0.840982 372.04366,3.01e-4 371.1875,0 c -1.00298,3.8e-5 -1.97723,-0.01573 -2.90625,0 z m 113.4375,24.46875 c 3.72324,2.76e-4 6.58779,1.673972 8.59375,4.96875 2.00579,3.29532 3.4515,7.153996 4.3125,11.59375 0.86081,4.440273 1.35569,8.798196 1.5,13.09375 0.14412,4.296047 0.21866,7.436234 0.21875,9.4375 -9e-5,28.06497 -8.62416,53.92694 -18.9375,80.5625 -10.3135,26.63586 -19.45052,48.62892 -34.34375,70.96875 -1.06009,1.42089 -1.68591,2.81412 -3.21715,2.75502 -1.53125,-0.0591 -1.70649,-1.82996 -2.03057,-3.62363 -0.32408,-1.79368 -0.46826,-4.43923 -0.75228,-8.16264 -0.2841,-3.72322 -0.43753,-3.73534 -0.4375,-8.03125 -3e-5,-4.29569 -3e-5,-8.57471 0,-12.875 -3e-5,-6.58124 0.0745,-12.59035 0.21875,-18.03125 0.14422,-5.44063 0.21872,-8.45426 0.21875,-9.03125 0.56808,-4.86814 1.14623,-9.95329 1.71875,-15.25 0.57244,-5.29639 1.56657,-12.51887 3,-21.6875 0.57681,-2.8666 1.3742,-7.18124 2.375,-12.90625 1.0007,-5.72463 2.27046,-12.14971 3.84375,-19.3125 1.57318,-7.16237 3.44361,-14.56517 5.59375,-22.15625 2.15003,-7.590618 4.66878,-14.514943 7.53125,-20.8125 2.86235,-6.297048 5.99816,-11.456735 9.4375,-15.46875 3.43919,-4.011474 7.15316,-6.030974 11.15625,-6.03125 z M 332.33963,85.690507 c 2.7451,1.403288 4.91309,-1.121457 3.19162,16.778243 -1.72216,17.9001 2.1978,55.18903 -4.47057,60.80314 -6.66838,5.61411 -14.32262,5.33571 -20.32027,5.21169 -5.99766,-0.12402 -15.51358,0.56652 -19.07821,-5.66767 -3.56464,-6.23418 11.28916,-28.77032 20.0253,-45.09716 8.73549,-16.32648 17.90702,-33.431532 20.65213,-32.028243 z M 723.28125,206.28125 c 1.93148,0 3.5,1.56852 3.5,3.5 0,1.93148 -1.56852,3.5 -3.5,3.5 -1.93148,0 -3.5,-1.56852 -3.5,-3.5 0,-1.93148 1.56852,-3.5 3.5,-3.5 z M 697.625,213.5 c 5.44508,9e-5 9.18156,1.49346 11.1875,4.5 2.00581,3.00671 2.99992,6.94429 3,11.8125 -8e-5,3.43496 -0.99419,7.67506 -3,12.6875 -2.00594,5.01255 -4.64251,9.86536 -7.9375,14.59375 -3.29511,4.72849 -3.73696,5.33672 -7.46023,8.62736 -3.72337,3.29071 -9.42098,6.16592 -12.85584,6.1659 -2.57839,2e-5 -6.66365,-2.23572 -8.23685,-4.0974 -1.57327,-1.86163 -2.16796,-3.02931 -3.17305,-5.60333 -1.00515,-2.57394 -1.47799,-3.47812 -1.76202,-6.20073 -0.28408,-2.72252 -0.40628,-6.40835 -0.40625,-8.4099 -3e-5,-4.0117 0.86707,-6.15479 2.30049,-10.45065 1.43336,-4.29574 3.53177,-8.15441 6.25,-11.59375 2.71817,-3.43919 5.93288,-6.30374 9.65625,-8.59375 3.72327,-2.28985 7.85759,-3.43741 12.4375,-3.4375 z M 16.650791,232.33545 c 3.597606,0 6.496306,3.45124 6.496306,6.76104 0,3.3098 -2.774612,6.74869 -6.372218,6.74869 -3.597606,0 -7.2736432,-3.19071 -7.2736432,-6.50051 0,-3.3098 3.5519492,-7.00922 7.1495552,-7.00922 z"
         transform="translate(0.625,36.024266)"
         id="path2990"
         inkscape:connector-curvature="0"
         sodipodi:nodetypes="sccccczccccssscccccssszzzccccssccczcccccssssscsssszzcccccczzzccccsscczssscczcssszssssczsssssccscscsszcsssccccsszccsssssccsccsccccccssszccscccccscczcccczzzssssszcsccccssscssscccccccsssszscccsccccczcccccczccccccccscccccsczzcccscscsssccczczzzczsssssccccsscccccsscczzzzz" />
    </g>
  </g>
</svg>
