<?xml version="1.0" encoding="UTF-8" standalone="no"?>
<!-- Created with Inkscape (http://www.inkscape.org/) -->

<svg
   xmlns:dc="http://purl.org/dc/elements/1.1/"
   xmlns:cc="http://creativecommons.org/ns#"
   xmlns:rdf="http://www.w3.org/1999/02/22-rdf-syntax-ns#"
   xmlns:svg="http://www.w3.org/2000/svg"
   xmlns="http://www.w3.org/2000/svg"
   xmlns:sodipodi="http://sodipodi.sourceforge.net/DTD/sodipodi-0.dtd"
   xmlns:inkscape="http://www.inkscape.org/namespaces/inkscape"
   width="210mm"
   height="297mm"
   id="svg2"
   version="1.1"
   inkscape:version="0.48.1 "
   sodipodi:docname="attache_coeur.svg">
  <defs
     id="defs4" />
  <sodipodi:namedview
     id="base"
     pagecolor="#ffffff"
     bordercolor="#666666"
     borderopacity="1.0"
     inkscape:pageopacity="0.0"
     inkscape:pageshadow="2"
     inkscape:zoom="0.67949219"
     inkscape:cx="375"
     inkscape:cy="578.86749"
     inkscape:document-units="px"
     inkscape:current-layer="layer1"
     showgrid="false"
     inkscape:window-width="756"
     inkscape:window-height="696"
     inkscape:window-x="75"
     inkscape:window-y="75"
     inkscape:window-maximized="0" />
  <metadata
     id="metadata7">
    <rdf:RDF>
      <cc:Work
         rdf:about="">
        <dc:format>image/svg+xml</dc:format>
        <dc:type
           rdf:resource="http://purl.org/dc/dcmitype/StillImage" />
        <dc:title></dc:title>
      </cc:Work>
    </rdf:RDF>
  </metadata>
  <g
     inkscape:label="Calque 1"
     inkscape:groupmode="layer"
     id="layer1">
    <g
       id="g2990"
       transform="translate(-246.34102,-33.445388)">
      <title
         id="title2992">Layer 1</title>
      <g
         id="g3002">
        <path
           sodipodi:nodetypes="zczczszzzzzzz"
           style="fill:#000000;stroke-miterlimit:4"
           inkscape:connector-curvature="0"
           transform="matrix(0.84360613,0.53696248,-0.53696248,0.84360613,372.60314,-243.24904)"
           stroke-miterlimit="4"
           id="path2461"
           d="m 542.57553,459.01628 c -35.9806,35.45783 -85.93612,-38.77409 -129.19115,34.5377 -26.20398,51.08206 84.70627,126.93347 152.31183,140.61572 67.60555,13.68225 79.30912,-10.8778 149.07474,38.1337 4.86648,-100.69428 8.63391,-85.24376 31.67768,-153.58516 23.04378,-68.34141 0.35858,-190.64486 -82.21657,-192.60124 -82.91524,-1.96443 -4.87252,83.73454 -63.44592,91.64782 -58.5734,7.91329 -85.11835,-113.36003 53.72657,-170.08294 138.84491,-56.7229 206.24824,151.51386 152.39597,273.38471 -53.85228,121.87085 -0.30963,184.12589 -49.3055,216.94532 C 708.6073,770.83134 658.57325,700.08646 541.93461,689.15392 425.29598,678.22139 224.02658,557.35371 355.1735,434.61865 486.32041,311.8836 578.55614,423.55846 542.57553,459.01628 z" />
      </g>
    </g>
  </g>
</svg>
