<?xml version="1.0" encoding="UTF-8" standalone="no"?>
<svg
   xmlns:dc="http://purl.org/dc/elements/1.1/"
   xmlns:cc="http://creativecommons.org/ns#"
   xmlns:rdf="http://www.w3.org/1999/02/22-rdf-syntax-ns#"
   xmlns:svg="http://www.w3.org/2000/svg"
   xmlns="http://www.w3.org/2000/svg"
   xmlns:sodipodi="http://sodipodi.sourceforge.net/DTD/sodipodi-0.dtd"
   xmlns:inkscape="http://www.inkscape.org/namespaces/inkscape"
   viewBox="0 0 321.09379 415.44824"
   id="svg3163"
   version="1.1"
   inkscape:version="0.48.1 "
   width="100%"
   height="100%"
   sodipodi:docname="BoucleGauche_FunkyV_v4.svg">
  <metadata
     id="metadata3243">
    <rdf:RDF>
      <cc:Work
         rdf:about="">
        <dc:format>image/svg+xml</dc:format>
        <dc:type
           rdf:resource="http://purl.org/dc/dcmitype/StillImage" />
        <dc:title />
      </cc:Work>
    </rdf:RDF>
  </metadata>
  <sodipodi:namedview
     pagecolor="#ffffff"
     bordercolor="#666666"
     borderopacity="1"
     objecttolerance="10"
     gridtolerance="10"
     guidetolerance="10"
     inkscape:pageopacity="0"
     inkscape:pageshadow="2"
     inkscape:window-width="1411"
     inkscape:window-height="805"
     id="namedview3241"
     showgrid="false"
     inkscape:zoom="0.9480511"
     inkscape:cx="623.66318"
     inkscape:cy="213.38747"
     inkscape:window-x="45"
     inkscape:window-y="93"
     inkscape:window-maximized="0"
     inkscape:current-layer="svg3163"
     fit-margin-top="0"
     fit-margin-left="0"
     fit-margin-right="0"
     fit-margin-bottom="0" />
  <defs
     id="defs3165">
    <linearGradient
       id="linearGradient3167">
      <stop
         offset="0"
         stop-color="#333"
         id="stop3169" />
      <stop
         offset="1"
         id="stop3171" />
    </linearGradient>
    <linearGradient
       id="linearGradient3173">
      <stop
         offset="0"
         stop-color="#cdde87"
         id="stop3175" />
      <stop
         offset="1"
         stop-color="#450"
         id="stop3177" />
    </linearGradient>
    <linearGradient
       id="linearGradient3179">
      <stop
         offset="0"
         stop-color="#c8ab37"
         id="stop3181" />
      <stop
         offset="1"
         stop-color="#786721"
         id="stop3183" />
    </linearGradient>
    <linearGradient
       id="linearGradient3185">
      <stop
         offset="0"
         stop-color="#f95"
         id="stop3187" />
      <stop
         offset=".268"
         stop-color="#d38d5f"
         id="stop3189" />
      <stop
         offset=".7499"
         stop-color="#c87137"
         id="stop3191" />
      <stop
         offset="1"
         stop-color="#c87137"
         id="stop3193" />
    </linearGradient>
    <linearGradient
       id="linearGradient3195">
      <stop
         offset="0"
         stop-color="#c87137"
         id="stop3197" />
      <stop
         offset=".2562"
         stop-color="#c87137"
         id="stop3199" />
      <stop
         offset=".4362"
         stop-color="#c87137"
         id="stop3201" />
      <stop
         offset="1"
         stop-color="#28170b"
         id="stop3203" />
    </linearGradient>
    <linearGradient
       id="linearGradient3205">
      <stop
         offset="0"
         stop-color="#5b3821"
         id="stop3207" />
      <stop
         offset=".5"
         stop-color="#e9c6af"
         id="stop3209" />
      <stop
         offset=".75"
         stop-color="#76533c"
         id="stop3211" />
      <stop
         offset="1"
         stop-color="#502d16"
         id="stop3213" />
    </linearGradient>
    <linearGradient
       id="linearGradient3215">
      <stop
         offset="0"
         stop-color="#f95"
         id="stop3217" />
      <stop
         offset=".5"
         stop-color="#ffb380"
         id="stop3219" />
      <stop
         offset=".75"
         stop-color="#f95"
         id="stop3221" />
      <stop
         offset="1"
         stop-color="#c87137"
         id="stop3223" />
    </linearGradient>
    <linearGradient
       id="linearGradient3225">
      <stop
         offset="0"
         stop-color="#cdde87"
         id="stop3227" />
      <stop
         offset=".3319"
         stop-color="#9aab54"
         id="stop3229" />
      <stop
         offset=".5984"
         stop-color="#80913a"
         id="stop3231" />
      <stop
         offset="1"
         stop-color="#450"
         id="stop3233" />
    </linearGradient>
  </defs>
  <path
     style="fill-rule:evenodd;stroke:#000000;stroke-width:0.43117157"
     d="m 165.66824,0.21875 c -3.86792,0.08352 -9.39052,1.8351901 -12.57449,5.84375 -7.46553,9.39899 -5.87195,8.55372 -18.4375,10.03125 C 109.51882,19.04957 90.576619,23.57062 72,31.0625 50.507981,39.73015 40.058298,42.300715 27.275688,66.653244 25.014798,70.960544 19.54257,86.95857 18.65625,89.625 c -1.96987,5.92619 -2.80562,18.75547 -1.59375,24.40625 1.60383,7.4784 7.69672,22.98023 11.5,29.28125 2.10466,3.48686 3.77055,6.85342 3.71875,7.46875 -0.0518,0.61533 -2.07769,5.47965 -4.5,10.8125 -10.61933,23.37905 -12.4525,32.4293 -9.125,45.125 0.80638,3.07664 1.493,6.73227 1.5,8.125 0.0199,3.95236 -4.7074,12.75529 -11.9375,22.3125 -10.6442097,14.0702 -10.6491597,17.62397 -0.09375,25.0625 3.32062,2.34009 6.33692,4.78648 6.71875,5.46875 0.78845,1.40889 -0.20044,3.70095 -4.125,9.40625 -1.3727401,1.9956 -2.5,4.25799 -2.5,5.03125 0,0.77325 1.49976,3.46387 3.34375,5.96875 1.84399,2.50488 3.14537,4.93588 2.875,5.40625 -0.27037,0.47036 -1.12182,1.72363 -1.875,2.8125 -2.05899,2.9767 -1.69411,4.47948 2.28125,9.6875 l 3.625,4.75 0.5,8.125 c 0.63951,10.40686 1.78213,12.67305 7.90625,15.78125 4.95052,2.51255 10.10452,3.43304 21.3125,3.84375 8.10408,0.29697 14.41655,0.0471 22.625,-0.875 l 11.375,-1.25 1.875,1.71875 c 6.3701,5.9532 12.982683,17.8688 16.21875,29.1875 1.93544,6.76952 4.74421,21.6808 6.75,35.96875 1.64733,11.73455 1.52772,11.41946 4.3125,11.8125 3.49569,0.49337 16.63939,-0.17853 21.4375,-1.09375 2.2562,-0.43037 6.50887,-1.93617 9.46875,-3.34375 8.44268,-4.01495 13.24013,-9.39367 22.9375,-25.71875 14.20093,-23.9066 17.61124,-28.42001 25.125,-33.4375 5.67995,-3.79293 10.94048,-5.75212 21.4375,-7.9375 4.66601,-0.97141 8.64702,-1.92827 8.84375,-2.125 0.19674,-0.19673 -3.02925,-5.06228 -7.15625,-10.8125 -4.127,-5.75022 -9.38749,-13.56191 -11.6875,-17.375 l -4.1875,-6.9375 14.03125,-0.46875 c 8.95653,-0.30596 15.74043,-0.91987 18.75,-1.6875 7.65108,-1.95152 24.76419,-7.89742 29.59375,-10.28125 11.98964,-5.91799 26.37955,-19.65738 36.46875,-34.84375 8.67269,-13.05423 10.61508,-17.81867 20.25,-49.21875 l 4.21875,-13.6875 -0.0937,-11.1875 c -0.0487,-6.14344 -0.41946,-14.55289 -0.8125,-18.71875 -0.83064,-8.80428 -4.04775,-28.70308 -5.6875,-35.1875 -2.22339,-8.79244 -7.2184,-23.2245 -10.375,-30 -7.04443,-15.120495 -27.8207,-40.69477 -41.625,-51.21875 -5.01636,-3.82432 -16.01977,-10.40603 -25.09375,-15 C 228.19504,30.22856 204.05183,22.91987 183.03125,18.375 181.94607,18.14038 180.45967,16.16326 178.375,12.15625 173.74793,5.1426881 173.30393,0.3433936 165.66824,0.21875 z M 104.875,44.8125 c 10.12629,-0.18628 16.37984,1.64491 26.25,3.78125 11.09729,2.56361 63.39799,20.96661 74.1875,24.59375 -0.80566,6.59932 -9.84783,10.36631 -13.84375,8.8125 -17.375,-3.104167 -32.37885,-11.765271 -50.28125,-11.96875 -2.35633,10.57759 -8.58359,20.393785 -12.78125,30.375 2.5693,1.3225 14.42579,6.17399 15.5,9.125 -1.42821,6.7485 -16.08411,-2.58135 -19.03125,-1.09375 -3.75875,8.29323 -6.95183,17.62826 -13.96875,23.65625 -6.95339,4.76273 -14.68905,9.6483 -22.875,9 -8.10873,-1.11402 -20.30594,-8.36505 -25.8125,-15.125 -5.54149,-6.5923 -8.21814,-15.00756 -10.0625,-23.1875 1.88008,-3.126426 6.76059,-1.55152 6.15625,2.40625 2.33268,8.99462 6.36591,18.53327 14.9375,23.46875 8.66825,4.88355 13.92382,5.11918 22.625,-0.59375 8.61275,-5.56482 13.33856,-14.98564 17.875,-23.75 C 98.144483,99.840274 88.18632,100.60388 72.0625,101.09375 74.65529,98.478725 69.9,89.77862 73.5625,89 c 12.86682,-0.37007 31.37541,4.27077 44,7.1875 5.02911,-11.01855 6.63913,-20.31134 9.625,-32 -12.57071,-9.162139 -31.43263,-11.958915 -42.96875,-4.09375 -3.302,2.73722 -1.92813,6.00201 1.46875,8.21875 6.32834,4.52585 13.860604,-3.757292 14.40625,6.90625 0.54565,10.663542 -20.055434,2.279651 -22.34375,1.25 -3.7213,-1.8233 -7.47333,-12.1574 -5.625,-16.625 5.65304,-12.383351 21.446993,-14.783302 32.75,-15.03125 z M 269,102.15625 c 9.95865,1.12832 15.11406,8.94178 17.40625,16.84375 5.20361,15.70327 -15.14178,26.98475 -36.375,39.15625 l -3.21875,-6.5625 c 22.04675,-20.62815 24.95112,-46.38059 4.3125,-24 -20.63865,22.38059 -17.96561,29.73181 -25.5,44.65625 3.38672,-1.18576 12.17605,-4.58574 17.03125,-5.125 14.00103,-2.12222 13.65403,6.34694 9.125,9.8125 -8.08275,2.74195 -11.69716,3.10392 -19.5625,3.625 9.37126,12.43803 3.70706,24.59892 -2.46875,24.0625 -3.91703,-0.98639 -6.56447,-16.35208 -7.25,-20.9375 -6.5452,13.90484 -16.93132,12.81652 -15.125,4.5 2.79435,-6.43378 6.18181,-13.92987 8.9375,-20.40625 C 222.98208,152.24803 228.11189,137.57138 238.375,124 245.3039,114.47721 257.99376,102.78011 269,102.15625 z M 148.53125,117.375 c 3.04691,1.20638 2.87206,6.63646 1.34375,8.53125 -4.52315,5.99929 -12.69096,13.39751 -10.40625,19.03125 2.26472,5.16843 4.00934,7.14064 10.59375,3.03125 6.58446,-4.10944 5.73066,-11.09372 11.75,-17.5 1.75105,-2.04375 6.47559,-2.45706 8.84375,-1.46875 5.23992,3.14368 -2.54099,14.64246 -5.15625,19.21875 -4.2602,7.27928 -6.88074,8.99587 -12.3125,17.1875 -9.98614,-1.8086 -27.38287,-2.67368 -27.625,-16.0625 0.15378,-5.30671 2.16634,-10.59662 4.9375,-15.40625 3.18046,-5.87631 6.47559,-11.9507 11.40625,-16.75 2.16435,-1.74964 4.4592,-1.35025 6.625,0.1875 z m 34.3125,20.71875 c 8.27182,3.41565 13.41953,1.68395 16.375,2.78125 13.41687,3.38497 12.02952,13.75836 8.46875,21.9375 l -9.375,20.96875 -8.84375,-3.46875 7.6875,-17.25 c 2.11815,-4.10431 4.12729,-10.43633 -0.84375,-12.5625 -7.69884,-1.83197 -10.58362,4.48855 -12.84375,9.53125 l -6.8125,15.28125 -8.875,-3.46875 z m 86.125,33.71875 8.90625,5.59375 -6.5,23.25 19.5,-11.875 c 2.89745,1.8131 5.47754,13.40565 8.375,15.21875 -12.15761,9.42572 -24.05903,8.92237 -36.21875,18.34375 -3.19834,2.43347 -20.55299,27.02133 -24.59375,25.6875 -13.36841,-2.72607 -9.97907,-16.58294 -8.625,-20.46875 1.35409,-3.88581 13.32728,-7.48008 8.71875,3.3125 -4.60853,10.79258 5.79633,-4.1223 11,-10.6875 5.20367,-6.56518 17.11806,-36.7278 19.4375,-48.375 z m -202.6875,0.125 7.46875,6.6875 2.21875,24.625 16.40625,12.6875 -2.96875,53.6875 c 0,0 4.453803,19.39573 18.625,23.125 14.17121,3.72926 58.9375,3 58.9375,3 l 0.75,3.71875 18.65625,25.34375 -63.40625,68.625 c 0,0 -1.97498,-65.41502 -26.125,-73.84375 -16.177597,-5.64623 -52.19358,8.20853 -58.90625,0.75 -6.71268,-7.45853 -12.52705,-16.36179 -6.71875,-27.59375 -12.55847,-12.90487 0.75,-28.34375 0.75,-28.34375 L 20.03125,251 38.6875,224.125 c 1.2887,-10.37465 -5.46968,-28.72413 4.46875,-41 12.36828,-13.63738 0.688311,-10.16765 23.125,-11.1875 z m 46.40625,0.3125 c 12.20671,-0.35984 29.60257,7.75716 36.625,16.34375 5.59936,23.96454 -42.94247,45.6722 -29.03125,57.1875 5.70572,4.04624 13.65956,-3.04837 23.625,-9.6875 9.96544,-6.63912 15.9126,-16.78843 18.84375,-32.40625 8.16074,2.74173 31.73274,1.35448 48.15625,19.59375 -2.32506,11.07949 -15.17484,12.50525 -21.25,13.0625 -6.07517,0.55724 -8.51312,-13.42656 -14.28125,-14.34375 -5.07802,7.24302 -12.94284,16.00167 -20.375,23.78125 -7.43216,7.77957 -16.80627,12.81673 -29,12.71875 -6.21223,0.0697 -15.83889,-4.18647 -18.78125,-10.71875 -3.04092,-8.78969 -2.77761,-18.70042 2.90625,-23.71875 8.56496,-7.92797 15.99993,-12.98954 23.03125,-22.40625 6.27716,-11.99687 -10.21875,-19.00152 -19.75,-20.375 -7.81925,-0.20614 -11.89523,10.4547 -4.6875,13.40625 -3.67438,12.59762 -25.143273,2.25459 -11.21875,-15.9375 4.34386,-4.41846 9.639,-6.33644 15.1875,-6.5 z"
     transform="translate(0,-7.2281813e-6)"
     id="path3237"
     inkscape:connector-curvature="0"
     sodipodi:nodetypes="cssssssssssssscssssscccsscccsssssssscscccssscccssssssccccccccccccccccccccccccscccccccscccccccccccccsccccccccccccccccccccccccccsssccccccsccccssccccccsccsccscscccccccs" />
  <g
     inkscape:groupmode="layer"
     id="layer1"
     inkscape:label="Texte"
     style="display:inline"
     transform="translate(-360.87678,14.94581)" />
  <g
     inkscape:label="Forme Boucle"
     id="g3810"
     inkscape:groupmode="layer"
     style="display:inline"
     transform="translate(-360.87678,14.94581)" />
  <path
     style="fill:#000000;fill-opacity:1"
     d=""
     id="path3879"
     inkscape:connector-curvature="0" />
  <path
     style="fill:#000000;fill-opacity:1"
     d=""
     id="path3889"
     inkscape:connector-curvature="0" />
  <path
     style="fill:#000000;fill-opacity:1;stroke:#000000;stroke-width:0.74585301;stroke-opacity:1"
     d=""
     id="path3899"
     inkscape:connector-curvature="0" />
</svg>
