<?xml version="1.0" encoding="UTF-8" standalone="no"?>
<svg
   xmlns:dc="http://purl.org/dc/elements/1.1/"
   xmlns:cc="http://creativecommons.org/ns#"
   xmlns:rdf="http://www.w3.org/1999/02/22-rdf-syntax-ns#"
   xmlns:svg="http://www.w3.org/2000/svg"
   xmlns="http://www.w3.org/2000/svg"
   xmlns:sodipodi="http://sodipodi.sourceforge.net/DTD/sodipodi-0.dtd"
   xmlns:inkscape="http://www.inkscape.org/namespaces/inkscape"
   viewBox="0 0 320.65302 414.76938"
   id="svg3163"
   version="1.1"
   inkscape:version="0.48.1 "
   width="100%"
   height="100%"
   sodipodi:docname="BoucleDroite_FunkyV_v3.svg">
  <metadata
     id="metadata3243">
    <rdf:RDF>
      <cc:Work
         rdf:about="">
        <dc:format>image/svg+xml</dc:format>
        <dc:type
           rdf:resource="http://purl.org/dc/dcmitype/StillImage" />
        <dc:title></dc:title>
      </cc:Work>
    </rdf:RDF>
  </metadata>
  <sodipodi:namedview
     pagecolor="#ffffff"
     bordercolor="#666666"
     borderopacity="1"
     objecttolerance="10"
     gridtolerance="10"
     guidetolerance="10"
     inkscape:pageopacity="0"
     inkscape:pageshadow="2"
     inkscape:window-width="878"
     inkscape:window-height="805"
     id="namedview3241"
     showgrid="false"
     inkscape:zoom="1.0917913"
     inkscape:cx="322.92085"
     inkscape:cy="151.15433"
     inkscape:window-x="45"
     inkscape:window-y="93"
     inkscape:window-maximized="0"
     inkscape:current-layer="svg3163"
     fit-margin-top="0"
     fit-margin-left="0"
     fit-margin-right="0"
     fit-margin-bottom="0" />
  <defs
     id="defs3165">
    <linearGradient
       id="linearGradient3167">
      <stop
         offset="0"
         stop-color="#333"
         id="stop3169" />
      <stop
         offset="1"
         id="stop3171" />
    </linearGradient>
    <linearGradient
       id="linearGradient3173">
      <stop
         offset="0"
         stop-color="#cdde87"
         id="stop3175" />
      <stop
         offset="1"
         stop-color="#450"
         id="stop3177" />
    </linearGradient>
    <linearGradient
       id="linearGradient3179">
      <stop
         offset="0"
         stop-color="#c8ab37"
         id="stop3181" />
      <stop
         offset="1"
         stop-color="#786721"
         id="stop3183" />
    </linearGradient>
    <linearGradient
       id="linearGradient3185">
      <stop
         offset="0"
         stop-color="#f95"
         id="stop3187" />
      <stop
         offset=".268"
         stop-color="#d38d5f"
         id="stop3189" />
      <stop
         offset=".7499"
         stop-color="#c87137"
         id="stop3191" />
      <stop
         offset="1"
         stop-color="#c87137"
         id="stop3193" />
    </linearGradient>
    <linearGradient
       id="linearGradient3195">
      <stop
         offset="0"
         stop-color="#c87137"
         id="stop3197" />
      <stop
         offset=".2562"
         stop-color="#c87137"
         id="stop3199" />
      <stop
         offset=".4362"
         stop-color="#c87137"
         id="stop3201" />
      <stop
         offset="1"
         stop-color="#28170b"
         id="stop3203" />
    </linearGradient>
    <linearGradient
       id="linearGradient3205">
      <stop
         offset="0"
         stop-color="#5b3821"
         id="stop3207" />
      <stop
         offset=".5"
         stop-color="#e9c6af"
         id="stop3209" />
      <stop
         offset=".75"
         stop-color="#76533c"
         id="stop3211" />
      <stop
         offset="1"
         stop-color="#502d16"
         id="stop3213" />
    </linearGradient>
    <linearGradient
       id="linearGradient3215">
      <stop
         offset="0"
         stop-color="#f95"
         id="stop3217" />
      <stop
         offset=".5"
         stop-color="#ffb380"
         id="stop3219" />
      <stop
         offset=".75"
         stop-color="#f95"
         id="stop3221" />
      <stop
         offset="1"
         stop-color="#c87137"
         id="stop3223" />
    </linearGradient>
    <linearGradient
       id="linearGradient3225">
      <stop
         offset="0"
         stop-color="#cdde87"
         id="stop3227" />
      <stop
         offset=".3319"
         stop-color="#9aab54"
         id="stop3229" />
      <stop
         offset=".5984"
         stop-color="#80913a"
         id="stop3231" />
      <stop
         offset="1"
         stop-color="#450"
         id="stop3233" />
    </linearGradient>
  </defs>
  <path
     style="fill:#000000;fill-opacity:1"
     d=""
     id="path3879"
     inkscape:connector-curvature="0" />
  <path
     style="fill:#000000;fill-opacity:1"
     d=""
     id="path3889"
     inkscape:connector-curvature="0" />
  <path
     style="fill:#000000;fill-opacity:1;stroke:#000000;stroke-width:0.74585301;stroke-opacity:1"
     d=""
     id="path3899"
     inkscape:connector-curvature="0" />
  <path
     style="fill:#000000;fill-opacity:1;fill-rule:evenodd;stroke:none"
     d="m 155.28125,0.00889328 c -5.09493,0.184785 -8.62931,4.27880002 -12.5,11.71874972 -2.08467,4.00701 -3.85232,5.95288 -4.9375,6.1875 -21.02058,4.54487 -45.16379,11.85356 -54.15625,16.40625 -9.07398,4.59397 -20.07739,11.17568 -25.09375,15 -13.8043,10.523981 -34.58057,36.09825 -41.625,51.218747 -3.1566,6.7755 -8.15161,21.20756 -10.375,30 C 4.954,137.02456 1.73689,156.92336 0.90625002,165.72764 0.51321002,169.8935 0.14245,178.30295 0.09375,184.44639 L 0,195.63389 l 4.21875,13.6875 c 9.63492,31.40008 11.57731,36.16452 20.25,49.21875 10.0892,15.18637 24.47911,28.92576 36.46875,34.84375 4.82956,2.38383 21.94267,8.32973 29.59375,10.28125 3.00957,0.76763 9.79347,1.38154 18.75,1.6875 l 14.03125,0.46875 -4.1875,6.9375 c -2.30001,3.81309 -7.5605,11.62478 -11.6875,17.375 -4.127,5.75022 -7.35299,10.61577 -7.15625,10.8125 0.19673,0.19673 4.17774,1.15359 8.84375,2.125 10.49702,2.18538 15.75755,4.14457 21.4375,7.9375 7.51376,5.01749 10.92406,9.5309 25.125,33.4375 9.69737,16.32508 14.49482,21.7038 22.9375,25.71875 2.95988,1.40758 7.21255,2.91338 9.46875,3.34375 4.79811,0.91523 17.94181,1.58712 21.4375,1.09375 2.78478,-0.39304 2.66517,-0.0779 4.3125,-11.8125 2.00579,-14.28795 4.81456,-29.19923 6.75,-35.96875 3.23606,-11.3187 9.84865,-23.2343 16.21875,-29.1875 l 1.875,-1.71875 11.375,1.25 c 8.20845,0.9221 14.52092,1.17197 22.625,0.875 11.20798,-0.41071 16.36198,-1.3312 21.3125,-3.84375 6.12412,-3.1082 7.26674,-5.37439 7.90625,-15.78125 l 0.5,-8.125 3.625,-4.75 c 3.97536,-5.20802 4.34024,-6.7108 2.28125,-9.6875 -0.75318,-1.08887 -1.60463,-2.34214 -1.875,-2.8125 -0.27037,-0.47037 1.03101,-2.90137 2.875,-5.40625 1.84399,-2.50488 3.34375,-5.1955 3.34375,-5.96875 0,-0.77326 -1.12726,-3.03565 -2.5,-5.03125 -3.92456,-5.7053 -4.91345,-7.99736 -4.125,-9.40625 0.38183,-0.68227 3.39813,-3.12866 6.71875,-5.46875 10.55541,-7.43853 10.55046,-10.9923 -0.0937,-25.0625 -7.2301,-9.55721 -11.9574,-18.36014 -11.9375,-22.3125 0.007,-1.39273 0.69362,-5.04836 1.5,-8.125 3.3275,-12.6957 1.49433,-21.74595 -9.125,-45.125 -2.42231,-5.33285 -4.4482,-10.19717 -4.5,-10.8125 -0.0518,-0.61533 1.61409,-3.98189 3.71875,-7.46875 3.80328,-6.30102 9.89617,-21.80285 11.5,-29.28125 1.21187,-5.65078 0.37612,-18.480057 -1.59375,-24.406247 -0.88632,-2.66643 -3.45786,-8.3802 -5.71875,-12.6875 -12.78261,-24.352529 -26.13298,-37.20735 -47.625,-45.875 -18.57662,-7.491881 -37.51882,-12.01293 -62.65625,-14.96875 -12.56555,-1.47753 -10.97197,-0.63226 -18.4375,-10.0312497 -2.47458,-3.058464 -7.40507,-5.77853497 -12.5,-5.59375002 z M 180.625,37.290143 c 3.11621,0.08449 6.62801,1.020389 10.8125,2.875 11.15863,4.94562 14.65858,20.943267 13.21875,45.25 l -7.4375,-0.71875 c -5.35018,-29.424543 -25.76345,-45.372459 -18.125,-16.21875 7.63843,29.15371 15.42534,30.755749 24,44.937497 0.87698,-3.48105 2.87347,-12.71144 5.125,-17.093747 6.57206,-13.53354 13.90608,-6.82763 14.34375,-1.1875 -3.02946,8.825457 -6.03191,8.527097 -8.65625,17.062497 15.89294,-1.39625 24.56738,7.84741 20.65625,12.78125 -3.85211,3.53942 -18.67312,-2.36812 -23.34375,-4.34375 1.13907,3.5131 1.19443,8.23424 1.65625,11.625 0.46181,3.39076 -2.7789,8.74597 -6.34375,4.90625 -3.95,-5.73055 -8.46065,-12.52978 -12.46875,-18.25 -9.57953,-13.77047 -19.29702,-25.785547 -25.1875,-41.562497 -4.28556,-10.84028 -8.12289,-25.91593 -1.59375,-33.3125 4.08071,-4.62285 8.15007,-6.890816 13.34375,-6.75 z M 258,67.571393 c 3.18793,0.148388 7.391,2.591036 9.96875,1.375 1.28014,15.20457 -2.33774,23.92092 -1.0625,39.124997 0.29721,3.97572 3.776,36.16181 0.375,38.875 -9.80682,9.86005 -15.83411,-2.6019 -18.40625,-5.78125 -2.57213,-3.17938 1.01731,-15.17125 7.6875,-5.625 6.67019,9.54625 3.65354,-15.3849 0.9375,-23.21875 -2.71602,-7.83384 -19.00583,-24.001407 -27.6875,-32.062497 l 5.78125,-6.59375 19.71875,17.78125 L 256,67.915143 c 0.59486,-0.280624 1.26432,-0.377993 2,-0.34375 z m -151.125,11.09375 c 5.20326,4.138 3.34564,13.72119 -0.21875,16.28125 C 94.2863,107.99153 78.49224,116.12359 68.3125,131.13389 c 7.74474,7.53183 12.67026,17.94455 18.875,26.71875 2.56891,-1.47661 13.37155,-8.95161 16.5,-8.3125 4.98313,4.74187 -11.22103,12.23199 -11.59375,15.5 5.00397,7.51915 11.22633,15.104 12.46875,24.1875 0.19399,8.36692 0.0679,17.45865 -5.0625,24.03125 -5.48622,6.26338 -18.50631,12.7671 -27.375,13.875 -8.74459,1.22524 -17.46159,-0.92776 -25.5,-3.65625 -1.62762,-3.22565 2.4472,-6.52148 5.5,-3.9375 9.00926,2.743 19.4188,4.33947 28.4375,-0.3125 9.02824,-4.76079 12.18746,-9.06562 12.15625,-19.40625 0.0463,-10.18834 -5.40206,-19.13981 -10.375,-27.5625 -12.553,10.83418 -17.43953,19.65951 -26.03125,33.53125 -0.79118,-3.55952 -10.91114,-4.09316 -9.53125,-7.59375 6.87406,-11.05873 21.19556,-24.27418 30.75,-33.40625 -6.62872,-10.01978 -13.68652,-16.22943 -22.03125,-24.875 -14.87467,5.8143 -26.04058,19.63787 -25.75,33.5 0.49949,4.2224 4.04623,4.76939 7.84375,3.0625 7.41405,-2.97237 4.69339,-3.59328 10.28125,-9.09375 2.18285,-1.38278 4.61596,-1.44678 6.3125,0.90625 -6.2497,9.84158 -6.65006,11.21467 -16.59375,17.59375 -3.64177,2.18697 -12.04944,1.52654 -14.84375,-2.375 -7.09873,-8.97139 -2.31131,-18.23954 -0.78125,-23.125 1.60881,-4.36729 3.71881,-8.47521 6.21875,-12.40625 5.49987,-8.64831 8.80977,-12.34741 16.15625,-19.5625 8.39833,-8.02743 53.39382,-42.539717 62.53125,-49.749997 z m 66.34375,36.499997 c 4.40401,0.26577 8.13307,3.11391 11.75,8.4375 l 12.71875,18.90625 -7.90625,5.65625 -10.46875,-15.53125 c -2.33229,-3.93903 -6.65029,-8.95858 -11.25,-5.875 -5.87221,5.54109 -2.05685,11.29316 1,15.84375 l 9.28125,13.75 -7.9375,5.6875 -20.5,-30.40625 c 7.54915,-5.19515 8.93943,-10.45431 11.53125,-12.375 4.52006,-2.94065 8.35591,-4.30046 11.78125,-4.09375 z M 136.75,138.38389 c 4.38693,-0.18866 9.63613,8.53627 12.15625,13.1875 3.85508,7.41132 3.86185,10.52763 7.84375,19.40625 -7.13052,7.48475 -17.61343,21.71686 -29.21875,14.90625 -9.28263,-7.62359 -16.11942,-19.98576 -18.40625,-30.625 -0.53078,-6.25342 9.9509,-6.50033 11.90625,-2.1875 2.61157,6.96271 4.39676,17.75868 10.5,18.78125 5.69343,0.79565 8.37176,0.33803 8.53125,-7.375 0.15948,-7.71311 -6.31347,-10.6544 -8.4375,-19.09375 1.29935,-4.99117 3.13094,-6.91425 5.125,-7 z m 93.9375,18.84375 c 8.19218,7.7684 -3.95706,25.07812 -6.875,30.5 -2.91796,5.42189 -19.61553,5.20366 -23.625,9.59375 3.36694,8.0829 6.45785,19.33562 8.96875,29.6875 2.5109,10.35187 -1.22615,21.53612 -8.125,31.78125 -3.41222,5.28216 -12.44695,11.18804 -19.6875,10.25 -9.22952,-2.03758 -13.62751,-9.78991 -14.75,-17.21875 -2.00493,-11.38617 0.0437,-23.69132 -4.09375,-34.5625 -1.0505,-4.0173 -6.43068,-5.84089 -11.375,-3.65625 -8.55132,3.39253 -12.68953,4.9912 -18.21875,11.34375 -4.54667,6.49462 2.31815,15.50854 8.875,10.96875 6.12314,7.8427 -12.09288,22.52922 -19.9375,1.125 -1.3575,-5.98304 -0.0546,-11.44786 2.90625,-16.21875 6.51389,-10.49596 20.96925,-17.5379 32.25,-18.96875 6.5571,-0.16021 11.26084,10.64941 12.4375,15.0625 3.86642,11.56469 4.63868,45.48805 17.5,40.03125 6.6552,-2.69791 7.83684,-13.76279 7.71875,-25.65625 -0.11808,-11.89345 -3.47738,-24.24821 -15.21875,-34.90625 6.90973,-5.45445 26.44581,-34.84459 51.25,-39.15625 z m 23.4375,16.34375 c 22.43669,1.01985 10.75672,-2.44988 23.125,11.1875 9.93843,12.27587 3.18005,30.6566 4.46875,41.03125 l 18.65625,26.84375 -11.9375,13.4375 c 0,0 13.30847,15.43888 0.75,28.34375 5.8083,11.23196 -0.006,20.13522 -6.71875,27.59375 -6.71267,7.45853 -42.72865,-6.39623 -58.90625,-0.75 -24.15002,8.42873 -26.125,73.84375 -26.125,73.84375 -39.26691,-30.64472 -27.99403,-57.41001 -63.375,-68.625 l 18.625,-25.375 0.75,-3.71875 c 0,0 44.76629,0.76051 58.9375,-2.96875 14.1712,-3.72927 18.625,-23.125 18.625,-23.125 l -2.96875,-53.71875 16.40625,-12.65625 2.25,-24.625 7.4375,-6.71875 z"
     id="path4483"
     inkscape:connector-curvature="0" />
</svg>
