<?xml version="1.0" encoding="UTF-8" standalone="no"?>
<!-- Created with Inkscape (http://www.inkscape.org/) -->

<svg
   xmlns:dc="http://purl.org/dc/elements/1.1/"
   xmlns:cc="http://creativecommons.org/ns#"
   xmlns:rdf="http://www.w3.org/1999/02/22-rdf-syntax-ns#"
   xmlns:svg="http://www.w3.org/2000/svg"
   xmlns="http://www.w3.org/2000/svg"
   xmlns:sodipodi="http://sodipodi.sourceforge.net/DTD/sodipodi-0.dtd"
   xmlns:inkscape="http://www.inkscape.org/namespaces/inkscape"
   width="318.4248"
   height="319.02866"
   id="svg2"
   version="1.1"
   inkscape:version="0.48.1 "
   sodipodi:docname="expiali.svg">
  <defs
     id="defs4" />
  <sodipodi:namedview
     id="base"
     pagecolor="#ffffff"
     bordercolor="#666666"
     borderopacity="1.0"
     inkscape:pageopacity="0.0"
     inkscape:pageshadow="2"
     inkscape:zoom="4.3148438"
     inkscape:cx="164.04821"
     inkscape:cy="239.5611"
     inkscape:document-units="cm"
     inkscape:current-layer="layer1"
     showgrid="false"
     units="cm"
     fit-margin-top="0"
     fit-margin-left="0"
     fit-margin-right="0"
     fit-margin-bottom="0"
     inkscape:window-width="1680"
     inkscape:window-height="988"
     inkscape:window-x="-8"
     inkscape:window-y="-8"
     inkscape:window-maximized="1"
     showguides="true"
     inkscape:guide-bbox="true" />
  <metadata
     id="metadata7">
    <rdf:RDF>
      <cc:Work
         rdf:about="">
        <dc:format>image/svg+xml</dc:format>
        <dc:type
           rdf:resource="http://purl.org/dc/dcmitype/StillImage" />
        <dc:title></dc:title>
      </cc:Work>
    </rdf:RDF>
  </metadata>
  <g
     inkscape:label="Calque 1"
     inkscape:groupmode="layer"
     id="layer1"
     transform="translate(-192.0723,257.92639)">
    <path
       style="font-size:57.62233734px;font-style:normal;font-weight:normal;line-height:125%;letter-spacing:0px;word-spacing:0px;fill:#000000;fill-opacity:1;stroke:none;font-family:Sans"
       d="m 448.89994,-216.18207 c 0,-3.79224 -7.60643,-4.31192 -12.99237,-4.27881 1.37085,2.51347 6.23883,3.89622 7.09893,6.55817 0.54731,12.06586 0.19908,24.1947 0.22323,36.2699 0.55357,3.17544 0.26927,2.67609 -3.47397,5.1916 -6.78187,-2.37116 -3.98725,-14.70347 -3.98213,-20.6273 -0.25018,-2.70812 0.46151,-5.48413 2.85743,-7.87781 0.71042,-1.43453 5.84986,-3.53436 0.71435,-3.91891 -7.46051,4.93958 -20.14395,0.48831 -27.68134,-1.83948 -3.18116,1.92836 -7.3945,3.3342 -12.01012,3.83893 -2.99711,0.80898 -7.60366,-0.98598 -8.7851,1.23965 l 0.3599,6.39822 c 7.83068,1.50646 20.04147,-2.90607 28.78437,-1.39961 l 0,11.03693 c -4.08502,0.26957 -13.40029,-4.22364 -21.07353,-4.71869 -3.86234,2.62374 -7.29378,5.40075 -9.95022,8.43765 l 0,-14.11607 -15.99554,0 c 0.0303,-1.02099 -0.003,-2.04262 -0.15996,-3.03915 2.5432,1.7026 6.29452,1.93981 9.47736,0.1199 5.94099,-3.64102 3.40159,-12.97328 -3.83893,-13.2763 -4.85177,-0.14911 -7.23661,3.59439 -8.03776,6.75812 -1.99994,-3.25995 -5.00315,-5.9009 -8.63759,-7.27798 -9.09544,-2.52091 -18.72063,-0.83527 -28.0322,-1.31963 l 0,4.11885 c -4.47755,-1.25271 -9.4781,0.0202 -14.11607,0.15996 -2.31126,0.70115 -1.93907,3.58808 -2.15939,5.47847 -0.32638,2.75468 -0.81514,5.61766 -2.1594,8.07775 -1.12244,2.81152 -4.83866,2.30554 -5.63843,-0.43987 -2.1133,-3.71783 -2.69118,-8.06562 -2.79922,-12.27658 -1.97301,-1.95727 -8.33749,-2.03424 -11.66269,-1.45137 -3.32519,0.58287 -12.7543,7.03665 -13.45032,9.48913 -18.58506,-9.08787 -44.3436,-7.11712 -55.13031,8.32944 -7.07148,11.02392 -5.08227,19.23921 0.34582,24.05685 12.65647,10.45324 19.7631,8.37648 33.45131,8.36236 7.37191,-0.0992 16.51299,-1.10991 24.29236,-5.95834 -0.43177,0.81928 -0.67774,1.65799 -0.59984,2.47931 2.78039,1.65215 17.53415,1.15804 20.4743,0.23993 1.5231,-2.98231 0.0934,-6.54375 1.55957,-9.55734 0.75944,-2.52585 1.42745,-5.56792 3.95889,-6.91807 2.40508,-0.82395 4.06455,1.82979 5.07859,3.599 2.01636,3.58892 3.096,7.72702 2.99916,11.8367 0.75845,2.54873 4.00853,1.69027 5.95835,1.63954 0.65635,0.032 7.53043,0.72248 9.59732,0.15996 l 0,2.59928 16.71535,0 0,-12.99639 c -0.90614,-5.81226 6.90373,-2.23011 9.91724,-4.23881 2.90869,-0.58377 5.42668,-2.08481 7.43792,-4.11886 l 0,21.03414 21.15411,0 0,-5.47847 c 2.1594,1.88843 4.60776,5.58085 7.71785,6.99861 l 19.91271,-10.83748 c 1.44467,-0.67498 4.07082,-2.1931 3.66107,0 -0.0356,3.75198 4.77883,8.75296 9.86706,10.83754 l 12.05479,-7.59844 c 5.61808,1.54239 11.04763,5.32155 15.44796,7.83838 l 12.67984,-7.43849 c 1.32742,2.51578 4.80163,6.58559 8.75088,7.99833 2.71773,-1.16647 5.45714,-4.34934 8.17045,-5.51902 2.01599,-1.55564 12.05471,-3.39107 7.18823,-5.0386 -3.16631,1.95472 -9.11142,2.13369 -9.50988,-1.23965 -0.30827,-8.80485 -0.0582,-17.61862 -0.13387,-26.43264 l 6.02731,-3.31908 c -5.54318,-2.30028 -5.79842,-5.36291 -10.84929,-5.67835 3.2131,-3.23996 9.23954,-4.43724 3.42247,-7.49604 -5.81707,-3.05881 -8.33541,1.10722 -7.48538,7.29609 -4.74575,0.27186 -9.14086,4.40532 -12.23337,5.87835 l 5.7595,3.31907 0,5.11858 c 0.14837,7.55601 -0.36357,9.56422 0.31254,17.11149 -2.96148,2.87208 -7.61042,4.58573 -10.80465,3.24284 l 0,-24.27324 c 0.2009,-6.49322 -0.59198,-13.00832 0.71435,-19.47458 0.71836,-3.53693 7.83259,-4.74585 10.31353,-7.71785 -7.41186,0.9301 -15.28177,2.53037 -21.07353,6.03828 z m -96.23099,7.12057 c 1.04396,-0.0196 1.98925,0.49025 2.1244,1.85426 0.0786,1.2451 -1.51818,2.1818 -3.03485,1.85424 -4.17052,-1.1308 -1.38625,-3.66546 0.91045,-3.7085 z m -10.7634,0.0475 c 1.02941,-0.0156 1.96946,0.48826 2.1244,1.87803 0.11415,1.29938 -1.58445,2.28735 -3.15625,1.87802 -3.97649,-1.16721 -1.23284,-3.7216 1.03185,-3.75605 z m 19.89266,2.78353 c 0.88081,-0.0179 1.66199,0.62574 1.79281,2.39754 0.0655,1.6414 -1.35988,2.88045 -2.7022,2.36718 -3.39379,-1.4985 -1.02838,-4.72531 0.90939,-4.76472 z m -28.03346,3.36465 0,32.03108 c -3.16239,-5.81527 -10.2563,-12.1391 -12.51651,-14.07608 -2.31169,-1.42741 -1.87724,-4.65613 -0.19995,-6.39822 3.12949,-2.97724 10.00663,-7.24116 12.71646,-11.55678 z m 8.36672,2.2961 c 0.96649,-0.0188 1.8491,0.58523 1.99457,2.25101 0.10711,1.55743 -1.48762,2.74161 -2.96335,2.251 -3.73346,-1.39903 -1.15749,-4.46073 0.96878,-4.50201 z m 10.50803,0.78304 c 1.91425,0.0928 4.72858,2.32092 4.1743,4.97408 -4.76134,11.66698 -10.81104,-4.8376 -4.1743,-4.97408 z m 11.03559,5.58031 c 1.09675,-0.0214 2.09496,0.65918 2.26277,2.5537 0.0869,1.73841 -1.66644,3.09158 -3.32952,2.55371 -4.25461,-1.57404 -1.34608,-5.06025 1.06675,-5.10741 z m -77.01722,-3.90078 c 5.02291,1.63095 11.33611,2.32931 13.03637,5.15857 0.90326,2.54161 3.97044,4.18191 3.83893,6.99805 -0.55309,2.54951 -2.88554,4.08063 -3.99888,6.35823 -1.21474,2.0121 -4.26359,4.1874 -7.31797,6.4382 1.46443,-1.89315 2.63885,-3.91325 1.67954,-5.59844 l -17.31518,0 c -2.41674,1.91605 -5.36116,4.24415 -7.95779,4.6787 -4.92611,1.30597 -9.98396,0.74221 -14.96836,0.79978 -3.76997,-0.50449 -8.4556,-1.22082 -10.60963,-6.15829 -1.49923,-2.76398 -0.0685,-3.23953 1.68944,-2.8792 15.24525,-0.0314 31.72037,0.07 49.76135,-0.0399 3.37127,-5.7819 -3.88081,-12.95703 -7.83782,-15.7557 z m -33.24775,3.15906 c 3.14116,0.0997 7.82345,1.62337 9.63765,5.3985 l -19.86771,0 c 3.09079,-4.22957 6.13611,-5.54501 10.23006,-5.3985 z m 88.66687,5.14867 c 0.91216,-0.0178 1.74506,0.55222 1.88236,2.12439 0.10174,1.47018 -1.40392,2.58736 -2.79666,2.12439 -3.5237,-1.32007 -1.09247,-4.2097 0.9143,-4.24878 z m 11.36637,3.82496 c 1.0551,-0.0188 2.02327,0.64259 2.18204,2.4626 0.11735,1.69737 -1.59854,2.97652 -3.21072,2.43143 -4.08459,-1.53351 -1.29257,-4.85272 1.02868,-4.89403 z m -11.31689,6.46223 c 0.96152,-0.0184 1.84013,0.58187 1.98424,2.23936 0.10659,1.5495 -1.48047,2.72742 -2.94802,2.23936 -3.71415,-1.39233 -1.15157,-4.43826 0.96378,-4.47872 z m 59.35801,-4.0789 18.52864,4.87865 0,2.91918 -11.56365,5.23854 c -3.67697,-1.46676 -6.92541,-0.79135 -8.92947,-3.07914 -4.33595,-4.78635 -1.9629,-5.35138 1.96448,-9.95723 z m -59.25906,14.44727 c 1.0602,-0.0204 2.02867,0.64217 2.18799,2.4693 0.11747,1.70848 -1.63254,2.97596 -3.25072,2.43804 -4.09524,-1.53451 -1.26969,-4.86238 1.06273,-4.90734 z"
       id="path3013"
       inkscape:connector-curvature="0"
       sodipodi:nodetypes="cccccccccccccccccccccccccccccczccccccccccccccccccccccccccccccccccczccccccccccscssscssccscscccsscssccccscccccccccccccccsccssccscccccccccscccccccc" />
  </g>
</svg>
