<?xml version="1.0" encoding="UTF-8" standalone="no"?>
<!-- Created with Inkscape (http://www.inkscape.org/) -->

<svg
   xmlns:dc="http://purl.org/dc/elements/1.1/"
   xmlns:cc="http://creativecommons.org/ns#"
   xmlns:rdf="http://www.w3.org/1999/02/22-rdf-syntax-ns#"
   xmlns:svg="http://www.w3.org/2000/svg"
   xmlns="http://www.w3.org/2000/svg"
   xmlns:sodipodi="http://sodipodi.sourceforge.net/DTD/sodipodi-0.dtd"
   xmlns:inkscape="http://www.inkscape.org/namespaces/inkscape"
   width="193.28569mm"
   height="125.12881mm"
   viewBox="0 0 684.87055 443.36979"
   id="svg2"
   version="1.1"
   inkscape:version="0.91 r13725"
   sodipodi:docname="Fluide_Glacial.svg">
  <defs
     id="defs4" />
  <sodipodi:namedview
     id="base"
     pagecolor="#ffffff"
     bordercolor="#666666"
     borderopacity="1.0"
     inkscape:pageopacity="0.0"
     inkscape:pageshadow="2"
     inkscape:zoom="1.0015505"
     inkscape:cx="350.69186"
     inkscape:cy="207.17549"
     inkscape:document-units="px"
     inkscape:current-layer="layer1"
     showgrid="false"
     fit-margin-top="0"
     fit-margin-left="0"
     fit-margin-right="0"
     fit-margin-bottom="0"
     inkscape:window-width="799"
     inkscape:window-height="695"
     inkscape:window-x="149"
     inkscape:window-y="101"
     inkscape:window-maximized="0" />
  <metadata
     id="metadata7">
    <rdf:RDF>
      <cc:Work
         rdf:about="">
        <dc:format>image/svg+xml</dc:format>
        <dc:type
           rdf:resource="http://purl.org/dc/dcmitype/StillImage" />
        <dc:title></dc:title>
      </cc:Work>
    </rdf:RDF>
  </metadata>
  <g
     inkscape:label="Calque 1"
     inkscape:groupmode="layer"
     id="layer1"
     transform="translate(-25.277236,-147.02775)">
    <path
       style="fill:#000000"
       d="m 550.26367,-33.056641 c -71.4463,-0.531998 -157.21614,33.5175785 -228.88281,33.5175785 -106.66666,0 -273.096393,-40.4633595 -320.0000006,0 -49.0902894,42.3497905 0,129.6666725 0,194.5000025 0,64.83333 -40.6777444,144.79835 9.1992186,186.21875 54.263894,45.06353 204.134122,8.28125 310.800782,8.28125 106.66667,0 257.45578,46.90361 320,0 51.86848,-38.89758 0,-129.66667 0,-194.5 0,-64.83333 45.84409,-148.655913 0,-194.5000025 C 616.63212,-24.287799 585.15605,-32.796827 550.26367,-33.056641 Z M 372.9082,35.552734 c 3.46874,0.0066 6.33764,0.299677 7.41992,0.878907 2.14691,1.14899 6.52643,11.63761 8.60938,20.61914 l 0.79564,1.785454 -4.27539,0.692128 c 0.0581,-0.559073 -0.0769,-0.415209 -0.0769,-0.926801 0,-8.687168 -11.78232,-10.778672 -18.70703,-3.320312 l -2.20703,2.376953 -0.66016,-2.634765 c -1.84482,-7.350341 -14.62154,-6.212126 -19.4668,1.734374 -1.04059,1.706624 -1.63576,1.165996 -1.79882,2.525391 l -3.86719,-0.447265 c 0.6862,-4.675641 3.04333,-5.524121 10.80273,-13.748047 6.75488,-7.15928 7.87984,-7.947527 12.41602,-8.691407 3.4791,-0.570555 7.54688,-0.850356 11.01563,-0.84375 z m 200.67969,3.375 c 3.71684,-0.04393 7.54295,0.159592 13.29297,0.50586 8.8,0.52994 17.0125,0.97694 18.25,0.99414 2.247,0.03129 2.25,0.05895 2.25,17.578125 l 0,17.544922 -3.25,-0.552734 c -6.36242,-1.08171 -51.52471,-6.537109 -54.11524,-6.537109 l -2.63476,0 0,23.90039 0,23.902342 4.75,-1.47265 c 3.56096,-1.10491 36.19572,-4.03067 48,-4.30274 0.95825,-0.0221 1.25,4.52396 1.25,19.47266 l 0,19.5 -26.89844,0 -26.89648,0 0.14648,31.52148 0.14844,31.52344 2.5,-0.50391 c 1.375,-0.27732 13.3,-2.32611 26.5,-4.55273 13.2,-2.22662 25.2375,-4.29517 26.75,-4.59766 l 2.75,-0.55078 0,19.08008 0,19.08008 -19.75,-0.17578 c -28.3815,-0.25186 -67.09403,-1.3189 -67.53125,-1.86133 -0.20547,-0.25492 1.65829,-21.15387 4.14062,-46.44141 l 4.51368,-45.97656 -1.22657,-37.02344 c -0.67453,-20.362456 -1.49817,-43.109556 -1.83007,-50.548826 l -0.60352,-13.525391 23.39258,-3.21875 c 14.01167,-1.928012 19.90683,-2.688499 26.10156,-2.761719 z m -408.26367,0.5625 c -2.77407,14.91307 -4.47261,30.015934 -7,44.970704 -5.82505,38.455872 -6.03642,40.566482 -7.98047,79.898442 -1.09826,22.21993 -1.8566,40.53987 -1.68555,40.71093 0.17106,0.17105 8.10957,-1.46997 17.64258,-3.64843 9.53301,-2.1785 17.72685,-3.96094 18.20703,-3.96094 1.31943,0 1.04835,9.35896 -0.62304,21.57422 -0.8221,6.00824 -1.70828,11.85221 -1.97071,12.98632 -0.44792,1.93571 -1.62788,2.13897 -19.25586,3.31055 -10.30237,0.68593 -22.53224,1.51702 -34.21875,2.41992 3.89822,-38.21807 4.46955,-76.73772 6.01563,-115.11914 0.0527,-20.22559 0.71552,-36.330156 2.25,-54.667966 l 2.17578,-25.998047 c 7.82206,-0.90258 17.51036,-1.847783 26.44336,-2.476563 z m -55.05274,1.582032 c 0.41681,0.35983 -1.65596,34.510072 -2.11914,34.914062 -0.15008,0.13091 -9.038289,-1.031531 -19.751949,-2.582031 -10.71366,-1.5505 -19.71366,-2.583665 -20,-2.296875 -0.48566,0.48642 -0.07358,54.556368 0.419921,55.101558 9.665161,-0.45516 18.288787,-2.66695 28.060547,-2.92773 l 7.000001,-0.32031 0,17.5 0,17.5 -17.28711,0.61914 c -9.50787,0.3412 -17.574591,0.90858 -17.925781,1.25976 -0.35118,0.35119 0.160038,6.59629 1.136719,13.87891 1.08467,8.08778 1.986949,23.06929 2.318359,38.49219 l 0.542969,25.25 -25.980469,0 -0.617188,-21.75 c -0.33886,-11.9625 -1.137103,-50.70231 -1.773437,-86.08789 -1.076776,-59.877916 -1.034404,-65.093813 0.599609,-75.250003 0.965639,-6.00192 1.807784,-10.945628 1.871094,-10.986328 0.456316,-0.29324 63.198415,-2.579863 63.505855,-2.314453 z m 198.10938,0.09766 c 0,9.50352 1.08463,18.979093 1.46289,28.470703 2.13339,34.004711 3.51853,75.318781 3.61523,107.820311 l 0.084,28.5 -8.18164,17 c -4.50005,9.35 -8.25199,17.07667 -8.33789,17.17187 -0.086,0.0952 -7.08575,1.10773 -15.55469,2.25 -10.23911,1.38102 -20.7913,2.07622 -31.49414,2.07422 l -16.09375,-0.004 -7.19336,-5.74609 -7.19141,-5.74609 -0.0586,-44.21485 c -0.0498,-38.08762 -0.40607,-48.47897 -2.57617,-75 -1.68467,-20.648698 -3.75914,-42.125298 -4.48047,-70.285148 l 27,0 c 0,51.596668 -5.47912,103.168268 -6.4707,154.748038 l -0.57032,9.25 8.64258,3.99219 c 9.72255,4.49183 8.19863,4.47026 29.6543,0.41797 7.01609,-1.32511 13.04491,-2.4082 13.39648,-2.4082 1.19879,0 -0.47889,-99.40198 -2.24023,-132.746092 -0.96586,-18.28475 -1.55933,-33.442634 -1.31836,-33.683594 8.94977,-2.10802 18.79747,-0.564058 27.90625,-1.861328 z m 104.74219,2.291016 8.46875,0 c 4.65801,0 15.95219,0.293536 25.09961,0.654296 l 16.63281,0.65625 8.27734,5.896485 c 7.67959,5.46977 8.57635,6.48838 12.40235,14.09375 2.26829,4.50892 6.19749,14.168345 8.73047,21.464843 l 4.60546,13.265626 1.40039,31.660148 1.40235,31.66016 -6.16797,12.57422 c -3.39226,6.91554 -9.04663,16.84922 -12.56445,22.07422 -7.8703,11.68972 -25.06853,32.90447 -31.6836,39.08398 l -4.90625,4.58399 c -10.63564,0.54238 -19.56587,1.04231 -30.14258,1.32617 l -4.20312,0.006 0.46289,-4.75 c 2.50781,-25.70252 3.69367,-64.66225 3.56836,-117.25 -0.0753,-31.625 -0.417,-61.887498 -0.75977,-67.249998 z m -36.33789,8.201171 c 1.46772,-0.0076 2.4822,0.593533 4.02929,2.140625 1.41146,1.41146 2.56641,3.486328 2.56641,4.611328 0,2.186741 -1.97185,2.562974 -5.5,1.046876 -1.1,-0.472691 -3.6875,-0.890988 -5.75,-0.929688 -6.14361,-0.11514 -3.80957,-5.310345 2.99805,-6.671875 0.62658,-0.125315 1.16701,-0.194739 1.65625,-0.197266 z m -22.30469,0.195313 c 1.79551,-0.09565 3.54873,0.308684 4.85351,1.365234 3.47419,2.81322 2.13294,4.859334 -3.62109,5.527344 -2.6583,0.30861 -5.84453,0.872043 -7.08203,1.251953 -1.93254,0.59329 -2.25,0.325296 -2.25,-1.902344 0,-3.405331 4.14949,-6.031757 8.09961,-6.242187 z m 16.40039,7.603516 c 0.825,0 1.5,0.449998 1.5,1 0,0.549999 -0.675,1 -1.5,1 -0.825,0 -1.5,-0.450001 -1.5,-1 0,-0.550002 0.675,-1.000001 1.5,-1 z m -12.60547,0.267578 c 1.02082,-0.07238 1.33399,0.551632 0.64649,1.664062 -0.80368,1.30038 -2.22811,1.382915 -2.97657,0.171875 -0.3043,-0.49236 0.18343,-1.177867 1.08399,-1.523437 0.48671,-0.18677 0.90582,-0.288373 1.24609,-0.3125 z m 20.64844,2.167968 c 1.35134,0.88544 2.45703,1.846329 2.45703,2.136719 -2.07391,1.63437 -4.64041,2.489136 -7.21875,3.347656 -5.21212,-1.45855 -7.7264,-3.921875 -4.00391,-3.921875 2.89681,-0.475334 5.92746,-3.219105 8.76563,-1.5625 z m -27.65821,-0.419922 c 0.20099,-0.0061 0.39575,-0.0025 0.58008,0.01172 0.88482,0.06821 1.53516,0.374114 1.53516,0.953125 0,0.53952 1.19445,1.281558 2.65625,1.648438 2.50562,0.62888 2.55362,0.743008 0.81055,2.017578 -4.28535,3.13352 -12.43179,0.426104 -9.4668,-3.146484 0.75498,-0.909706 2.47786,-1.441682 3.88476,-1.484377 z m 13.18555,1.041016 c 0.56514,-0.04223 0.92969,0.382809 0.92969,1.28711 0,2.39695 3.95636,5.052178 7.38281,4.955078 3.82163,-0.108331 10.54872,-3.319541 11.84375,-5.5625 l 5.63867,0.390625 -6.51367,6.480468 c -3.67472,3.65666 -8.74333,7.578964 -11.26562,8.714844 -6.14346,2.76662 -21.95559,3.440647 -27.08594,1.154297 -5.70432,-2.54213 -6.95361,-4.955004 -6.97461,-13.476562 -0.003,-1.215231 0.0106,-2.283775 0.0566,-3.263672 l 4.13867,-0.03711 c 0.23575,1.208844 0.84977,2.390476 1.85156,3.664063 1.52709,1.94136 2.9844,2.636719 5.53907,2.636719 3.71377,0 10.18999,-2.851445 12.32812,-5.427735 0.79998,-0.963915 1.56572,-1.4734 2.13086,-1.515625 z m 66.48242,9.109375 c -0.15441,0.18351 0.13247,21.708983 0.63672,47.833983 0.85726,44.41477 0.59757,71.24656 -0.84179,87.25 -0.33391,3.7125 -0.27601,6.75 0.1289,6.75 1.97067,0 21.56648,-14.71411 34.17188,-25.65821 l 14.15039,-12.28515 0.84961,-11.7793 c 0.46776,-6.4785 0.81202,-21.67734 0.76562,-33.77734 l -0.084,-22 -3.53906,-7.59766 -3.53907,-7.597651 -21.20898,-10.736328 C 440.75862,76.124293 431.088,71.443453 430.93359,71.626957 Z m -44.39453,2.394531 c 0.66342,-0.07725 0.54595,0.824307 0.22266,2.638672 -1.47109,8.25606 -2.41876,10.495339 -4.92383,11.636719 -3.54678,1.61604 -3.45703,1.71086 -3.45703,-3.71875 0,-4.34004 0.36038,-5.151281 3.25,-7.320313 2.80155,-2.102918 4.24479,-3.159081 4.9082,-3.236328 z m -11.79687,7.654297 c 0.0895,-0.0014 0.14688,0.0099 0.16797,0.03711 0.1052,0.13589 0.48777,2.179755 0.84961,4.541015 0.6351,4.14455 0.54421,4.3378 -2.61133,5.613282 -4.24149,1.714419 -9.36547,2.661883 -10.15039,1.876953 -1.11274,-1.11273 -0.64669,-7.015672 0.63281,-8.019532 1.21483,-0.953137 9.76869,-4.0274 11.11133,-4.048828 z m -35.05274,3.785157 c 2.56952,-10e-7 4.88512,2.575951 4.53516,5.044921 -0.43383,3.06064 -3.36299,3.722819 -4.77734,1.080079 -1.47202,-2.750501 -1.33823,-6.125001 0.24218,-6.125 z m 20.66016,1.904296 -0.62891,3.296875 c -0.34545,1.81352 -0.67587,3.354529 -0.73437,3.423829 -0.0585,0.06927 -2.71591,0.332647 -5.90625,0.585937 l -5.80078,0.460937 0.30078,-3.585937 0.30078,-3.585937 6.23437,-0.298829 z m 15.60351,33.095702 c 1.06552,0 1.25847,1.85104 0.91407,8.75 -1.82202,36.49844 -1.59523,52.57352 1.14062,80.99218 1.49545,15.534 2.52759,28.41064 2.29492,28.61524 -1.09983,0.96717 -35.92187,1.6715 -35.92187,0.72656 0,-0.55956 0.94853,-13.96951 2.10937,-29.80078 1.74796,-23.83828 2.00388,-33.53872 1.48438,-56.45898 l -0.62695,-27.67578 5.26562,-1.04102 c 10.70159,-2.11465 22.02741,-4.10742 23.33984,-4.10742 z m -256.27539,137.68554 -0.89843,9.90821 c -0.49416,5.44846 -0.85744,14.02746 -0.80664,19.06445 0.0626,6.19545 -0.26096,9.05004 -1,8.82617 -2.91594,-0.8833 -19.276791,-3.6621 -29.091801,-4.9414 l -11,-1.4336 -6.033203,3.91992 c -3.31784,2.15646 -8.419267,6.06946 -11.335937,8.69532 -5.260667,4.73615 -5.30639,4.82769 -5.689453,11.42578 -0.311338,5.36265 -0.02585,7.10916 1.470703,9.01172 1.94289,2.46998 13.660534,8.59728 14.615234,7.64257 0.30329,-0.30329 -0.163952,-3.8724 -1.039062,-7.92968 -0.86938,-4.0392 -1.878284,-8.84144 -2.683594,-13.46485 l 22.347656,-2.29687 c 12.291147,-1.2626 26.510157,-2.5455 31.597657,-2.85156 l 9.25,-0.55664 0,7.99218 c 0,4.39525 -0.29028,12.72771 -0.64453,18.51758 l -0.64453,10.52734 -5.10547,-1.35937 c -2.80825,-0.74778 -5.70434,-1.36409 -6.43555,-1.37109 -1.74311,-0.0156 -0.95939,3.51423 2.87305,12.93164 1.62546,3.99422 2.95703,7.38232 2.95703,7.52929 0,0.14697 -2.8125,0.57226 -6.25,0.94336 -3.4375,0.37109 -10.3,1.33624 -15.25,2.14453 -4.950002,0.8083 -9.985664,1.68837 -11.189454,1.95704 -3.08749,0.68908 -3.367516,-0.31284 -2.191406,-7.86719 0.57134,-3.66982 0.876334,-7.16003 0.677734,-7.75586 -0.19861,-0.59582 -4.620325,2.13504 -9.828125,6.06836 l -9.46875,7.15234 -9.5,-0.43945 C 54.155866,359.89503 46.896211,359.12563 43.25,358.42773 L 36.621094,357.1582 32.869141,345.05859 C 26.602429,324.8534 21.380859,306.08858 21.380859,303.77148 c 0,-1.2059 0.392431,-2.43734 0.873047,-2.73437 0.480616,-0.29704 5.200285,-7.46699 10.488282,-15.93359 5.287995,-8.4666 10.408064,-16.32578 11.376953,-17.46485 1.399022,-1.64475 4.43752,-2.49085 14.761718,-4.10937 16.79881,-2.63353 28.604495,-3.82503 46.398441,-4.68555 z m 51.14649,3.13672 c 1.85741,-0.0161 2.55664,0.24983 2.55664,0.82813 0,0.6757 -2.443,10.81847 -5.42774,22.53906 -2.6674,10.49727 -5.72939,23.2641 -8.2539,35.20313 -0.52362,1.82239 0.16602,1.87416 18.45898,1.39453 l 19.00196,-0.49805 0.65429,4.91992 c 0.64641,4.87285 2.53805,34.14419 2.22657,34.44922 -0.089,0.0871 -14.90537,0.31213 -32.92579,0.5 l -32.76367,0.3418 0.76367,-12 c 0.42042,-6.6 0.76563,-28.76249 0.76563,-49.25 l 0,-37.25 11.5,-0.0625 c 6.325,-0.034 14.7625,-0.38927 18.75,-0.78906 2.04759,-0.20529 3.57891,-0.31655 4.69336,-0.32618 z m 69.77734,1.66602 c 3.28939,-0.002 7.07341,0.01 11.45117,0.01 25.60551,0 30.47251,0.23059 31.65821,1.5 0.7706,0.825 3.31835,6.54994 5.66211,12.72071 l 4.26172,11.21875 -1.11133,9.28125 c -1.20224,10.04351 -2.65831,29.76927 -3.69336,50.02929 l -0.65235,12.75 -13.83984,0 -13.8418,0 0.57422,-6.8457 0.57422,-6.8457 -4.77148,-0.6543 c -2.62443,-0.35971 -8.486,-0.6543 -13.02539,-0.6543 -9.43632,0 -9.4668,0.0284 -9.4668,8.58204 l 0,5.41796 -9.75,0.01 c -5.3625,0.005 -12.1125,0.29184 -15,0.63867 l -5.25,0.63086 0,-39.58008 0,-39.58008 6.13086,-7.62304 c 8.29072,-10.30597 7.06416,-10.99463 30.08984,-11.00586 z m 341.38477,0.10351 c 0.27926,-0.0105 0.44563,-0.006 0.48633,0.0156 0.32561,0.17267 -1.12731,8.54477 -3.22657,18.60352 -4.84401,23.21037 -6.85928,34.47593 -6.86328,38.35742 l -0.002,3.06836 15.35547,-2.70508 c 14.80993,-2.60879 22.65077,-4.19227 27.39453,-5.53125 l 2.25,-0.63477 0,23.11719 0,23.11719 -36.5,0 -36.5,0 -0.13672,-4.25 c -0.67079,-21.13784 -0.18743,-88.75467 0.63477,-88.79297 0.55,-0.0256 9.1,-1.08602 19,-2.35547 8.6625,-1.11076 16.15255,-1.93633 18.10742,-2.00977 z m -197.29297,0.31446 -0.65234,12.79687 c -0.35895,7.03821 -0.65425,15.12146 -0.65625,17.96485 l -0.004,5.16992 -20.75,-0.49805 -20.75,-0.49805 -6.12695,5.32813 c -10.1553,8.83253 -11.88247,11.38418 -11.82227,17.47461 0.0709,7.17011 2.34587,9.73594 7.92578,8.93945 2.21268,-0.31584 11.67344,-1.26523 21.02344,-2.10937 9.35,-0.84415 19.8125,-2.1204 23.25,-2.83594 6.08273,-1.26615 6.24771,-1.24555 6.22852,0.7793 -0.0525,5.52949 -3.05036,31.04284 -3.71876,31.64843 -0.41881,0.37948 -6.83476,1.20888 -14.25976,1.84375 -7.425,0.63487 -20.025,1.80116 -28,2.5918 -23.24028,2.30403 -24.26485,2.21528 -29.41211,-2.5293 -2.40197,-2.21406 -6.05267,-7.23079 -8.11133,-11.14843 -3.57278,-6.79901 -3.71527,-7.44146 -3.1543,-14.13282 0.99321,-11.84695 7.65824,-44.87064 9.99805,-49.53515 2.24646,-4.47842 9.47525,-10.80981 19.65235,-17.21289 l 5.4746,-3.44336 26.9336,-0.29688 z m 45.91992,0.3125 c 7.4787,0.2024 13.09425,-0.76618 15.07031,8.03711 2.79093,11.28362 2.94655,14.81136 0.91407,20.74414 -2.36085,6.89124 -6.62358,9.58916 -17.35547,10.98242 -7.81505,1.01459 -28.33834,1.23285 -30.86133,0.31055 -2.40044,-0.87749 -2.06303,-4.54897 -3.72461,-7.74414 -4.88467,-9.39306 -1.29915,-28.27558 8.31641,-30.65625 3.95948,-0.98032 17.14887,-1.6365 27.64062,-1.67383 z m 83.04883,0.82422 c 4.67663,-0.0105 8.10529,0.0874 9.08008,0.33203 3.67895,0.92336 10.35496,7.14892 12.79492,11.93164 1.93427,3.79149 2.00208,5.53396 1.73047,44.81836 l -0.2832,40.875 -8.55274,-0.20899 c -4.70378,-0.11415 -12.73707,-0.35526 -17.85156,-0.53711 l -9.29883,-0.33203 0.65625,-8.21093 0.65625,-8.21094 -11.85547,-2.79102 c -6.52152,-1.53445 -12.19492,-2.772 -12.60742,-2.75 -0.4125,0.022 -0.75,4.51222 -0.75,9.97852 l 0,9.93945 -4.25,0.55469 c -8.12203,1.05915 -38.75295,1.10835 -38.75195,0.0625 5.4e-4,-0.55257 1.36316,-5.27757 3.02734,-10.5 6.77542,-21.26221 11.74594,-39.67802 15.49219,-57.4043 1.38437,-6.55045 3.37938,-13.30045 4.43359,-15 3.34988,-5.40048 8.32531,-9.42495 13.04883,-10.55469 3.98432,-0.95295 29.25136,-1.96082 43.28125,-1.99218 z m -11.20703,23.03906 c -2.34966,-0.0196 -5.79598,0.13297 -8.75977,0.4082 l -7.18554,0.66797 -2.06446,6.11524 c -1.13578,3.36322 -2.06445,7.58792 -2.06445,9.38867 l 0,3.27343 11.75,0.30469 c 6.4625,0.16801 12.2,0.25802 12.75,0.19922 0.59225,-0.0634 1,-4.15032 1,-10.02344 l 0,-9.91601 -3.5,-0.33985 c -0.48125,-0.0465 -1.14256,-0.0716 -1.92578,-0.0781 z m -239.92188,6.55859 c -4.08242,-0.10131 -18.41562,1.75405 -21.48437,2.93164 -4.1428,1.87108 -2.36312,12.82498 -2.66797,17.48633 l 12.75,-0.2793 12.75,-0.27929 c 0.22673,-7.36608 0.79589,-12.77644 -0.28906,-19.6875 -0.10204,-0.10204 -0.47539,-0.1574 -1.0586,-0.17188 z m 176.17969,14.46485 c 0.75705,0.0525 0.69022,0.60366 0.2793,2.03125 -3.55809,12.36094 -5.79452,23.17018 -7.08008,34.21875 -0.84109,7.2287 -1.53058,13.43147 -1.53125,13.7832 -6.6e-4,0.35172 -5.5125,0.92776 -12.25,1.2793 -5.60454,0.29606 -11.81429,0.71279 -18.14453,1.22461 l -5.89258,0.58593 0.62305,-4.86523 c 0.34262,-2.67563 0.92824,-13.97774 1.30078,-25.11524 l 0.67773,-20.25 9.5918,-0.008 c 9.10567,-0.008 24.20146,-1.30086 30.48828,-2.61133 0.66689,-0.13901 1.17883,-0.23441 1.56055,-0.26562 0.14314,-0.0117 0.2688,-0.0153 0.37695,-0.008 z"
       transform="translate(45.714283,180.09056)"
       id="path3347"
       inkscape:connector-curvature="0"
       sodipodi:nodetypes="sssssssssssscccscccsccssssscsccscccccsccccccsccccccscsscssccscssssccccccscsscccccccsccccsscsccccccscccccccccccssscccccccsccccsscccccscccssscscsssssssssssscssscscccsssssssssscccsssccsssscssssccccccscsscsssccsssscsscsccsccccccssccsscccsccsscccsssscccccsccccsssssscccscccscssscccsscscccsccsccsccssccccccccccssccccccccccscccccccccccscccccsccssssccssssssccccssssccssscsccccccccsscccsssssccccccccscccccccccccssccccscccsccccsccc" />
  </g>
</svg>
