<?xml version="1.0" encoding="UTF-8" standalone="no"?>
<!-- Created with Inkscape (http://www.inkscape.org/) -->

<svg
   xmlns:dc="http://purl.org/dc/elements/1.1/"
   xmlns:cc="http://creativecommons.org/ns#"
   xmlns:rdf="http://www.w3.org/1999/02/22-rdf-syntax-ns#"
   xmlns:svg="http://www.w3.org/2000/svg"
   xmlns="http://www.w3.org/2000/svg"
   xmlns:sodipodi="http://sodipodi.sourceforge.net/DTD/sodipodi-0.dtd"
   xmlns:inkscape="http://www.inkscape.org/namespaces/inkscape"
   width="318.52411"
   height="59.143612"
   id="svg2"
   version="1.1"
   inkscape:version="0.48.1 "
   sodipodi:docname="fragilistic.svg">
  <defs
     id="defs4" />
  <sodipodi:namedview
     id="base"
     pagecolor="#ffffff"
     bordercolor="#666666"
     borderopacity="1.0"
     inkscape:pageopacity="0.0"
     inkscape:pageshadow="2"
     inkscape:zoom="13.08125"
     inkscape:cx="147.0109"
     inkscape:cy="35.026494"
     inkscape:document-units="cm"
     inkscape:current-layer="layer1"
     showgrid="false"
     units="cm"
     fit-margin-top="0"
     fit-margin-left="0"
     fit-margin-right="0"
     fit-margin-bottom="0"
     inkscape:window-width="1136"
     inkscape:window-height="797"
     inkscape:window-x="225"
     inkscape:window-y="59"
     inkscape:window-maximized="0"
     showguides="true"
     inkscape:guide-bbox="true" />
  <metadata
     id="metadata7">
    <rdf:RDF>
      <cc:Work
         rdf:about="">
        <dc:format>image/svg+xml</dc:format>
        <dc:type
           rdf:resource="http://purl.org/dc/dcmitype/StillImage" />
        <dc:title></dc:title>
      </cc:Work>
    </rdf:RDF>
  </metadata>
  <g
     inkscape:label="Calque 1"
     inkscape:groupmode="layer"
     id="layer1"
     transform="translate(-192.0723,146.81734)">
    <path
       style="font-size:40px;font-style:normal;font-weight:normal;line-height:125%;letter-spacing:0px;word-spacing:0px;fill:#000000;fill-opacity:1;stroke:none;font-family:Ravie;-inkscape-font-specification:Ravie"
       d="m 460.71759,-146.81734 0,10.63704 c -2.41065,-0.0504 -4.98079,0.0679 -7.47792,-0.15996 0.24907,-2.42337 0.42063,-5.02553 0.2799,-7.35795 -5.91938,0.86491 -9.78662,1.14665 -15.55567,1.83949 0.0641,2.84233 -0.001,6.01618 0,8.5976 l -2.75923,4.87864 c -14.86315,1.85984 -20.65645,-5.29391 -29.4718,8.95751 0.0224,-1.91949 0.0594,-3.83848 0.0399,-5.7584 -0.62931,0.29537 -1.28258,0.55765 -1.91947,0.83977 3.47103,-4.06805 1.27459,-8.52808 -1.43971,-9.56882 -2.71431,-1.04074 -6.70747,-0.0829 -7.9959,3.4437 -1.28843,3.52664 1.40847,7.29633 4.4356,8.049 -1.30109,0.96532 -4.17836,1.45318 -6.91667,1.91505 l -0.79978,3.71896 c 1.60541,0.30457 3.30577,0.35746 4.83866,-0.27992 0.064,4.3594 -2.50817,13.16399 -4.3188,20.274357 l 0,-6.278247 -3.34139,-8.14426 -7.25566,0 c -0.15796,2.34647 -0.30978,6.98025 -2.65252,8.48346 -2.26458,-1.39542 -1.82623,-13.22514 -1.82623,-16.77463 -0.0917,-1.97958 0.40099,-4.95082 2.95917,-4.87864 2.01162,-0.14326 0.68112,-3.12825 1.03971,-4.51874 -1.02261,-2.39122 -3.11184,-5.74214 -4.77495,-7.92362 -5.6713,0 -12.57547,-0.0962 -18.24678,-0.0962 0,0.94181 0.20651,3.24808 0.30806,4.66382 -1.7498,-1.31399 -3.27968,-3.36169 -4.73054,-4.67568 -5.67131,0 -13.07162,0.22808 -18.74292,0.22808 l 0,5.76422 -6.07831,-6.00415 c -7.36193,-0.50394 -14.50274,-1.57254 -19.72518,0.91112 -5.11993,2.56732 -6.27561,7.03644 -6.80813,8.31585 -3.237,1.142 -9.2396,2.87948 -17.21451,4.09514 1.35415,2.44946 2.22491,4.70339 2.43932,7.47792 -3.94893,-3.83224 -7.99113,-5.75837 -12.15661,-5.7584 -4.31812,0.53229 -7.88007,2.06528 -9.99722,5.0386 -4.46741,-13.32345 -16.94507,-13.12816 -23.64401,-4.35992 2.38012,-9.6072 -3.96192,-0.63272 -10.82639,-0.43875 3.37552,-3.54846 2.84466,-12.96811 -2.49416,-13.83835 -5.81507,1.01642 -13.4414,1.68178 -21.13924,1.68174 -7.66454,4e-5 -12.37988,-0.73976 -14.19604,-2.23938 l -0.47987,6.23827 c 1.94584,0.82653 4.03454,1.57928 5.83837,0.95379 -1.90658,11.18896 -1.41377,21.2605 0.15996,32.236952 -1.11318,2.415094 -2.92702,2.086507 -4.71869,3.079143 -0.37261,1.081918 -0.11884,2.252502 0.04,3.239098 7.21466,-1.599555 14.16271,-3.019166 20.79421,-4.318798 -1.71621,-3.449036 -3.33283,-7.524235 -5.16563,-14.488965 2.68803,-0.66253 5.72528,-0.96615 6.08538,1.93246 -0.14967,4.34279 4.07526,2.78884 6.95806,2.43932 -0.53548,-3.32898 -0.68569,-6.14637 -0.39989,-9.37587 -10.12243,0.0788 -14.61383,-0.73891 -14.67591,-7.69936 -0.0542,-8.69579 17.10343,-7.7814 17.56697,-4.79867 0.46355,2.98272 -4.75937,1.00147 -4.84033,5.76533 -0.081,4.76385 10.42577,3.7136 12.46634,8.15082 -0.0863,4.7552 -0.68929,8.61214 -1.23965,13.036368 -3.73523,1.352755 -6.12719,2.683039 -3.47904,6.878085 9.1969,-1.942908 17.18066,-3.070028 25.59288,-2.839208 0.33322,-1.482915 0.64645,-2.749225 0.87975,-3.798942 -3.16499,-0.398074 -6.79351,-0.204076 -9.3174,-1.919463 -2.27459,-6.67327 -3.58081,-12.73731 2.21706,-17.0427 3.13738,-1.90195 9.55281,-2.29887 9.86841,0.90488 -7.30187,1.2255 -6.0929,7.98921 -3.75151,9.81075 2.34139,1.82154 5.66827,-0.0305 8.50135,-0.99089 -1.71439,7.85767 -2.18643,14.870182 9.87723,14.635929 5.23996,-0.08539 11.08795,-1.752171 15.03581,-4.758675 0.3038,1.899654 -0.40742,4.489593 -0.7198,5.99833 6.65158,-2.455265 12.01769,-2.916872 19.71451,-3.638987 3.03936,4.123255 8.88446,7.007566 14.09376,7.28983 8.33283,-2.455255 8.07603,-1.371201 10.41941,-0.211801 l 5.23855,0 c 0.009,-1.35504 -0.0351,-2.723145 -0.0399,-4.078864 1.5993,1.357932 3.87225,2.757991 4.87864,4.078864 l 20.19438,0 0,-2.399332 c 1.10616,0.786572 2.17542,1.580603 2.79922,2.399332 l 27.11245,0 c 3.84882,0.176201 10.56553,0.594642 15.15587,-0.119966 -0.18085,-2.61572 0.24119,-10.139641 0.47987,-15.83559 1.14463,0.72291 2.25099,2.77536 4.59745,2.91566 2.34647,0.14029 15.61513,-0.99601 17.06011,1.39028 1.44499,2.386283 -4.34718,4.190493 -7.05922,4.190493 -5.1373,0 -8.45083,-0.404912 -12.51892,-2.178193 -0.96488,2.268757 -1.69,4.193751 -2.1594,5.758396 3.83339,2.346982 8.61893,4.816341 14.356,4.816341 5.50806,-0.06896 11.74406,-2.053553 15.7956,-5.89604 1.8157,-1.997874 2.91607,-3.792605 3.67898,-6.078307 4.6453,4.876965 12.76316,9.454165 20.50962,11.667283 3.76229,0.169167 8.57891,0.538652 12.48826,0.538652 l 0.15289,-9.046813 c 2.8359,9.06672 11.72373,9.475702 17.55511,9.557339 5.71548,0 10.46162,-1.87798 14.23603,-5.598441 4.36748,-4.313577 6.40178,-11.45887 6.07831,-21.43403 l -15.99554,0 c -0.16132,3.70503 1.19885,12.85203 -4.3188,12.95639 -5.30774,-0.80021 -5.77706,-7.49629 -5.79839,-10.99694 0.29789,-4.43137 0.25923,-13.17271 6.1183,-13.2763 3.88343,0.66963 3.81588,7.24973 4.07886,9.39738 l 16.0402,-0.15289 c 0.26979,-14.29828 -6.3059,-23.3154 -20.11906,-23.48053 -8.1724,0.96772 -14.04021,4.45266 -17.87502,10.71702 l 0,-2.23938 -9.23743,0 c 0.0809,-0.47335 0.19037,-1.02411 0.27992,-1.55956 l 8.95751,0 0,-13.47625 c -3.95891,-7e-5 -7.91789,1.3e-4 -11.87677,-8e-5 z m 4.11885,4.15884 3.63899,0 0,5.15856 -3.63899,0 z m 25.63287,7.5579 c 8.07111,0.13677 13.45021,6.21221 13.83614,13.2763 l -5.15856,0 c -0.75083,-4.98192 -3.87486,-9.2963 -8.67758,-9.3574 -9.55646,0.64781 -11.27084,12.12611 -11.31685,18.43487 0.11935,7.41327 3.14611,16.03234 10.99693,16.155501 8.48832,0.03079 9.93608,-7.610771 9.79728,-12.916401 l 5.43848,0 c 0.0352,9.583986 -6.60358,16.686704 -15.23576,16.795321 -11.33567,-0.540294 -16.38709,-11.135501 -16.47541,-20.034421 0.58627,-11.11802 5.19579,-22.17331 16.79533,-22.35377 z m -162.74761,2.40046 0.15289,16.43429 -6.31825,0 c -0.16041,-4.43944 0.0968,-11.66718 -4.83491,-11.72973 -4.93167,-0.0626 -6.16839,4.35239 -6.36197,8.77055 0.042,4.33838 -0.0845,8.66265 0.08,12.99638 0.40168,2.71601 1.47841,6.12072 4.47875,6.878089 2.54092,0.691763 7.02138,-0.669369 7.47792,-3.479029 0.47722,-7.15554 -2.66193,-3.74717 -2.47931,-9.67731 4.19718,0 6.19993,0.11997 10.39711,0.11997 0,1.55602 -0.12817,2.17001 -0.12817,3.72603 -1.28063,0.10316 -2.42614,-0.31222 -2.95098,1.31257 -0.47389,4.10521 -0.27992,7.519433 -0.27992,11.716734 l -3.27909,0 c -4.2173,2.242051 -11.59077,1.231931 -14.87938,-2.322887 -2.69984,-3.102427 -4.22698,-6.834637 -4.16477,-11.116897 0.6475,-7.51403 -1.03162,-17.875 3.91071,-21.58738 4.94232,-3.71238 12.52173,-2.08239 19.17937,-2.04138 z m 10.18567,-0.50699 13.81117,-0.10811 c 0.15215,3.35578 -2.32843,2.25102 -3.04975,3.97303 -1.01287,2.40835 -0.57303,5.05703 -0.67981,7.59789 0.0216,6.21144 -0.0397,12.42468 0.0399,18.63481 0.0774,1.48066 0.50254,3.585212 2.31935,3.71896 0.49744,0.203464 1.47419,-0.0078 1.63955,0.479867 l 0,3.279087 -14.83587,0 0,-3.096805 c 1.21577,-0.251169 4.11486,-0.04238 4.65043,-1.458399 0.8796,-2.42295 0.3791,-5.75738 0.48341,-8.28122 l -0.0765,-17.11524 c -0.0732,-1.68259 -0.14011,-3.964 -1.81829,-4.87864 -2.07673,-1.16043 -2.43566,-1.17384 -2.48359,-2.74523 z m 33.43517,4.82465 c -0.66321,2.91471 -0.17591,5.91905 -0.31991,8.87753 0.0427,5.16052 -0.12988,10.36172 0.08,15.51568 0.2327,2.20639 3.00329,5.138151 5.13183,4.991172 2.22954,0.190347 4.92947,-0.82245 5.98508,-3.151682 1.13904,-1.52901 0.93484,-3.92687 0.79977,-5.15856 1.04975,0.0915 1.98275,0.13104 3.03916,0.15995 l 0,11.516794 -25.91279,0 0,-3.479031 c 1.45676,-0.129872 3.41884,-0.390983 3.55901,-2.239373 0.63866,-2.90825 0.23968,-5.92625 0.3599,-8.87753 -4e-5,-5.12707 1.2e-4,-10.22874 0,-15.35573 0.0161,-1.91915 -0.0871,-4.68126 -2.59928,-4.75867 -1.03398,-1.09561 -0.63653,-1.56925 -0.7189,-2.70045 4.8213,0 9.16948,0.0739 13.99079,0.0739 1.06688,3.26668 -3.16496,2.33361 -3.39466,4.586 z m 93.4939,0.71981 3.63899,0 0,33.950549 -3.63899,0 z m -4.11885,1.55957 0,24.7931 c -2.70954,-1.54845 -4.91561,-4.79373 -6.07831,-6.31825 -1.39473,-1.8191 -2.07946,-4.27441 -2.07942,-7.31796 -4e-5,-1.88906 0.1217,-5.41953 0.3599,-10.59705 3.13902,-0.13675 5.71972,-0.31608 7.79783,-0.55984 z m -22.95361,1.83949 c -0.30943,5.12751 -0.92262,8.68681 -1.35962,13.67619 -16.81075,2.358 -25.46328,-3.23948 -20.27435,-7.11802 4.41051,-2.88478 14.78393,2.67938 17.83503,3.87892 0.63311,-3.68709 2.22294,-7.03934 2.91919,-10.3971 0.3012,-0.0189 0.61104,-0.0282 0.87975,-0.04 z m -136.83003,2.51186 c 0.0968,6.68935 -1.60101,14.16441 0.23851,19.63011 -2.0376,-0.62544 -3.41324,-0.45555 -5.04907,0.53169 1.94625,-6.69091 2.06261,-12.32348 1.91942,-18.55483 0.8124,-1.02041 1.8967,-1.22948 2.89114,-1.60697 z m -17.90795,12.91861 c 0.79613,2.20923 -4.74292,6.04966 -7.90475,5.98868 -3.16184,-0.061 -8.50594,-0.15922 -7.74982,-3.86404 2.41877,-5.51527 13.98973,-5.89422 15.65457,-2.12464 z"
       id="path3157"
       inkscape:connector-curvature="0"
       sodipodi:nodetypes="cccccccccczzccccccccccccccccccccccccccccccccccccccccczzcccccccczcccccccccccccccczzscccccccccccccccccccccccccccccccccccccccccccczcccccccccccczcccccccccccccccccccccccccccccccccscccsscccsscccccccccccccccc" />
  </g>
</svg>
