<?xml version="1.0" encoding="UTF-8" standalone="no"?>
<!-- Created with Inkscape (http://www.inkscape.org/) -->

<svg
   xmlns:dc="http://purl.org/dc/elements/1.1/"
   xmlns:cc="http://creativecommons.org/ns#"
   xmlns:rdf="http://www.w3.org/1999/02/22-rdf-syntax-ns#"
   xmlns:svg="http://www.w3.org/2000/svg"
   xmlns="http://www.w3.org/2000/svg"
   xmlns:sodipodi="http://sodipodi.sourceforge.net/DTD/sodipodi-0.dtd"
   xmlns:inkscape="http://www.inkscape.org/namespaces/inkscape"
   width="668.3808"
   height="160.85396"
   id="svg2"
   version="1.1"
   inkscape:version="0.48.1 "
   sodipodi:docname="Nouveau document 1">
  <defs
     id="defs4" />
  <sodipodi:namedview
     id="base"
     pagecolor="#ffffff"
     bordercolor="#666666"
     borderopacity="1.0"
     inkscape:pageopacity="0.0"
     inkscape:pageshadow="2"
     inkscape:zoom="0.35"
     inkscape:cx="668.68927"
     inkscape:cy="61.88609"
     inkscape:document-units="cm"
     inkscape:current-layer="layer1"
     showgrid="false"
     fit-margin-top="0"
     fit-margin-left="0"
     fit-margin-right="0"
     fit-margin-bottom="0"
     units="cm"
     inkscape:window-width="710"
     inkscape:window-height="455"
     inkscape:window-x="100"
     inkscape:window-y="100"
     inkscape:window-maximized="0" />
  <metadata
     id="metadata7">
    <rdf:RDF>
      <cc:Work
         rdf:about="">
        <dc:format>image/svg+xml</dc:format>
        <dc:type
           rdf:resource="http://purl.org/dc/dcmitype/StillImage" />
        <dc:title></dc:title>
      </cc:Work>
    </rdf:RDF>
  </metadata>
  <g
     inkscape:label="Calque 1"
     inkscape:groupmode="layer"
     id="layer1"
     transform="translate(-123.0115,-453.48447)">
    <path
       style="font-size:257.6111145px;font-style:normal;font-variant:normal;font-weight:900;font-stretch:normal;line-height:125%;letter-spacing:0px;word-spacing:0px;fill:#000000;fill-opacity:1;stroke:none;font-family:DINOT-BlackItalic;-inkscape-font-specification:DINOT-BlackItalic Heavy"
       d="M 98.40625,2.21875 C 86.6996,2.20505 75.59919,3.74428 65.125,6.8125 54.65067,9.88104 45.13229,14.55789 36.5625,20.875 28.39092,26.61389 22.11878,33.76581 17.71875,42.28125 13.31866,50.79693 8.73611,64.2553 4,82.65625 2.44409,88.20533 1.08872,93.97901 -0.09375,100 c -1.18249,6.02112 -1.81279,11.62802 -1.875,16.84375 -0.2054,11.44978 5.04559,21.88638 15.78125,31.28125 10.73563,9.3949 28.20247,14.37287 52.34375,14.9375 10.72933,0.0324 21.28795,-1.40495 31.71875,-4.34375 10.43058,-2.93879 19.98655,-7.57625 28.625,-13.875 8.74395,-6.46533 15.35031,-13.74005 19.875,-21.84375 4.52437,-8.10363 8.26848,-18.21364 11.1875,-30.34375 l 5.375,-21.34375 -79.46875,0 -7.78125,30.65625 30.1875,0 -0.90625,3.34375 c -2.24683,7.76125 -6.54601,13.89397 -12.9375,18.40625 -6.3917,4.51236 -13.92442,6.80909 -22.59375,6.90625 -5.4706,0.15276 -10.37465,-0.93131 -14.6875,-3.25 -4.313,-2.3186 -6.60109,-6.78351 -6.84375,-13.40625 0.0684,-4.29013 0.69232,-9.30054 1.84375,-15.0625 1.15129,-5.76182 2.43093,-11.18225 3.84375,-16.25 C 56.66189,71.2066 59.47964,62.39264 62.0625,56.21875 64.6452,50.04506 68.28866,45.23387 73,41.78125 74.96033,40.22172 77.83475,38.657 81.625,37.125 c 3.79005,-1.53175 8.38531,-2.35292 13.78125,-2.46875 6.87069,0.0835 12.10258,1.79643 15.6875,5.15625 3.58464,3.36007 5.54489,7.86317 5.84375,13.5 l 49.5625,0 C 166.68651,40.10422 161.38524,28.43528 150.59375,18.28125 139.80192,8.12751 122.41663,2.76501 98.40625,2.21875 z m 114.78125,1.34375 -7.15625,26.875 46.59375,0 7.15625,-26.875 -46.59375,0 z m 79.90625,0 -32.28125,120.625 c -0.44189,1.64298 -0.75703,3.25289 -0.9375,4.8125 -0.1805,1.55967 -0.25622,3.21475 -0.25,4.96875 0.081,7.96023 3.72437,14.53537 10.9375,19.71875 7.21309,5.18339 17.50051,7.84614 30.875,8.03125 l 23,0 8.0625,-29.3125 -17,0 c -5.72574,-0.037 -8.63778,-1.72451 -8.6875,-5.09375 0.006,-0.63863 0.0692,-1.2154 0.1875,-1.6875 0.11819,-0.47202 0.25061,-1.01755 0.40625,-1.65625 L 339.6875,3.5625 l -46.59375,0 z m 145.8125,37.3125 c -11.09048,0.0649 -20.93671,1.37369 -29.5625,3.9375 -8.62593,2.56404 -15.78681,5.99581 -21.5,10.28125 -7.18825,5.22977 -12.91803,11.45165 -17.15625,18.625 -4.23828,7.17353 -7.76841,16.57819 -10.625,28.25 -0.79041,2.86943 -1.5404,6.25602 -2.21875,10.125 -0.67839,3.86907 -1.05019,7.67958 -1.09375,11.4375 0.59124,13.40742 6.44705,23.35064 17.53125,29.84375 11.08414,6.49313 23.86146,9.71989 38.34375,9.6875 11.09032,-0.0648 20.93654,-1.37358 29.5625,-3.9375 8.62576,-2.56393 15.8179,-5.99569 21.53125,-10.28125 7.18808,-5.22966 12.88662,-11.42028 17.125,-18.59375 4.23811,-7.1734 7.79949,-16.60931 10.65625,-28.28125 0.79025,-2.86932 1.50898,-6.22466 2.1875,-10.09375 0.67822,-3.86897 1.05004,-7.67946 1.09375,-11.4375 C 494.18986,67.03019 488.33403,57.05573 477.25,50.5625 466.1657,44.0695 453.38837,40.84272 438.90625,40.875 z m 96.9375,1.34375 -20,74.1875 c -0.60992,2.01787 -1.11416,4.2115 -1.5,6.5625 -0.38587,2.35107 -0.58131,4.75668 -0.59375,7.21875 0.65347,12.25504 5.24872,20.85704 13.78125,25.78125 8.53248,4.92421 17.08637,7.27887 25.65625,7.09375 7.15083,-0.0185 14.19201,-1.04468 21.15625,-3.0625 6.96409,-2.01782 13.07204,-4.92377 18.28125,-8.71875 l -2.71875,10.4375 44.53125,0 31.96875,-119.5 -46.625,0 -19.40625,72.1875 c -1.92941,6.55333 -5.17563,11.10161 -9.71875,13.65625 -4.54329,2.5547 -9.5485,3.79861 -15.0625,3.6875 -3.17409,0.0278 -6.16819,-0.88254 -8.96875,-2.6875 -2.80067,-1.8049 -4.31336,-4.68537 -4.5,-8.65625 -6e-5,-0.90242 0.10065,-1.8649 0.25,-2.90625 0.1493,-1.04126 0.35746,-2.08017 0.65625,-3.09375 l 19.4375,-72.1875 -46.625,0 z m -334.3125,4.65625 -30.75,114.84375 46.59375,0 30.75,-114.84375 -46.59375,0 z M 434.125,72.21875 c 4.77962,0.0325 8.36006,1.11079 10.75,3.28125 2.38975,2.17063 3.59365,5.23639 3.59375,9.15625 0.0496,0.66651 -0.13303,2.2579 -0.53125,4.8125 -0.3984,2.55474 -1.30623,6.72429 -2.75,12.5 -1.58711,6.12757 -3.42764,11.36845 -5.5,15.71875 -2.07254,4.35039 -4.70755,7.7115 -7.9375,10.0625 -3.58485,2.66577 -8.3692,4.00003 -14.34375,4 -4.77977,-0.0323 -8.36021,-1.14193 -10.75,-3.3125 -2.38992,-2.17051 -3.59381,-5.20502 -3.59375,-9.125 -0.0499,-0.6664 0.13288,-2.28904 0.53125,-4.84375 0.39826,-2.55462 1.30608,-6.72416 2.75,-12.5 1.58695,-6.12744 3.42749,-11.36833 5.5,-15.71875 2.07239,-4.35026 4.70741,-7.68013 7.9375,-10.03125 3.58471,-2.66566 8.36905,-3.99991 14.34375,-4 z"
       transform="translate(124.98605,451.26581)"
       id="path3758"
       inkscape:connector-curvature="0" />
  </g>
</svg>
