<?xml version="1.0" encoding="UTF-8" standalone="no"?>
<!-- Created with Inkscape (http://www.inkscape.org/) -->

<svg
   xmlns:dc="http://purl.org/dc/elements/1.1/"
   xmlns:cc="http://creativecommons.org/ns#"
   xmlns:rdf="http://www.w3.org/1999/02/22-rdf-syntax-ns#"
   xmlns:svg="http://www.w3.org/2000/svg"
   xmlns="http://www.w3.org/2000/svg"
   xmlns:sodipodi="http://sodipodi.sourceforge.net/DTD/sodipodi-0.dtd"
   xmlns:inkscape="http://www.inkscape.org/namespaces/inkscape"
   width="1276.3223"
   height="877.06073"
   id="svg3780"
   version="1.1"
   inkscape:version="0.48.4 r9939"
   sodipodi:docname="GiloopGueulomaton.svg">
  <defs
     id="defs3782" />
  <sodipodi:namedview
     id="base"
     pagecolor="#ffffff"
     bordercolor="#666666"
     borderopacity="1.0"
     inkscape:pageopacity="0.0"
     inkscape:pageshadow="2"
     inkscape:zoom="0.98994948"
     inkscape:cx="629.61541"
     inkscape:cy="152.04896"
     inkscape:document-units="cm"
     inkscape:current-layer="layer1"
     showgrid="false"
     units="cm"
     fit-margin-top="0"
     fit-margin-left="0"
     fit-margin-right="0"
     fit-margin-bottom="0"
     inkscape:window-width="1334"
     inkscape:window-height="688"
     inkscape:window-x="223"
     inkscape:window-y="194"
     inkscape:window-maximized="0" />
  <metadata
     id="metadata3785">
    <rdf:RDF>
      <cc:Work
         rdf:about="">
        <dc:format>image/svg+xml</dc:format>
        <dc:type
           rdf:resource="http://purl.org/dc/dcmitype/StillImage" />
        <dc:title />
      </cc:Work>
    </rdf:RDF>
  </metadata>
  <g
     inkscape:label="Calque 1"
     inkscape:groupmode="layer"
     id="layer1"
     transform="translate(-247.70548,81.753882)">
    <g
       style="font-size:302.7414856px;font-style:normal;font-weight:normal;line-height:125%;letter-spacing:0px;word-spacing:0px;fill:#000000;fill-opacity:1;stroke:none;font-family:Sans"
       id="text3788">
      <path
         style="font-variant:normal;font-stretch:normal;font-family:ARB 85 Poster Script JAN-39;-inkscape-font-specification:ARB 85 Poster Script JAN-39"
         d="m 293.5,0 -28.625,61.3125 -92.1875,0 -3,-28.125 -54.75,0 -4.15625,28.125 -36.03125,0 c -32.868731,0 -59.5,26.725026 -59.5,59.59375 0.160958,116.107 0.02993,241.02529 0.03125,345.875 0,32.77562 26.538145,59.5 59.5,59.5 l 8.875,0 C 43.104173,552.61921 13.897303,601.79294 4.53125,646.75 c -14.53158,68.11677 4.78948,137.9375 72.90625,137.9375 41.487,0 107.91976,6.45492 175,-43.5 20.61757,25.77511 64.89221,31.02522 88.75,17.1875 -21.79736,44.20021 -23.89594,57.51755 -47.8125,59.03125 -18.46721,0.30274 -27.04988,-28.87801 -46.4375,-52.59375 l -25.53125,63.625 c 14.53158,13.92609 51.35121,48.67774 67.09375,48.375 80.57161,4.63085 107.59011,-56.38008 133.90625,-116.53125 14.4062,4.59678 31.98066,1.47045 46,-2.96875 5.9367,2.95735 14.1333,4.5 24.71875,4.5 30.57966,0 56.29529,-0.11634 78.375,-4.5 9.69683,2.96816 22.20537,4.1875 35.4375,4.1875 61.38437,0 96.91295,-0.64828 123.28125,-8.78125 12.00434,8.58074 27.86102,13.625 46.34375,13.625 37.60174,3.42629 73.92621,-3.80116 95.3125,-44.875 9.74625,26.35951 39.74072,44.875 75.125,44.875 41.55151,-2.15309 74.1561,3.27269 102.168,-48.72271 14.1721,16.20936 -10.5582,50.92888 -19.168,64.78521 -4.8439,9.08224 -12.7265,21.46667 -18.7812,27.21875 l 79.625,0 30.5624,-59.03125 c 7.8714,7.87127 24.8278,10.59375 41.7813,10.59375 52.0714,0 97.4939,-30.25867 109.9063,-79 4.5409,-16.34803 6.3558,-42.0739 -8.7813,-56 -32.244,-22.59089 -88.309,-13.62926 -120.5,-10.90625 -26.731,0 -64.2847,12.53539 -90,39 -7.8881,-25.6384 -33.3003,-43.25 -67.75,-43.25 -36.66758,0 -78.84413,20.2154 -101.28125,48.84375 -5.73518,-28.62851 -32.25966,-48.84375 -69.15625,-48.84375 -48.1358,0 -97.79079,34.82325 -107.78125,77.8125 -2.08257,8.33029 -2.57997,16.38002 -1.65625,23.9375 -19.73405,13.99634 -25.26386,16.73724 -33.875,16.9375 -11.80691,1.21097 -14.21304,-11.20088 -7.25,-24.21875 l 63.28125,-121.09375 c 5.58762,-11.17524 33.64005,-68.30408 -0.28125,-71.5625 13.40427,-10.9255 21.96875,-27.51472 21.96875,-46.0625 C 750.20224,341.35018 750,241.65782 750,120.90625 750,88.037526 723.01276,65.456694 690.3125,61.3125 l -15.78125,0 -11.09375,-38.65625 -72.90625,0 -9.625,38.65625 -79.3125,0 L 470.71875,0 z m 56.90625,24.21875 62.75,0 0,46.34375 -62.75,0 z m 77.625,107.21875 -0.0625,56.0625 c -47.37843,11.54205 -81.76919,49.98308 -83.125,99.4375 0,16.67973 3.96808,32.42771 11.03125,46.34375 L 305,364.5 c -11.37857,-22.02288 -17.8125,-47.01206 -17.8125,-73.5 0,-23.5575 5.31314,-45.73204 14.53125,-65.9375 l -201.96875,0 0,-26.1875 210.46875,0.125 c 25.02369,-41.45842 67.63348,-63.17944 117.8125,-67.5625 z m 39.1875,0.15625 c 50.15603,5.15335 92.84958,30.16091 117.6875,71.75 l 86.6875,0.0625 0,21.75 -78.15625,0 c 9.125,20.11235 14.53125,42.28625 14.53125,65.84375 0,33.75265 -10.43734,65.06661 -28.25,90.90625 l -44.90625,-41 c 9.70601,-15.67189 15.34375,-34.16863 15.34375,-53.96875 0,0 -0.24024,-83.78178 -83,-100.125 z m -87.03125,232.75 c 12.8086,11.1269 28.38511,19.16083 45.59375,22.875 l -0.125,62.6875 c -39.08721,-5.35249 -73.66641,-24.78629 -98.5,-53 z m 131.25,2.90625 45.25,41.28125 c -25.12733,23.33271 -57.74322,38.72425 -93.84375,42.125 l 0.125,-62.25 c 18.13914,-2.73004 34.73496,-10.20572 48.46875,-21.15625 z m -308.59375,159.03125 419.21875,0 -13.90625,26.3125 c 21.03116,-3.21181 55.10198,6.97577 36.9375,42.09375 l -67.0625,128.375 c -7.89046,3.89511 -15.75758,6.34375 -23.125,6.34375 -10.2932,0 -16.35372,-6.04452 -6.96875,-23.90625 l 38.4375,-74.46875 c 7.76542,-13.03472 3.48161,-9.40625 -12.75,-9.40625 12.33507,-7.02326 21.43474,-19.07327 25.28125,-32.34375 6.35757,-20.88914 -5.43893,-39.0625 -28.75,-39.0625 -22.40285,0 -43.6034,17.25538 -48.75,38.75 -4.25025,13.33034 -0.85085,25.55483 8.0625,32.65625 l -21.5,0 c 0.90822,3.93564 0.01,10.3045 -4.53125,18.78125 -12.62474,26.84939 -32.01956,52.70602 -42.8125,79.65625 -8.07708,6.90954 -14.0344,7.75781 -23.34375,6.4375 l 35.5,-80.65625 c 3.93564,-7.87127 9.10142,-16.95296 15.15625,-24.21875 l -83.5625,0 -4.5625,10 c -5.44934,-7.56853 -15.72007,-16.93947 -43.875,-16.03125 -47.84446,1.78144 -95.89663,27.50473 -110,72.53125 -82.69711,91.64486 -228.80494,62.73757 -206.90625,-40.15625 9.99046,-46.92488 54.8056,-82.03125 101.125,-82.03125 54.49342,0 70.51974,22.9795 61.4375,65.96875 -12.1894,44.12633 -27.76573,35.26252 -51.4375,44.03125 l 42.0625,-85.46875 -41.78125,0 0.9375,7.5625 c -6.35757,-5.75209 -15.742,-7.875 -24.21875,-7.875 -33.60427,0 -64.80647,35.40154 -72.375,71.125 -8.17401,38.44813 11.20406,63.89485 56.3125,49.96875 l 45.71875,0 c 36.0262,0 72.06031,-24.22545 82.65625,-73.875 9.77117,-45.66528 -6.11943,-87.71214 -36.625,-111.09375 z M 130.1875,617.0625 c 1.29358,0.0334 2.60068,0.24186 3.90625,0.625 4.84386,1.21097 3.95318,6.06239 1.53125,10.90625 l -23.3125,55.71875 -6.375,0 c -25.54379,0 -2.90764,-65.73866 22.96875,-67.21875 0.43127,-0.0247 0.85006,-0.0425 1.28125,-0.0312 z m 686.65625,29.34375 c 11.66734,12.43032 1.2832,28.78425 -1.21875,41.53125 -2.1192,14.53157 -6.34625,27.42972 18.78125,26.21875 -9.6877,22.10011 -33.1206,34.44956 -54.3125,19.3125 -34.36611,-18.85006 -23.27882,-81.22963 36.75,-87.0625 z m 167.65625,4 c 13.93115,0.22092 3.53029,22.52663 1.5625,37.53125 -2.1192,14.53157 -6.2837,25.64847 18.8437,24.4375 -9.6876,22.10011 -31.14086,27.68005 -50.31245,17.59375 -36.96012,-25.81385 -13.34658,-73.5934 29.90625,-79.5625 z m -621.71875,4.6875 c 17.17472,0.23041 11.46319,46.77796 -8.0625,56.34375 -20.15556,9.87437 -44.50638,-7.89532 -46.53125,-24.34375 4.23838,-16.95351 33.58098,-28.94053 52.84375,-31.875 0.60196,-0.0917 1.19598,-0.13243 1.75,-0.125 z m 812.46875,9.6875 c 6.9319,0.43339 7.4991,9.47048 7.1875,14.4375 -7.8713,29.66864 -15.4721,52.3125 -37.875,52.3125 -3.9356,0 -8.7991,-3.9295 -5.4687,-12.40625 l 18.2187,-42 c 4.8249,-7.37932 11.117,-11.81602 17.9375,-12.34375 z"
         transform="translate(247.70548,-81.753882)"
         id="path4034"
         inkscape:connector-curvature="0"
         sodipodi:nodetypes="ccccccsccsccsccccccccscscccccccccsccccscscccccccsccccccccccccccccccsccccccccccsccccccccccccccccccccsccccscccccccccccccscccccsccsccccccsccccccccccccsscssccsccc" />
    </g>
    <g
       style="fill:#000000;fill-opacity:1;display:inline"
       id="g4037"
       transform="matrix(3.5979153,0,0,3.5979153,-1868.4101,-1837.0144)"
       inkscape:export-xdpi="90"
       inkscape:export-ydpi="90"
       inkscape:export-filename="/media/gilou/PROGRAMMES/Imprimante 3D/Objets 3D/SVG files/Le Gueuloir/appareilPhoto.png">
      <g
         transform="matrix(25.879499,0,0,-25.879499,712.54963,523.03764)"
         id="g3098"
         style="fill:#000000;fill-opacity:1" />
      <g
         transform="matrix(25.879499,0,0,-25.879499,635.31754,495.97017)"
         id="g3102"
         style="fill:#000000;fill-opacity:1" />
      <g
         transform="matrix(25.879499,0,0,-25.879499,772.54907,493.0404)"
         id="g3106"
         style="fill:#000000;fill-opacity:1" />
      <g
         transform="matrix(25.879499,0,0,-25.879499,753.08997,549.32335)"
         id="g3112"
         style="fill:#000000;fill-opacity:1" />
      <g
         transform="matrix(25.879499,0,0,-25.879499,736.86352,552.9618)"
         id="g3116"
         style="fill:#000000;fill-opacity:1" />
    </g>
  </g>
</svg>
