<?xml version="1.0" encoding="UTF-8" standalone="no"?>
<!-- Created with Inkscape (http://www.inkscape.org/) -->

<svg
   xmlns:dc="http://purl.org/dc/elements/1.1/"
   xmlns:cc="http://creativecommons.org/ns#"
   xmlns:rdf="http://www.w3.org/1999/02/22-rdf-syntax-ns#"
   xmlns:svg="http://www.w3.org/2000/svg"
   xmlns="http://www.w3.org/2000/svg"
   xmlns:sodipodi="http://sodipodi.sourceforge.net/DTD/sodipodi-0.dtd"
   xmlns:inkscape="http://www.inkscape.org/namespaces/inkscape"
   width="356.37869"
   height="599.21179"
   id="svg2"
   version="1.1"
   inkscape:version="0.48.1 "
   sodipodi:docname="Mary Poppins sans parapluie.svg">
  <defs
     id="defs4" />
  <sodipodi:namedview
     id="base"
     pagecolor="#ffffff"
     bordercolor="#666666"
     borderopacity="1.0"
     inkscape:pageopacity="0.0"
     inkscape:pageshadow="2"
     inkscape:zoom="0.55587984"
     inkscape:cx="40.92503"
     inkscape:cy="465.75477"
     inkscape:document-units="cm"
     inkscape:current-layer="layer1"
     showgrid="false"
     inkscape:window-width="878"
     inkscape:window-height="774"
     inkscape:window-x="103"
     inkscape:window-y="79"
     inkscape:window-maximized="0"
     fit-margin-top="0"
     fit-margin-left="0"
     fit-margin-right="0"
     fit-margin-bottom="0"
     units="cm" />
  <metadata
     id="metadata7">
    <rdf:RDF>
      <cc:Work
         rdf:about="">
        <dc:format>image/svg+xml</dc:format>
        <dc:type
           rdf:resource="http://purl.org/dc/dcmitype/StillImage" />
        <dc:title></dc:title>
      </cc:Work>
    </rdf:RDF>
  </metadata>
  <g
     inkscape:label="Calque 1"
     inkscape:groupmode="layer"
     id="layer1"
     transform="translate(-223.87498,-445.63943)">
    <path
       style="fill:#000000"
       d="m 381.59355,1044.8512 c -3.39967,-10.6268 -10.3097,-8.4611 -14.66814,-18.3829 -0.64363,-1.4654 -3.3555,1.6921 -4.94245,3.9857 -3.59827,5.2004 -6.27855,7.5625 -11.29768,11.8895 -3.64108,-2.2875 -7.96735,-4.2635 -7.96735,-8.0144 0,-3.8446 -0.78904,-2.4108 -7.70869,1.6718 -5.3562,3.1602 -5.88338,3.1948 -12.15806,0.7966 -5.83426,-2.2299 -15.12421,-9.139 -15.12421,-11.2483 0,-0.436 1.01015,-2.7464 2.24478,-5.1338 2.1255,-4.1102 2.70026,-4.3031 10.81892,-3.6299 8.12961,0.6742 8.82646,0.4391 13.43938,-4.5362 7.93884,-8.5622 9.4765,-12.66726 8.34647,-22.28211 l -1.00522,-8.55292 -9.32163,-1.05463 c -5.12688,-0.58003 -12.42059,-2.70236 -16.20825,-4.71626 -4.46844,-2.37589 -11.60761,-4.19808 -20.33136,-5.18935 -7.39463,-0.84024 -14.08805,-2.171 -14.87429,-2.95725 -1.25429,-1.25427 1.33736,-28.51249 4.47996,-47.11938 0.93569,-5.54003 0.82,-5.69625 -6.20446,-8.37892 -3.93686,-1.5035 -7.86289,-3.5831 -8.72457,-4.62133 -1.07555,-1.29597 -0.0713,-8.67697 3.20337,-23.54564 2.62352,-11.91185 9.22887,-43.0318 14.67858,-69.15544 28.21534,-135.25267 25.5408,-125.54613 38.95684,-141.3829 5.6655,-6.68777 6.97549,-9.37604 6.97549,-14.31454 0,-6.16261 -10.00597,-41.72347 -12.44009,-44.21164 -1.93161,-1.97448 -27.68973,12.18233 -47.25036,25.96904 -20.2476,14.2709 -28.52394,16.50661 -37.31162,10.07904 -6.82844,-4.99456 -15.1965,-41.18043 -12.95206,-56.00853 0.60761,-4.01428 2.67834,-9.62055 4.60161,-12.45836 1.92326,-2.83783 4.39644,-10.20162 5.49593,-16.364 1.09948,-6.16237 0.78865,-5.96623 5.86261,-9.73105 7.06121,-4.904 11.99156,-3.05767 20.32974,-1.41844 5.10249,2.29224 6.30546,8.83253 5.85282,14.56734 -1.20877,15.5086 -3.46338,19.4662 -11.08975,19.4662 l -5.63647,0 1.01017,9.6649 c 0.55561,5.31571 1.69684,10.35159 2.53606,11.19081 2.52981,2.52982 22.70945,-12.4189 40.24704,-29.8143 9.61852,-9.54053 17.76627,-16.31429 20.24483,-16.83079 13.78363,-2.87246 18.53567,-4.24325 21.60689,-6.23286 4.53262,-2.93632 16.41449,-20.5 14.61901,-21.60967 -0.76876,-0.47511 0.87289,-6.1042 -0.16299,-10.60354 -1.03589,-4.49931 -5.30747,-10.17224 -7.70247,-14.512 -2.43958,-4.42056 -3.92959,-12.25986 -5.46033,-17.01653 l -2.75944,-10.30816 -6.15211,0 c -6.33905,0 -9.681,4.56572 -9.67455,-8.02315 5.70886,-2.41566 14.65091,-1.48044 13.42489,-10.34016 -1.25339,-8.5398 0.65851,-12.34222 7.05888,-14.03892 12.94833,-3.43253 32.3448,-6.01676 43.4749,-4.10315 10.84845,1.86518 12.01313,1.62887 13.99601,7.86528 3.32625,11.69786 4.111,10.68134 13.04436,10.51552 0.42738,2.85074 3.28401,8.64747 -2.53657,9.35255 -3.23701,0.39212 -5.47611,1.96845 -4.48667,14.12198 1.0185,12.51061 -5.14024,23.99775 -8.01821,28.59336 -5.21304,8.32427 -4.92023,11.38749 4.74647,17.34495 4.6157,2.8446 9.68205,6.61957 11.25855,8.38883 1.57649,1.76923 7.12695,5.14045 12.33434,7.49159 5.7885,2.6135 11.4142,6.61583 14.47594,10.29874 8.5475,10.28159 33.20458,63.55434 49.279,106.46949 3.68938,9.84989 8.84578,22.89176 11.45863,28.98194 9.06766,21.13549 12.85108,37.1504 14.12352,59.7839 0.65004,11.56293 0.57492,23.12584 -0.16696,25.69538 -2.55939,8.86458 -0.49548,12.16883 13.56789,21.72171 16.1533,10.97249 22.54997,18.22737 30.2786,34.34093 6.87605,14.33604 24.92467,67.01739 24.92467,72.75159 0,5.44346 -3.6692,8.02847 -17.90889,12.61708 -42.9587,13.84303 -65.68641,17.25023 -91.34721,13.69418 -6.28481,-0.87092 -11.9451,-1.06535 -12.57841,-0.43204 -1.31231,1.31231 2.53069,25.21605 5.9114,36.76943 1.23955,4.23612 1.72518,8.21103 1.07917,8.83315 -0.64601,0.62213 -6.08005,1.44906 -12.07565,1.8376 -5.99558,0.38856 -14.75537,1.86244 -19.46619,3.27527 -4.71081,1.41284 -14.36312,2.62807 -21.44956,2.7005 -10.79425,0.11024 -13.13113,0.59257 -14.40499,2.97277 -4.23001,7.90381 1.91629,18.02351 15.40604,25.36561 6.53975,3.5593 8.4836,3.9999 11.21051,2.5405 4.77584,-2.556 10.29079,-0.6831 11.14488,3.7846 1.0854,5.6781 -0.88832,7.8479 -11.44958,12.5876 l -9.65386,4.3323 -7.9213,-3.5054 c -4.3567,-1.928 -9.84845,-3.8502 -12.20385,-4.2715 -3.88814,-0.6956 -4.28257,-0.3371 -4.28257,3.8919 0,9.1418 -3.13946,7.1408 -8.67008,7.8492 z m 95.84846,-236.4043 c 0.80708,0 2.26834,-2.9744 3.24724,-6.60976 0.9789,-3.63535 3.14285,-9.28149 4.80876,-12.54693 1.73752,-3.40584 2.61236,-7.24965 2.05189,-9.01551 -0.53737,-1.6931 0.5915,-7.45191 2.50859,-12.79736 l 3.48562,-9.719 -8.60214,-17.09204 c -4.73118,-9.40061 -13.77844,-27.26295 -20.10501,-39.69407 -6.32658,-12.43114 -14.59136,-31.00187 -18.3662,-41.26834 -10.61822,-28.87845 -12.59285,-33.09128 -14.18064,-30.25406 -0.74604,1.33311 -2.47604,9.3815 -3.84444,17.88534 -1.36841,8.50385 -3.46531,16.95304 -4.65977,18.77603 -1.93575,2.95433 -1.75803,3.92335 1.63539,8.9172 5.70105,8.38987 5.97148,9.30165 23.33087,78.66348 8.86167,35.40797 16.98005,65.42392 18.04087,66.70212 1.6362,1.97152 2.4788,1.24172 5.55515,-4.81155 1.99452,-3.92455 4.28674,-7.13555 5.09382,-7.13555 z"
       id="path3007"
       inkscape:connector-curvature="0"
       sodipodi:nodetypes="csscsssssssscsssssscsssssssssscccscssssscssscsccssccssssssssssssssssssssssssssscssscssssscsssssssssss" />
  </g>
</svg>
