<?xml version="1.0" encoding="UTF-8" standalone="no"?>
<!-- Created with Inkscape (http://www.inkscape.org/) -->

<svg
   xmlns:dc="http://purl.org/dc/elements/1.1/"
   xmlns:cc="http://creativecommons.org/ns#"
   xmlns:rdf="http://www.w3.org/1999/02/22-rdf-syntax-ns#"
   xmlns:svg="http://www.w3.org/2000/svg"
   xmlns="http://www.w3.org/2000/svg"
   xmlns:sodipodi="http://sodipodi.sourceforge.net/DTD/sodipodi-0.dtd"
   xmlns:inkscape="http://www.inkscape.org/namespaces/inkscape"
   width="539.00415"
   height="863.0528"
   id="svg2"
   version="1.1"
   inkscape:version="0.48.1 "
   sodipodi:docname="Mary Poppins avec parapluie.svg">
  <defs
     id="defs4" />
  <sodipodi:namedview
     id="base"
     pagecolor="#ffffff"
     bordercolor="#666666"
     borderopacity="1.0"
     inkscape:pageopacity="0.0"
     inkscape:pageshadow="2"
     inkscape:zoom="0.55587984"
     inkscape:cx="234.63163"
     inkscape:cy="467.74567"
     inkscape:document-units="cm"
     inkscape:current-layer="layer1"
     showgrid="false"
     inkscape:window-width="878"
     inkscape:window-height="774"
     inkscape:window-x="103"
     inkscape:window-y="79"
     inkscape:window-maximized="0"
     fit-margin-top="0"
     fit-margin-left="0"
     fit-margin-right="0"
     fit-margin-bottom="0"
     units="cm" />
  <metadata
     id="metadata7">
    <rdf:RDF>
      <cc:Work
         rdf:about="">
        <dc:format>image/svg+xml</dc:format>
        <dc:type
           rdf:resource="http://purl.org/dc/dcmitype/StillImage" />
        <dc:title></dc:title>
      </cc:Work>
    </rdf:RDF>
  </metadata>
  <g
     inkscape:label="Calque 1"
     inkscape:groupmode="layer"
     id="layer1"
     transform="translate(-96.078816,-181.79758)">
    <path
       style="fill:#000000"
       d="m 405.85872,1044.8512 c -3.92272,-12.2617 -11.89586,-9.7628 -16.92485,-21.2112 -0.74266,-1.6907 -3.87176,1.9526 -5.70286,4.599 -4.15186,6.0005 -7.24451,8.7259 -13.03583,13.7187 -4.20127,-2.6394 -9.19314,-4.9194 -9.19314,-9.2475 0,-4.436 -0.91044,-2.7817 -8.89468,1.9291 -6.18025,3.6464 -6.78855,3.6863 -14.02858,0.9191 -6.73188,-2.5729 -17.4511,-10.545 -17.4511,-12.9788 0,-0.5032 1.16557,-3.1689 2.59014,-5.9237 2.45252,-4.7426 3.11571,-4.9652 12.48344,-4.1883 9.38034,0.7779 10.1844,0.5065 15.50703,-5.2341 9.16023,-9.87955 10.93447,-14.61618 9.63058,-25.71027 l -1.15987,-9.86879 -10.75578,-1.21689 c -5.91565,-0.66927 -14.3315,-3.11812 -18.70189,-5.44187 -5.15592,-2.74142 -13.39346,-4.84396 -23.45937,-5.98773 -8.53229,-0.96951 -16.2555,-2.50501 -17.16272,-3.41222 -1.44725,-1.44725 1.54312,-32.89917 5.16922,-54.36875 1.07964,-6.39237 0.94615,-6.57264 -7.15902,-9.66803 -4.54255,-1.73482 -9.07262,-4.13437 -10.06686,-5.33233 -1.24102,-1.49535 -0.0823,-10.01193 3.69621,-27.16816 3.02715,-13.7445 10.64875,-49.65229 16.93689,-79.79507 32.55631,-156.06144 29.47028,-144.86154 44.95039,-163.13482 6.53715,-7.71669 8.04869,-10.81855 8.04869,-16.51684 0,-7.11073 -11.54541,-48.14267 -14.35402,-51.01364 -2.22879,-2.27826 -31.94982,14.05658 -54.51988,29.9644 -23.36271,16.46649 -32.91238,19.04616 -43.05205,11.62971 -7.87901,-5.76298 -17.53449,-47.51608 -14.94475,-64.6255 0.70109,-4.63189 3.0904,-11.10068 5.30957,-14.3751 2.21916,-3.27443 5.07283,-11.77115 6.34149,-18.88161 1.26863,-7.11047 3.45408,-13.88042 4.85651,-15.04433 1.40244,-1.16394 2.5499,-3.60598 2.5499,-5.42676 0,-4.60388 6.284,-7.49439 14.57415,-6.70381 l 6.98849,0.66646 0,-77.13513 0,-77.13516 -18.41809,1.06535 c -10.12995,0.58595 -21.91974,2.31208 -26.19953,3.83585 -7.15569,2.5477 -8.23943,2.52002 -13.47666,-0.34422 -4.61891,-2.52608 -10.34709,-3.11493 -30.31032,-3.11588 -16.21137,-7.8e-4 -25.32417,0.70712 -26.69199,2.07346 -1.57019,1.56848 -3.64485,1.14952 -8.50362,-1.71722 -5.17304,-3.05217 -9.43031,-3.79885 -21.82396,-3.82772 -9.84987,-0.023 -17.01571,0.86358 -19.889456,2.46063 -4.29337,2.38598 -4.3748,2.34428 -1.83949,-0.94225 20.098716,-26.05405 42.482806,-49.06086 58.363186,-59.98684 21.88628,-15.05816 41.35928,-20.91203 99.29324,-29.84898 3.17727,-0.49013 6.41167,-1.87057 7.18755,-3.06765 0.77588,-1.19708 1.87304,-9.8582 2.43814,-19.24694 l 1.02743,-17.07043 0.32024,17.29963 c 0.22551,12.18331 1.05259,17.90745 2.79656,19.35482 1.36199,1.13035 12.48023,3.65298 24.7072,5.60586 12.22698,1.95287 27.89105,4.87081 34.80907,6.4843 26.38486,6.15375 51.80997,21.34095 73.87769,44.12939 11.16647,11.53117 31.56464,35.87797 30.74548,36.69712 -0.24717,0.24718 -4.36182,-0.38503 -9.14366,-1.4049 -10.47738,-2.23461 -25.52056,-0.61453 -33.88337,3.64906 -5.44248,2.77474 -6.80695,2.84048 -12.29631,0.59245 -8.30448,-3.40088 -44.74239,-2.11645 -54.08586,1.90651 -5.83571,2.51266 -7.43956,2.53923 -14.13023,0.2341 -4.15103,-1.43014 -15.13707,-3.09882 -24.41339,-3.70816 l -16.86607,-1.10789 0,78.22604 c 0,77.47353 0.0356,78.23533 3.70148,79.19397 3.0657,0.80172 3.54087,1.99505 2.76645,6.9479 -0.51425,3.28897 -1.43918,12.44874 -2.05541,20.35505 -1.39474,17.89462 -3.99622,22.46109 -12.79592,22.46109 l -6.50365,0 1.1656,11.15187 c 0.64108,6.13353 1.95789,11.94418 2.92623,12.91252 2.91903,2.91903 26.20333,-14.32956 46.43908,-34.40126 11.09835,-11.00835 20.49964,-18.82426 23.35953,-19.42023 15.90425,-3.31438 21.3874,-4.89607 24.93113,-7.19179 5.22997,-3.38807 18.93988,-23.65393 16.86816,-24.93434 -0.88704,-0.5482 1.00718,-7.04333 -0.18807,-12.2349 -1.19526,-5.19154 -6.12403,-11.73725 -8.8875,-16.74469 -2.81491,-5.10066 -4.53417,-14.14605 -6.30041,-19.63454 l -3.18398,-11.89408 -7.09862,0 c -7.31432,0 -11.17042,5.26816 -11.16299,-9.25752 6.58718,-2.78732 16.90497,-1.70821 15.49032,-11.931 -1.44622,-9.85366 0.75982,-14.24109 8.1449,-16.19883 14.94045,-3.96063 37.32107,-6.94245 50.16355,-4.73442 12.51751,2.15215 13.86137,1.87948 16.14932,9.07535 3.838,13.4976 4.74348,12.32469 15.05124,12.13335 0.49314,3.28933 3.78927,9.9779 -2.92681,10.79146 -3.73504,0.45245 -6.31862,2.2713 -5.17696,16.29465 1.1752,14.43539 -5.93107,27.68984 -9.25182,32.99248 -6.01506,9.60498 -5.6772,13.13947 5.47673,20.01349 5.32583,3.28225 11.17164,7.638 12.99068,9.67946 1.81905,2.04144 8.22344,5.93132 14.232,8.64419 6.67906,3.01559 13.17028,7.63368 16.70307,11.8832 9.86254,11.86342 38.31314,73.33225 56.86063,122.84993 4.257,11.36531 10.20671,26.41369 13.22155,33.44085 10.46273,24.3872 14.82824,42.86603 16.29644,68.98172 0.75005,13.34189 0.66337,26.68377 -0.19265,29.64864 -2.95315,10.2284 -0.5717,14.04102 15.65533,25.06361 18.6385,12.66063 26.0193,21.03168 34.93699,39.62432 7.93395,16.54166 28.75937,77.32809 28.75937,83.94451 0,6.28093 -4.23371,9.26366 -20.6642,14.55822 -49.56794,15.9728 -75.79234,19.90419 -105.40108,15.80105 -7.25173,-1.00492 -13.78286,-1.22926 -14.51361,-0.49851 -1.51421,1.5142 2.92004,29.09556 6.82087,42.42645 1.43027,4.88784 1.99061,9.4743 1.24521,10.19214 -0.7454,0.71784 -7.01548,1.67199 -13.9335,2.12031 -6.91801,0.44834 -17.0255,2.14897 -22.46109,3.77918 -5.43558,1.6302 -16.5729,3.03239 -24.7496,3.11596 -12.45495,0.12722 -15.15136,0.68375 -16.62121,3.4302 -4.8808,9.11985 2.21112,20.79644 17.77628,29.26804 7.5459,4.107 9.78881,4.6153 12.93525,2.9314 5.51061,-2.9492 11.87405,-0.7882 12.85954,4.3669 1.25239,6.5516 -1.02499,9.0553 -13.2111,14.5241 l -11.13913,4.9989 -9.14,-4.0447 c -5.02699,-2.2246 -11.36364,-4.4425 -14.08143,-4.9287 -4.48632,-0.8026 -4.94144,-0.389 -4.94144,4.4906 0,10.5483 -3.62247,8.2395 -10.00398,9.0569 z M 516.45356,772.07584 c 0.93126,0 2.61733,-3.432 3.74684,-7.62667 1.1295,-4.19465 3.62637,-10.70945 5.54859,-14.47729 2.00484,-3.92982 3.01427,-8.36501 2.36757,-10.40255 -0.62005,-1.95358 0.6825,-8.5984 2.89454,-14.76625 l 4.02188,-11.21428 -9.92559,-19.72166 c -5.45907,-10.84691 -15.89825,-31.45739 -23.19817,-45.80106 -7.29993,-14.34367 -16.83626,-35.77154 -21.19186,-47.6175 -12.25185,-33.32144 -14.53028,-38.18242 -16.36235,-34.90869 -0.86082,1.53821 -2.85698,10.82486 -4.43592,20.63702 -1.57893,9.81217 -3.99844,19.56129 -5.37667,21.66474 -2.23356,3.40886 -2.0285,4.52697 1.88699,10.28912 6.57817,9.68066 6.8902,10.73272 26.92035,90.76594 10.22504,40.85552 19.59245,75.48946 20.81647,76.96431 1.88795,2.27484 2.86018,1.43277 6.40982,-5.55181 2.30138,-4.52835 4.94626,-8.23337 5.87751,-8.23337 z"
       id="path3007"
       inkscape:connector-curvature="0"
       sodipodi:nodetypes="csscsssssssscsssssscssssssssssssscccssssssssssssscssssscsssssscssssscssssscssscsccssccssssssssssssssssssssssssssscssscssssscsssssssssss" />
  </g>
</svg>
