<?xml version="1.0" encoding="UTF-8" standalone="no"?>
<!-- Created with Inkscape (http://www.inkscape.org/) -->

<svg
   xmlns:dc="http://purl.org/dc/elements/1.1/"
   xmlns:cc="http://creativecommons.org/ns#"
   xmlns:rdf="http://www.w3.org/1999/02/22-rdf-syntax-ns#"
   xmlns:svg="http://www.w3.org/2000/svg"
   xmlns="http://www.w3.org/2000/svg"
   xmlns:sodipodi="http://sodipodi.sourceforge.net/DTD/sodipodi-0.dtd"
   xmlns:inkscape="http://www.inkscape.org/namespaces/inkscape"
   width="602.34387"
   height="201.69423"
   id="svg4467"
   version="1.1"
   inkscape:version="0.48.1 "
   sodipodi:docname="Nouveau document 6">
  <defs
     id="defs4469" />
  <sodipodi:namedview
     id="base"
     pagecolor="#ffffff"
     bordercolor="#666666"
     borderopacity="1.0"
     inkscape:pageopacity="0.0"
     inkscape:pageshadow="2"
     inkscape:zoom="0.35"
     inkscape:cx="356.17214"
     inkscape:cy="-122.01211"
     inkscape:document-units="cm"
     inkscape:current-layer="layer1"
     showgrid="false"
     fit-margin-top="0"
     fit-margin-left="0"
     fit-margin-right="0"
     fit-margin-bottom="0"
     units="cm"
     inkscape:window-width="511"
     inkscape:window-height="455"
     inkscape:window-x="225"
     inkscape:window-y="225"
     inkscape:window-maximized="0" />
  <metadata
     id="metadata4472">
    <rdf:RDF>
      <cc:Work
         rdf:about="">
        <dc:format>image/svg+xml</dc:format>
        <dc:type
           rdf:resource="http://purl.org/dc/dcmitype/StillImage" />
        <dc:title></dc:title>
      </cc:Work>
    </rdf:RDF>
  </metadata>
  <g
     inkscape:label="Calque 1"
     inkscape:groupmode="layer"
     id="layer1"
     transform="translate(-18.827859,-208.65558)">
    <path
       inkscape:connector-curvature="0"
       style="fill:#000000;fill-opacity:1;stroke:#000000;stroke-width:1px;stroke-linecap:butt;stroke-linejoin:miter;stroke-opacity:1"
       d="m 177.87767,209.15911 c -16.571,0.0501 -33.02936,4.58193 -48.65625,10.5 -36.691754,13.91865 -75.280793,29.28366 -102.343759,58.8125 -20.4076896,20.84392 5.267396,43.94524 21.843754,56.65624 37.407862,28.02449 74.544445,58.91688 119.250005,74.40625 37.704,2.60177 77.22475,-10.89503 105.0625,-36.90625 18.35861,-17.23882 17.7081,-34.91992 46.96875,-34.5 29.26065,-0.41992 28.57889,17.26118 46.9375,34.5 27.83775,26.01122 67.38975,39.50802 105.09375,36.90625 44.70556,-15.48937 81.81089,-46.38176 119.21875,-74.40625 16.57636,-12.711 42.2827,-35.81232 21.875,-56.65624 -27.06296,-29.52884 -65.68325,-44.89385 -102.375,-58.8125 -22.73002,-8.60809 -47.21514,-14.24288 -71.25,-7.5 -41.09117,6.67829 -75.63929,52.24706 -119.5,51.5625 -43.86071,0.68456 -78.44008,-44.88421 -119.53125,-51.5625 -7.51089,-2.10715 -15.06148,-3.02279 -22.59375,-3 z m 0.90625,68.25 c 3.90719,-0.007 7.82264,0.28596 11.71875,0.9375 21.31509,2.06499 39.21703,17.33667 61.96875,17.125 0,12.36997 -8.57182,18.06633 -24.34375,32.46874 -14.44019,8.04289 -34.94191,12.24199 -54.5,11.4375 -23.18994,-4.78944 -42.4393,-14.36584 -61.84375,-23.03125 -8.5986,-3.93035 -21.929769,-11.05487 -11.34375,-17.49999 14.03828,-9.13057 34.06076,-13.88373 53.09375,-18.1875 8.10609,-1.82992 16.65416,-3.2345 25.25,-3.25 z m 286.03125,0 c 8.59584,0.0155 17.14391,1.42008 25.25,3.25 19.03299,4.30377 39.02421,9.05693 53.0625,18.1875 10.58602,6.44512 -2.7139,13.56964 -11.3125,17.49999 -19.40445,8.66541 -38.68506,18.24181 -61.875,23.03125 -19.55809,0.80449 -40.05981,-3.39461 -54.5,-11.4375 -15.77193,-14.40241 -24.34375,-20.09877 -24.34375,-32.46874 22.75172,0.21167 40.68491,-15.06001 62,-17.125 3.89611,-0.65154 7.81156,-0.94455 11.71875,-0.9375 z"
       id="path2987" />
  </g>
</svg>
