<?xml version="1.0" encoding="UTF-8" standalone="no"?>
<!-- Created with Inkscape (http://www.inkscape.org/) -->

<svg
   xmlns:dc="http://purl.org/dc/elements/1.1/"
   xmlns:cc="http://creativecommons.org/ns#"
   xmlns:rdf="http://www.w3.org/1999/02/22-rdf-syntax-ns#"
   xmlns:svg="http://www.w3.org/2000/svg"
   xmlns="http://www.w3.org/2000/svg"
   xmlns:xlink="http://www.w3.org/1999/xlink"
   xmlns:sodipodi="http://sodipodi.sourceforge.net/DTD/sodipodi-0.dtd"
   xmlns:inkscape="http://www.inkscape.org/namespaces/inkscape"
   width="602.34387"
   height="201.69423"
   id="svg2"
   version="1.1"
   inkscape:version="0.48.1 "
   sodipodi:docname="Nouveau document 1">
  <defs
     id="defs4" />
  <sodipodi:namedview
     id="base"
     pagecolor="#ffffff"
     bordercolor="#666666"
     borderopacity="1.0"
     inkscape:pageopacity="0.0"
     inkscape:pageshadow="2"
     inkscape:zoom="0.83671875"
     inkscape:cx="410.52485"
     inkscape:cy="152.14448"
     inkscape:document-units="cm"
     inkscape:current-layer="layer1"
     showgrid="false"
     units="cm"
     fit-margin-top="0"
     fit-margin-left="0"
     fit-margin-right="0"
     fit-margin-bottom="0"
     showguides="true"
     inkscape:guide-bbox="true"
     inkscape:snap-grids="false"
     inkscape:snap-to-guides="false"
     inkscape:window-width="1504"
     inkscape:window-height="811"
     inkscape:window-x="75"
     inkscape:window-y="75"
     inkscape:window-maximized="0">
    <sodipodi:guide
       orientation="1,0"
       position="301.16111,187.64195"
       id="guide2993" />
    <sodipodi:guide
       orientation="1,0"
       position="70.987975,97.608466"
       id="guide4408" />
    <sodipodi:guide
       orientation="1,0"
       position="233.66875,108.5947"
       id="guide4410" />
    <sodipodi:guide
       orientation="1,0"
       position="372.28758,100.98973"
       id="guide4412" />
    <sodipodi:guide
       orientation="0,1"
       position="253.37068,63.940243"
       id="guide4416" />
  </sodipodi:namedview>
  <metadata
     id="metadata7">
    <rdf:RDF>
      <cc:Work
         rdf:about="">
        <dc:format>image/svg+xml</dc:format>
        <dc:type
           rdf:resource="http://purl.org/dc/dcmitype/StillImage" />
        <dc:title></dc:title>
      </cc:Work>
    </rdf:RDF>
  </metadata>
  <g
     inkscape:label="Calque 1"
     inkscape:groupmode="layer"
     id="layer1"
     transform="translate(-2.405831,-424.91006)">
    <g
       id="g9188"
       transform="translate(-268.89504,-295.40129)">
      <g
         transform="matrix(0.8019364,0,0,0.8019364,-40.445821,144.72242)"
         id="g8922">
        <g
           id="g7751"
           inkscape:tile-cx="281.64472"
           inkscape:tile-cy="418.68924"
           inkscape:tile-w="99.064129"
           inkscape:tile-h="117.28164"
           inkscape:tile-x0="232.11266"
           inkscape:tile-y0="360.04842"
           transform="translate(-199.9905,92.702962)">
          <path
             id="path7743"
             d="m 69.565216,245.40565 c 3.587542,2.29205 -1.319663,5.96675 -3.809528,5.96274 -6.747381,-0.0109 -9.596943,-8.02251 -8.115933,-13.58179 2.64918,-9.94426 14.405943,-13.63131 23.354046,-10.26914 13.131701,4.93413 17.760686,20.86711 12.422337,33.12631 -7.11518,16.33958 -27.354696,21.92907 -42.898564,14.57554 -19.56037,-9.25367 -26.117337,-33.8546 -16.728741,-52.67083 11.370847,-22.78897 40.361376,-30.31705 62.443081,-18.88194 19.957766,10.33522 30.482696,33.27242 26.817776,55.22144"
             style="fill:none;stroke:#000000;stroke-width:10.83836174;stroke-linecap:round;stroke-linejoin:miter;stroke-miterlimit:4;stroke-opacity:1"
             transform="matrix(0.81554808,0,0,0.81511865,208.00131,198.33815)"
             inkscape:connector-curvature="0" />
          <path
             id="path7745"
             d="m 69.565216,245.40565 c 3.587542,2.29205 -1.319663,5.96675 -3.809528,5.96274 -6.747381,-0.0109 -9.596943,-8.02251 -8.115933,-13.58179 2.64918,-9.94426 14.405943,-13.63131 23.354046,-10.26914 13.131701,4.93413 17.760686,20.86711 12.422337,33.12631 -7.11518,16.33958 -27.354696,21.92907 -42.898564,14.57554 -19.56037,-9.25367 -26.117337,-33.8546 -16.728741,-52.67083 11.370847,-22.78897 40.361376,-30.31705 62.443081,-18.88194 19.957766,10.33522 30.482696,33.27242 26.817776,55.22144"
             style="fill:none;stroke:#000000;stroke-width:10.83836174;stroke-linecap:round;stroke-linejoin:miter;stroke-miterlimit:4;stroke-opacity:1"
             transform="matrix(-0.81322364,-0.06153029,0.06149789,-0.81279544,340.3239,643.04235)"
             inkscape:connector-curvature="0" />
        </g>
        <use
           height="1052.3622"
           width="744.09448"
           x="0"
           y="0"
           inkscape:tiled-clone-of="#g7751"
           xlink:href="#g7751"
           transform="translate(-14.859619,106.72629)"
           id="use8824" />
        <use
           height="1052.3622"
           width="744.09448"
           x="0"
           y="0"
           inkscape:tiled-clone-of="#g7751"
           xlink:href="#g7751"
           transform="translate(-29.719239,213.45258)"
           id="use8826" />
        <use
           height="1052.3622"
           width="744.09448"
           x="0"
           y="0"
           inkscape:tiled-clone-of="#g7751"
           xlink:href="#g7751"
           transform="translate(-44.578858,320.17888)"
           id="use8828" />
        <use
           height="1052.3622"
           width="744.09448"
           x="0"
           y="0"
           inkscape:tiled-clone-of="#g7751"
           xlink:href="#g7751"
           transform="translate(-59.438477,426.90517)"
           id="use8830" />
        <use
           height="1052.3622"
           width="744.09448"
           x="0"
           y="0"
           inkscape:tiled-clone-of="#g7751"
           xlink:href="#g7751"
           transform="translate(79.251303,0)"
           id="use8832" />
        <use
           height="1052.3622"
           width="744.09448"
           x="0"
           y="0"
           inkscape:tiled-clone-of="#g7751"
           xlink:href="#g7751"
           transform="translate(64.391684,106.72629)"
           id="use8834" />
        <use
           height="1052.3622"
           width="744.09448"
           x="0"
           y="0"
           inkscape:tiled-clone-of="#g7751"
           xlink:href="#g7751"
           transform="translate(49.532065,213.45258)"
           id="use8836" />
        <use
           height="1052.3622"
           width="744.09448"
           x="0"
           y="0"
           inkscape:tiled-clone-of="#g7751"
           xlink:href="#g7751"
           transform="translate(34.672445,320.17888)"
           id="use8838" />
        <use
           height="1052.3622"
           width="744.09448"
           x="0"
           y="0"
           inkscape:tiled-clone-of="#g7751"
           xlink:href="#g7751"
           transform="translate(19.812826,426.90517)"
           id="use8840" />
        <use
           height="1052.3622"
           width="744.09448"
           x="0"
           y="0"
           inkscape:tiled-clone-of="#g7751"
           xlink:href="#g7751"
           transform="translate(158.50261,0)"
           id="use8842" />
        <use
           height="1052.3622"
           width="744.09448"
           x="0"
           y="0"
           inkscape:tiled-clone-of="#g7751"
           xlink:href="#g7751"
           transform="translate(143.64299,106.72629)"
           id="use8844" />
        <use
           height="1052.3622"
           width="744.09448"
           x="0"
           y="0"
           inkscape:tiled-clone-of="#g7751"
           xlink:href="#g7751"
           transform="translate(128.78337,213.45258)"
           id="use8846" />
        <use
           height="1052.3622"
           width="744.09448"
           x="0"
           y="0"
           inkscape:tiled-clone-of="#g7751"
           xlink:href="#g7751"
           transform="translate(113.92375,320.17888)"
           id="use8848" />
        <use
           height="1052.3622"
           width="744.09448"
           x="0"
           y="0"
           inkscape:tiled-clone-of="#g7751"
           xlink:href="#g7751"
           transform="translate(99.064129,426.90517)"
           id="use8850" />
        <use
           height="1052.3622"
           width="744.09448"
           x="0"
           y="0"
           inkscape:tiled-clone-of="#g7751"
           xlink:href="#g7751"
           transform="translate(237.75391,0)"
           id="use8852" />
        <use
           height="1052.3622"
           width="744.09448"
           x="0"
           y="0"
           inkscape:tiled-clone-of="#g7751"
           xlink:href="#g7751"
           transform="translate(222.89429,106.72629)"
           id="use8854" />
        <use
           height="1052.3622"
           width="744.09448"
           x="0"
           y="0"
           inkscape:tiled-clone-of="#g7751"
           xlink:href="#g7751"
           transform="translate(208.03467,213.45258)"
           id="use8856" />
        <use
           height="1052.3622"
           width="744.09448"
           x="0"
           y="0"
           inkscape:tiled-clone-of="#g7751"
           xlink:href="#g7751"
           transform="translate(193.17505,320.17888)"
           id="use8858" />
        <use
           height="1052.3622"
           width="744.09448"
           x="0"
           y="0"
           inkscape:tiled-clone-of="#g7751"
           xlink:href="#g7751"
           transform="translate(178.31543,426.90517)"
           id="use8860" />
        <use
           height="1052.3622"
           width="744.09448"
           x="0"
           y="0"
           inkscape:tiled-clone-of="#g7751"
           xlink:href="#g7751"
           transform="translate(317.00521,0)"
           id="use8862" />
        <use
           height="1052.3622"
           width="744.09448"
           x="0"
           y="0"
           inkscape:tiled-clone-of="#g7751"
           xlink:href="#g7751"
           transform="translate(302.14559,106.72629)"
           id="use8864" />
        <use
           height="1052.3622"
           width="744.09448"
           x="0"
           y="0"
           inkscape:tiled-clone-of="#g7751"
           xlink:href="#g7751"
           transform="translate(287.28597,213.45258)"
           id="use8866" />
        <use
           height="1052.3622"
           width="744.09448"
           x="0"
           y="0"
           inkscape:tiled-clone-of="#g7751"
           xlink:href="#g7751"
           transform="translate(272.42635,320.17888)"
           id="use8868" />
        <use
           height="1052.3622"
           width="744.09448"
           x="0"
           y="0"
           inkscape:tiled-clone-of="#g7751"
           xlink:href="#g7751"
           transform="translate(257.56674,426.90517)"
           id="use8870" />
        <use
           height="1052.3622"
           width="744.09448"
           x="0"
           y="0"
           inkscape:tiled-clone-of="#g7751"
           xlink:href="#g7751"
           transform="translate(396.25652,0)"
           id="use8872" />
        <use
           height="1052.3622"
           width="744.09448"
           x="0"
           y="0"
           inkscape:tiled-clone-of="#g7751"
           xlink:href="#g7751"
           transform="translate(381.3969,106.72629)"
           id="use8874" />
        <use
           height="1052.3622"
           width="744.09448"
           x="0"
           y="0"
           inkscape:tiled-clone-of="#g7751"
           xlink:href="#g7751"
           transform="translate(366.53728,213.45258)"
           id="use8876" />
        <use
           height="1052.3622"
           width="744.09448"
           x="0"
           y="0"
           inkscape:tiled-clone-of="#g7751"
           xlink:href="#g7751"
           transform="translate(351.67766,320.17888)"
           id="use8878" />
        <use
           height="1052.3622"
           width="744.09448"
           x="0"
           y="0"
           inkscape:tiled-clone-of="#g7751"
           xlink:href="#g7751"
           transform="translate(336.81804,426.90517)"
           id="use8880" />
        <use
           height="1052.3622"
           width="744.09448"
           x="0"
           y="0"
           inkscape:tiled-clone-of="#g7751"
           xlink:href="#g7751"
           transform="translate(475.50782,0)"
           id="use8882" />
        <use
           height="1052.3622"
           width="744.09448"
           x="0"
           y="0"
           inkscape:tiled-clone-of="#g7751"
           xlink:href="#g7751"
           transform="translate(460.6482,106.72629)"
           id="use8884" />
        <use
           height="1052.3622"
           width="744.09448"
           x="0"
           y="0"
           inkscape:tiled-clone-of="#g7751"
           xlink:href="#g7751"
           transform="translate(445.78858,213.45258)"
           id="use8886" />
        <use
           height="1052.3622"
           width="744.09448"
           x="0"
           y="0"
           inkscape:tiled-clone-of="#g7751"
           xlink:href="#g7751"
           transform="translate(430.92896,320.17888)"
           id="use8888" />
        <use
           height="1052.3622"
           width="744.09448"
           x="0"
           y="0"
           inkscape:tiled-clone-of="#g7751"
           xlink:href="#g7751"
           transform="translate(416.06934,426.90517)"
           id="use8890" />
        <use
           height="1052.3622"
           width="744.09448"
           x="0"
           y="0"
           inkscape:tiled-clone-of="#g7751"
           xlink:href="#g7751"
           transform="translate(554.75912,0)"
           id="use8892" />
        <use
           height="1052.3622"
           width="744.09448"
           x="0"
           y="0"
           inkscape:tiled-clone-of="#g7751"
           xlink:href="#g7751"
           transform="translate(539.8995,106.72629)"
           id="use8894" />
        <use
           height="1052.3622"
           width="744.09448"
           x="0"
           y="0"
           inkscape:tiled-clone-of="#g7751"
           xlink:href="#g7751"
           transform="translate(525.03988,213.45258)"
           id="use8896" />
        <use
           height="1052.3622"
           width="744.09448"
           x="0"
           y="0"
           inkscape:tiled-clone-of="#g7751"
           xlink:href="#g7751"
           transform="translate(510.18026,320.17888)"
           id="use8898" />
        <use
           height="1052.3622"
           width="744.09448"
           x="0"
           y="0"
           inkscape:tiled-clone-of="#g7751"
           xlink:href="#g7751"
           transform="translate(495.32064,426.90517)"
           id="use8900" />
        <use
           height="1052.3622"
           width="744.09448"
           x="0"
           y="0"
           inkscape:tiled-clone-of="#g7751"
           xlink:href="#g7751"
           transform="translate(634.01043,0)"
           id="use8902" />
        <use
           height="1052.3622"
           width="744.09448"
           x="0"
           y="0"
           inkscape:tiled-clone-of="#g7751"
           xlink:href="#g7751"
           transform="translate(619.15081,106.72629)"
           id="use8904" />
        <use
           height="1052.3622"
           width="744.09448"
           x="0"
           y="0"
           inkscape:tiled-clone-of="#g7751"
           xlink:href="#g7751"
           transform="translate(604.29119,213.45258)"
           id="use8906" />
        <use
           height="1052.3622"
           width="744.09448"
           x="0"
           y="0"
           inkscape:tiled-clone-of="#g7751"
           xlink:href="#g7751"
           transform="translate(589.43157,320.17888)"
           id="use8908" />
        <use
           height="1052.3622"
           width="744.09448"
           x="0"
           y="0"
           inkscape:tiled-clone-of="#g7751"
           xlink:href="#g7751"
           transform="translate(574.57195,426.90517)"
           id="use8910" />
        <use
           height="1052.3622"
           width="744.09448"
           x="0"
           y="0"
           inkscape:tiled-clone-of="#g7751"
           xlink:href="#g7751"
           transform="translate(713.26173,0)"
           id="use8912" />
        <use
           height="1052.3622"
           width="744.09448"
           x="0"
           y="0"
           inkscape:tiled-clone-of="#g7751"
           xlink:href="#g7751"
           transform="translate(698.40211,106.72629)"
           id="use8914" />
        <use
           height="1052.3622"
           width="744.09448"
           x="0"
           y="0"
           inkscape:tiled-clone-of="#g7751"
           xlink:href="#g7751"
           transform="translate(683.54249,213.45258)"
           id="use8916" />
        <use
           height="1052.3622"
           width="744.09448"
           x="0"
           y="0"
           inkscape:tiled-clone-of="#g7751"
           xlink:href="#g7751"
           transform="translate(668.68287,320.17888)"
           id="use8918" />
        <use
           height="1052.3622"
           width="744.09448"
           x="0"
           y="0"
           inkscape:tiled-clone-of="#g7751"
           xlink:href="#g7751"
           transform="translate(653.82325,426.90517)"
           id="use8920" />
      </g>
      <g
         id="g8978"
         transform="matrix(0.8019364,0,0,0.8019364,594.65065,144.72242)">
        <g
           transform="translate(-199.9905,92.702962)"
           inkscape:tile-y0="360.04842"
           inkscape:tile-x0="232.11266"
           inkscape:tile-h="117.28164"
           inkscape:tile-w="99.064129"
           inkscape:tile-cy="418.68924"
           inkscape:tile-cx="281.64472"
           id="g8980">
          <path
             inkscape:connector-curvature="0"
             transform="matrix(0.81554808,0,0,0.81511865,208.00131,198.33815)"
             style="fill:none;stroke:#000000;stroke-width:10.83836174;stroke-linecap:round;stroke-linejoin:miter;stroke-miterlimit:4;stroke-opacity:1"
             d="m 69.565216,245.40565 c 3.587542,2.29205 -1.319663,5.96675 -3.809528,5.96274 -6.747381,-0.0109 -9.596943,-8.02251 -8.115933,-13.58179 2.64918,-9.94426 14.405943,-13.63131 23.354046,-10.26914 13.131701,4.93413 17.760686,20.86711 12.422337,33.12631 -7.11518,16.33958 -27.354696,21.92907 -42.898564,14.57554 -19.56037,-9.25367 -26.117337,-33.8546 -16.728741,-52.67083 11.370847,-22.78897 40.361376,-30.31705 62.443081,-18.88194 19.957766,10.33522 30.482696,33.27242 26.817776,55.22144"
             id="path8982" />
          <path
             inkscape:connector-curvature="0"
             transform="matrix(-0.81322364,-0.06153029,0.06149789,-0.81279544,340.3239,643.04235)"
             style="fill:none;stroke:#000000;stroke-width:10.83836174;stroke-linecap:round;stroke-linejoin:miter;stroke-miterlimit:4;stroke-opacity:1"
             d="m 69.565216,245.40565 c 3.587542,2.29205 -1.319663,5.96675 -3.809528,5.96274 -6.747381,-0.0109 -9.596943,-8.02251 -8.115933,-13.58179 2.64918,-9.94426 14.405943,-13.63131 23.354046,-10.26914 13.131701,4.93413 17.760686,20.86711 12.422337,33.12631 -7.11518,16.33958 -27.354696,21.92907 -42.898564,14.57554 -19.56037,-9.25367 -26.117337,-33.8546 -16.728741,-52.67083 11.370847,-22.78897 40.361376,-30.31705 62.443081,-18.88194 19.957766,10.33522 30.482696,33.27242 26.817776,55.22144"
             id="path8984" />
        </g>
        <use
           id="use8986"
           transform="translate(-14.859619,106.72629)"
           xlink:href="#g7751"
           inkscape:tiled-clone-of="#g7751"
           y="0"
           x="0"
           width="744.09448"
           height="1052.3622" />
        <use
           id="use8988"
           transform="translate(-29.719239,213.45258)"
           xlink:href="#g7751"
           inkscape:tiled-clone-of="#g7751"
           y="0"
           x="0"
           width="744.09448"
           height="1052.3622" />
        <use
           id="use8990"
           transform="translate(-44.578858,320.17888)"
           xlink:href="#g7751"
           inkscape:tiled-clone-of="#g7751"
           y="0"
           x="0"
           width="744.09448"
           height="1052.3622" />
        <use
           id="use8992"
           transform="translate(-59.438477,426.90517)"
           xlink:href="#g7751"
           inkscape:tiled-clone-of="#g7751"
           y="0"
           x="0"
           width="744.09448"
           height="1052.3622" />
        <use
           id="use8994"
           transform="translate(79.251303,0)"
           xlink:href="#g7751"
           inkscape:tiled-clone-of="#g7751"
           y="0"
           x="0"
           width="744.09448"
           height="1052.3622" />
        <use
           id="use8996"
           transform="translate(64.391684,106.72629)"
           xlink:href="#g7751"
           inkscape:tiled-clone-of="#g7751"
           y="0"
           x="0"
           width="744.09448"
           height="1052.3622" />
        <use
           id="use8998"
           transform="translate(49.532065,213.45258)"
           xlink:href="#g7751"
           inkscape:tiled-clone-of="#g7751"
           y="0"
           x="0"
           width="744.09448"
           height="1052.3622" />
        <use
           id="use9000"
           transform="translate(34.672445,320.17888)"
           xlink:href="#g7751"
           inkscape:tiled-clone-of="#g7751"
           y="0"
           x="0"
           width="744.09448"
           height="1052.3622" />
        <use
           id="use9002"
           transform="translate(19.812826,426.90517)"
           xlink:href="#g7751"
           inkscape:tiled-clone-of="#g7751"
           y="0"
           x="0"
           width="744.09448"
           height="1052.3622" />
        <use
           id="use9004"
           transform="translate(158.50261,0)"
           xlink:href="#g7751"
           inkscape:tiled-clone-of="#g7751"
           y="0"
           x="0"
           width="744.09448"
           height="1052.3622" />
        <use
           id="use9006"
           transform="translate(143.64299,106.72629)"
           xlink:href="#g7751"
           inkscape:tiled-clone-of="#g7751"
           y="0"
           x="0"
           width="744.09448"
           height="1052.3622" />
        <use
           id="use9008"
           transform="translate(128.78337,213.45258)"
           xlink:href="#g7751"
           inkscape:tiled-clone-of="#g7751"
           y="0"
           x="0"
           width="744.09448"
           height="1052.3622" />
        <use
           id="use9010"
           transform="translate(113.92375,320.17888)"
           xlink:href="#g7751"
           inkscape:tiled-clone-of="#g7751"
           y="0"
           x="0"
           width="744.09448"
           height="1052.3622" />
        <use
           id="use9012"
           transform="translate(99.064129,426.90517)"
           xlink:href="#g7751"
           inkscape:tiled-clone-of="#g7751"
           y="0"
           x="0"
           width="744.09448"
           height="1052.3622" />
        <use
           id="use9014"
           transform="translate(237.75391,0)"
           xlink:href="#g7751"
           inkscape:tiled-clone-of="#g7751"
           y="0"
           x="0"
           width="744.09448"
           height="1052.3622" />
        <use
           id="use9016"
           transform="translate(222.89429,106.72629)"
           xlink:href="#g7751"
           inkscape:tiled-clone-of="#g7751"
           y="0"
           x="0"
           width="744.09448"
           height="1052.3622" />
        <use
           id="use9018"
           transform="translate(208.03467,213.45258)"
           xlink:href="#g7751"
           inkscape:tiled-clone-of="#g7751"
           y="0"
           x="0"
           width="744.09448"
           height="1052.3622" />
        <use
           id="use9020"
           transform="translate(193.17505,320.17888)"
           xlink:href="#g7751"
           inkscape:tiled-clone-of="#g7751"
           y="0"
           x="0"
           width="744.09448"
           height="1052.3622" />
        <use
           id="use9022"
           transform="translate(178.31543,426.90517)"
           xlink:href="#g7751"
           inkscape:tiled-clone-of="#g7751"
           y="0"
           x="0"
           width="744.09448"
           height="1052.3622" />
        <use
           id="use9024"
           transform="translate(317.00521,0)"
           xlink:href="#g7751"
           inkscape:tiled-clone-of="#g7751"
           y="0"
           x="0"
           width="744.09448"
           height="1052.3622" />
        <use
           id="use9026"
           transform="translate(302.14559,106.72629)"
           xlink:href="#g7751"
           inkscape:tiled-clone-of="#g7751"
           y="0"
           x="0"
           width="744.09448"
           height="1052.3622" />
        <use
           id="use9028"
           transform="translate(287.28597,213.45258)"
           xlink:href="#g7751"
           inkscape:tiled-clone-of="#g7751"
           y="0"
           x="0"
           width="744.09448"
           height="1052.3622" />
        <use
           id="use9030"
           transform="translate(272.42635,320.17888)"
           xlink:href="#g7751"
           inkscape:tiled-clone-of="#g7751"
           y="0"
           x="0"
           width="744.09448"
           height="1052.3622" />
        <use
           id="use9032"
           transform="translate(257.56674,426.90517)"
           xlink:href="#g7751"
           inkscape:tiled-clone-of="#g7751"
           y="0"
           x="0"
           width="744.09448"
           height="1052.3622" />
        <use
           id="use9034"
           transform="translate(396.25652,0)"
           xlink:href="#g7751"
           inkscape:tiled-clone-of="#g7751"
           y="0"
           x="0"
           width="744.09448"
           height="1052.3622" />
        <use
           id="use9036"
           transform="translate(381.3969,106.72629)"
           xlink:href="#g7751"
           inkscape:tiled-clone-of="#g7751"
           y="0"
           x="0"
           width="744.09448"
           height="1052.3622" />
        <use
           id="use9038"
           transform="translate(366.53728,213.45258)"
           xlink:href="#g7751"
           inkscape:tiled-clone-of="#g7751"
           y="0"
           x="0"
           width="744.09448"
           height="1052.3622" />
        <use
           id="use9040"
           transform="translate(351.67766,320.17888)"
           xlink:href="#g7751"
           inkscape:tiled-clone-of="#g7751"
           y="0"
           x="0"
           width="744.09448"
           height="1052.3622" />
        <use
           id="use9042"
           transform="translate(336.81804,426.90517)"
           xlink:href="#g7751"
           inkscape:tiled-clone-of="#g7751"
           y="0"
           x="0"
           width="744.09448"
           height="1052.3622" />
        <use
           id="use9044"
           transform="translate(475.50782,0)"
           xlink:href="#g7751"
           inkscape:tiled-clone-of="#g7751"
           y="0"
           x="0"
           width="744.09448"
           height="1052.3622" />
        <use
           id="use9046"
           transform="translate(460.6482,106.72629)"
           xlink:href="#g7751"
           inkscape:tiled-clone-of="#g7751"
           y="0"
           x="0"
           width="744.09448"
           height="1052.3622" />
        <use
           id="use9048"
           transform="translate(445.78858,213.45258)"
           xlink:href="#g7751"
           inkscape:tiled-clone-of="#g7751"
           y="0"
           x="0"
           width="744.09448"
           height="1052.3622" />
        <use
           id="use9050"
           transform="translate(430.92896,320.17888)"
           xlink:href="#g7751"
           inkscape:tiled-clone-of="#g7751"
           y="0"
           x="0"
           width="744.09448"
           height="1052.3622" />
        <use
           id="use9052"
           transform="translate(416.06934,426.90517)"
           xlink:href="#g7751"
           inkscape:tiled-clone-of="#g7751"
           y="0"
           x="0"
           width="744.09448"
           height="1052.3622" />
        <use
           id="use9054"
           transform="translate(554.75912,0)"
           xlink:href="#g7751"
           inkscape:tiled-clone-of="#g7751"
           y="0"
           x="0"
           width="744.09448"
           height="1052.3622" />
        <use
           id="use9056"
           transform="translate(539.8995,106.72629)"
           xlink:href="#g7751"
           inkscape:tiled-clone-of="#g7751"
           y="0"
           x="0"
           width="744.09448"
           height="1052.3622" />
        <use
           id="use9058"
           transform="translate(525.03988,213.45258)"
           xlink:href="#g7751"
           inkscape:tiled-clone-of="#g7751"
           y="0"
           x="0"
           width="744.09448"
           height="1052.3622" />
        <use
           id="use9060"
           transform="translate(510.18026,320.17888)"
           xlink:href="#g7751"
           inkscape:tiled-clone-of="#g7751"
           y="0"
           x="0"
           width="744.09448"
           height="1052.3622" />
        <use
           id="use9062"
           transform="translate(495.32064,426.90517)"
           xlink:href="#g7751"
           inkscape:tiled-clone-of="#g7751"
           y="0"
           x="0"
           width="744.09448"
           height="1052.3622" />
        <use
           id="use9064"
           transform="translate(634.01043,0)"
           xlink:href="#g7751"
           inkscape:tiled-clone-of="#g7751"
           y="0"
           x="0"
           width="744.09448"
           height="1052.3622" />
        <use
           id="use9066"
           transform="translate(619.15081,106.72629)"
           xlink:href="#g7751"
           inkscape:tiled-clone-of="#g7751"
           y="0"
           x="0"
           width="744.09448"
           height="1052.3622" />
        <use
           id="use9068"
           transform="translate(604.29119,213.45258)"
           xlink:href="#g7751"
           inkscape:tiled-clone-of="#g7751"
           y="0"
           x="0"
           width="744.09448"
           height="1052.3622" />
        <use
           id="use9070"
           transform="translate(589.43157,320.17888)"
           xlink:href="#g7751"
           inkscape:tiled-clone-of="#g7751"
           y="0"
           x="0"
           width="744.09448"
           height="1052.3622" />
        <use
           id="use9072"
           transform="translate(574.57195,426.90517)"
           xlink:href="#g7751"
           inkscape:tiled-clone-of="#g7751"
           y="0"
           x="0"
           width="744.09448"
           height="1052.3622" />
        <use
           id="use9074"
           transform="translate(713.26173,0)"
           xlink:href="#g7751"
           inkscape:tiled-clone-of="#g7751"
           y="0"
           x="0"
           width="744.09448"
           height="1052.3622" />
        <use
           id="use9076"
           transform="translate(698.40211,106.72629)"
           xlink:href="#g7751"
           inkscape:tiled-clone-of="#g7751"
           y="0"
           x="0"
           width="744.09448"
           height="1052.3622" />
        <use
           id="use9078"
           transform="translate(683.54249,213.45258)"
           xlink:href="#g7751"
           inkscape:tiled-clone-of="#g7751"
           y="0"
           x="0"
           width="744.09448"
           height="1052.3622" />
        <use
           id="use9080"
           transform="translate(668.68287,320.17888)"
           xlink:href="#g7751"
           inkscape:tiled-clone-of="#g7751"
           y="0"
           x="0"
           width="744.09448"
           height="1052.3622" />
        <use
           id="use9082"
           transform="translate(653.82325,426.90517)"
           xlink:href="#g7751"
           inkscape:tiled-clone-of="#g7751"
           y="0"
           x="0"
           width="744.09448"
           height="1052.3622" />
      </g>
    </g>
    <path
       style="fill:#000000;stroke:#000000;stroke-width:1px;stroke-linecap:butt;stroke-linejoin:miter;stroke-opacity:1;fill-opacity:1"
       d="M 159.0625 0.5 C 142.4915 0.550127 126.03314 5.0819381 110.40625 11 C 73.714501 24.91865 35.125462 40.28366 8.0625 69.8125 C -12.345195 90.65642 13.329892 113.75775 29.90625 126.46875 C 67.314112 154.49324 104.45069 185.38563 149.15625 200.875 C 186.86025 203.47677 226.381 189.97997 254.21875 163.96875 C 272.57736 146.72993 271.92685 129.04883 301.1875 129.46875 C 330.44815 129.04883 329.76639 146.72993 348.125 163.96875 C 375.96275 189.97997 415.51475 203.47677 453.21875 200.875 C 497.92431 185.38563 535.02964 154.49324 572.4375 126.46875 C 589.01386 113.75775 614.7202 90.65642 594.3125 69.8125 C 567.24954 40.28366 528.62925 24.91865 491.9375 11 C 469.20748 2.39191 444.72236 -3.24288 420.6875 3.5 C 379.59633 10.17829 345.04821 55.74706 301.1875 55.0625 C 257.32679 55.74706 222.74742 10.17829 181.65625 3.5 C 174.14536 1.39285 166.59477 0.477215 159.0625 0.5 z M 159.96875 68.75 C 163.87594 68.74295 167.79139 69.03596 171.6875 69.6875 C 193.00259 71.75249 210.90453 87.02417 233.65625 86.8125 C 233.65625 99.18247 225.08443 104.87884 209.3125 119.28125 C 194.87231 127.32414 174.37059 131.52324 154.8125 130.71875 C 131.62256 125.92931 112.3732 116.35291 92.96875 107.6875 C 84.370155 103.75715 71.038986 96.63262 81.625 90.1875 C 95.663288 81.05693 115.68576 76.30377 134.71875 72 C 142.82484 70.17008 151.37291 68.7655 159.96875 68.75 z M 446 68.75 C 454.59584 68.7655 463.14391 70.17008 471.25 72 C 490.28299 76.30377 510.27421 81.05693 524.3125 90.1875 C 534.89852 96.63262 521.5986 103.75715 513 107.6875 C 493.59555 116.35291 474.31494 125.92931 451.125 130.71875 C 431.56691 131.52324 411.06519 127.32414 396.625 119.28125 C 380.85307 104.87884 372.28125 99.18247 372.28125 86.8125 C 395.03297 87.02417 412.96616 71.75249 434.28125 69.6875 C 438.17736 69.03596 442.09281 68.74295 446 68.75 z "
       transform="translate(2.405831,424.91006)"
       id="path2987" />
    <path
       inkscape:connector-curvature="0"
       id="path3768"
       d="m 161.45297,425.41047 c -16.571,0.0501 -33.02936,4.58194 -48.65625,10.5 -36.691747,13.91865 -75.280786,29.28366 -102.343748,58.8125 -20.4076949,20.84392 5.267392,43.94525 21.84375,56.65625 37.407862,28.02449 74.544438,58.91688 119.249998,74.40625 37.704,2.60177 77.22475,-10.89503 105.0625,-36.90625 18.35861,-17.23882 17.7081,-34.91992 46.96875,-34.5 29.26065,-0.41992 28.57889,17.26118 46.9375,34.5 27.83775,26.01122 67.38975,39.50802 105.09375,36.90625 44.70556,-15.48937 81.81089,-46.38176 119.21875,-74.40625 16.57636,-12.711 42.2827,-35.81233 21.875,-56.65625 -27.06296,-29.52884 -65.68325,-44.89385 -102.375,-58.8125 -22.73002,-8.60809 -47.21514,-14.24288 -71.25,-7.5 -41.09117,6.67829 -75.63929,52.24706 -119.5,51.5625 -43.86071,0.68456 -78.44008,-44.88421 -119.53125,-51.5625 -7.51089,-2.10715 -15.06148,-3.02279 -22.59375,-3 z"
       style="fill:none;stroke:#ff0000;stroke-width:14.17322826;stroke-linecap:butt;stroke-linejoin:miter;stroke-miterlimit:4;stroke-opacity:1;stroke-dasharray:none" />
    <path
       inkscape:connector-curvature="0"
       id="path4431"
       d="m 150.69667,688.34231 c -16.571,0.0501 -33.02936,4.58193 -48.65625,10.5 -36.691747,13.91865 -75.280787,29.28366 -102.34374662,58.8125 -20.40770038,20.84392 5.26739002,43.94525 21.84374962,56.65625 37.40786,28.02449 74.54444,58.91688 119.249997,74.40625 37.704,2.60177 77.22475,-10.89503 105.0625,-36.90625 18.35861,-17.23882 17.7081,-34.91992 46.96875,-34.5 29.26061,-0.41992 28.57891,17.26118 46.93751,34.5 27.8377,26.01122 67.3897,39.50802 105.0937,36.90625 44.7056,-15.48937 81.8109,-46.38176 119.2188,-74.40625 16.5763,-12.711 42.2827,-35.81233 21.875,-56.65625 -27.063,-29.52884 -65.6833,-44.89385 -102.375,-58.8125 -22.73,-8.60809 -47.2152,-14.24288 -71.25,-7.5 -41.0912,6.67829 -75.6393,52.24706 -119.50001,51.5625 -43.86071,0.68456 -78.44008,-44.88421 -119.53125,-51.5625 -7.51089,-2.10715 -15.06148,-3.02279 -22.59375,-3 z"
       style="fill:#000000;fill-opacity:1;stroke:#000000;stroke-width:1px;stroke-linecap:butt;stroke-linejoin:miter;stroke-opacity:1" />
    <path
       style="fill:none;stroke:#ff0000;stroke-width:14.17322826;stroke-linecap:butt;stroke-linejoin:miter;stroke-miterlimit:4;stroke-opacity:1;stroke-dasharray:none"
       d="m 150.69666,688.34231 c -16.571,0.0501 -33.02936,4.58194 -48.65625,10.5 -36.691737,13.91865 -75.280777,29.28366 -102.34373662,58.8125 -20.40770038,20.84392 5.26739002,43.94525 21.84374962,56.65625 37.40786,28.02449 74.54443,58.91688 119.249987,74.40625 37.704,2.60177 77.22475,-10.89503 105.0625,-36.90625 18.35861,-17.23882 17.7081,-34.91992 46.96875,-34.5 29.26062,-0.41992 28.57892,17.26118 46.93752,34.5 27.8377,26.01122 67.3897,39.50802 105.0937,36.90625 44.7056,-15.48937 81.8109,-46.38176 119.2188,-74.40625 16.5763,-12.711 42.2827,-35.81233 21.875,-56.65625 -27.063,-29.52884 -65.6833,-44.89385 -102.375,-58.8125 -22.73,-8.60809 -47.2152,-14.24288 -71.25,-7.5 -41.0912,6.67829 -75.6393,52.24706 -119.50002,51.5625 -43.86071,0.68456 -78.44008,-44.88421 -119.53125,-51.5625 -7.51089,-2.10715 -15.06148,-3.02279 -22.59375,-3 z"
       id="path4433"
       inkscape:connector-curvature="0" />
    <path
       sodipodi:nodetypes="scccccccs"
       inkscape:connector-curvature="0"
       id="path4435"
       d="m 151.60842,756.58986 c -8.59584,0.0155 -17.13322,1.41677 -25.23931,3.24669 -19.03299,4.30377 -39.050137,9.05476 -53.088427,18.18533 -10.58601,6.44512 2.73235,13.58825 11.33094,17.5186 19.404447,8.66541 38.668197,18.21761 61.858137,23.00705 19.55809,0.80449 40.05855,-3.36884 54.49874,-11.41173 15.77193,-14.40241 24.34977,-20.10964 24.34977,-32.47961 -22.75172,0.21167 -40.67479,-15.07372 -61.98988,-17.13871 -3.89611,-0.65154 -7.81278,-0.93467 -11.71997,-0.92762 z"
       style="fill:#ffffff;fill-opacity:1;stroke:#ff0000;stroke-width:14.17322826;stroke-linecap:round;stroke-linejoin:round;stroke-miterlimit:4;stroke-opacity:1;stroke-dasharray:none" />
    <path
       style="fill:#ffffff;fill-opacity:1;stroke:#ff0000;stroke-width:14.17322826;stroke-linecap:round;stroke-linejoin:round;stroke-miterlimit:4;stroke-opacity:1;stroke-dasharray:none"
       d="m 437.64698,756.58986 c 8.5958,0.0155 17.1332,1.41677 25.2393,3.24669 19.033,4.30377 39.0501,9.05476 53.0884,18.18533 10.586,6.44512 -2.7323,13.58825 -11.3309,17.5186 -19.4045,8.66541 -38.6682,18.21761 -61.8582,23.00705 -19.5581,0.80449 -40.0585,-3.36884 -54.4987,-11.41173 -15.7719,-14.40241 -24.3498,-20.10964 -24.3498,-32.47961 22.7517,0.21167 40.6748,-15.07372 61.9899,-17.13871 3.8961,-0.65154 7.8128,-0.93467 11.72,-0.92762 z"
       id="path4437"
       inkscape:connector-curvature="0"
       sodipodi:nodetypes="scccccccs" />
  </g>
</svg>
