<?xml version="1.0" encoding="UTF-8" standalone="no"?>
<!-- Created with Inkscape (http://www.inkscape.org/) -->

<svg
   xmlns:dc="http://purl.org/dc/elements/1.1/"
   xmlns:cc="http://creativecommons.org/ns#"
   xmlns:rdf="http://www.w3.org/1999/02/22-rdf-syntax-ns#"
   xmlns:svg="http://www.w3.org/2000/svg"
   xmlns="http://www.w3.org/2000/svg"
   xmlns:sodipodi="http://sodipodi.sourceforge.net/DTD/sodipodi-0.dtd"
   xmlns:inkscape="http://www.inkscape.org/namespaces/inkscape"
   width="90.784615"
   height="15.22333"
   id="svg3095"
   version="1.1"
   inkscape:version="0.48.1 "
   sodipodi:docname="Merci_Gilou.svg">
  <defs
     id="defs3097" />
  <sodipodi:namedview
     id="base"
     pagecolor="#ffffff"
     bordercolor="#666666"
     borderopacity="1.0"
     inkscape:pageopacity="0.0"
     inkscape:pageshadow="2"
     inkscape:zoom="6.9605824"
     inkscape:cx="43.097056"
     inkscape:cy="4.9018432"
     inkscape:document-units="cm"
     inkscape:current-layer="layer1"
     showgrid="false"
     fit-margin-top="0"
     fit-margin-left="0"
     fit-margin-right="0"
     fit-margin-bottom="0"
     units="cm"
     inkscape:window-width="866"
     inkscape:window-height="649"
     inkscape:window-x="125"
     inkscape:window-y="125"
     inkscape:window-maximized="0" />
  <metadata
     id="metadata3100">
    <rdf:RDF>
      <cc:Work
         rdf:about="">
        <dc:format>image/svg+xml</dc:format>
        <dc:type
           rdf:resource="http://purl.org/dc/dcmitype/StillImage" />
        <dc:title />
      </cc:Work>
    </rdf:RDF>
  </metadata>
  <g
     inkscape:label="Calque 1"
     inkscape:groupmode="layer"
     id="layer1"
     transform="translate(-85.714074,-450.43325)">
    <path
       style="font-size:20.10604286px;font-style:normal;font-variant:normal;font-weight:normal;font-stretch:normal;line-height:125%;letter-spacing:0px;word-spacing:0px;fill:#000000;fill-opacity:1;stroke:none;font-family:Xirod;-inkscape-font-specification:Xirod"
       d="M 75.3125 0 L 71.65625 0.03125 L 71.625 7.15625 C 71.62568 8.45624 71.82288 9.59544 72.21875 10.59375 C 72.61461 11.59206 73.20658 12.44839 73.9375 13.125 C 74.66842 13.80162 75.55475 14.30826 76.59375 14.65625 C 77.63272 15.0042 78.78909 15.15691 80.0625 15.15625 L 90.78125 15.15625 L 90.78125 0 L 87.09375 0 L 87.0625 11.5625 L 81 11.59375 C 77.21988 11.59575 75.34518 10.18089 75.34375 7.40625 L 75.3125 0 z M 29.0625 0.03125 L 29.0625 15.21875 L 46.65625 15.1875 L 46.65625 11.59375 L 32.78125 11.59375 L 32.75 0.0625 L 29.0625 0.03125 z M 56.34375 0.03125 C 55.15093 0.03189 54.08769 0.20678 53.15625 0.5625 C 52.55871 0.7907234 51.990868 1.0813748 51.5 1.4375 L 53.84375 4.0625 C 54.042477 3.957288 54.255309 3.8457613 54.5 3.78125 C 55.0092 3.64704 55.64212 3.59415 56.40625 3.59375 L 65.1875 3.5625 L 65.1875 7.5625 C 65.18791 8.35321 65.1026 8.9839 64.96875 9.5 C 64.948762 9.5770234 64.928677 9.6446725 64.90625 9.71875 L 67.5 12.5 C 67.863206 12.001575 68.150904 11.436488 68.375 10.8125 C 68.70957 9.88091 68.90684 8.83598 68.90625 7.65625 L 68.875 0.03125 L 56.34375 0.03125 z M 7.5625 0.0625 C 6.356186 0.06314 5.288494 0.22026 4.34375 0.5625 C 3.398993 0.90477 2.611859 1.41199 1.96875 2.0625 C 1.325628 2.71304 0.834739 3.50592 0.5 4.4375 C 0.165218 5.36911 -0.000612 6.41403 0 7.59375 L 0 15.21875 L 12.21875 15.21875 C 13.492128 15.21809 14.61305 15.08765 15.53125 14.8125 C 16.44943 14.53735 17.18966 14.04785 17.8125 13.34375 C 18.43533 12.63964 18.91557 11.69319 19.25 10.5 C 19.58401 9.30678 19.79998 7.75607 19.90625 5.90625 L 13.46875 5.9375 L 13.5 9.34375 L 15.78125 9.34375 C 15.67427 9.74592 15.5491 10.09348 15.375 10.375 C 15.20087 10.65653 14.96882 10.87459 14.6875 11.0625 C 14.40615 11.25041 14.040544 11.38144 13.625 11.46875 C 13.209437 11.55605 12.732594 11.59348 12.15625 11.59375 L 3.65625 11.625 L 3.65625 7.71875 C 3.655943 6.92806 3.723355 6.27961 3.84375 5.75 C 3.964147 5.22043 4.167426 4.78389 4.46875 4.46875 C 4.770052 4.15363 5.178082 3.94674 5.6875 3.8125 C 6.196916 3.67829 6.847785 3.62537 7.625 3.625 L 19.8125 3.59375 L 19.8125 0.0625 L 7.5625 0.0625 z M 22.53125 0.0625 C 22.53925 5.16521 22.4955 10.69859 22.5 15.21875 L 26.21875 15.21875 C 26.20045 10.21574 26.1992 4.62637 26.1875 0.0625 L 22.53125 0.0625 z M 50.21875 2.65625 C 49.81606 3.180142 49.49523 3.7991959 49.25 4.46875 C 48.9087 5.40056 48.74941 6.40978 48.75 7.5625 L 48.75 15.21875 L 61.3125 15.1875 C 62.51879 15.18688 63.59324 15.02976 64.53125 14.6875 C 65.132979 14.467943 65.675096 14.19337 66.15625 13.84375 L 63.6875 11.1875 C 63.499293 11.270806 63.31105 11.35395 63.09375 11.40625 C 62.59127 11.52721 62.00061 11.56214 61.25 11.5625 L 52.4375 11.59375 L 52.4375 7.65625 C 52.43737 6.87866 52.49788 6.23485 52.625 5.71875 C 52.647298 5.6282402 52.690635 5.5535962 52.71875 5.46875 L 50.21875 2.65625 z M 58.53125 5.75 C 57.301408 5.75 56.3125 6.6620031 56.3125 7.8125 C 56.3125 8.9629969 57.301408 9.90625 58.53125 9.90625 C 59.761092 9.90625 60.78125 8.9629969 60.78125 7.8125 C 60.78125 6.6620031 59.761092 5.75 58.53125 5.75 z "
       transform="translate(85.714074,450.43325)"
       id="path3064" />
  </g>
</svg>
