<?xml version="1.0" encoding="UTF-8" standalone="no"?>
<!-- Created with Inkscape (http://www.inkscape.org/) -->

<svg
   xmlns:dc="http://purl.org/dc/elements/1.1/"
   xmlns:cc="http://creativecommons.org/ns#"
   xmlns:rdf="http://www.w3.org/1999/02/22-rdf-syntax-ns#"
   xmlns:svg="http://www.w3.org/2000/svg"
   xmlns="http://www.w3.org/2000/svg"
   xmlns:sodipodi="http://sodipodi.sourceforge.net/DTD/sodipodi-0.dtd"
   xmlns:inkscape="http://www.inkscape.org/namespaces/inkscape"
   width="594.97681"
   height="129.05138"
   id="svg2"
   version="1.1"
   inkscape:version="0.48.1 "
   sodipodi:docname="Merci.svg">
  <defs
     id="defs4" />
  <sodipodi:namedview
     id="base"
     pagecolor="#ffffff"
     bordercolor="#666666"
     borderopacity="1.0"
     inkscape:pageopacity="0.0"
     inkscape:pageshadow="2"
     inkscape:zoom="2.1793252"
     inkscape:cx="277.14144"
     inkscape:cy="35.546391"
     inkscape:document-units="cm"
     inkscape:current-layer="layer1"
     showgrid="false"
     fit-margin-top="0"
     fit-margin-left="0"
     fit-margin-right="0"
     fit-margin-bottom="0"
     units="cm"
     inkscape:window-width="1680"
     inkscape:window-height="988"
     inkscape:window-x="-8"
     inkscape:window-y="-8"
     inkscape:window-maximized="1" />
  <metadata
     id="metadata7">
    <rdf:RDF>
      <cc:Work
         rdf:about="">
        <dc:format>image/svg+xml</dc:format>
        <dc:type
           rdf:resource="http://purl.org/dc/dcmitype/StillImage" />
        <dc:title />
      </cc:Work>
    </rdf:RDF>
  </metadata>
  <g
     inkscape:label="Calque 1"
     inkscape:groupmode="layer"
     id="layer1"
     transform="translate(-23.376272,-300.35266)">
    <path
       style="font-size:219.56755066px;font-style:normal;font-variant:normal;font-weight:bold;font-stretch:normal;line-height:125%;letter-spacing:0px;word-spacing:0px;fill:#000000;fill-opacity:1;stroke:none;font-family:Magneto;-inkscape-font-specification:Magneto Bold"
       d="m 31.386043,300.35266 -8.009771,22.8578 48.86761,0 -11.331032,104.84433 c 10.05866,-0.1267 27.034617,2.03133 32.307933,-6.90498 l 38.673677,-67.621 -8.33295,57.64717 c -1.43368,9.80698 4.61549,16.91294 12.62316,17.96349 7.26383,1.04032 13.80343,-3.07192 16.93148,-7.80445 l 32.26879,-49.36652 c -1.86346,13.9387 -6.4294,33.97346 -5.52061,47.27651 1.35694,5.86935 6.9584,8.80978 16.82044,8.80978 l 31.62021,0 c 7.74643,0 13.35103,-1.5233 16.83691,-4.55041 7.61595,3.02477 17.32088,4.55041 29.1048,4.55041 18.37582,0.0254 34.81528,0.0855 53.50063,-0.004 5.45925,0 12.56592,-3.19832 13.18827,-7.61547 l 7.19805,-39.57787 18.76167,0 c 0.50675,11.48227 -5.30846,24.73982 -2.84308,35.76822 1.76278,7.62411 7.11737,11.42892 16.04007,11.42892 l 33.72481,0 c 5.56231,-0.49968 9.90799,-1.98368 13.44638,-5.4499 6.34331,5.14751 18.97352,5.39604 27.0542,5.4499 31.69935,0.002 67.16707,-4e-4 96.24661,0 4.05036,0 50.51717,1.02431 53.56092,-0.79094 4.22588,-2.54138 13.93271,-16.42078 14.22784,-21.74557 l -86.31548,8.01227 5.38503,-47.19712 -13.29487,0 c 1.0701,-4.74219 -1.03333,-14.99597 11.15054,-18.59844 4.97278,-1.47034 15.96433,-12.39908 7.23815,-29.00764 -8.72618,-16.60856 -36.827,-16.12165 -43.90245,0.97338 -7.07545,17.09503 4.54596,24.29259 12.3124,28.16654 5.92999,2.95791 3.59451,13.6008 5.82992,18.46616 l -11.28757,0 c -1.13604,16.87544 -3.93699,31.83178 -5.23103,47.19712 l -42.65648,0 c -8.15957,2e-5 -12.85877,-2.66486 -14.08991,-7.98965 -0.68132,-7.9896 1.11969,-16.41572 2.0439,-24.68325 l 10.65128,0 c 1.20898,5.87094 4.71236,11.43938 8.47916,14.47132 13.18842,9.3634 31.43889,3.75353 27.99732,-12.11676 -3.02608,-10.04201 -12.39685,-16.75921 -21.97134,-16.87878 -25.65103,-0.73744 -37.73151,-1.17529 -50.6978,8.069 -8.33143,6.11143 -11.82657,14.59301 -10.4963,25.42403 0.64291,4.96516 2.93317,10.25445 5.65818,13.70409 l -22.30355,0 5.10269,-47.19712 -48.68794,0 2.27179,-22.14351 -14.27016,0 c -25.75098,0.93359 -29.99205,27.28764 -7.35763,36.66773 l -5.8687,32.67285 c -11.71113,-1.25855 -60.62327,5.62331 -64.017,-7.35472 -0.45824,-8.17047 1.14641,-16.90857 1.97408,-25.31818 l 18.58201,0 -6.61041,19.49792 28.15727,0 c 5.34638,-4.29609 9.74041,-9.66357 7.94999,-16.13803 -1.8353,-6.41388 -6.8804,-11.19254 -15.12167,-14.33906 -16.99835,-5.54178 -47.40669,-5.68046 -61.22884,4.81496 -11.42693,12.12158 -11.98167,27.03254 -2.69815,38.83711 l -21.25125,0 7.80259,-57.2768 c 1.22628,-7.57408 -2.08686,-15.48641 -7.9021,-18.9688 -14.56295,-5.61037 -19.12096,-0.18088 -25.92156,8.99496 l -25.7872,35.10685 6.51709,-45.74208 c 0.19459,-9.73224 -2.26942,-18.51262 -12.75245,-20.53837 -13.04426,-2.63809 -20.0514,6.6052 -25.25372,15.00911 l -27.635466,44.20765 5.930446,-56.27149 c 1.31505,-11.54904 -5.227824,-17.56241 -14.589573,-17.69892 l -58.800259,0 z"
       id="path3022"
       inkscape:connector-curvature="0"
       sodipodi:nodetypes="cccccccccccsscccccccscccccccccszzscccscccccccccccccccccccccccccccccccccccccc" />
  </g>
</svg>
