<?xml version="1.0" encoding="UTF-8" standalone="no"?>
<!-- Created with Inkscape (http://www.inkscape.org/) -->

<svg
   xmlns:dc="http://purl.org/dc/elements/1.1/"
   xmlns:cc="http://creativecommons.org/ns#"
   xmlns:rdf="http://www.w3.org/1999/02/22-rdf-syntax-ns#"
   xmlns:svg="http://www.w3.org/2000/svg"
   xmlns="http://www.w3.org/2000/svg"
   xmlns:sodipodi="http://sodipodi.sourceforge.net/DTD/sodipodi-0.dtd"
   xmlns:inkscape="http://www.inkscape.org/namespaces/inkscape"
   width="318.52411"
   height="318.63797"
   id="svg2"
   version="1.1"
   inkscape:version="0.48.1 "
   sodipodi:docname="SuperCaliFragilistic.svg">
  <defs
     id="defs4" />
  <sodipodi:namedview
     id="base"
     pagecolor="#ffffff"
     bordercolor="#666666"
     borderopacity="1.0"
     inkscape:pageopacity="0.0"
     inkscape:pageshadow="2"
     inkscape:zoom="1.6351563"
     inkscape:cx="168.9347"
     inkscape:cy="132.78346"
     inkscape:document-units="cm"
     inkscape:current-layer="layer1"
     showgrid="false"
     units="cm"
     fit-margin-top="0"
     fit-margin-left="0"
     fit-margin-right="0"
     fit-margin-bottom="0"
     inkscape:window-width="1136"
     inkscape:window-height="797"
     inkscape:window-x="225"
     inkscape:window-y="59"
     inkscape:window-maximized="0"
     showguides="true"
     inkscape:guide-bbox="true" />
  <metadata
     id="metadata7">
    <rdf:RDF>
      <cc:Work
         rdf:about="">
        <dc:format>image/svg+xml</dc:format>
        <dc:type
           rdf:resource="http://purl.org/dc/dcmitype/StillImage" />
        <dc:title />
      </cc:Work>
    </rdf:RDF>
  </metadata>
  <g
     inkscape:label="Calque 1"
     inkscape:groupmode="layer"
     id="layer1"
     transform="translate(-192.813,257.53569)">
    <g
       id="g3074">
      <path
         sodipodi:nodetypes="ccccccccccccccccccccccczcccccccccccccccccccccccccczcccccczczcccccccccccccccccccccccczzccccccccccccccccccccccccccc"
         inkscape:connector-curvature="0"
         id="path3028"
         d="m 459.19933,-253.12953 c -7.90765,11.8226 -12.70104,25.53897 -15.27574,39.46901 -2.64549,17.19086 -3.25848,33.94726 1.51957,47.82668 -2.90761,1.11934 -6.48254,3.35397 -8.15773,1.31963 -1.8045,-3.75028 -0.83835,-8.05928 -0.63982,-12.03665 0.94402,-2.58278 -2.32165,-2.60609 -3.83893,-1.63954 -2.49349,1.24868 -2.77145,4.38705 -3.07914,6.83809 0.006,3.15888 -2.03771,5.75132 -4.15884,7.87781 -1.42519,1.88467 -3.85877,2.88775 -6.19828,2.5193 -3.00407,-0.28495 -5.11344,-2.94438 -5.79838,-5.71841 -1.79454,-6.24621 1.61923,-11.64307 6.51495,-15.57185 2.76969,-2.19249 5.20213,-4.18046 8.8105,-3.79571 2.96021,0.27547 3.50225,2.71002 1.10997,3.69193 -2.07411,0.67113 -1.23708,3.09951 0.83977,2.63926 2.05389,-0.32069 4.11468,-1.08761 5.67842,-2.5193 2.15591,-1.75223 3.0587,-5.5722 0.67981,-7.5179 -2.75405,-2.22473 -6.6255,-1.82108 -9.83726,-0.99972 -6.52253,1.91244 -12.15584,6.23841 -16.39544,11.4768 -2.98355,3.89562 -5.53453,8.61832 -5.39849,13.6362 -0.56813,0.0653 -1.03245,0.20785 -1.19967,0.39989 -4.58587,4.94147 -13.57619,7.11749 -18.15494,0.99972 -6.9605,-8.18388 -0.78198,-19.90049 10.23714,-19.84419 7.16795,0.36337 1.36649,4.9699 6.35937,5.85457 6.36707,1.16372 5.24768,-10.02197 -0.70475,-12.68295 -5.95243,-2.66098 -13.44315,1.72383 -18.61101,7.07803 0.32945,-1.90952 1.09558,-5.48698 0.13323,-7.31193 -3.49354,-8.63983 -13.70848,-2.87368 -17.40842,3.55298 1.32807,-5.7084 -1.12995,-6.59141 -5.87836,-3.71897 -2.18288,1.89194 0.0646,7.12324 -0.63982,9.7173 l 0,11.27686 c -5.53867,2.72144 -9.27735,8.83293 -15.63565,9.71729 -4.84429,0.0365 -5.68429,-10.74839 -0.75979,-10.79699 5.39322,-1.6714 13.10192,-2.08234 15.4757,-8.11774 0.9071,-5.74696 -4.23573,-14.89918 -10.27714,-13.47625 -3.6758,-0.54956 -8.72635,4.19516 -9.59733,7.63787 0.26375,-8.3288 -5.75833,-16.00396 -13.79616,-18.15494 -4.87434,-1.63472 -10.09385,-1.90418 -15.19577,-1.7995 -3.9695,0.99527 -13.3999,-1.96688 -11.67674,4.79866 0.44344,7.57114 0.83785,15.13642 1.15967,22.71368 -1.15338,-5.02315 -6.05883,-7.6399 -2.1594,-12.19661 -4.19345,1.01201 -11.84974,1.88358 -13.67619,3.63899 5.02051,4.41825 0.57212,14.91677 -6.27825,11.4768 -3.96778,-3.36903 -2.92041,-10.15914 0,-13.95611 -2.10281,-0.49067 -9.43329,-2.10172 -13.67619,-1.75951 2.07618,1.12226 2.71098,4.66974 4.79866,5.11858 -3.14688,2.22867 -5.30856,7.92494 -6.7981,9.59732 -5.41022,-5.92726 -14.2763,-5.68609 -20.59427,-10.0372 -6.36807,-6.87773 5.45795,-8.75422 9.11746,-3.83893 3.02681,1.61304 7.576,7.66746 5.3985,0.91974 -0.32501,-4.38921 2.00141,-13.27091 -4.47875,-8.63759 -3.81643,2.80285 -9.25743,-4.73612 -15.91535,-6.11668 -6.65792,-1.38056 -16.86966,-0.23156 -22.07407,7.79621 -3.42892,5.52628 -0.19625,12.68348 5.3585,15.31573 5.16518,4.08445 18.1644,3.14596 15.83559,12.35656 -5.09733,6.80741 -15.01679,1.51847 -20.27435,-2.63926 -1.55703,-0.68982 0.95217,6.39664 0.31991,8.91751 0.50277,3.16391 -0.12515,10.01127 3.19911,4.91863 2.99042,-5.06065 6.8861,2.44058 14.78984,2.57255 7.90374,0.13197 21.0157,0.12478 28.43812,-8.21098 2.0839,-4.59705 3.33628,4.33556 9.6994,7.06456 6.36311,2.729 22.047,0.17344 27.61765,-9.85192 1.19066,-3.21065 1.80021,-4.25783 1.79206,-0.29178 1.17892,2.99428 -2.02969,10.53135 2.83921,9.67731 l 14.91585,0 c 0.1199,-3.21245 0.23993,-6.42488 0.3599,-9.63732 6.27852,0.1112 12.93612,-2.07968 16.8753,-7.19799 -0.88455,5.71075 -2.09235,13.88606 4.03887,17.11523 6.77601,2.83871 14.16352,-1.57398 18.11496,-7.07803 4.56011,-5.06159 2.20322,3.47646 1.91946,5.51846 4.06616,4.69106 10.58845,-0.53993 7.198,-5.59844 l 0,-13.31629 c 1.7031,-4.0292 10.55029,-16.07762 8.43765,-4.59872 1.31986,2.75194 3.008,3.52395 4.55873,3.11913 -0.57226,1.16105 -1.08225,2.36615 -1.4396,3.599 -2.61096,8.15797 2.0479,18.90253 11.31685,19.67452 6.0367,0.0461 14.10264,-1.60202 17.71506,-6.55817 1.4482,2.98632 4.24527,5.31272 7.63788,5.59844 5.21703,0.66289 9.92563,-2.51206 13.43626,-6.03832 0.99818,-0.46981 2.07344,-3.52324 2.91918,-1.91946 0.58201,2.22114 1.40358,4.40965 2.83921,6.23826 1.54374,2.64189 4.95239,1.87021 6.71813,-0.08 1.98551,-1.80404 5.28716,-2.63607 7.07803,-4.47875 1.82361,3.24375 4.46913,5.91863 8.27769,6.67814 6.48855,0.60412 11.57191,-1.54608 16.07553,-5.19855 1.04548,2.163 2.79222,4.00258 6.25245,4.34523 3.46025,0.34266 15.20626,-3.04564 12.30238,-10.46353 -2.90388,-7.41789 -7.04817,5.69265 -10.83698,3.67897 -2.65515,-1.16393 -2.91811,-4.4078 -3.19911,-6.91807 -2.21528,-7.5336 4.80754,-12.9049 2.31935,-19.0347 4.71723,-0.71149 7.06063,-5.66945 4.15885,-8.87753 -3.19488,-3.16752 -9.21481,-0.44245 -9.7173,3.79895 -0.29269,1.70254 0.68749,3.11302 2.03943,3.99888 -2.79661,1.45576 -4.08323,4.83712 -4.55873,7.47792 -0.75703,5.51479 -0.93556,11.14301 -0.23993,16.67536 -0.9682,1.66882 -2.02665,3.31683 -3.03915,3.47903 -4.52284,2.40231 -10.37721,0.68287 -13.3163,-3.39906 -2.42349,-4.25626 -4.6465,-9.41596 -3.31907,-14.39599 2.61265,-4.94117 5.71519,-9.65327 8.35767,-14.59593 7.64251,-14.68668 15.35264,-30.13983 16.1555,-46.98692 0.94508,-14.97066 -7.8017,-21.0985 -15.83559,-11.79669 z m 4.35879,5.75839 c 7.45225,1.84118 4.69284,10.52363 3.66926,16.9132 -1.02357,6.38956 -4.58363,19.71067 -13.14662,34.27255 -1.47424,1.60938 -3.59354,3.60267 -5.63843,4.55873 -0.25024,-7.61923 -0.39669,-10.1524 0.27992,-17.75505 1.61582,-11.97415 3.21356,-19.057 7.83782,-30.31156 1.03046,-2.91426 3.66517,-7.64372 6.99805,-7.67787 z m -145.21282,72.28219 c -0.79611,-3.66633 -1.43481,-7.58481 -0.56427,-10.28015 18.34089,-7.99129 11.59448,10.97605 0.56427,10.28015 z m 30.0049,-8.45994 c 4.92239,1.79649 4.75266,5.13072 -1.55956,5.47848 -3.19752,-1.40751 -2.77083,-5.95977 1.55956,-5.47848 z"
         style="font-size:50.37854385px;font-style:normal;font-variant:normal;font-weight:normal;font-stretch:normal;line-height:125%;letter-spacing:0px;word-spacing:0px;fill:#000000;fill-opacity:1;stroke:none;font-family:Snap ITC;-inkscape-font-specification:Snap ITC" />
      <path
         sodipodi:nodetypes="cccccccccccccccccczcccccccccccccccccccccccccccccccccccccccccccccccccczccccccccscccccc"
         inkscape:connector-curvature="0"
         id="path3100"
         transform="translate(192.813,-257.53569)"
         d="m 54.1875,261.625 c 2.7797,2.77378 1.31932,6.12837 1.65625,9.21875 4e-5,3.17092 -3e-5,6.36038 0,9.53125 -4.79887,-2.57586 -11.58915,-1.26789 -16.5,0.46875 -14.53449,5.8148 -22.93368,17.06012 -22.53125,28 0.15848,3.95067 3.2275,8.30719 9.5,9.5 7.31493,1.20801 14.43386,-1.6518 19.65625,-4.71875 3.65389,-2.13551 6.83328,-4.58826 9.3125,-7.34375 1.13093,1.3481 0.81624,5.9617 -0.09375,6.84375 -1.46868,3.79248 5.52551,5.22523 10,4.21875 2.319,-0.24826 3.61549,-1.17614 4.03125,-2.3125 3.71071,2.89699 9.71401,3.58267 14.625,2.28125 7.123,-1.80169 12.58877,-6.01717 16.34375,-11 4.80936,7.82208 13.05711,10.75073 20.375,11.53125 4.47728,0.18195 9.70793,-0.44905 14.15625,-1.875 l -0.9375,1.09375 37.875,0 -2.3125,-2.53125 c 10.67346,5.43484 23.75272,4.37644 30.5067,0.64107 6.75398,-3.73538 9.15141,-5.52812 10.8058,-9.04732 2.17299,6.48656 7.98888,10.65017 13.84375,11.4375 8.82873,0.52299 17.66045,0.21434 26.5,0.28125 2e-5,0.0242 0,0.0384 0,0.0625 4.27401,0.008 15.44474,0.003 19.71875,0 5.19072,-0.11719 10.37471,0.23987 15.5625,-0.0625 4.55057,-0.31546 9.33697,-4.58196 11.78125,-11.71875 2.71071,-7.93247 1.92094,-17.49227 2.03125,-26.28125 -9.73602,0.0312 -19.48275,-0.0629 -29.21875,0 -1.59166,-0.63671 -4.2954,0.22926 -4.84375,-3.5625 0.1007,-3.19418 1.61582,-4.53444 3.40625,-5.28125 10.15283,-0.65484 20.31062,-0.10883 30.46875,-0.28125 l 0,-14.03125 c -9.5976,0.24346 -19.34601,-0.36811 -28.21875,0.125 -4.54351,0.32014 -9.52895,3.12532 -11.96875,10.25 -2.71072,7.93246 -1.92094,17.46104 -2.03125,26.25 9.67404,-0.0206 19.35722,0.0407 29.03125,0 2.17668,0.13754 4.06286,-0.57224 4.9375,2.65625 0.19986,3.49281 -1.76976,5.5637 -3.71875,6.125 -9.50708,0.44887 -24.90739,0.11927 -35.125,0.1875 l 0,-24.34375 -10.96875,0 -0.15625,27.40625 c -4.73088,0.0656 -7.09625,0.0606 -9.5625,-0.21875 -3.99813,-0.23181 -8.34356,-3.03192 -9.15625,-7.875 -0.44781,-7.40372 -0.0736,-11.89444 -0.1875,-19.3125 l -13.5625,0 c -0.0331,4.59183 0.0704,9.7265 0,13.90625 -5.57575,-8.01985 -14.82104,-11.20807 -23.125,-11.25 -9.30143,0.0911 -20.34377,4.51623 -24.875,11.125 l 0,-15.875 c -2.01377,0.074 -3.63032,0.18064 -5.09375,0.28125 1.98744,-0.98304 3.72899,-2.81669 4.78125,-5.59375 1.87063,-7.24558 -6.94908,-14.18244 -14.03125,-8.875 -4.73234,5.67771 -2.87212,11.02527 1.85893,14.75253 -2.42519,0.22175 -3.68762,0.66357 -7.67143,0.80997 3.53522,3.77488 2.52728,4.47512 6.0625,8.25 0,4.58953 -1.66354,10.82401 -2.375,16.125 -4.39172,-2.05322 -6.48196,4.29068 -8.75,5.28125 -5.26118,2.1351 -11.54209,2.96028 -16.53125,-0.6875 -6.22489,-5.00209 -3.36465,-19.63911 3.84375,-20.3125 3.91462,-0.87644 10.18077,1.39052 8.96875,8.25 3.27272,2.87929 9.99931,2.7735 12.15625,-2.46875 2.0134,-5.89593 -3.13169,-9.52916 -6.5,-11.28125 -10.54771,-4.63849 -22.79582,-3.83566 -32.46875,3.78125 -0.77411,-3.17701 -2.22031,-6.25373 -4.53125,-9 -2.30056,-2.44898 -6.11136,-4.11509 -10.0625,-3.9375 -8.17142,0.0944 -15.46659,4.1053 -19.90625,9.28125 -1.31949,1.46835 -2.41492,3.03054 -3.34375,4.65625 -0.009,-7.36158 -0.006,-14.70112 0.09375,-22.0625 0.0678,-4.00349 -3.046175,-6.4383 -6.46875,-6.46875 -3.422575,-0.0304 -8.568578,2.27887 -7.0625,5 z m 40.9375,32.65625 c -1.51328,8.2445 -14.67787,22.87926 -19.84375,12.625 -3.89703,-10.43086 3.13961,-24.45727 11.25,-27.78125 7.896001,-0.54941 9.106745,9.56262 8.59375,15.15625 z m -39.75,-3.125 c 0.56185,5.60119 -4.73463,10.35438 -9.6875,14.59375 -3.0378,2.45382 -6.84012,5.39811 -12.09375,5.40625 -4.38118,-0.39843 -5.86205,-3.75089 -3.5625,-9.59375 2.29956,-5.84286 8.96262,-14.45231 18.75,-14.875 3.020588,-0.15007 6.524444,1.89814 6.59375,4.46875 z M 185.75,289.8125 c 5.61647,0.30055 9.32376,7.61047 7.625,13.65625 -1.80933,9.40765 -15.15776,6.61755 -16.125,-0.0312 -1.61764,-7.8147 2.64488,-13.51915 8.5,-13.62505 z"
         style="font-size:65.56559753px;font-style:normal;font-variant:normal;font-weight:bold;font-stretch:normal;line-height:125%;letter-spacing:0px;word-spacing:0px;fill:#000000;fill-opacity:1;stroke:none;font-family:Tekton Pro Cond;-inkscape-font-specification:Tekton Pro Cond Bold" />
      <path
         sodipodi:nodetypes="cccccccccccccccccccccccccccccczccccccccccccccccccccccccccccccccccczccccccccccscssscssccscscccsscssccccscccccccccccccccsccssccscccccccccscccccccc"
         inkscape:connector-curvature="0"
         id="path3013"
         d="m 438.5898,-71.350979 c 0,-3.79224 -7.60643,-4.31192 -12.99237,-4.27881 1.37085,2.51347 6.23883,3.89622 7.09893,6.55817 0.54731,12.06586 0.19908,24.1947 0.22323,36.2699 0.55357,3.17544 0.26927,2.67609 -3.47397,5.1916 -6.78187,-2.37116 -3.98725,-14.70347 -3.98213,-20.6273 -0.25018,-2.70812 0.46151,-5.48413 2.85743,-7.87781 0.71042,-1.43453 5.84986,-3.53436 0.71435,-3.91891 -7.46051,4.93958 -20.14395,0.48831 -27.68134,-1.83948 -3.18116,1.92836 -7.3945,3.3342 -12.01012,3.83893 -2.99711,0.80898 -7.60366,-0.98598 -8.7851,1.23965 l 0.3599,6.39822 c 7.83068,1.50646 20.04147,-2.90607 28.78437,-1.39961 l 0,11.03693 c -4.08502,0.26957 -13.40029,-4.22364 -21.07353,-4.71869 -3.86234,2.62374 -7.29378,5.40075 -9.95022,8.43765 l 0,-14.11607 -15.99554,0 c 0.0303,-1.02099 -0.003,-2.04262 -0.15996,-3.03915 2.5432,1.7026 6.29452,1.93981 9.47736,0.1199 5.94099,-3.64102 3.40159,-12.97328 -3.83893,-13.2763 -4.85177,-0.14911 -7.23661,3.59439 -8.03776,6.75812 -1.99994,-3.25995 -5.00315,-5.9009 -8.63759,-7.27798 -9.09544,-2.52091 -18.72063,-0.83527 -28.0322,-1.31963 l 0,4.11885 c -4.47755,-1.25271 -9.4781,0.0202 -14.11607,0.15996 -2.31126,0.70115 -1.93907,3.58808 -2.15939,5.47847 -0.32638,2.75468 -0.81514,5.61766 -2.1594,8.07775 -1.12244,2.81152 -4.83866,2.30554 -5.63843,-0.43987 -2.1133,-3.71783 -2.69118,-8.06562 -2.79922,-12.27658 -1.97301,-1.95727 -8.33749,-2.03424 -11.66269,-1.45137 -3.32519,0.58287 -12.7543,7.03665 -13.45032,9.48913 -18.58506,-9.08787 -44.3436,-7.11712 -55.13031,8.32944 -7.07148,11.02392 -5.08227,19.23921 0.34582,24.05685 12.65647,10.453241 19.7631,8.376481 33.45131,8.362361 7.37191,-0.0992 16.51299,-1.10991 24.29236,-5.95834 -0.43177,0.81928 -0.67774,1.65799 -0.59984,2.47931 2.78039,1.65215 17.53415,1.15804 20.4743,0.23993 1.5231,-2.98231 0.0934,-6.543751 1.55957,-9.557341 0.75944,-2.52585 1.42745,-5.56792 3.95889,-6.91807 2.40508,-0.82395 4.06455,1.82979 5.07859,3.599 2.01636,3.58892 3.096,7.72702 2.99916,11.836701 0.75845,2.54873 4.00853,1.69027 5.95835,1.63954 0.65635,0.032 7.53043,0.72248 9.59732,0.15996 l 0,2.59928 16.71535,0 0,-12.996391 c -0.90614,-5.81226 6.90373,-2.23011 9.91724,-4.23881 2.90869,-0.58377 5.42668,-2.08481 7.43792,-4.11886 l 0,21.034141 21.15411,0 0,-5.47847 c 2.1594,1.88843 4.60776,5.58085 7.71785,6.99861 l 19.91271,-10.837481 c 1.44467,-0.67498 4.07082,-2.1931 3.66107,0 -0.0356,3.751981 4.77883,8.752961 9.86706,10.837541 l 12.05479,-7.59844 c 5.61808,1.54239 11.04763,5.32155 15.44796,7.83838 l 12.67984,-7.43849 c 1.32742,2.51578 4.80163,6.58559 8.75088,7.99833 2.71773,-1.16647 5.45714,-4.34934 8.17045,-5.51902 2.01599,-1.55564 12.05471,-3.39107 7.18823,-5.038601 -3.16631,1.954721 -9.11142,2.133691 -9.50988,-1.23965 -0.30827,-8.80485 -0.0582,-17.61862 -0.13387,-26.43264 l 6.02731,-3.31908 c -5.54318,-2.30028 -5.79842,-5.36291 -10.84929,-5.67835 4.74201,-2.628398 1.90079,-7.189261 -2.38737,-7.49604 -4.28817,-0.306779 -6.50073,5.999719 -1.67554,7.29609 -4.74575,0.27186 -9.14086,4.40532 -12.23337,5.87835 l 5.7595,3.31907 0,5.11858 c 0.14837,7.55601 -0.36357,9.56422 0.31254,17.11149 -2.96148,2.87208 -7.61042,4.58573 -10.80465,3.24284 l 0,-24.27324 c 0.2009,-6.49322 -0.59198,-13.00832 0.71435,-19.47458 0.71836,-3.53693 7.83259,-4.74585 10.31353,-7.71785 -7.41186,0.9301 -15.28177,2.53037 -21.07353,6.03828 z m -96.23099,7.12057 c 1.04396,-0.0196 1.98925,0.49025 2.1244,1.85426 0.0786,1.2451 -1.51818,2.1818 -3.03485,1.85424 -4.17052,-1.1308 -1.38625,-3.66546 0.91045,-3.7085 z m -10.7634,0.0475 c 1.02941,-0.0156 1.96946,0.48826 2.1244,1.87803 0.11415,1.29938 -1.58445,2.28735 -3.15625,1.87802 -3.97649,-1.16721 -1.23284,-3.7216 1.03185,-3.75605 z m 19.89266,2.78353 c 0.88081,-0.0179 1.66199,0.62574 1.79281,2.39754 0.0655,1.6414 -1.35988,2.88045 -2.7022,2.36718 -3.39379,-1.4985 -1.02838,-4.72531 0.90939,-4.76472 z m -28.03346,3.36465 0,32.03108 c -3.16239,-5.81527 -10.2563,-12.1391 -12.51651,-14.07608 -2.31169,-1.42741 -1.87724,-4.65613 -0.19995,-6.39822 3.12949,-2.97724 10.00663,-7.24116 12.71646,-11.55678 z m 8.36672,2.2961 c 0.96649,-0.0188 1.8491,0.58523 1.99457,2.25101 0.10711,1.55743 -1.48762,2.74161 -2.96335,2.251 -3.73346,-1.39903 -1.15749,-4.46073 0.96878,-4.50201 z m 10.50803,0.78304 c 1.91425,0.0928 4.72858,2.32092 4.1743,4.97408 -4.76134,11.66698 -10.81104,-4.8376 -4.1743,-4.97408 z m 11.03559,5.58031 c 1.09675,-0.0214 2.09496,0.65918 2.26277,2.5537 0.0869,1.73841 -1.66644,3.09158 -3.32952,2.55371 -4.25461,-1.57404 -1.34608,-5.06025 1.06675,-5.10741 z m -77.01722,-3.90078 c 5.02291,1.63095 11.33611,2.32931 13.03637,5.15857 0.90326,2.54161 3.97044,4.18191 3.83893,6.99805 -0.55309,2.54951 -2.88554,4.08063 -3.99888,6.35823 -1.21474,2.0121 -4.26359,4.1874 -7.31797,6.4382 1.46443,-1.89315 2.63885,-3.91325 1.67954,-5.59844 l -17.31518,0 c -2.41674,1.91605 -5.36116,4.24415 -7.95779,4.6787 -4.92611,1.30597 -9.98396,0.74221 -14.96836,0.79978 -3.76997,-0.50449 -8.4556,-1.22082 -10.60963,-6.15829 -1.49923,-2.76398 -0.0685,-3.23953 1.68944,-2.8792 15.24525,-0.0314 31.72037,0.07 49.76135,-0.0399 3.37127,-5.7819 -3.88081,-12.95703 -7.83782,-15.7557 z m -33.24775,3.15906 c 3.14116,0.0997 7.82345,1.62337 9.63765,5.3985 l -19.86771,0 c 3.09079,-4.22957 6.13611,-5.54501 10.23006,-5.3985 z m 88.66687,5.14867 c 0.91216,-0.0178 1.74506,0.55222 1.88236,2.12439 0.10174,1.47018 -1.40392,2.58736 -2.79666,2.12439 -3.5237,-1.32007 -1.09247,-4.2097 0.9143,-4.24878 z m 11.36637,3.82496 c 1.0551,-0.0188 2.02327,0.64259 2.18204,2.4626 0.11735,1.69737 -1.59854,2.97652 -3.21072,2.43143 -4.08459,-1.53351 -1.29257,-4.85272 1.02868,-4.89403 z m -11.31689,6.46223 c 0.96152,-0.0184 1.84013,0.58187 1.98424,2.23936 0.10659,1.5495 -1.48047,2.72742 -2.94802,2.23936 -3.71415,-1.39233 -1.15157,-4.43826 0.96378,-4.47872 z m 59.35801,-4.0789 18.52864,4.87865 0,2.91918 -11.56365,5.23854 c -3.67697,-1.46676 -6.92541,-0.79135 -8.92947,-3.07914 -4.33595,-4.78635 -1.9629,-5.35138 1.96448,-9.95723 z m -59.25906,14.44727 c 1.0602,-0.0204 2.02867,0.64217 2.18799,2.469301 0.11747,1.70848 -1.63254,2.97596 -3.25072,2.43804 -4.09524,-1.53451 -1.26969,-4.862381 1.06273,-4.907341 z"
         style="font-size:57.62233734px;font-style:normal;font-weight:normal;line-height:125%;letter-spacing:0px;word-spacing:0px;fill:#000000;fill-opacity:1;stroke:none;font-family:Sans" />
      <path
         sodipodi:nodetypes="cccccccccczzccccccccccccccccccccccccccccccccccccccccczzcccccccczcccccccccccccccczzscccccccccccccccccccccccccccccccccccccccccccczcccccccccccczcccccccccccccccccccccccccccccccccscccsscccsscccccccccccccccc"
         inkscape:connector-curvature="0"
         id="path3157"
         d="m 461.45829,-145.76989 0,10.63704 c -2.41065,-0.0504 -4.98079,0.0679 -7.47792,-0.15996 0.24907,-2.42337 0.42063,-5.02553 0.2799,-7.35795 -5.91938,0.86491 -9.78662,1.14665 -15.55567,1.83949 0.0641,2.84233 -0.001,6.01618 0,8.5976 l -2.75923,4.87864 c -14.86315,1.85984 -20.65645,-5.29391 -29.4718,8.95751 0.0224,-1.91949 0.0594,-3.83848 0.0399,-5.7584 -0.62931,0.29537 -1.28258,0.55765 -1.91947,0.83977 3.47103,-4.06805 1.27459,-8.52808 -1.43971,-9.56882 -2.71431,-1.04074 -6.70747,-0.0829 -7.9959,3.4437 -1.28843,3.52664 1.40847,7.29633 4.4356,8.049 -1.30109,0.96532 -4.17836,1.45318 -6.91667,1.91505 l -0.79978,3.71896 c 1.60541,0.30457 3.30577,0.35746 4.83866,-0.27992 0.064,4.3594 -2.50817,13.16399 -4.3188,20.274362 l 0,-6.278252 -3.34139,-8.14426 -7.25566,0 c -0.15796,2.34647 -0.30978,6.98025 -2.65252,8.48346 -2.26458,-1.39542 -1.82623,-13.22514 -1.82623,-16.77463 -0.0917,-1.97958 0.40099,-4.95082 2.95917,-4.87864 2.01162,-0.14326 0.68112,-3.12825 1.03971,-4.51874 -1.02261,-2.39122 -3.11184,-5.74214 -4.77495,-7.92362 -5.6713,0 -12.57547,-0.0962 -18.24678,-0.0962 0,0.94181 0.20651,3.24808 0.30806,4.66382 -1.7498,-1.31399 -3.27968,-3.36169 -4.73054,-4.67568 -5.67131,0 -13.07162,0.22808 -18.74292,0.22808 l 0,5.76422 -6.07831,-6.00415 c -7.36193,-0.50394 -14.50274,-1.57254 -19.72518,0.91112 -5.11993,2.56732 -6.27561,7.03644 -6.80813,8.31585 -3.237,1.142 -9.2396,2.87948 -17.21451,4.09514 1.35415,2.44946 2.22491,4.70339 2.43932,7.47792 -3.94893,-3.83224 -7.99113,-5.75837 -12.15661,-5.7584 -4.31812,0.53229 -7.88007,2.06528 -9.99722,5.0386 -4.46741,-13.32345 -16.94507,-13.12816 -23.64401,-4.35992 2.38012,-9.6072 -3.96192,-0.63272 -10.82639,-0.43875 3.37552,-3.54846 2.84466,-12.96811 -2.49416,-13.83835 -5.81507,1.01642 -13.4414,1.68178 -21.13924,1.68174 -7.66454,4e-5 -12.37988,-0.73976 -14.19604,-2.23938 l -0.47987,6.23827 c 1.94584,0.82653 4.03454,1.57928 5.83837,0.95379 -1.90658,11.18896 -1.41377,21.2605 0.15996,32.236952 -1.11318,2.4151 -2.92702,2.08651 -4.71869,3.07914 -0.37261,1.08192 -0.11884,2.25251 0.04,3.2391 7.21466,-1.59955 14.16271,-3.01916 20.79421,-4.3188 -1.71621,-3.44903 -3.33283,-7.524232 -5.16563,-14.488962 2.68803,-0.66253 5.72528,-0.96615 6.08538,1.93246 -0.14967,4.34279 4.07526,2.78884 6.95806,2.43932 -0.53548,-3.32898 -0.68569,-6.14637 -0.39989,-9.37587 -10.12243,0.0788 -14.61383,-0.73891 -14.67591,-7.69936 -0.0542,-8.69579 17.10343,-7.7814 17.56697,-4.79867 0.46355,2.98272 -4.75937,1.00147 -4.84033,5.76533 -0.081,4.76385 10.42577,3.7136 12.46634,8.15082 -0.0863,4.7552 -0.68929,8.61214 -1.23965,13.036372 -3.73523,1.35275 -6.12719,2.68304 -3.47904,6.87808 9.1969,-1.94291 17.18066,-3.07003 25.59288,-2.83921 0.33322,-1.48291 0.64645,-2.74922 0.87975,-3.79894 -3.16499,-0.39807 -6.79351,-0.20407 -9.3174,-1.919462 -2.27459,-6.67327 -3.58081,-12.73731 2.21706,-17.0427 3.13738,-1.90195 9.55281,-2.29887 9.86841,0.90488 -7.30187,1.2255 -6.0929,7.98921 -3.75151,9.81075 2.34139,1.82154 5.66827,-0.0305 8.50135,-0.99089 -1.71439,7.857672 -2.18643,14.870182 9.87723,14.635932 5.23996,-0.0854 11.08795,-1.75217 15.03581,-4.75868 0.3038,1.89966 -0.40742,4.4896 -0.7198,5.99833 6.65158,-2.45526 12.01769,-2.91687 19.71451,-3.63898 3.03936,4.12325 8.88446,7.00756 14.09376,7.28983 8.33283,-2.45526 8.07603,-1.3712 10.41941,-0.2118 l 5.23855,0 c 0.009,-1.35504 -0.0351,-2.72315 -0.0399,-4.07887 1.5993,1.35793 3.87225,2.75799 4.87864,4.07887 l 20.19438,0 0,-2.39934 c 1.10616,0.78658 2.17542,1.58061 2.79922,2.39934 l 27.11245,0 c 3.84882,0.1762 10.56553,0.59464 15.15587,-0.11997 -0.18085,-2.61572 0.24119,-10.13964 0.47987,-15.835592 1.14463,0.72291 2.25099,2.77536 4.59745,2.91566 2.34647,0.14029 15.61513,-0.99601 17.06011,1.390282 1.44499,2.38628 -4.34718,4.19049 -7.05922,4.19049 -5.1373,0 -8.45083,-0.40491 -12.51892,-2.17819 -0.96488,2.26876 -1.69,4.19375 -2.1594,5.7584 3.83339,2.34698 8.61893,4.81634 14.356,4.81634 5.50806,-0.069 11.74406,-2.05356 15.7956,-5.89604 1.8157,-1.99788 2.91607,-3.79261 3.67898,-6.07831 4.6453,4.87697 12.76316,9.45417 20.50962,11.66728 3.76229,0.16917 8.57891,0.53865 12.48826,0.53865 l 0.15289,-9.04681 c 2.8359,9.06672 11.72373,9.4757 17.55511,9.55734 5.71548,0 10.46162,-1.87798 14.23603,-5.59844 4.36748,-4.31358 6.40178,-11.458872 6.07831,-21.434032 l -15.99554,0 c -0.16132,3.70503 1.19885,12.85203 -4.3188,12.95639 -5.30774,-0.80021 -5.77706,-7.49629 -5.79839,-10.99694 0.29789,-4.43137 0.25923,-13.17271 6.1183,-13.2763 3.88343,0.66963 3.81588,7.24973 4.07886,9.39738 l 16.0402,-0.15289 c 0.26979,-14.29828 -6.3059,-23.3154 -20.11906,-23.48053 -8.1724,0.96772 -14.04021,4.45266 -17.87502,10.71702 l 0,-2.23938 -9.23743,0 c 0.0809,-0.47335 0.19037,-1.02411 0.27992,-1.55956 l 8.95751,0 0,-13.47625 c -3.95891,-7e-5 -7.91789,1.3e-4 -11.87677,-8e-5 z m 4.11885,4.15884 3.63899,0 0,5.15856 -3.63899,0 z m 25.63287,7.5579 c 8.07111,0.13677 13.45021,6.21221 13.83614,13.2763 l -5.15856,0 c -0.75083,-4.98192 -3.87486,-9.2963 -8.67758,-9.3574 -9.55646,0.64781 -11.27084,12.12611 -11.31685,18.43487 0.11935,7.41327 3.14611,16.032342 10.99693,16.155502 8.48832,0.0308 9.93608,-7.610772 9.79728,-12.916402 l 5.43848,0 c 0.0352,9.583992 -6.60358,16.686702 -15.23576,16.795322 -11.33567,-0.54029 -16.38709,-11.135502 -16.47541,-20.034422 0.58627,-11.11802 5.19579,-22.17331 16.79533,-22.35377 z m -162.74761,2.40046 0.15289,16.43429 -6.31825,0 c -0.16041,-4.43944 0.0968,-11.66718 -4.83491,-11.72973 -4.93167,-0.0626 -6.16839,4.35239 -6.36197,8.77055 0.042,4.33838 -0.0845,8.66265 0.08,12.99638 0.40168,2.71601 1.47841,6.120722 4.47875,6.878092 2.54092,0.69176 7.02138,-0.66937 7.47792,-3.479032 0.47722,-7.15554 -2.66193,-3.74717 -2.47931,-9.67731 4.19718,0 6.19993,0.11997 10.39711,0.11997 0,1.55602 -0.12817,2.17001 -0.12817,3.72603 -1.28063,0.10316 -2.42614,-0.31222 -2.95098,1.31257 -0.47389,4.10521 -0.27992,7.519432 -0.27992,11.716732 l -3.27909,0 c -4.2173,2.24205 -11.59077,1.23194 -14.87938,-2.32288 -2.69984,-3.102432 -4.22698,-6.834642 -4.16477,-11.116902 0.6475,-7.51403 -1.03162,-17.875 3.91071,-21.58738 4.94232,-3.71238 12.52173,-2.08239 19.17937,-2.04138 z m 10.18567,-0.50699 13.81117,-0.10811 c 0.15215,3.35578 -2.32843,2.25102 -3.04975,3.97303 -1.01287,2.40835 -0.57303,5.05703 -0.67981,7.59789 0.0216,6.21144 -0.0397,12.42468 0.0399,18.63481 0.0774,1.48066 0.50254,3.585212 2.31935,3.718962 0.49744,0.20346 1.47419,-0.008 1.63955,0.47987 l 0,3.27908 -14.83587,0 0,-3.0968 c 1.21577,-0.25117 4.11486,-0.0424 4.65043,-1.4584 0.8796,-2.422952 0.3791,-5.757382 0.48341,-8.281222 l -0.0765,-17.11524 c -0.0732,-1.68259 -0.14011,-3.964 -1.81829,-4.87864 -2.07673,-1.16043 -2.43566,-1.17384 -2.48359,-2.74523 z m 33.43517,4.82465 c -0.66321,2.91471 -0.17591,5.91905 -0.31991,8.87753 0.0427,5.16052 -0.12988,10.36172 0.08,15.51568 0.2327,2.20639 3.00329,5.138152 5.13183,4.991172 2.22954,0.19035 4.92947,-0.82245 5.98508,-3.151682 1.13904,-1.52901 0.93484,-3.92687 0.79977,-5.15856 1.04975,0.0915 1.98275,0.13104 3.03916,0.15995 l 0,11.516792 -25.91279,0 0,-3.47903 c 1.45676,-0.12987 3.41884,-0.39098 3.55901,-2.239372 0.63866,-2.90825 0.23968,-5.92625 0.3599,-8.87753 -4e-5,-5.12707 1.2e-4,-10.22874 0,-15.35573 0.0161,-1.91915 -0.0871,-4.68126 -2.59928,-4.75867 -1.03398,-1.09561 -0.63653,-1.56925 -0.7189,-2.70045 4.8213,0 9.16948,0.0739 13.99079,0.0739 1.06688,3.26668 -3.16496,2.33361 -3.39466,4.586 z m 93.4939,0.71981 3.63899,0 0,33.950552 -3.63899,0 z m -4.11885,1.55957 0,24.7931 c -2.70954,-1.54845 -4.91561,-4.79373 -6.07831,-6.31825 -1.39473,-1.8191 -2.07946,-4.27441 -2.07942,-7.31796 -4e-5,-1.88906 0.1217,-5.41953 0.3599,-10.59705 3.13902,-0.13675 5.71972,-0.31608 7.79783,-0.55984 z m -22.95361,1.83949 c -0.30943,5.12751 -0.92262,8.68681 -1.35962,13.67619 -16.81075,2.358 -25.46328,-3.23948 -20.27435,-7.11802 4.41051,-2.88478 14.78393,2.67938 17.83503,3.87892 0.63311,-3.68709 2.22294,-7.03934 2.91919,-10.3971 0.3012,-0.0189 0.61104,-0.0282 0.87975,-0.04 z m -136.83003,2.51186 c 0.0968,6.68935 -1.60101,14.16441 0.23851,19.63011 -2.0376,-0.62544 -3.41324,-0.45555 -5.04907,0.53169 1.94625,-6.69091 2.06261,-12.32348 1.91942,-18.55483 0.8124,-1.02041 1.8967,-1.22948 2.89114,-1.60697 z m -17.90795,12.91861 c 0.79613,2.20923 -4.74292,6.04966 -7.90475,5.98868 -3.16184,-0.061 -8.50594,-0.15922 -7.74982,-3.86404 2.41877,-5.51527 13.98973,-5.89422 15.65457,-2.12464 z"
         style="font-size:40px;font-style:normal;font-weight:normal;line-height:125%;letter-spacing:0px;word-spacing:0px;fill:#000000;fill-opacity:1;stroke:none;font-family:Ravie;-inkscape-font-specification:Ravie" />
    </g>
  </g>
</svg>
